<svg width="129" height="110" viewBox="0 0 129 110" fill="none" xmlns="http://www.w3.org/2000/svg">
<path d="M63 110C97.7939 110 126 101.717 126 91.5C126 81.2827 97.7939 73 63 73C28.2061 73 0 81.2827 0 91.5C0 101.717 28.2061 110 63 110Z" fill="#263238"/>
<path d="M103.549 81.9545C103.313 81.8865 103.071 81.8393 102.827 81.8132L76.4332 70.741H50.1729L24.2919 80.9659C21.665 81.8415 17.9164 86.9661 20.0429 93.0913C20.0994 93.2648 20.164 93.4303 20.2285 93.5917C21.9273 97.8527 26.6484 100.076 31.0789 98.8655C34.654 97.9132 39.7906 96.5131 45.0806 95.0645H45.6738L62.1369 90.3918L76.1589 94.2534C83.4825 96.271 91.6899 98.5104 96.758 99.8662C101.197 101.049 105.914 98.8332 107.612 94.5722C107.677 94.4108 107.737 94.2453 107.798 94.0759C109.924 87.9708 106.176 82.8261 103.549 81.9545Z" fill="#455A64"/>
<path d="M61.9351 90.4523C61.9351 90.4523 61.9634 90.4523 62.0239 90.416L62.2902 90.3353L63.3353 90.0287L67.2776 88.9069L67.2332 88.9836C66.5553 86.4859 65.6474 83.165 64.6023 79.3276L64.6951 79.3962H61.9916C61.0595 79.3962 60.1113 79.4809 59.1348 79.5213L53.058 79.8562C45.5527 80.292 38.7657 80.7964 33.855 81.1959L28.0404 81.676L26.4587 81.8052L26.0552 81.8334H25.918C25.9624 81.8194 26.0086 81.8112 26.0552 81.8092L26.4587 81.7608L28.0364 81.5913C29.4083 81.4541 31.3936 81.2604 33.8469 81.0425C38.7536 80.6067 45.5487 80.0781 53.0499 79.6423L59.1308 79.3155C60.1032 79.2752 61.0595 79.2066 61.9916 79.1945H64.7718V79.2671C65.7927 83.1085 66.6764 86.4374 67.3381 88.9513V89.0118H67.2776L63.3192 90.0771L62.266 90.3515L61.9957 90.4201L61.9351 90.4523Z" fill="#263238"/>
<path d="M53.3807 79.6424C52.8112 79.387 52.2876 79.0393 51.8313 78.6135C51.328 78.2417 50.8914 77.7874 50.54 77.2698C51.0374 77.6358 51.513 78.0306 51.9644 78.4521C52.4609 78.8189 52.9339 79.2165 53.3807 79.6424Z" fill="#263238"/>
<path d="M100.438 82.9068C100.317 82.9166 100.196 82.9166 100.075 82.9068L99.0421 82.8463L95.2371 82.584L82.6879 81.7407L70.1348 80.9821L66.3458 80.748L65.3088 80.6794C65.1883 80.6752 65.0682 80.6617 64.9497 80.6391C65.0707 80.632 65.1919 80.632 65.3129 80.6391L66.3458 80.6714L70.159 80.8287C73.3871 80.978 77.8257 81.2322 82.7202 81.5268C87.6148 81.8214 92.0574 82.1724 95.2653 82.4347L99.0623 82.7615L100.095 82.8624C100.211 82.8678 100.325 82.8826 100.438 82.9068Z" fill="#263238"/>
<path d="M101.136 85.5256C101.062 85.1055 100.963 84.6905 100.837 84.2827C100.66 83.9004 100.46 83.5286 100.24 83.1691C100.629 83.4043 100.916 83.7752 101.047 84.2101C101.241 84.6219 101.273 85.0915 101.136 85.5256Z" fill="#263238"/>
<path d="M62.3711 82.4024C62.6718 82.1074 63.0452 81.8971 63.4533 81.7929C63.8615 81.6888 64.29 81.6944 64.6953 81.8092C64.6953 81.8698 64.1425 81.8092 63.505 81.9989C62.8674 82.1885 62.4074 82.4549 62.3711 82.4024Z" fill="#263238"/>
<path d="M63.0854 84.0688C63.4241 83.9253 63.787 83.8472 64.1548 83.8388C64.5155 83.7591 64.8884 83.7508 65.2523 83.8146C64.9136 83.9582 64.5508 84.0363 64.183 84.0446C63.8222 84.1244 63.4494 84.1326 63.0854 84.0688Z" fill="#263238"/>
<path d="M63.4081 86.0057C63.4081 85.9452 63.9932 85.929 64.6751 85.7273C65.357 85.5255 65.8655 85.235 65.8856 85.2834C65.5518 85.5834 65.1545 85.8042 64.7234 85.9293C64.2923 86.0543 63.8386 86.0805 63.396 86.0057H63.4081Z" fill="#263238"/>
<path d="M64.0498 88.0918C64.0498 88.0313 64.6107 87.9829 65.2603 87.7407C65.91 87.4986 66.3579 87.1678 66.3942 87.2162C66.1296 87.5654 65.7585 87.8189 65.337 87.9385C64.9357 88.1269 64.4842 88.1807 64.0498 88.0918Z" fill="#263238"/>
<path d="M76.0824 78.6417C75.8199 79.0687 75.523 79.4736 75.1946 79.8522C74.9221 80.2785 74.6172 80.6832 74.2827 81.0628C74.6636 80.114 75.2836 79.2799 76.0824 78.6417Z" fill="#263238"/>
<path d="M127.812 53.5959C127.182 53.6322 122.352 54.4392 122.352 54.4392C128.353 52.8252 128.558 52.1392 128.405 51.7034C128.252 51.2676 122.8 52.7727 122.8 52.7727C123.16 52.1458 123.383 51.45 123.454 50.731C123.595 48.9757 121.529 47.3778 120.88 47.6159C120.23 47.8539 120.496 48.7013 120.496 48.7013C122.413 49.6899 122.11 52.0101 120.496 52.7081C118.882 53.4062 118.015 51.3846 118.947 50.5332C120.993 48.665 119.754 48.2978 119.754 48.2978L115.214 52.3329C115.17 52.3531 111.538 53.269 111.538 53.269L96.0074 56.3639L89.6642 47.0833L83.0063 53.0673C83.0063 53.0673 84.2169 54.4997 89.4867 61.6257C90.5061 63.0133 91.9295 64.0519 93.5619 64.5994C95.1943 65.1469 96.9561 65.1766 98.606 64.6843L114.056 60.0359L114.085 60.1085V60.0561L122.679 57.8529C122.679 57.8529 125.447 57.0459 126.097 56.8724C126.956 56.6303 126.904 55.9685 126.202 55.9483C125.94 55.9483 122.716 56.0532 122.716 56.0532L127.529 54.7257C129.026 54.306 128.421 53.5676 127.812 53.5959Z" fill="#FFBE9D"/>
<path d="M40.852 43.1531L34.5129 52.4338L18.9819 49.3348C18.9819 49.3348 15.3503 48.435 15.2696 48.4068L10.7301 44.3717C10.7301 44.3717 9.51959 44.7389 11.5371 46.6071C12.4692 47.4585 11.5856 49.4801 9.98767 48.782C8.38977 48.084 8.09118 45.7678 9.98767 44.7752C9.98767 44.7752 10.254 43.9318 9.58416 43.6938C8.91433 43.4557 6.86854 45.0496 7.00977 46.8048C7.08084 47.5253 7.30362 48.2225 7.66346 48.8506C7.66346 48.8506 2.19995 47.3415 2.05872 47.7773C1.91749 48.2131 2.12328 48.9152 8.11135 50.5131C8.11135 50.5131 3.26925 49.7061 2.65188 49.6738C2.03451 49.6415 1.44135 50.3799 2.95047 50.7996L7.83696 52.1473C7.83696 52.1473 4.6089 52.0383 4.35065 52.0464C3.66469 52.0464 3.59609 52.7243 4.45556 52.9664L7.87328 53.9469L16.468 56.1541V56.2066L16.4963 56.1299L31.9466 60.7824C33.5954 61.2672 35.3536 61.2321 36.9817 60.682C38.6099 60.1318 40.0289 59.0932 41.0457 57.7076C46.3236 50.5817 47.5261 49.1492 47.5261 49.1492L40.852 43.1531Z" fill="#FFBE9D"/>
<path d="M78.0756 71.3422L75.4649 59.6405C75.5981 58.0063 77.4824 47.6764 77.7165 47.0631L86.2144 59.4387L96.1407 55.2624C96.1407 55.2624 87.7073 41.1396 84.0354 35.8496C79.5242 29.3733 70.7196 28.6793 70.7196 28.6793L59.373 28.8326C59.373 28.8326 51.4481 27.0733 43.4949 37.7542L34.3716 52.1473L42.2077 56.134C42.5694 56.3316 42.9887 56.3966 43.3932 56.3178C43.7978 56.2389 44.162 56.0212 44.423 55.7022L50.8589 47.858L52.8119 58.9182L50.0963 68.3038C50.0963 68.3038 47.6188 68.6306 48.0788 71.6489C48.0788 71.6489 56.1489 75.4419 63.7591 74.9738C71.3693 74.5057 78.0756 71.3422 78.0756 71.3422Z" fill="#FF725E"/>
<path d="M73.8429 52.2845C73.838 52.3514 73.8216 52.4169 73.7944 52.4782C73.7541 52.5992 73.6976 52.7808 73.6048 53.0108C73.351 53.6561 73.0475 54.2808 72.6969 54.879C71.5422 56.8724 69.9288 58.5617 67.9905 59.8066C66.0523 61.0515 63.845 61.8163 61.552 62.0373C60.8617 62.1085 60.1668 62.1246 59.4739 62.0857C59.2278 62.0857 59.0381 62.0454 58.9131 62.0333C58.8458 62.0333 58.779 62.0224 58.7153 62.001C58.9694 61.9879 59.2239 61.9879 59.478 62.001C60.1657 62.0082 60.8531 61.9704 61.5359 61.888C63.7949 61.6301 65.9647 60.8572 67.878 59.6288C69.7913 58.4003 71.3971 56.7492 72.5718 54.8024C72.9309 54.2164 73.2504 53.6071 73.5281 52.9785C73.6204 52.7416 73.7255 52.51 73.8429 52.2845Z" fill="#263238"/>
<path d="M87.3925 59.1038C87.3481 59.1401 87.0334 58.8173 86.7752 58.329C86.5871 58.0479 86.4835 57.7189 86.4766 57.3808C86.5331 57.3606 86.7106 57.7601 86.9608 58.2282C87.1422 58.5 87.2873 58.7943 87.3925 59.1038Z" fill="#263238"/>
<path d="M89.4062 58.1717C89.3537 58.1959 89.152 57.8287 88.9099 57.3849C88.7266 57.1269 88.59 56.8387 88.5063 56.5335C88.5507 56.5012 88.8332 56.824 89.0834 57.284C89.2693 57.5452 89.3809 57.852 89.4062 58.1717Z" fill="#263238"/>
<path d="M91.7341 56.941C91.6898 56.9733 91.4033 56.6343 91.1006 56.1865C90.8876 55.9316 90.7308 55.6346 90.6406 55.3149C90.689 55.2826 90.9755 55.6215 91.2741 56.0694C91.4872 56.3243 91.644 56.6213 91.7341 56.941Z" fill="#263238"/>
<path d="M94.0265 55.8071C93.97 55.8071 93.8046 55.4803 93.5907 55.0606C93.3769 54.641 93.1872 54.3101 93.2357 54.2738C93.2841 54.2375 93.5544 54.532 93.7764 54.9678C93.9427 55.2158 94.0299 55.5085 94.0265 55.8071Z" fill="#263238"/>
<path d="M35.8888 52.5266C35.8404 52.4944 36.0058 52.1635 36.26 51.7842C36.5142 51.4049 36.7523 51.1265 36.8007 51.1587C36.8491 51.191 36.6837 51.5219 36.4335 51.9012C36.1833 52.2805 35.9372 52.5589 35.8888 52.5266Z" fill="#263238"/>
<path d="M39.0724 52.0989C38.9653 52.4284 38.7908 52.7321 38.56 52.9906C38.2251 53.4466 37.9184 53.7976 37.874 53.7573C37.983 53.4285 38.1573 53.1252 38.3865 52.8655C38.7214 52.4096 39.0281 52.0585 39.0724 52.0989Z" fill="#263238"/>
<path d="M41.1628 53.4991C41.1299 53.802 41.0278 54.0933 40.8642 54.3505C40.6463 54.7984 40.4284 55.1575 40.376 55.1131C40.4088 54.8101 40.511 54.5188 40.6746 54.2617C40.8925 53.8138 41.1104 53.4708 41.1628 53.4991Z" fill="#263238"/>
<path d="M43.2409 54.8185C43.2853 54.8549 43.0512 55.2221 42.7244 55.5933C42.3976 55.9645 42.0909 56.2712 42.0465 56.2349C42.0021 56.1985 42.2321 55.8313 42.563 55.4601C42.8939 55.0889 43.1965 54.7822 43.2409 54.8185Z" fill="#263238"/>
<path d="M49.8017 72.1532C49.5716 71.6786 49.4953 71.1439 49.5836 70.6239C49.6718 70.1038 49.9202 69.6242 50.294 69.252C50.0805 69.7027 49.9155 70.1747 49.8017 70.6603C49.7476 71.1565 49.7476 71.657 49.8017 72.1532Z" fill="#263238"/>
<path d="M52.013 72.9966C51.9888 72.9966 51.8839 72.8836 51.7911 72.6415C51.6715 72.321 51.6301 71.9765 51.67 71.6368C51.7066 71.2959 51.8227 70.9683 52.009 70.6804C52.1543 70.4626 52.2834 70.3657 52.3035 70.3819C52.1115 70.7865 51.9757 71.2155 51.9 71.6569C51.874 72.1066 51.9121 72.5577 52.013 72.9966Z" fill="#263238"/>
<path d="M54.547 71.3664C54.6295 71.7646 54.6431 72.1741 54.5874 72.5769C54.6045 72.9874 54.5471 73.3975 54.4179 73.7874C54.3379 73.3889 54.3243 72.9799 54.3776 72.5769C54.3647 72.1667 54.422 71.7573 54.547 71.3664Z" fill="#263238"/>
<path d="M58.0089 72.0685C58.0654 72.0967 57.8112 72.6334 57.7507 73.3395C57.6902 74.0457 57.8233 74.6227 57.7507 74.6388C57.5621 74.2266 57.4856 73.7719 57.5288 73.3206C57.572 72.8694 57.7335 72.4375 57.9968 72.0685H58.0089Z" fill="#263238"/>
<path d="M60.6966 72.4801C60.7094 72.908 60.7 73.3363 60.6684 73.7633C60.7027 74.1941 60.7121 74.6266 60.6966 75.0585C60.3739 74.2335 60.3739 73.3172 60.6966 72.4922V72.4801Z" fill="#263238"/>
<path d="M64.0173 74.9697C63.9354 74.5241 63.8788 74.0741 63.8479 73.622C63.7493 73.1792 63.6806 72.7303 63.6421 72.2783C63.879 72.6786 64.0173 73.1295 64.0456 73.5938C64.1498 74.0477 64.1401 74.5204 64.0173 74.9697Z" fill="#263238"/>
<path d="M67.532 74.7196C67.4715 74.7196 67.532 74.1466 67.4392 73.4646C67.3464 72.7827 67.1083 72.2541 67.1648 72.2339C67.4502 72.5761 67.6197 72.9999 67.649 73.4445C67.7463 73.8712 67.7053 74.3177 67.532 74.7196Z" fill="#263238"/>
<path d="M70.998 73.9771C70.9375 73.9771 70.9213 73.4001 70.7559 72.7182C70.5905 72.0363 70.3524 71.5077 70.4049 71.4875C70.6986 71.821 70.8917 72.2309 70.9617 72.6698C71.0998 73.0929 71.1124 73.547 70.998 73.9771Z" fill="#263238"/>
<path d="M73.9157 73.1903C73.8659 72.7632 73.7946 72.339 73.7018 71.9192C73.5001 71.2413 73.1248 70.7853 73.1732 70.745C73.5162 71.0401 73.7682 71.4268 73.8996 71.8598C74.0311 72.2928 74.0367 72.7542 73.9157 73.1903Z" fill="#263238"/>
<path d="M76.49 72.234C76.4294 72.234 76.49 71.6207 76.3124 70.9145C76.1349 70.2084 75.8161 69.704 75.8685 69.6596C76.1853 69.9987 76.4089 70.414 76.5178 70.8651C76.6267 71.3162 76.6171 71.7877 76.49 72.234Z" fill="#263238"/>
<path d="M86.4364 40.611L86.3274 40.6312L86.0006 40.6716L84.7538 40.8128C84.209 40.8733 83.5432 40.9419 82.7725 41.0024C82.0018 41.063 81.1182 41.1477 80.1457 41.2042C78.1968 41.3414 75.8766 41.4422 73.2861 41.4987C70.6955 41.5552 67.8669 41.523 64.889 41.4059C61.9111 41.2889 59.0785 41.071 56.5082 40.8249C53.9378 40.5787 51.6338 40.2761 49.705 39.9816C48.7366 39.8524 47.869 39.6951 47.1024 39.578C46.3357 39.461 45.678 39.3359 45.1454 39.231L43.9106 38.993L43.5919 38.9244L43.4829 38.8961H43.5959L43.9187 38.9445L45.1575 39.1423C45.6941 39.2351 46.368 39.344 47.1226 39.457C47.8771 39.57 48.7568 39.7112 49.7252 39.8363C51.654 40.1107 53.962 40.381 56.5283 40.6433C59.0947 40.9056 61.9233 41.0831 64.8971 41.2082C67.871 41.3333 70.7036 41.3454 73.282 41.3172C75.8604 41.2889 78.1806 41.184 80.1417 41.067C81.1141 41.0226 81.9938 40.95 82.7685 40.8975C83.5432 40.8451 84.205 40.7926 84.7497 40.7442L86.0006 40.6433L86.3274 40.6231L86.4364 40.611Z" fill="#263238"/>
<g opacity="0.2">
<path d="M59.2037 62.0817C58.3867 61.8484 57.6324 61.4348 56.9965 60.8712C56.4074 60.2578 56.1411 59.2571 56.6172 58.547C56.8401 58.2729 57.1299 58.061 57.4585 57.9317C57.7872 57.8023 58.1437 57.7599 58.4935 57.8085C59.1897 57.9137 59.8775 58.0688 60.5514 58.2726C61.575 58.4918 62.6347 58.4791 63.6527 58.2354C64.6707 57.9917 65.6212 57.5233 66.4346 56.8643C67.6209 55.8919 68.4521 54.5482 69.5537 53.4829C69.8732 53.1144 70.3113 52.8689 70.7925 52.7889C71.6318 52.7243 72.3016 53.5959 72.2976 54.4473C72.2935 55.2987 71.8214 56.0614 71.3009 56.707C69.8056 58.577 67.8789 60.0562 65.6861 61.0177C63.4933 61.9792 61.0999 62.3941 58.7114 62.227" fill="black"/>
</g>
<g opacity="0.2">
<path d="M51.4441 68.8848C54.7691 70.9589 58.792 71.7094 62.7061 71.6327C66.6201 71.556 70.4897 70.7611 74.3231 69.9581C74.6778 69.9191 75.014 69.7791 75.2915 69.5546C75.3572 69.4962 75.4104 69.425 75.4478 69.3454C75.4852 69.2658 75.506 69.1794 75.5091 69.0915C75.5121 69.0036 75.4972 68.9159 75.4654 68.834C75.4335 68.752 75.3853 68.6773 75.3238 68.6145C71.7811 70.1348 67.9557 70.885 64.1012 70.8154C60.2467 70.7459 56.4509 69.8581 52.9654 68.211C52.5931 67.969 52.1464 67.8687 51.7064 67.9285C51.2787 68.0455 51.0124 68.675 51.3715 68.9373" fill="black"/>
</g>
<path d="M85.4195 82.7453L66.7007 86.7602L65.0181 80.3364L71.9463 79.9974C71.9463 79.9974 72.7775 78.6457 73.7419 78.7425C74.7063 78.8394 75.4003 80.058 76.1065 80.1185C76.8126 80.179 85.6333 78.8958 85.4195 82.7453Z" fill="#FFBE9D"/>
<path d="M43.6037 37.3426C43.4948 37.512 86.5532 40.264 86.5532 40.264C86.5532 40.264 83.0023 29.3692 69.4404 28.6752C55.8785 27.9812 49.1964 28.5178 43.6037 37.3426Z" fill="#FFBE9D"/>
<path d="M69.6143 29.8656C69.699 27.0087 69.8402 24.0066 69.8402 24.0066C69.8402 24.0066 73.496 23.5103 74.3797 18.7368C75.223 14.1812 74.763 3.59718 74.763 3.59718C72.2151 2.46635 69.38 2.15018 66.6455 2.69187C63.911 3.23357 61.4106 4.6067 59.4862 6.62349L59.1674 29.8131C59.1311 32.5045 61.3908 34.6875 64.2476 34.7158C67.1529 34.744 69.5336 32.5651 69.6143 29.8656Z" fill="#FFBE9D"/>
<path d="M69.6019 16.1463C69.9507 16.0504 70.3096 15.9962 70.6711 15.9849C70.8366 15.9849 70.998 15.9445 71.0303 15.8315C71.0472 15.6571 71.0121 15.4816 70.9294 15.3272L70.4694 14.0238C69.8319 12.1717 69.3759 10.6465 69.4485 10.6222C69.5212 10.598 70.1022 12.0789 70.7398 13.935C70.8931 14.391 71.0383 14.8268 71.1796 15.2424C71.2766 15.4503 71.3008 15.6849 71.2482 15.9082C71.2224 15.9672 71.1835 16.0196 71.1346 16.0616C71.0857 16.1035 71.028 16.1338 70.9657 16.1503C70.8719 16.1725 70.7755 16.182 70.6792 16.1786C70.3203 16.2163 69.9579 16.2055 69.6019 16.1463Z" fill="#263238"/>
<path d="M69.8399 23.9864C67.5964 23.9547 65.4069 23.2934 63.521 22.0778C63.521 22.0778 64.9736 25.4229 69.7391 25.1203L69.8399 23.9864Z" fill="#EB996E"/>
<path d="M69.279 17.728C69.1601 17.5658 69.0016 17.4368 68.8186 17.3535C68.6356 17.2701 68.4343 17.2351 68.2339 17.2519C68.0889 17.2603 67.9472 17.2983 67.8174 17.3636C67.6877 17.4288 67.5726 17.5199 67.4793 17.6312C67.3876 17.7388 67.3313 17.8722 67.3183 18.0131C67.3053 18.154 67.3362 18.2954 67.4067 18.418C67.5071 18.5403 67.6422 18.6293 67.7942 18.6732C67.9462 18.7171 68.1079 18.714 68.2581 18.6642C68.5712 18.5628 68.8608 18.3995 69.1095 18.184C69.1864 18.1347 69.2523 18.0702 69.3032 17.9943C69.327 17.9577 69.3396 17.915 69.3396 17.8713C69.3396 17.8276 69.327 17.7848 69.3032 17.7482" fill="#EB996E"/>
<path d="M67.661 16.5498C67.7659 16.5498 67.7497 17.268 68.3429 17.7966C68.936 18.3252 69.6987 18.2687 69.7027 18.3696C69.7067 18.4705 69.5292 18.5028 69.2064 18.5028C68.7887 18.4929 68.3876 18.3373 68.0725 18.063C67.7699 17.7967 67.5819 17.4236 67.548 17.0219C67.5278 16.7072 67.6125 16.5498 67.661 16.5498Z" fill="#263238"/>
<path d="M67.5199 11.9821C67.5199 11.9821 67.4472 12.1394 67.2293 12.2847C66.9436 12.4742 66.6078 12.574 66.2649 12.5712C65.921 12.5692 65.5854 12.4653 65.3006 12.2726C65.0867 12.1233 64.9979 11.9861 65.0141 11.9659C65.3971 12.189 65.8238 12.3267 66.2649 12.3695C66.7066 12.334 67.1351 12.2017 67.5199 11.9821Z" fill="#263238"/>
<path d="M74.2017 12.0103C74.2017 12.0103 74.1331 12.1395 73.9435 12.2524C73.687 12.3909 73.3989 12.4604 73.1075 12.454C72.816 12.4476 72.5312 12.3657 72.281 12.2161C72.0914 12.0951 72.0107 11.9781 72.0309 11.9619C72.375 12.11 72.7396 12.2053 73.1123 12.2444C73.4852 12.2222 73.8526 12.1433 74.2017 12.0103Z" fill="#263238"/>
<path d="M67.7782 9.41977C67.7298 9.59328 67.1285 9.56907 66.4224 9.65381C65.7163 9.73854 65.1392 9.89188 65.0505 9.73451C64.9617 9.57714 65.5064 9.12521 66.3498 9.02837C67.1931 8.93152 67.8306 9.2624 67.7782 9.41977Z" fill="#263238"/>
<path d="M74.2301 10.0412C74.1252 10.1865 73.6127 9.9847 72.9873 9.83944C72.3618 9.69417 71.8171 9.62558 71.7768 9.43593C71.7364 9.24628 72.3618 9.03243 73.1245 9.214C73.8871 9.39558 74.335 9.90803 74.2301 10.0412Z" fill="#263238"/>
<path d="M75.7313 3.20979C74.9565 1.99926 73.4797 1.42628 72.0997 1.03891C70.6514 0.635733 69.1781 0.328402 67.6893 0.11891C66.7848 -0.0612447 65.8513 -0.036423 64.9576 0.191544C64.8527 0.22786 64.7558 0.268208 64.659 0.308559C62.9119 0.229508 61.1854 0.711685 59.7321 1.68452C59.0986 2.04219 58.5645 2.55265 58.1786 3.16943C57.685 3.80117 57.2779 4.49596 56.9681 5.2354C55.5518 7.71294 53.6795 11.167 53.4253 12.9747C53.0258 15.831 53.594 18.7388 55.0393 21.2345C55.4013 21.8378 55.8216 22.4041 56.2943 22.9252C55.8699 23.2958 55.5227 23.7465 55.2727 24.2514C55.0227 24.7564 54.8747 25.3057 54.8373 25.8678C54.7998 26.43 54.8735 26.9941 55.0543 27.5278C55.2351 28.0614 55.5193 28.5542 55.8907 28.9778C55.3252 29.4341 54.9254 30.0636 54.7529 30.7694C54.6113 31.4441 54.6783 32.1458 54.9449 32.7815C55.2116 33.4171 55.6653 33.9566 56.2458 34.3284L56.4637 34.4454C56.3968 34.5035 56.3348 34.5669 56.2781 34.635C56.0512 34.9219 55.8848 35.2518 55.7891 35.6049C55.6934 35.9579 55.6703 36.3267 55.7213 36.6889C55.8278 37.4155 56.1043 38.1068 56.5283 38.7064C56.9116 39.2915 57.4564 39.8564 58.1423 39.917C58.2389 39.9271 58.3363 39.9271 58.4328 39.917C58.1353 40.0443 57.8846 40.2608 57.7152 40.5366C57.5457 40.8123 57.4659 41.1338 57.4867 41.4568C57.5075 41.7798 57.6279 42.0884 57.8313 42.3401C58.0347 42.5919 58.3111 42.7744 58.6225 42.8626C58.8641 42.8954 59.0962 42.9778 59.3044 43.1047C59.3907 43.1895 59.4549 43.2942 59.4914 43.4095C59.528 43.5249 59.5358 43.6474 59.5143 43.7664C59.4685 44.0046 59.3839 44.2335 59.2641 44.4443C59.4418 44.4222 59.6091 44.3485 59.7454 44.2324C59.8816 44.1162 59.9808 43.9626 60.0307 43.7906C60.0307 44.0166 60.0307 44.2426 60.0307 44.4685C60.5488 44.1119 60.9279 43.5874 61.1041 42.9836C61.3238 42.3905 61.3755 41.7481 61.2534 41.1275C61.1903 40.8184 61.0638 40.5258 60.8818 40.2681C60.6998 40.0104 60.4664 39.7933 60.1962 39.6305C59.9357 39.4853 59.643 39.4076 59.3448 39.4045C59.6065 39.1351 59.7917 38.8008 59.8814 38.4361C60.0006 37.1048 59.7522 35.7663 59.1632 34.5664C59.0786 34.4204 58.977 34.285 58.8606 34.1629C59.208 33.7592 59.4493 33.2752 59.5627 32.7547C59.7023 32.2654 59.7428 31.7532 59.6818 31.2481C59.6209 30.743 59.4596 30.2551 59.2076 29.8131C59.153 29.7304 59.0937 29.651 59.03 29.575C59.3803 29.0911 59.5961 28.5231 59.6555 27.9287C59.8298 27.0984 59.9083 26.2509 59.8895 25.4028C60.5247 24.8836 61.0176 24.2116 61.322 23.4498C62.7948 20.25 61.0758 15.7186 61.0758 15.7186C63.5816 13.2329 64.0618 8.49978 64.1102 5.70347C64.5416 6.31317 65.0786 6.84068 65.696 7.26101C66.1285 7.60318 66.6705 7.77668 67.2213 7.74926C67.4934 7.72368 67.7444 7.59125 67.9191 7.38098C68.0938 7.17072 68.1781 6.89977 68.1534 6.6275C68.4473 7.25673 68.835 7.83768 69.3034 8.35048C69.5394 8.60495 69.8292 8.80362 70.1517 8.93205C70.4742 9.06048 70.8212 9.11544 71.1676 9.09294C71.5124 9.05479 71.8315 8.89249 72.0653 8.63632C72.2992 8.38016 72.4319 8.04765 72.4386 7.70084C72.7995 8.28376 73.3038 8.76443 73.9034 9.09698C74.2066 9.25671 74.5523 9.31732 74.8918 9.27027C75.2313 9.22322 75.5475 9.07088 75.7958 8.8347C76.1014 8.40513 76.2612 7.88894 76.2518 7.36189C76.393 5.92943 76.4899 4.40417 75.7313 3.20979Z" fill="#263238"/>
<path d="M56.3873 20.6656C56.3543 20.6185 56.3285 20.5669 56.3107 20.5122C56.2499 20.3575 56.2066 20.1964 56.1816 20.0321C56.1052 19.4195 56.1959 18.7977 56.4438 18.2324C56.8244 17.404 57.3742 16.6645 58.0579 16.0615C58.8764 15.3402 59.6348 14.5535 60.3256 13.7091C61.4723 12.0927 62.3612 10.3081 62.9605 8.41908C63.1945 7.72101 63.3922 7.14399 63.5375 6.70417C63.5993 6.49184 63.6762 6.28418 63.7675 6.08276C63.7369 6.30195 63.6869 6.518 63.6182 6.72838C63.5052 7.13189 63.3358 7.73715 63.1017 8.4675C62.5387 10.3914 61.6561 12.2069 60.491 13.8382C59.7936 14.6896 59.024 15.4794 58.191 16.1987C57.5186 16.7805 56.9698 17.4912 56.577 18.2889C56.3261 18.8297 56.2165 19.4253 56.2582 20.02C56.3107 20.4396 56.4116 20.6575 56.3873 20.6656Z" fill="#455A64"/>
<path d="M58.8079 29.3369C58.7107 29.3219 58.6174 29.2876 58.5335 29.2361C58.2919 29.1274 58.0632 28.9921 57.8516 28.8326C57.1401 28.2954 56.5906 27.5723 56.2638 26.7428C55.937 25.9134 55.8455 25.0098 55.9995 24.1317C56.0452 23.8675 56.1155 23.6081 56.2093 23.3569C56.2779 23.1834 56.3304 23.0906 56.3425 23.0987C56.3546 23.1068 56.2255 23.5022 56.1448 24.1518C56.0343 25.0033 56.1415 25.8688 56.4562 26.6675C56.7709 27.4663 57.2829 28.1723 57.9444 28.7196C58.4488 29.1271 58.8241 29.3047 58.8079 29.3369Z" fill="#455A64"/>
<path d="M58.5618 30.0431C58.5618 30.0673 58.3842 30.148 58.0614 30.1641C57.6365 30.1748 57.2167 30.0701 56.8465 29.8612C56.4763 29.6523 56.1697 29.347 55.9591 28.9778C55.859 28.833 55.8042 28.6616 55.8018 28.4855C55.834 28.4855 55.9107 28.655 56.0842 28.889C56.3143 29.2067 56.6102 29.4709 56.9518 29.6638C57.2925 29.8562 57.6713 29.9719 58.0614 30.0027C58.364 30.039 58.5577 30.0108 58.5618 30.0431Z" fill="#455A64"/>
<path d="M56.8872 33.7473C56.8872 33.715 57.0769 33.598 57.3512 33.3438C57.7034 33.0152 57.9788 32.6131 58.158 32.1661C58.3373 31.7191 58.4159 31.2381 58.3883 30.7573C58.3555 30.557 58.3353 30.3549 58.3277 30.152C58.4517 30.3248 58.5244 30.529 58.5376 30.7412C58.6101 31.2501 58.5475 31.7692 58.356 32.2462C58.1655 32.7239 57.8506 33.1419 57.4441 33.4568C57.289 33.6034 57.0962 33.704 56.8872 33.7473Z" fill="#455A64"/>
<path d="M58.8122 34.0257C58.8364 34.0257 58.8122 34.1831 58.6589 34.3687C58.4628 34.6127 58.1871 34.7799 57.8801 34.8408C57.5724 34.898 57.2544 34.8467 56.9803 34.6956C56.7745 34.5785 56.6898 34.4534 56.7099 34.4373C56.7301 34.4212 56.8431 34.4898 57.0448 34.5584C57.3016 34.6584 57.5814 34.6836 57.8519 34.631C58.1169 34.5758 58.3622 34.4504 58.562 34.2678C58.7073 34.1266 58.784 34.0136 58.8122 34.0257Z" fill="#455A64"/>
<path d="M59.1511 39.231C58.7816 38.432 58.3597 37.6583 57.8881 36.9149C57.3617 36.2064 56.7902 35.5325 56.1772 34.8973C56.4131 35.0135 56.6273 35.169 56.8108 35.3573C57.2818 35.7818 57.7016 36.2598 58.0616 36.7817C58.422 37.3026 58.7187 37.8648 58.9453 38.4563C59.0603 38.6999 59.13 38.9624 59.1511 39.231Z" fill="#455A64"/>
<path d="M59.7685 39.3763C59.7968 39.4247 59.5345 39.6265 59.1511 39.7798C58.7678 39.9331 58.4369 39.9331 58.4289 39.8766C58.4208 39.8201 58.7194 39.7152 59.0826 39.5861C59.4457 39.457 59.7403 39.3238 59.7685 39.3763Z" fill="#455A64"/>
<path d="M54.2403 20.0482C54.2146 19.9878 54.1983 19.9238 54.1919 19.8585C54.1677 19.7294 54.1314 19.5438 54.0951 19.3017C53.9773 18.6176 53.9112 17.9257 53.8973 17.2317C53.8615 16.1888 54.0804 15.1528 54.5349 14.2135C54.817 13.6605 55.218 13.1769 55.7091 12.7971C56.236 12.4019 56.8058 12.0676 57.4079 11.8005C57.9995 11.54 58.5773 11.2491 59.1389 10.9289C59.6534 10.6243 60.136 10.2688 60.5794 9.86766C61.3331 9.18464 61.9721 8.38491 62.4719 7.49907C62.9165 6.67195 63.2632 5.7958 63.5049 4.88837C63.505 4.95369 63.4969 5.01877 63.4807 5.08205C63.4525 5.26846 63.4135 5.45304 63.3636 5.63485C63.1878 6.30864 62.9318 6.9589 62.601 7.5717C62.1073 8.48635 61.4635 9.31157 60.6965 10.0129C60.2459 10.4253 59.7552 10.7916 59.2317 11.1064C58.66 11.432 58.0714 11.7269 57.4684 11.9901C56.8813 12.2503 56.3251 12.5751 55.81 12.9585C55.3389 13.3192 54.9531 13.7794 54.6801 14.3063C54.2283 15.2143 54.0013 16.2176 54.0184 17.2317C54.0204 17.9196 54.0635 18.6068 54.1475 19.2896L54.204 19.8505C54.226 19.9142 54.2382 19.9808 54.2403 20.0482Z" fill="#455A64"/>
<path d="M68.6052 4.71083C68.6052 4.71083 68.5407 4.77942 68.3914 4.84802C68.1779 4.94391 67.9474 4.99605 67.7135 5.00136C67.3261 5.00151 66.9426 4.92331 66.5862 4.77144C66.2298 4.61958 65.9077 4.3972 65.6395 4.11767C65.1259 3.55573 64.7344 2.89352 64.4895 2.17276C64.362 1.88846 64.2725 1.58864 64.2231 1.28101C64.3838 1.546 64.5189 1.82568 64.6267 2.11627C64.9021 2.79716 65.2955 3.42413 65.7888 3.96837C66.295 4.49404 66.9809 4.80956 67.7095 4.85205C68.013 4.84522 68.3143 4.79772 68.6052 4.71083Z" fill="#455A64"/>
<path d="M71.4099 5.82857C71.2226 5.90677 71.0174 5.9319 70.8167 5.90121C70.3258 5.86151 69.8546 5.69081 69.4522 5.40691C69.0498 5.12301 68.7309 4.73632 68.5288 4.28717C68.4298 4.10884 68.385 3.90552 68.3997 3.70209C68.4983 3.86836 68.5859 4.04089 68.662 4.21858C68.8844 4.62714 69.1961 4.98024 69.5739 5.25156C69.9488 5.51731 70.3794 5.69396 70.8329 5.76805C71.0265 5.7728 71.2195 5.79304 71.4099 5.82857Z" fill="#455A64"/>
</svg>
