<svg width="26" height="23" viewBox="0 0 26 23" fill="none" xmlns="http://www.w3.org/2000/svg">
<path d="M23.6133 15.8574L19.5508 19.4512H19.5406L19.4594 19.5141L19.4187 19.541L19.368 19.577L19.307 19.6039L19.2664 19.6309L19.2055 19.6488L19.1547 19.6758L19.1039 19.6937L19.043 19.7117H18.982L18.9211 19.7297H18.4539L18.393 19.7117H18.332L18.2711 19.6937L18.2203 19.6758L18.1695 19.6488L18.1086 19.6309L18.068 19.6039L18.007 19.577L17.9563 19.541L17.9156 19.5141L17.8344 19.4422H17.8242L13.7617 15.8484C13.5328 15.6459 13.4041 15.3712 13.4041 15.0848C13.4041 14.7983 13.5328 14.5236 13.7617 14.3211C13.9907 14.1186 14.3012 14.0048 14.625 14.0048C14.9488 14.0048 15.2593 14.1186 15.4883 14.3211L17.4688 16.082V10.0625C17.4688 9.77656 17.5972 9.50234 17.8257 9.30015C18.0543 9.09796 18.3643 8.98438 18.6875 8.98438C19.0107 8.98438 19.3207 9.09796 19.5493 9.30015C19.7778 9.50234 19.9062 9.77656 19.9062 10.0625V16.082L21.8867 14.3301C22.1157 14.1275 22.4262 14.0138 22.75 14.0138C23.0738 14.0138 23.3843 14.1275 23.6133 14.3301C23.8422 14.5326 23.9709 14.8073 23.9709 15.0938C23.9709 15.3802 23.8422 15.6549 23.6133 15.8574ZM12.1875 10.4219H4.875C4.55177 10.4219 4.24177 10.5355 4.01321 10.7377C3.78465 10.9398 3.65625 11.2141 3.65625 11.5C3.65625 11.7859 3.78465 12.0602 4.01321 12.2623C4.24177 12.4645 4.55177 12.5781 4.875 12.5781H12.1875C12.5107 12.5781 12.8207 12.4645 13.0493 12.2623C13.2778 12.0602 13.4062 11.7859 13.4062 11.5C13.4062 11.2141 13.2778 10.9398 13.0493 10.7377C12.8207 10.5355 12.5107 10.4219 12.1875 10.4219ZM4.875 6.82812H18.6875C19.0107 6.82812 19.3207 6.71454 19.5493 6.51235C19.7778 6.31016 19.9062 6.03594 19.9062 5.75C19.9062 5.46406 19.7778 5.18984 19.5493 4.98765C19.3207 4.78546 19.0107 4.67188 18.6875 4.67188H4.875C4.55177 4.67188 4.24177 4.78546 4.01321 4.98765C3.78465 5.18984 3.65625 5.46406 3.65625 5.75C3.65625 6.03594 3.78465 6.31016 4.01321 6.51235C4.24177 6.71454 4.55177 6.82812 4.875 6.82812ZM10.5625 16.1719H4.875C4.55177 16.1719 4.24177 16.2855 4.01321 16.4877C3.78465 16.6898 3.65625 16.9641 3.65625 17.25C3.65625 17.5359 3.78465 17.8102 4.01321 18.0123C4.24177 18.2145 4.55177 18.3281 4.875 18.3281H10.5625C10.8857 18.3281 11.1957 18.2145 11.4243 18.0123C11.6528 17.8102 11.7812 17.5359 11.7812 17.25C11.7812 16.9641 11.6528 16.6898 11.4243 16.4877C11.1957 16.2855 10.8857 16.1719 10.5625 16.1719Z" fill="white"/>
</svg>
