<svg width="14" height="12" viewBox="0 0 14 12" fill="none" xmlns="http://www.w3.org/2000/svg">
<path d="M6.1271 12C5.87982 12 5.67268 11.928 5.50569 11.784C5.33813 11.6405 5.25434 11.4625 5.25434 11.25V6.75L0.192368 1.2C-0.0258201 0.95 -0.0584029 0.6875 0.0946199 0.4125C0.247061 0.1375 0.512378 0 0.890572 0H13.1091C13.4873 0 13.7529 0.1375 13.906 0.4125C14.0584 0.6875 14.0255 0.95 13.8073 1.2L8.74536 6.75V11.25C8.74536 11.4625 8.66186 11.6405 8.49488 11.784C8.32731 11.928 8.11988 12 7.8726 12H6.1271Z" fill="white"/>
</svg>
