<svg width="12" height="12" viewBox="0 0 12 12" fill="none" xmlns="http://www.w3.org/2000/svg">
<path d="M11.8517 2.55677L10.0414 0.74643C9.95654 0.661791 9.84159 0.614258 9.72175 0.614258C9.6019 0.614258 9.48695 0.661791 9.40211 0.74643L3.97107 6.17746C3.88702 6.26368 3.84028 6.37952 3.84096 6.49993V8.31028C3.84096 8.43031 3.88864 8.54543 3.97351 8.6303C4.05839 8.71518 4.17351 8.76286 4.29354 8.76286H6.10389C6.16265 8.76307 6.22089 8.75168 6.27525 8.72935C6.32961 8.70703 6.37904 8.6742 6.4207 8.63274L11.8517 3.20171C11.8945 3.1596 11.9285 3.1094 11.9516 3.05404C11.9748 2.99868 11.9867 2.93926 11.9867 2.87924C11.9867 2.81922 11.9748 2.75981 11.9516 2.70445C11.9285 2.64909 11.8945 2.59889 11.8517 2.55677ZM10.1772 3.59772L9.00609 2.42666L9.72458 1.70818L10.8956 2.87924L10.1772 3.59772ZM11.5349 6.04735V11.0258C11.5349 11.2659 11.4396 11.4961 11.2698 11.6658C11.1 11.8356 10.8698 11.931 10.6297 11.931H1.57802C1.33796 11.931 1.10772 11.8356 0.93797 11.6658C0.768218 11.4961 0.672852 11.2659 0.672852 11.0258V1.97407C0.672852 1.734 0.768218 1.50377 0.93797 1.33402C1.10772 1.16426 1.33796 1.0689 1.57802 1.0689H6.55647C6.67651 1.0689 6.79162 1.11658 6.8765 1.20146C6.96138 1.28633 7.00906 1.40145 7.00906 1.52148C7.00906 1.64152 6.96138 1.75663 6.8765 1.84151C6.79162 1.92639 6.67651 1.97407 6.55647 1.97407H1.57802V11.0258H10.6297V6.04735C10.6297 5.92731 10.6774 5.8122 10.7623 5.72732C10.8472 5.64244 10.9623 5.59476 11.0823 5.59476C11.2024 5.59476 11.3175 5.64244 11.4024 5.72732C11.4872 5.8122 11.5349 5.92731 11.5349 6.04735Z" fill="#2A67F5"/>
</svg>
