<svg width="6" height="12" viewBox="0 0 6 12" fill="none" xmlns="http://www.w3.org/2000/svg">
<path d="M0.507 2.86737C0.0464882 2.65263 -0.149229 2.02737 0.127078 1.57263C0.685448 0.663158 1.61798 0 2.84985 0C4.20261 0 5.12939 0.675789 5.60141 1.52211C6.00436 2.24842 6.24037 3.60632 5.61868 4.61684C4.92791 5.73474 4.26593 6.07579 3.90903 6.79579C3.82268 6.96632 3.77088 7.10526 3.73634 7.38947C3.68453 7.85053 3.33915 8.21053 2.91317 8.21053C2.41237 8.21053 2.00366 7.73684 2.06123 7.18737C2.09576 6.86526 2.16484 6.53053 2.32602 6.21474C2.76926 5.33684 3.62121 4.81895 4.11626 4.0421C4.64009 3.22737 4.34652 1.70526 2.86137 1.70526C2.18787 1.70526 1.75038 2.09053 1.47983 2.55158C1.27836 2.91158 0.85814 3.02526 0.507 2.86737ZM4.00689 10.7368C4.00689 11.4316 3.48881 12 2.85561 12C2.22241 12 1.70433 11.4316 1.70433 10.7368C1.70433 10.0421 2.22241 9.47368 2.85561 9.47368C3.48881 9.47368 4.00689 10.0421 4.00689 10.7368Z" fill="#787878"/>
</svg>
