<svg width="28" height="28" viewBox="0 0 28 28" fill="none" xmlns="http://www.w3.org/2000/svg">
<rect width="28" height="28" rx="14" fill="#2A67F5"/>
<path d="M14.0027 12.0939C13.5087 12.0939 13.0462 12.2754 12.696 12.6071C12.3474 12.9388 12.1541 13.377 12.1541 13.8448C12.1541 14.3126 12.3474 14.7508 12.696 15.0825C13.0462 15.4126 13.5087 15.5957 14.0027 15.5957C14.4966 15.5957 14.9592 15.4126 15.3094 15.0825C15.658 14.7508 15.8513 14.3126 15.8513 13.8448C15.8513 13.377 15.658 12.9388 15.3094 12.6071C15.1384 12.4439 14.9348 12.3144 14.7104 12.2263C14.4861 12.1382 14.2455 12.0932 14.0027 12.0939ZM20.8139 15.7788L19.7335 14.9041C19.7847 14.6068 19.8111 14.3033 19.8111 14.0013C19.8111 13.6993 19.7847 13.3942 19.7335 13.0984L20.8139 12.2238C20.8955 12.1576 20.9539 12.0694 20.9814 11.9711C21.0088 11.8727 21.004 11.7687 20.9675 11.673L20.9527 11.6323C20.6553 10.8448 20.2098 10.1148 19.6377 9.47771L19.6079 9.44485C19.5385 9.36748 19.4459 9.31186 19.3423 9.28532C19.2388 9.25879 19.1293 9.26258 19.0281 9.2962L17.6867 9.7484C17.191 9.36349 16.6393 9.05993 16.0413 8.8487L15.7819 7.52026C15.7623 7.42019 15.7111 7.32812 15.6349 7.2563C15.5588 7.18447 15.4614 7.13628 15.3557 7.11814L15.3111 7.11031C14.452 6.96323 13.5467 6.96323 12.6877 7.11031L12.6431 7.11814C12.5374 7.13628 12.44 7.18447 12.3638 7.2563C12.2877 7.32812 12.2364 7.42019 12.2169 7.52026L11.9559 8.85496C11.3635 9.06788 10.8117 9.37069 10.322 9.75153L8.97069 9.2962C8.86953 9.26232 8.75988 9.25839 8.65631 9.28494C8.55273 9.31149 8.46014 9.36726 8.39084 9.44485L8.3611 9.47771C7.78999 10.1155 7.34458 10.8453 7.04611 11.6323L7.03124 11.673C6.9569 11.8686 7.01803 12.0876 7.18488 12.2238L8.2785 13.1078C8.22729 13.402 8.20251 13.7024 8.20251 13.9997C8.20251 14.3001 8.22729 14.6006 8.2785 14.8916L7.18818 15.7756C7.10657 15.8418 7.04815 15.93 7.02071 16.0283C6.99326 16.1267 6.99809 16.2307 7.03455 16.3264L7.04941 16.3671C7.34843 17.1541 7.78951 17.8817 8.36441 18.5217L8.39414 18.5546C8.46362 18.6319 8.55621 18.6875 8.65972 18.7141C8.76323 18.7406 8.8728 18.7368 8.97399 18.7032L10.3253 18.2479C10.8176 18.6312 11.3661 18.9348 11.9592 19.1445L12.2202 20.4791C12.2397 20.5792 12.291 20.6713 12.3671 20.7431C12.4433 20.8149 12.5407 20.8631 12.6464 20.8813L12.691 20.8891C13.5585 21.037 14.4469 21.037 15.3144 20.8891L15.359 20.8813C15.4647 20.8631 15.5621 20.8149 15.6382 20.7431C15.7144 20.6713 15.7656 20.5792 15.7852 20.4791L16.0446 19.1507C16.6426 18.9379 17.1944 18.6359 17.69 18.251L19.0314 18.7032C19.1325 18.7371 19.2422 18.741 19.3458 18.7145C19.4493 18.6879 19.5419 18.6321 19.6112 18.5546L19.641 18.5217C20.2159 17.8786 20.6569 17.1541 20.956 16.3671L20.9708 16.3264C21.0419 16.1324 20.9807 15.9149 20.8139 15.7788ZM14.0027 16.5955C12.3986 16.5955 11.0985 15.3641 11.0985 13.8448C11.0985 12.3255 12.3986 11.094 14.0027 11.094C15.6068 11.094 16.9069 12.3255 16.9069 13.8448C16.9069 15.3641 15.6068 16.5955 14.0027 16.5955Z" fill="white"/>
</svg>
