<svg width="28" height="28" viewBox="0 0 28 28" fill="none" xmlns="http://www.w3.org/2000/svg">
<rect width="28" height="28" rx="14" fill="#D14ED3"/>
<path d="M7.49167 8.53871C6.89167 8.79204 6.5 9.36204 6.5 9.98746V13.7083C6.5 18.102 9.7 22.2108 14 23.2083C18.3 22.2108 21.5 18.102 21.5 13.7083V9.98746C21.5 9.36204 21.1083 8.79204 20.5083 8.53871L14.675 6.07663C14.2417 5.89454 13.75 5.89454 13.325 6.07663L7.49167 8.53871ZM14 10.5416C14.4583 10.5416 14.8333 10.8979 14.8333 11.3333C14.8333 11.7687 14.4583 12.125 14 12.125C13.5417 12.125 13.1667 11.7687 13.1667 11.3333C13.1667 10.8979 13.5417 10.5416 14 10.5416ZM14 13.7083C14.4583 13.7083 14.8333 14.0645 14.8333 14.5V17.6666C14.8333 18.102 14.4583 18.4583 14 18.4583C13.5417 18.4583 13.1667 18.102 13.1667 17.6666V14.5C13.1667 14.0645 13.5417 13.7083 14 13.7083Z" fill="white"/>
</svg>
