<svg width="26" height="26" viewBox="0 0 26 26" fill="none" xmlns="http://www.w3.org/2000/svg">
<rect width="26" height="26" rx="3" fill="#C90386"/>
<path d="M13 3.25C10.4141 3.25 7.93419 4.27723 6.10571 6.10571C4.27723 7.93419 3.25 10.4141 3.25 13C3.25 15.5859 4.27723 18.0658 6.10571 19.8943C7.93419 21.7228 10.4141 22.75 13 22.75C13.8992 22.75 14.625 22.0242 14.625 21.125C14.625 20.7025 14.4625 20.3233 14.2025 20.0308C13.9533 19.7492 13.7908 19.37 13.7908 18.9583C13.7908 18.0592 14.5167 17.3333 15.4158 17.3333H17.3333C20.3233 17.3333 22.75 14.9067 22.75 11.9167C22.75 7.12833 18.3842 3.25 13 3.25ZM7.04167 13C6.1425 13 5.41667 12.2742 5.41667 11.375C5.41667 10.4758 6.1425 9.75 7.04167 9.75C7.94083 9.75 8.66667 10.4758 8.66667 11.375C8.66667 12.2742 7.94083 13 7.04167 13ZM10.2917 8.66667C9.3925 8.66667 8.66667 7.94083 8.66667 7.04167C8.66667 6.1425 9.3925 5.41667 10.2917 5.41667C11.1908 5.41667 11.9167 6.1425 11.9167 7.04167C11.9167 7.94083 11.1908 8.66667 10.2917 8.66667ZM15.7083 8.66667C14.8092 8.66667 14.0833 7.94083 14.0833 7.04167C14.0833 6.1425 14.8092 5.41667 15.7083 5.41667C16.6075 5.41667 17.3333 6.1425 17.3333 7.04167C17.3333 7.94083 16.6075 8.66667 15.7083 8.66667ZM18.9583 13C18.0592 13 17.3333 12.2742 17.3333 11.375C17.3333 10.4758 18.0592 9.75 18.9583 9.75C19.8575 9.75 20.5833 10.4758 20.5833 11.375C20.5833 12.2742 19.8575 13 18.9583 13Z" fill="#FAFAFA"/>
</svg>
