<svg width="27" height="26" viewBox="0 0 27 26" fill="none" xmlns="http://www.w3.org/2000/svg">
<rect y="0.300049" width="27" height="25" rx="3" fill="#2A67F5"/>
<path d="M21.375 19.5083V20.4667H5.625V19.5083L7.375 17.5917V11.8417C7.375 8.87084 9.15125 6.25459 11.75 5.41126V5.13334C11.75 4.62501 11.9344 4.1375 12.2626 3.77805C12.5908 3.41861 13.0359 3.21667 13.5 3.21667C13.9641 3.21667 14.4092 3.41861 14.7374 3.77805C15.0656 4.1375 15.25 4.62501 15.25 5.13334V5.41126C17.8488 6.25459 19.625 8.87084 19.625 11.8417V17.5917L21.375 19.5083ZM15.25 21.425C15.25 21.9333 15.0656 22.4209 14.7374 22.7803C14.4092 23.1397 13.9641 23.3417 13.5 23.3417C13.0359 23.3417 12.5908 23.1397 12.2626 22.7803C11.9344 22.4209 11.75 21.9333 11.75 21.425" fill="#FAFAFA"/>
</svg>
