<svg width="30" height="28" viewBox="0 0 30 28" fill="none" xmlns="http://www.w3.org/2000/svg">
<rect width="30" height="28" rx="3" fill="#602BF8"/>
<path fill-rule="evenodd" clip-rule="evenodd" d="M19.6699 15.13C21.0399 16.06 21.9999 17.32 21.9999 19V22H24.9999C25.5499 22 25.9999 21.55 25.9999 21V19C25.9999 16.82 22.4299 15.53 19.6699 15.13Z" fill="white"/>
<path d="M12 14C14.2091 14 16 12.2091 16 10C16 7.79086 14.2091 6 12 6C9.79086 6 8 7.79086 8 10C8 12.2091 9.79086 14 12 14Z" fill="white"/>
<path fill-rule="evenodd" clip-rule="evenodd" d="M18 14C20.21 14 22 12.21 22 10C22 7.79 20.21 6 18 6C17.53 6 17.09 6.1 16.67 6.24C17.5305 7.30422 18 8.6314 18 10C18 11.3686 17.5305 12.6958 16.67 13.76C17.09 13.9 17.53 14 18 14ZM12 15C9.33 15 4 16.34 4 19V21C4 21.55 4.45 22 5 22H19C19.55 22 20 21.55 20 21V19C20 16.34 14.67 15 12 15Z" fill="white"/>
</svg>
