<svg width="30" height="28" viewBox="0 0 30 28" fill="none" xmlns="http://www.w3.org/2000/svg">
<rect width="30" height="28" rx="3" fill="#1A4F3C"/>
<path d="M16 26V13.8621M16 14.6207V19.1724M16 14.6207C16 13.0111 15.398 11.4674 14.3263 10.3293C13.2547 9.19113 11.8012 8.55172 10.2857 8.55172H6V13.1034C6 14.713 6.60204 16.2567 7.67368 17.3949C8.74531 18.533 10.1988 19.1724 11.7143 19.1724H16M16 14.6207L21.7143 8.55172M16 19.1724L10.2857 13.1034M16 14.6207H20.2857C21.8012 14.6207 23.2547 13.9813 24.3263 12.8431C25.398 11.705 26 10.1613 26 8.55172V4H21.7143C20.1988 4 18.7453 4.63941 17.6737 5.77756C16.602 6.91571 16 8.45938 16 10.069V14.6207Z" stroke="#33FF54"/>
</svg>
