<svg width="150" height="146" viewBox="0 0 150 146" fill="none" xmlns="http://www.w3.org/2000/svg">
<rect width="150" height="145.13" rx="4" fill="black"/>
<path d="M123.21 67.4056C123.21 91.1234 103.765 110.406 79.71 110.406C55.6549 110.406 36.21 91.1234 36.21 67.4056C36.21 43.6879 55.6549 24.4056 79.71 24.4056C103.765 24.4056 123.21 43.6879 123.21 67.4056Z" fill="white" stroke="#2A67F5" stroke-width="6"/>
<mask id="mask0_317_523" style="mask-type:alpha" maskUnits="userSpaceOnUse" x="0" y="15" width="130" height="116">
<path d="M80.4421 33.381V15C71.3444 15 50.3641 15.8912 39.2241 19.456C25.2991 23.912 21.4001 30.039 5.80417 63.4589C-9.79181 96.8789 9.70316 91.3089 21.4001 115.817C33.0971 140.325 45.9081 126.957 98.823 125.286C141.155 123.949 130.201 112.104 119.432 106.348L104.393 91.3089L80.4421 33.381Z" fill="#787878"/>
</mask>
<g mask="url(#mask0_317_523)">
<circle cx="79.885" cy="67.3579" r="43.2309" fill="white" stroke="#2A4890" stroke-width="6"/>
</g>
<g filter="url(#filter0_dd_317_523)">
<path fill-rule="evenodd" clip-rule="evenodd" d="M101 66C98.7909 66 97 67.7909 97 70V88C97 90.2091 98.7909 92 101 92H107L113 98L119 92H126C128.209 92 130 90.2091 130 88V70C130 67.7909 128.209 66 126 66H101Z" fill="#787878"/>
<path d="M107 92L107.354 91.6464L107.207 91.5H107V92ZM113 98L112.646 98.3536L113 98.7071L113.354 98.3536L113 98ZM119 92V91.5H118.793L118.646 91.6464L119 92ZM97.5 70C97.5 68.067 99.067 66.5 101 66.5V65.5C98.5147 65.5 96.5 67.5147 96.5 70H97.5ZM97.5 88V70H96.5V88H97.5ZM101 91.5C99.067 91.5 97.5 89.933 97.5 88H96.5C96.5 90.4853 98.5147 92.5 101 92.5V91.5ZM107 91.5H101V92.5H107V91.5ZM113.354 97.6464L107.354 91.6464L106.646 92.3536L112.646 98.3536L113.354 97.6464ZM118.646 91.6464L112.646 97.6464L113.354 98.3536L119.354 92.3536L118.646 91.6464ZM126 91.5H119V92.5H126V91.5ZM129.5 88C129.5 89.933 127.933 91.5 126 91.5V92.5C128.485 92.5 130.5 90.4853 130.5 88H129.5ZM129.5 70V88H130.5V70H129.5ZM126 66.5C127.933 66.5 129.5 68.067 129.5 70H130.5C130.5 67.5147 128.485 65.5 126 65.5V66.5ZM101 66.5H126V65.5H101V66.5Z" fill="white"/>
</g>
<path d="M105.801 84.1193C105.443 84.1136 105.085 84.0455 104.727 83.9148C104.369 83.7841 104.043 83.5639 103.747 83.2543C103.452 82.9418 103.214 82.5199 103.036 81.9886C102.857 81.4545 102.767 80.7841 102.767 79.9773C102.767 79.2045 102.839 78.5199 102.984 77.9233C103.129 77.3239 103.339 76.8196 103.615 76.4105C103.891 75.9986 104.223 75.6861 104.612 75.473C105.004 75.2599 105.446 75.1534 105.938 75.1534C106.426 75.1534 106.861 75.2514 107.241 75.4474C107.625 75.6406 107.938 75.9105 108.179 76.2571C108.42 76.6037 108.577 77.0028 108.648 77.4545H107.608C107.511 77.0625 107.324 76.7372 107.045 76.4787C106.767 76.2202 106.398 76.0909 105.938 76.0909C105.261 76.0909 104.729 76.3849 104.339 76.973C103.953 77.5611 103.759 78.3864 103.756 79.4489H103.824C103.983 79.2074 104.172 79.0014 104.391 78.831C104.612 78.6577 104.857 78.5241 105.124 78.4304C105.391 78.3366 105.673 78.2898 105.972 78.2898C106.472 78.2898 106.929 78.4148 107.344 78.6648C107.759 78.9119 108.091 79.2543 108.341 79.6918C108.591 80.1264 108.716 80.625 108.716 81.1875C108.716 81.7273 108.595 82.2216 108.354 82.6705C108.112 83.1165 107.773 83.4716 107.335 83.7358C106.901 83.9972 106.389 84.125 105.801 84.1193ZM105.801 83.1818C106.159 83.1818 106.48 83.0923 106.764 82.9134C107.051 82.7344 107.277 82.4943 107.442 82.1932C107.609 81.892 107.693 81.5568 107.693 81.1875C107.693 80.8267 107.612 80.4986 107.45 80.2031C107.291 79.9048 107.071 79.6676 106.79 79.4915C106.511 79.3153 106.193 79.2273 105.835 79.2273C105.565 79.2273 105.314 79.2812 105.081 79.3892C104.848 79.4943 104.643 79.6392 104.467 79.8239C104.294 80.0085 104.158 80.2202 104.058 80.4588C103.959 80.6946 103.909 80.9432 103.909 81.2045C103.909 81.5511 103.99 81.875 104.152 82.1761C104.317 82.4773 104.541 82.7202 104.825 82.9048C105.112 83.0895 105.438 83.1818 105.801 83.1818ZM110.392 84V83.233L113.272 80.0795C113.61 79.7102 113.889 79.3892 114.108 79.1165C114.326 78.8409 114.488 78.5824 114.593 78.3409C114.701 78.0966 114.755 77.8409 114.755 77.5739C114.755 77.267 114.681 77.0014 114.534 76.777C114.389 76.5526 114.19 76.3793 113.937 76.2571C113.684 76.1349 113.4 76.0739 113.085 76.0739C112.75 76.0739 112.457 76.1435 112.207 76.2827C111.96 76.419 111.768 76.6108 111.632 76.858C111.498 77.1051 111.431 77.3949 111.431 77.7273H110.426C110.426 77.2159 110.544 76.767 110.779 76.3807C111.015 75.9943 111.336 75.6932 111.743 75.4773C112.152 75.2614 112.61 75.1534 113.119 75.1534C113.63 75.1534 114.083 75.2614 114.478 75.4773C114.873 75.6932 115.183 75.9844 115.407 76.3509C115.632 76.7173 115.744 77.125 115.744 77.5739C115.744 77.8949 115.686 78.2088 115.569 78.5156C115.456 78.8196 115.257 79.1591 114.973 79.5341C114.691 79.9062 114.301 80.3608 113.801 80.8977L111.841 82.9943V83.0625H115.897V84H110.392ZM122.106 82.3636V81.9034C122.106 81.5852 122.172 81.294 122.302 81.0298C122.436 80.7628 122.629 80.5497 122.882 80.3906C123.137 80.2287 123.447 80.1477 123.811 80.1477C124.18 80.1477 124.49 80.2287 124.74 80.3906C124.99 80.5497 125.179 80.7628 125.306 81.0298C125.434 81.294 125.498 81.5852 125.498 81.9034V82.3636C125.498 82.6818 125.433 82.9744 125.302 83.2415C125.174 83.5057 124.984 83.7187 124.731 83.8807C124.481 84.0398 124.174 84.1193 123.811 84.1193C123.441 84.1193 123.13 84.0398 122.877 83.8807C122.625 83.7187 122.433 83.5057 122.302 83.2415C122.172 82.9744 122.106 82.6818 122.106 82.3636ZM122.975 81.9034V82.3636C122.975 82.6278 123.038 82.8651 123.163 83.0753C123.288 83.2827 123.504 83.3864 123.811 83.3864C124.109 83.3864 124.319 83.2827 124.441 83.0753C124.566 82.8651 124.629 82.6278 124.629 82.3636V81.9034C124.629 81.6392 124.569 81.4034 124.45 81.196C124.331 80.9858 124.118 80.8807 123.811 80.8807C123.512 80.8807 123.298 80.9858 123.167 81.196C123.039 81.4034 122.975 81.6392 122.975 81.9034ZM117.76 77.3693V76.9091C117.76 76.5909 117.825 76.2997 117.956 76.0355C118.089 75.7685 118.282 75.5554 118.535 75.3963C118.791 75.2344 119.1 75.1534 119.464 75.1534C119.833 75.1534 120.143 75.2344 120.393 75.3963C120.643 75.5554 120.832 75.7685 120.96 76.0355C121.088 76.2997 121.152 76.5909 121.152 76.9091V77.3693C121.152 77.6875 121.086 77.9801 120.956 78.2472C120.828 78.5114 120.637 78.7244 120.385 78.8864C120.135 79.0455 119.828 79.125 119.464 79.125C119.095 79.125 118.784 79.0455 118.531 78.8864C118.278 78.7244 118.086 78.5114 117.956 78.2472C117.825 77.9801 117.76 77.6875 117.76 77.3693ZM118.629 76.9091V77.3693C118.629 77.6335 118.691 77.8707 118.816 78.081C118.941 78.2884 119.157 78.392 119.464 78.392C119.762 78.392 119.973 78.2884 120.095 78.081C120.22 77.8707 120.282 77.6335 120.282 77.3693V76.9091C120.282 76.6449 120.223 76.4091 120.103 76.2017C119.984 75.9915 119.771 75.8864 119.464 75.8864C119.166 75.8864 118.951 75.9915 118.821 76.2017C118.693 76.4091 118.629 76.6449 118.629 76.9091ZM118.083 84L124.083 75.2727H125.055L119.055 84H118.083Z" fill="white"/>
<defs>
<filter id="filter0_dd_317_523" x="72.5" y="41.5" width="94" height="93.2071" filterUnits="userSpaceOnUse" color-interpolation-filters="sRGB">
<feFlood flood-opacity="0" result="BackgroundImageFix"/>
<feColorMatrix in="SourceAlpha" type="matrix" values="0 0 0 0 0 0 0 0 0 0 0 0 0 0 0 0 0 0 127 0" result="hardAlpha"/>
<feOffset dx="6" dy="6"/>
<feGaussianBlur stdDeviation="15"/>
<feComposite in2="hardAlpha" operator="out"/>
<feColorMatrix type="matrix" values="0 0 0 0 0.683958 0 0 0 0 0.7638 0 0 0 0 0.8375 0 0 0 0.29 0"/>
<feBlend mode="normal" in2="BackgroundImageFix" result="effect1_dropShadow_317_523"/>
<feColorMatrix in="SourceAlpha" type="matrix" values="0 0 0 0 0 0 0 0 0 0 0 0 0 0 0 0 0 0 127 0" result="hardAlpha"/>
<feOffset dx="2" dy="2"/>
<feGaussianBlur stdDeviation="2"/>
<feComposite in2="hardAlpha" operator="out"/>
<feColorMatrix type="matrix" values="0 0 0 0 0.333333 0 0 0 0 0.4 0 0 0 0 0.6 0 0 0 0.11 0"/>
<feBlend mode="normal" in2="effect1_dropShadow_317_523" result="effect2_dropShadow_317_523"/>
<feBlend mode="normal" in="SourceGraphic" in2="effect2_dropShadow_317_523" result="shape"/>
</filter>
</defs>
</svg>
