<svg width="23" height="24" viewBox="0 0 23 24" fill="none" xmlns="http://www.w3.org/2000/svg">
<path d="M11.4999 23.4999V11.2333M11.4999 11.9999V16.5999M11.4999 11.9999C11.4999 10.3733 10.8537 8.81324 9.70352 7.66301C8.5533 6.51279 6.99326 5.8666 5.3666 5.8666H0.766602V10.4666C0.766602 12.0933 1.41279 13.6533 2.56301 14.8035C3.71324 15.9537 5.27327 16.5999 6.89994 16.5999H11.4999M11.4999 11.9999L17.6333 5.8666M11.4999 16.5999L5.3666 10.4666M11.4999 11.9999H16.0999C17.7266 11.9999 19.2866 11.3537 20.4369 10.2035C21.5871 9.0533 22.2333 7.49326 22.2333 5.8666V1.2666H17.6333C16.0066 1.2666 14.4466 1.91279 13.2963 3.06301C12.1461 4.21324 11.4999 5.77327 11.4999 7.39993V11.9999Z" stroke="#33FF54"/>
</svg>
