<svg width="16" height="22" viewBox="0 0 16 22" fill="none" xmlns="http://www.w3.org/2000/svg">
<path d="M10 21.75V15.75L7.9 13.75L6.9 18.15L0 16.75L0.4 14.75L5.2 15.75L6.8 7.65L5 8.35V11.75H3V7.05L6.95 5.35C7.53333 5.1 7.96267 4.93733 8.238 4.862C8.51267 4.78733 8.76667 4.75 9 4.75C9.35 4.75 9.675 4.84167 9.975 5.025C10.275 5.20833 10.5167 5.45 10.7 5.75L11.7 7.35C12.1333 8.05 12.7207 8.625 13.462 9.075C14.204 9.525 15.05 9.75 16 9.75V11.75C14.9 11.75 13.871 11.5207 12.913 11.062C11.9543 10.604 11.15 10 10.5 9.25L9.9 12.25L12 14.25V21.75H10ZM10.5 4.25C9.95 4.25 9.47933 4.054 9.088 3.662C8.696 3.27067 8.5 2.8 8.5 2.25C8.5 1.7 8.696 1.229 9.088 0.837C9.47933 0.445667 9.95 0.25 10.5 0.25C11.05 0.25 11.521 0.445667 11.913 0.837C12.3043 1.229 12.5 1.7 12.5 2.25C12.5 2.8 12.3043 3.27067 11.913 3.662C11.521 4.054 11.05 4.25 10.5 4.25Z" fill="#2A67F5"/>
</svg>
