<svg width="12" height="12" viewBox="0 0 14 14" fill="none" xmlns="http://www.w3.org/2000/svg">
<path d="M6.99967 7.00004C6.35801 7.00004 5.8087 6.77157 5.35176 6.31462C4.89481 5.85768 4.66634 5.30837 4.66634 4.66671C4.66634 4.02504 4.89481 3.47574 5.35176 3.01879C5.8087 2.56185 6.35801 2.33337 6.99967 2.33337C7.64134 2.33337 8.19065 2.56185 8.64759 3.01879C9.10454 3.47574 9.33301 4.02504 9.33301 4.66671C9.33301 5.30837 9.10454 5.85768 8.64759 6.31462C8.19065 6.77157 7.64134 7.00004 6.99967 7.00004ZM2.33301 11.6667V10.0334C2.33301 9.70282 2.41817 9.3989 2.58851 9.12162C2.75845 8.84474 2.9844 8.63337 3.26634 8.48754C3.86912 8.18615 4.48162 7.96001 5.10384 7.80912C5.72606 7.65862 6.35801 7.58337 6.99967 7.58337C7.64134 7.58337 8.27329 7.65862 8.89551 7.80912C9.51773 7.96001 10.1302 8.18615 10.733 8.48754C11.015 8.63337 11.2409 8.84474 11.4108 9.12162C11.5812 9.3989 11.6663 9.70282 11.6663 10.0334V11.6667H2.33301Z" fill="#808080"/>
</svg>
