<svg width="14" height="15" viewBox="0 0 14 15" fill="none" xmlns="http://www.w3.org/2000/svg">
<path d="M3.0793 10.6972C2.67836 10.7559 2.01836 10.8653 1.5793 10.3672C1.14024 9.86906 0.76055 8.66625 0.593675 7.59125C0.347425 6.00687 0.5918 4.67156 1.28117 3.83156C1.68742 3.33687 2.22055 3.05031 2.82305 3.00469C3.33899 2.965 4.10992 3.16687 4.8543 4.35437C5.32055 5.09844 5.67524 6.08687 5.82742 7.06594C6.01117 8.24781 6.19024 9.50906 5.56367 9.96125C5.21024 10.2166 4.95649 10.305 4.3568 10.4478C3.86367 10.565 3.48055 10.6381 3.0793 10.6972ZM2.36617 11.7137L5.76899 11.0119C6.05649 10.9525 6.28711 11.1106 6.39399 11.5844C6.74461 13.1394 6.24211 15 4.66836 15C3.17805 15 2.18492 13.3012 2.02274 12.3881C1.94867 11.9741 2.0543 11.7778 2.36617 11.7137ZM9.64336 7.44812C9.04367 7.30594 8.78992 7.21687 8.43649 6.96156C7.80992 6.50937 7.98899 5.24812 8.17274 4.06625C8.32492 3.08719 8.67961 2.0975 9.14586 1.35469C9.88961 0.167186 10.6606 -0.034689 11.1771 0.00499854C11.779 0.050936 12.3124 0.336874 12.7187 0.831561C13.4087 1.67156 13.653 3.00687 13.4062 4.59125C13.239 5.66625 12.8605 6.865 12.419 7.36719C11.9774 7.86937 11.3212 7.75594 10.919 7.69719C10.5168 7.63844 10.1362 7.565 9.64336 7.44812ZM11.6337 8.71375L8.23086 8.01187C7.94336 7.9525 7.71274 8.11062 7.60586 8.58437C7.25555 10.1394 7.75805 12 9.3318 12C10.8221 12 11.8152 10.3012 11.9774 9.38812C12.0512 8.97406 11.9455 8.77781 11.6337 8.71375Z" fill="#2A67F5"/>
</svg>
