<svg width="18" height="20" viewBox="0 0 18 20" fill="none" xmlns="http://www.w3.org/2000/svg">
<path d="M3.75 19.7499C3.3375 19.7499 2.98425 19.5866 2.69025 19.2599C2.39675 18.9338 2.25 18.5416 2.25 18.0833V6.41658C2.25 5.95825 2.39675 5.56575 2.69025 5.23909C2.98425 4.91297 3.3375 4.74992 3.75 4.74992H10.4438L8.94375 6.41658H3.75V18.0833H14.25V12.2916L15.75 10.6249V18.0833C15.75 18.5416 15.6033 18.9338 15.3097 19.2599C15.0157 19.5866 14.6625 19.7499 14.25 19.7499H3.75ZM12.1312 5.22909L13.2 6.39575L8.25 11.8958V13.0833H9.3L14.2687 7.56242L15.3375 8.72909L9.9375 14.7499H6.75V11.2083L12.1312 5.22909ZM15.3375 8.72909L12.1312 5.22909L14.0062 3.14575C14.3062 2.81242 14.6658 2.64575 15.0848 2.64575C15.5033 2.64575 15.8562 2.81242 16.1437 3.14575L17.1937 4.33325C17.4812 4.6527 17.625 5.04159 17.625 5.49992C17.625 5.95825 17.4812 6.34714 17.1937 6.66658L15.3375 8.72909Z" fill="#2A67F5"/>
</svg>
