<svg width="19" height="17" viewBox="0 0 19 17" fill="none" xmlns="http://www.w3.org/2000/svg">
<path d="M11.2273 6.38162V4.68692C11.7023 4.45431 12.1882 4.27986 12.6851 4.16355C13.1814 4.04725 13.703 3.9891 14.25 3.9891C14.6242 3.9891 14.9913 4.02233 15.3511 4.08878C15.711 4.15524 16.0636 4.23832 16.4091 4.33801V5.93302C16.0636 5.78349 15.7147 5.67151 15.3624 5.59707C15.0094 5.52197 14.6386 5.48442 14.25 5.48442C13.703 5.48442 13.1777 5.56351 12.6739 5.72168C12.1701 5.87919 11.6879 6.09917 11.2273 6.38162ZM11.2273 11.8645V10.1698C11.7023 9.93718 12.1882 9.76272 12.6851 9.64642C13.1814 9.53012 13.703 9.47196 14.25 9.47196C14.6242 9.47196 14.9913 9.50519 15.3511 9.57165C15.711 9.63811 16.0636 9.72118 16.4091 9.82087V11.4159C16.0636 11.2664 15.7147 11.1544 15.3624 11.0799C15.0094 11.0048 14.6386 10.9673 14.25 10.9673C13.703 10.9673 13.1777 11.0421 12.6739 11.1916C12.1701 11.3411 11.6879 11.5654 11.2273 11.8645ZM11.2273 9.12305V7.42835C11.7023 7.19574 12.1882 7.02129 12.6851 6.90498C13.1814 6.78868 13.703 6.73053 14.25 6.73053C14.6242 6.73053 14.9913 6.76376 15.3511 6.83022C15.711 6.89668 16.0636 6.97975 16.4091 7.07944V8.67446C16.0636 8.52492 15.7147 8.41294 15.3624 8.3385C15.0094 8.26341 14.6386 8.22586 14.25 8.22586C13.703 8.22586 13.1777 8.30494 12.6739 8.46312C12.1701 8.62062 11.6879 8.8406 11.2273 9.12305ZM10.3636 13.5093C10.997 13.1604 11.634 12.8986 12.2749 12.7238C12.9151 12.5497 13.5735 12.4626 14.25 12.4626C14.7682 12.4626 15.2757 12.5125 15.7726 12.6122C16.2689 12.7118 16.7689 12.8614 17.2727 13.0607V3.19159C16.7977 2.95898 16.3049 2.78453 15.7942 2.66822C15.2829 2.55192 14.7682 2.49377 14.25 2.49377C13.5735 2.49377 12.9042 2.59346 12.242 2.79284C11.5799 2.99221 10.9538 3.29128 10.3636 3.69003V13.5093ZM9.5 16.4502C8.80909 15.8188 8.06061 15.3287 7.25454 14.9798C6.44848 14.6308 5.61364 14.4564 4.75 14.4564C3.98712 14.4564 3.18826 14.6225 2.35341 14.9548C1.51856 15.2871 0.734091 15.8022 0 16.5V2.04517C0.633333 1.54673 1.37836 1.16459 2.23509 0.898754C3.09124 0.632918 3.92955 0.5 4.75 0.5C5.58485 0.5 6.40185 0.624611 7.201 0.873832C7.99958 1.12305 8.76591 1.49688 9.5 1.99533C10.2341 1.49688 11.0007 1.12305 11.7999 0.873832C12.5984 0.624611 13.4152 0.5 14.25 0.5C15.0705 0.5 15.909 0.632918 16.7658 0.898754C17.6219 1.16459 18.3667 1.54673 19 2.04517V16.5C18.2803 15.8022 17.4996 15.2871 16.6578 14.9548C15.8155 14.6225 15.0129 14.4564 14.25 14.4564C13.3864 14.4564 12.5515 14.6308 11.7455 14.9798C10.9394 15.3287 10.1909 15.8188 9.5 16.4502Z" fill="#2A67F5"/>
</svg>
