<svg width="28" height="28" viewBox="0 0 28 28" fill="none" xmlns="http://www.w3.org/2000/svg">
<rect width="28" height="28" rx="14" fill="#FF783A"/>
<path d="M10.7477 9.34831C10.6457 9.25806 10.5884 9.1358 10.5884 9.00833C10.5884 8.88086 10.6457 8.7586 10.7477 8.66836L13.6114 6.1411C13.7148 6.05071 13.8544 6 14 6C14.1456 6 14.2852 6.05071 14.3886 6.1411L17.2523 8.66836C17.3543 8.7586 17.4116 8.88086 17.4116 9.00833C17.4116 9.1358 17.3543 9.25806 17.2523 9.34831C17.2015 9.39379 17.141 9.42991 17.0743 9.45457C17.0076 9.47922 16.936 9.49192 16.8636 9.49192C16.7913 9.49192 16.7197 9.47922 16.653 9.45457C16.5863 9.42991 16.5258 9.39379 16.475 9.34831L14.5455 7.64542V13.2234C14.5455 13.3511 14.488 13.4735 14.3857 13.5638C14.2834 13.6541 14.1447 13.7048 14 13.7048C13.8553 13.7048 13.7166 13.6541 13.6143 13.5638C13.512 13.4735 13.4545 13.3511 13.4545 13.2234V7.64542L11.525 9.34831C11.4742 9.39379 11.4137 9.42991 11.347 9.45457C11.2803 9.47922 11.2087 9.49192 11.1364 9.49192C11.064 9.49192 10.9924 9.47922 10.9257 9.45457C10.859 9.42991 10.7985 9.39379 10.7477 9.34831ZM18.9091 10.8165H17.2727C17.1281 10.8165 16.9893 10.8672 16.887 10.9575C16.7847 11.0478 16.7273 11.1702 16.7273 11.2979C16.7273 11.4256 16.7847 11.548 16.887 11.6383C16.9893 11.7286 17.1281 11.7793 17.2727 11.7793H18.9091V18.0372H9.09091V11.7793H10.7273C10.8719 11.7793 11.0107 11.7286 11.113 11.6383C11.2153 11.548 11.2727 11.4256 11.2727 11.2979C11.2727 11.1702 11.2153 11.0478 11.113 10.9575C11.0107 10.8672 10.8719 10.8165 10.7273 10.8165H9.09091C8.80158 10.8165 8.5241 10.918 8.31952 11.0985C8.11493 11.2791 8 11.5239 8 11.7793V18.0372C8 18.2926 8.11493 18.5375 8.31952 18.718C8.5241 18.8986 8.80158 19 9.09091 19H18.9091C19.1984 19 19.4759 18.8986 19.6805 18.718C19.8851 18.5375 20 18.2926 20 18.0372V11.7793C20 11.5239 19.8851 11.2791 19.6805 11.0985C19.4759 10.918 19.1984 10.8165 18.9091 10.8165Z" fill="white"/>
</svg>
