<svg width="23" height="15" viewBox="0 0 23 15" fill="none" xmlns="http://www.w3.org/2000/svg">
<path d="M15.5 6.5C17.16 6.5 18.49 5.16 18.49 3.5C18.49 1.84 17.16 0.5 15.5 0.5C13.84 0.5 12.5 1.84 12.5 3.5C12.5 5.16 13.84 6.5 15.5 6.5ZM7.5 6.5C9.16 6.5 10.49 5.16 10.49 3.5C10.49 1.84 9.16 0.5 7.5 0.5C5.84 0.5 4.5 1.84 4.5 3.5C4.5 5.16 5.84 6.5 7.5 6.5ZM7.5 8.5C5.17 8.5 0.5 9.67 0.5 12V14.5H14.5V12C14.5 9.67 9.83 8.5 7.5 8.5ZM15.5 8.5C15.21 8.5 14.88 8.52 14.53 8.55C15.69 9.39 16.5 10.52 16.5 12V14.5H22.5V12C22.5 9.67 17.83 8.5 15.5 8.5Z" fill="#2A67F5"/>
</svg>
