<svg width="28" height="28" viewBox="0 0 28 28" fill="none" xmlns="http://www.w3.org/2000/svg">
<rect width="28" height="28" rx="14" fill="#31C65A"/>
<path d="M20.875 17.3334L24.375 14M24.375 14L20.875 10.6667M24.375 14H12.125M17.375 17.3334V18.1667C17.375 18.8297 17.0984 19.4656 16.6062 19.9345C16.1139 20.4033 15.4462 20.6667 14.75 20.6667H11.25C10.5538 20.6667 9.88613 20.4033 9.39384 19.9345C8.90156 19.4656 8.625 18.8297 8.625 18.1667V9.83337C8.625 9.17033 8.90156 8.53445 9.39384 8.06561C9.88613 7.59677 10.5538 7.33337 11.25 7.33337H14.75C15.4462 7.33337 16.1139 7.59677 16.6062 8.06561C17.0984 8.53445 17.375 9.17033 17.375 9.83337V10.6667" stroke="white" stroke-width="2" stroke-linecap="round" stroke-linejoin="round"/>
</svg>
