<svg width="26" height="26" viewBox="0 0 26 26" fill="none" xmlns="http://www.w3.org/2000/svg">
<rect width="26" height="26" rx="3" fill="#FF725E"/>
<path d="M4 18.4624V21.5024C4 21.7824 4.22 22.0024 4.5 22.0024H7.54C7.67 22.0024 7.8 21.9524 7.89 21.8524L18.81 10.9424L15.06 7.19244L4.15 18.1024C4.05 18.2024 4 18.3224 4 18.4624ZM21.71 8.04244C21.8027 7.94993 21.8762 7.84004 21.9264 7.71907C21.9766 7.59809 22.0024 7.46841 22.0024 7.33744C22.0024 7.20648 21.9766 7.07679 21.9264 6.95582C21.8762 6.83485 21.8027 6.72496 21.71 6.63244L19.37 4.29244C19.2775 4.19974 19.1676 4.12619 19.0466 4.07601C18.9257 4.02583 18.796 4 18.665 4C18.534 4 18.4043 4.02583 18.2834 4.07601C18.1624 4.12619 18.0525 4.19974 17.96 4.29244L16.13 6.12244L19.88 9.87244L21.71 8.04244Z" fill="white"/>
</svg>
