<svg width="30" height="28" viewBox="0 0 30 28" fill="none" xmlns="http://www.w3.org/2000/svg">
<rect width="30" height="28" rx="3" fill="#D14ED3"/>
<path d="M15.0254 17C14.6254 17 14.2881 16.8583 14.0134 16.575C13.7381 16.2917 13.6171 15.9583 13.6504 15.575C13.7004 14.875 13.8671 14.2667 14.1504 13.75C14.4338 13.2333 14.8838 12.7 15.5004 12.15C16.1838 11.55 16.7044 11.029 17.0624 10.587C17.4211 10.1457 17.6004 9.64167 17.6004 9.075C17.6004 8.39167 17.3714 7.825 16.9134 7.375C16.4548 6.925 15.8171 6.7 15.0004 6.7C14.4671 6.7 14.0131 6.81233 13.6384 7.037C13.2631 7.26233 12.9588 7.54167 12.7254 7.875C12.4921 8.20833 12.2048 8.43333 11.8634 8.55C11.5214 8.66667 11.1921 8.65833 10.8754 8.525C10.4921 8.35833 10.2298 8.08333 10.0884 7.7C9.94644 7.31667 9.97544 6.95833 10.1754 6.625C10.6588 5.875 11.3088 5.25 12.1254 4.75C12.9421 4.25 13.9004 4 15.0004 4C16.7504 4 18.0964 4.48767 19.0384 5.463C19.9798 6.43767 20.4504 7.60833 20.4504 8.975C20.4504 9.80833 20.2714 10.521 19.9134 11.113C19.5548 11.7043 18.9921 12.375 18.2254 13.125C17.6588 13.6583 17.2588 14.0917 17.0254 14.425C16.7921 14.7583 16.6338 15.1417 16.5504 15.575C16.4838 15.9917 16.3088 16.3333 16.0254 16.6C15.7421 16.8667 15.4088 17 15.0254 17ZM15.0004 23C14.4504 23 13.9798 22.8043 13.5884 22.413C13.1964 22.021 13.0004 21.55 13.0004 21C13.0004 20.45 13.1964 19.979 13.5884 19.587C13.9798 19.1957 14.4504 19 15.0004 19C15.5504 19 16.0214 19.1957 16.4134 19.587C16.8048 19.979 17.0004 20.45 17.0004 21C17.0004 21.55 16.8048 22.021 16.4134 22.413C16.0214 22.8043 15.5504 23 15.0004 23Z" fill="white"/>
</svg>
