<svg width="28" height="27" viewBox="0 0 28 27" fill="none" xmlns="http://www.w3.org/2000/svg">
<rect y="0.781738" width="28" height="26" rx="3" fill="#31C7DC"/>
<path d="M6 18.7817V10.7817H4V8.78174H8V18.7817H6ZM24 16.7817C24 17.3122 23.7893 17.8209 23.4142 18.196C23.0391 18.571 22.5304 18.7817 22 18.7817H18V16.7817H22V14.7817H20V12.7817H22V10.7817H18V8.78174H22C22.5304 8.78174 23.0391 8.99245 23.4142 9.36752C23.7893 9.7426 24 10.2513 24 10.7817V12.2817C24 12.6796 23.842 13.0611 23.5607 13.3424C23.2794 13.6237 22.8978 13.7817 22.5 13.7817C22.8978 13.7817 23.2794 13.9398 23.5607 14.2211C23.842 14.5024 24 14.8839 24 15.2817V16.7817ZM16 16.7817V18.7817H10V14.7817C10 14.2513 10.2107 13.7426 10.5858 13.3675C10.9609 12.9925 11.4696 12.7817 12 12.7817H14V10.7817H10V8.78174H14C14.5304 8.78174 15.0391 8.99245 15.4142 9.36752C15.7893 9.7426 16 10.2513 16 10.7817V12.7817C16 13.3122 15.7893 13.8209 15.4142 14.196C15.0391 14.571 14.5304 14.7817 14 14.7817H12V16.7817H16Z" fill="white"/>
</svg>
