<svg width="28" height="26" viewBox="0 0 28 26" fill="none" xmlns="http://www.w3.org/2000/svg">
<rect width="28" height="26" rx="3" fill="#AB9830"/>
<path d="M6 18V10H4V8H8V18H6ZM24 16C24 16.5304 23.7893 17.0391 23.4142 17.4142C23.0391 17.7893 22.5304 18 22 18H18V16H22V14H20V12H22V10H18V8H22C22.5304 8 23.0391 8.21071 23.4142 8.58579C23.7893 8.96086 24 9.46957 24 10V11.5C24 11.8978 23.842 12.2794 23.5607 12.5607C23.2794 12.842 22.8978 13 22.5 13C22.8978 13 23.2794 13.158 23.5607 13.4393C23.842 13.7206 24 14.1022 24 14.5V16ZM16 16V18H10V14C10 13.4696 10.2107 12.9609 10.5858 12.5858C10.9609 12.2107 11.4696 12 12 12H14V10H10V8H14C14.5304 8 15.0391 8.21071 15.4142 8.58579C15.7893 8.96086 16 9.46957 16 10V12C16 12.5304 15.7893 13.0391 15.4142 13.4142C15.0391 13.7893 14.5304 14 14 14H12V16H16Z" fill="white"/>
</svg>
