<svg width="28" height="28" viewBox="0 0 28 28" fill="none" xmlns="http://www.w3.org/2000/svg">
<rect width="28" height="28" rx="3" fill="#2A4890"/>
<path d="M5.83333 24.5C5.19167 24.5 4.64217 24.2717 4.18483 23.8152C3.72828 23.3578 3.5 22.8083 3.5 22.1667V5.83333C3.5 5.19167 3.72828 4.64217 4.18483 4.18483C4.64217 3.72828 5.19167 3.5 5.83333 3.5H15.1667C15.4972 3.5 15.7745 3.61161 15.9985 3.83483C16.2217 4.05883 16.3333 4.33611 16.3333 4.66667C16.3333 4.99722 16.2217 5.27411 15.9985 5.49733C15.7745 5.72133 15.4972 5.83333 15.1667 5.83333H5.83333V22.1667H22.1667V12.8333C22.1667 12.5028 22.2787 12.2255 22.5027 12.0015C22.7259 11.7783 23.0028 11.6667 23.3333 11.6667C23.6639 11.6667 23.9408 11.7783 24.164 12.0015C24.388 12.2255 24.5 12.5028 24.5 12.8333V22.1667C24.5 22.8083 24.2717 23.3578 23.8152 23.8152C23.3578 24.2717 22.8083 24.5 22.1667 24.5H5.83333ZM21 10.5C20.6694 10.5 20.3926 10.388 20.1693 10.164C19.9453 9.94078 19.8333 9.66389 19.8333 9.33333V8.16667H18.6667C18.3361 8.16667 18.0592 8.05506 17.836 7.83183C17.612 7.60783 17.5 7.33056 17.5 7C17.5 6.66944 17.612 6.39217 17.836 6.16817C18.0592 5.94494 18.3361 5.83333 18.6667 5.83333H19.8333V4.66667C19.8333 4.33611 19.9453 4.05883 20.1693 3.83483C20.3926 3.61161 20.6694 3.5 21 3.5C21.3306 3.5 21.6074 3.61161 21.8307 3.83483C22.0547 4.05883 22.1667 4.33611 22.1667 4.66667V5.83333H23.3333C23.6639 5.83333 23.9408 5.94494 24.164 6.16817C24.388 6.39217 24.5 6.66944 24.5 7C24.5 7.33056 24.388 7.60783 24.164 7.83183C23.9408 8.05506 23.6639 8.16667 23.3333 8.16667H22.1667V9.33333C22.1667 9.66389 22.0547 9.94078 21.8307 10.164C21.6074 10.388 21.3306 10.5 21 10.5ZM8.16667 19.8333H19.8333C20.0667 19.8333 20.2417 19.7264 20.3583 19.5125C20.475 19.2986 20.4556 19.0944 20.3 18.9L17.0917 14.6125C16.975 14.4569 16.8194 14.3792 16.625 14.3792C16.4306 14.3792 16.275 14.4569 16.1583 14.6125L13.125 18.6667L10.9667 15.7792C10.85 15.6236 10.6944 15.5458 10.5 15.5458C10.3056 15.5458 10.15 15.6236 10.0333 15.7792L7.7 18.9C7.54444 19.0944 7.525 19.2986 7.64167 19.5125C7.75833 19.7264 7.93333 19.8333 8.16667 19.8333ZM5.83333 12.8333V22.1667V5.83333V12.8333Z" fill="white"/>
</svg>
