<svg width="22" height="19" viewBox="0 0 22 19" fill="none" xmlns="http://www.w3.org/2000/svg">
<path d="M6.32255 7.94724H1.66451C1.35566 7.94724 1.05947 7.8271 0.841077 7.61327C0.622689 7.39943 0.5 7.10941 0.5 6.80699V2.24602C0.5 2.09628 0.530121 1.94801 0.588643 1.80967C0.647165 1.67133 0.732942 1.54563 0.841077 1.43975C0.949212 1.33387 1.07759 1.24988 1.21887 1.19258C1.36016 1.13527 1.51158 1.10578 1.66451 1.10578C1.81744 1.10578 1.96886 1.13527 2.11015 1.19258C2.25143 1.24988 2.37981 1.33387 2.48794 1.43975C2.59608 1.54563 2.68186 1.67133 2.74038 1.80967C2.7989 1.94801 2.82902 2.09628 2.82902 2.24602V4.05141L4.13909 2.77814C5.96017 0.999106 8.42757 0 11 0C13.5724 0 16.0398 0.999106 17.8609 2.77814C17.9695 2.88407 18.0556 3.00994 18.1144 3.14854C18.1732 3.28714 18.2034 3.43574 18.2034 3.58581C18.2034 3.73588 18.1732 3.88448 18.1144 4.02307C18.0556 4.16167 17.9695 4.28755 17.8609 4.39348C17.64 4.60361 17.3441 4.72115 17.036 4.72115C16.728 4.72115 16.4321 4.60361 16.2112 4.39348C15.5271 3.72291 14.7148 3.19094 13.8206 2.82799C12.9264 2.46503 11.968 2.27822 11 2.27822C10.032 2.27822 9.07357 2.46503 8.1794 2.82799C7.28522 3.19094 6.47288 3.72291 5.78882 4.39348L4.47874 5.66675H6.32255C6.6314 5.66675 6.9276 5.78688 7.14598 6.00072C7.36437 6.21456 7.48706 6.50458 7.48706 6.80699C7.48706 7.10941 7.36437 7.39943 7.14598 7.61327C6.9276 7.8271 6.6314 7.94724 6.32255 7.94724V7.94724ZM20.3355 11.0449H15.6774C15.3686 11.0449 15.0724 11.165 14.854 11.3789C14.6356 11.5927 14.5129 11.8827 14.5129 12.1851C14.5129 12.4876 14.6356 12.7776 14.854 12.9914C15.0724 13.2052 15.3686 13.3254 15.6774 13.3254H17.5213L16.2112 14.5987C15.5271 15.2692 14.7148 15.8012 13.8206 16.1641C12.9264 16.5271 11.968 16.7139 11 16.7139C10.032 16.7139 9.07357 16.5271 8.1794 16.1641C7.28522 15.8012 6.47288 15.2692 5.78882 14.5987C5.56786 14.3885 5.27197 14.271 4.96396 14.271C4.65594 14.271 4.36005 14.3885 4.13909 14.5987C4.03053 14.7046 3.94439 14.8305 3.88562 14.9691C3.82684 15.1077 3.79659 15.2563 3.79659 15.4063C3.79659 15.5564 3.82684 15.705 3.88562 15.8436C3.94439 15.9822 4.03053 16.1081 4.13909 16.214C5.03953 17.0972 6.10898 17.7978 7.28625 18.2759C8.46352 18.7539 9.72551 19 11 19C12.2745 19 13.5365 18.7539 14.7137 18.2759C15.891 17.7978 16.9605 17.0972 17.8609 16.214L19.171 14.9407V16.7461C19.171 17.0485 19.2937 17.3385 19.5121 17.5524C19.7304 17.7662 20.0266 17.8864 20.3355 17.8864C20.6443 17.8864 20.9405 17.7662 21.1589 17.5524C21.3773 17.3385 21.5 17.0485 21.5 16.7461V12.1851C21.5 11.8827 21.3773 11.5927 21.1589 11.3789C20.9405 11.165 20.6443 11.0449 20.3355 11.0449V11.0449Z" fill="white"/>
</svg>
