<svg width="301" height="112" viewBox="0 0 301 112" fill="none" xmlns="http://www.w3.org/2000/svg">
<rect y="0.129868" width="301" height="111.048" rx="4" fill="black"/>
<path opacity="0.2" d="M17.0195 19.0563V86.0953" stroke="#787878" stroke-width="0.385281"/>
<path opacity="0.2" d="M35.8982 19.0563V86.0953" stroke="#787878" stroke-width="0.385281"/>
<path opacity="0.2" d="M55.1624 19.0563V86.0953" stroke="#787878" stroke-width="0.385281"/>
<path opacity="0.2" d="M74.041 19.0563V86.0953" stroke="#787878" stroke-width="0.385281"/>
<path opacity="0.2" d="M93.3052 19.0563V86.0953" stroke="#787878" stroke-width="0.385281"/>
<path opacity="0.2" d="M112.184 19.0563V86.0953" stroke="#787878" stroke-width="0.385281"/>
<path opacity="0.2" d="M131.448 19.0563V86.0953" stroke="#787878" stroke-width="0.385281"/>
<path opacity="0.2" d="M150.327 19.0563V86.0953" stroke="#787878" stroke-width="0.385281"/>
<path opacity="0.2" d="M169.591 19.0563V86.0953" stroke="#787878" stroke-width="0.385281"/>
<path opacity="0.2" d="M188.47 19.0563V86.0953" stroke="#787878" stroke-width="0.385281"/>
<path opacity="0.2" d="M207.348 19.0563V86.0953" stroke="#787878" stroke-width="0.385281"/>
<path opacity="0.2" d="M226.613 19.0563V86.0953" stroke="#787878" stroke-width="0.385281"/>
<path opacity="0.2" d="M245.491 19.0563V86.0953" stroke="#787878" stroke-width="0.385281"/>
<path opacity="0.2" d="M264.756 19.0563V86.0953" stroke="#787878" stroke-width="0.385281"/>
<path opacity="0.2" d="M283.634 19.0563V86.0953" stroke="#787878" stroke-width="0.385281"/>
<path opacity="0.2" d="M17.2122 86.2879H293.459" stroke="#787878" stroke-width="0.385281"/>
<path opacity="0.2" d="M17.2122 63.9415H293.459" stroke="#787878" stroke-width="0.385281"/>
<path opacity="0.2" d="M17.2122 41.5952H293.459" stroke="#787878" stroke-width="0.385281"/>
<path d="M17.2122 86.2879H293.459" stroke="#787878" stroke-width="0.385281"/>
<path d="M17.0195 19.0563V86.0953" stroke="#787878" stroke-width="0.385281"/>
<path d="M14.217 90.4384V93.1775H13.8596V90.4384H14.217ZM15.0975 90.4384V90.7356H12.9811V90.4384H15.0975ZM16.1077 93.2151C15.966 93.2151 15.8374 93.1913 15.7221 93.1436C15.6079 93.0947 15.5095 93.0264 15.4267 92.9386C15.3452 92.8508 15.2825 92.7467 15.2386 92.6263C15.1947 92.5059 15.1727 92.3742 15.1727 92.2312V92.1522C15.1727 91.9867 15.1972 91.8393 15.2461 91.7101C15.295 91.5797 15.3615 91.4693 15.4455 91.379C15.5295 91.2887 15.6249 91.2204 15.7315 91.174C15.8381 91.1275 15.9484 91.1043 16.0626 91.1043C16.208 91.1043 16.3335 91.1294 16.4388 91.1796C16.5454 91.2298 16.6326 91.3 16.7003 91.3903C16.768 91.4793 16.8182 91.5847 16.8508 91.7063C16.8834 91.8267 16.8997 91.9584 16.8997 92.1014V92.2576H15.3797V91.9735H16.5517V91.9471C16.5467 91.8568 16.5279 91.7691 16.4952 91.6838C16.4639 91.5985 16.4137 91.5283 16.3447 91.4731C16.2758 91.4179 16.1817 91.3903 16.0626 91.3903C15.9835 91.3903 15.9108 91.4072 15.8443 91.4411C15.7779 91.4737 15.7208 91.5226 15.6731 91.5878C15.6255 91.653 15.5885 91.7327 15.5621 91.8267C15.5358 91.9208 15.5226 92.0293 15.5226 92.1522V92.2312C15.5226 92.3278 15.5358 92.4187 15.5621 92.504C15.5897 92.588 15.6292 92.662 15.6807 92.726C15.7333 92.79 15.7967 92.8401 15.8707 92.8765C15.9459 92.9129 16.0312 92.931 16.1265 92.931C16.2494 92.931 16.3535 92.906 16.4388 92.8558C16.5241 92.8056 16.5987 92.7385 16.6627 92.6545L16.8734 92.8219C16.8295 92.8884 16.7737 92.9517 16.7059 93.0119C16.6382 93.0721 16.5548 93.1211 16.4557 93.1587C16.3579 93.1963 16.2419 93.2151 16.1077 93.2151ZM17.5412 91.142L17.9871 91.8832L18.4386 91.142H18.8468L18.1809 92.1466L18.8675 93.1775H18.4649L17.9946 92.4137L17.5243 93.1775H17.1198L17.8046 92.1466L17.1405 91.142H17.5412ZM20.0696 91.142V91.4091H18.9691V91.142H20.0696ZM19.3416 90.6472H19.6896V92.6733C19.6896 92.7423 19.7003 92.7943 19.7216 92.8295C19.7429 92.8646 19.7705 92.8878 19.8044 92.8991C19.8382 92.9104 19.8746 92.916 19.9135 92.916C19.9423 92.916 19.9724 92.9135 20.0038 92.9085C20.0364 92.9022 20.0609 92.8972 20.0772 92.8934L20.079 93.1775C20.0515 93.1863 20.0151 93.1944 19.9699 93.2019C19.926 93.2107 19.8727 93.2151 19.81 93.2151C19.7247 93.2151 19.6464 93.1982 19.5749 93.1643C19.5034 93.1305 19.4463 93.074 19.4037 92.995C19.3623 92.9147 19.3416 92.8069 19.3416 92.6714V90.6472Z" fill="#787878"/>
<path d="M33.2683 90.4384V93.1775H32.9109V90.4384H33.2683ZM34.1487 90.4384V90.7356H32.0323V90.4384H34.1487ZM35.159 93.2151C35.0173 93.2151 34.8887 93.1913 34.7733 93.1436C34.6592 93.0947 34.5607 93.0264 34.478 92.9386C34.3964 92.8508 34.3337 92.7467 34.2898 92.6263C34.2459 92.5059 34.224 92.3742 34.224 92.2312V92.1522C34.224 91.9867 34.2485 91.8393 34.2974 91.7101C34.3463 91.5797 34.4127 91.4693 34.4968 91.379C34.5808 91.2887 34.6761 91.2204 34.7827 91.174C34.8893 91.1275 34.9997 91.1043 35.1138 91.1043C35.2593 91.1043 35.3847 91.1294 35.4901 91.1796C35.5967 91.2298 35.6838 91.3 35.7516 91.3903C35.8193 91.4793 35.8695 91.5847 35.9021 91.7063C35.9347 91.8267 35.951 91.9584 35.951 92.1014V92.2576H34.4309V91.9735H35.603V91.9471C35.5979 91.8568 35.5791 91.7691 35.5465 91.6838C35.5152 91.5985 35.465 91.5283 35.396 91.4731C35.327 91.4179 35.233 91.3903 35.1138 91.3903C35.0348 91.3903 34.9621 91.4072 34.8956 91.4411C34.8291 91.4737 34.7721 91.5226 34.7244 91.5878C34.6768 91.653 34.6398 91.7327 34.6134 91.8267C34.5871 91.9208 34.5739 92.0293 34.5739 92.1522V92.2312C34.5739 92.3278 34.5871 92.4187 34.6134 92.504C34.641 92.588 34.6805 92.662 34.7319 92.726C34.7846 92.79 34.8479 92.8401 34.9219 92.8765C34.9972 92.9129 35.0825 92.931 35.1778 92.931C35.3007 92.931 35.4048 92.906 35.4901 92.8558C35.5754 92.8056 35.65 92.7385 35.7139 92.6545L35.9247 92.8219C35.8808 92.8884 35.8249 92.9517 35.7572 93.0119C35.6895 93.0721 35.6061 93.1211 35.507 93.1587C35.4092 93.1963 35.2932 93.2151 35.159 93.2151ZM36.5925 91.142L37.0384 91.8832L37.4899 91.142H37.8981L37.2321 92.1466L37.9188 93.1775H37.5162L37.0459 92.4137L36.5756 93.1775H36.1711L36.8559 92.1466L36.1918 91.142H36.5925ZM39.1209 91.142V91.4091H38.0204V91.142H39.1209ZM38.3929 90.6472H38.7409V92.6733C38.7409 92.7423 38.7516 92.7943 38.7729 92.8295C38.7942 92.8646 38.8218 92.8878 38.8556 92.8991C38.8895 92.9104 38.9259 92.916 38.9648 92.916C38.9936 92.916 39.0237 92.9135 39.0551 92.9085C39.0877 92.9022 39.1121 92.8972 39.1284 92.8934L39.1303 93.1775C39.1027 93.1863 39.0663 93.1944 39.0212 93.2019C38.9773 93.2107 38.924 93.2151 38.8613 93.2151C38.776 93.2151 38.6976 93.1982 38.6261 93.1643C38.5546 93.1305 38.4976 93.074 38.4549 92.995C38.4136 92.9147 38.3929 92.8069 38.3929 92.6714V90.6472Z" fill="#787878"/>
<path d="M52.3198 90.4384V93.1775H51.9624V90.4384H52.3198ZM53.2003 90.4384V90.7356H51.0838V90.4384H53.2003ZM54.2105 93.2151C54.0688 93.2151 53.9402 93.1913 53.8248 93.1436C53.7107 93.0947 53.6123 93.0264 53.5295 92.9386C53.448 92.8508 53.3852 92.7467 53.3414 92.6263C53.2975 92.5059 53.2755 92.3742 53.2755 92.2312V92.1522C53.2755 91.9867 53.3 91.8393 53.3489 91.7101C53.3978 91.5797 53.4643 91.4693 53.5483 91.379C53.6323 91.2887 53.7276 91.2204 53.8342 91.174C53.9408 91.1275 54.0512 91.1043 54.1653 91.1043C54.3108 91.1043 54.4362 91.1294 54.5416 91.1796C54.6482 91.2298 54.7354 91.3 54.8031 91.3903C54.8708 91.4793 54.921 91.5847 54.9536 91.7063C54.9862 91.8267 55.0025 91.9584 55.0025 92.1014V92.2576H53.4824V91.9735H54.6545V91.9471C54.6495 91.8568 54.6306 91.7691 54.598 91.6838C54.5667 91.5985 54.5165 91.5283 54.4475 91.4731C54.3786 91.4179 54.2845 91.3903 54.1653 91.3903C54.0863 91.3903 54.0136 91.4072 53.9471 91.4411C53.8806 91.4737 53.8236 91.5226 53.7759 91.5878C53.7283 91.653 53.6913 91.7327 53.6649 91.8267C53.6386 91.9208 53.6254 92.0293 53.6254 92.1522V92.2312C53.6254 92.3278 53.6386 92.4187 53.6649 92.504C53.6925 92.588 53.732 92.662 53.7834 92.726C53.8361 92.79 53.8995 92.8401 53.9735 92.8765C54.0487 92.9129 54.134 92.931 54.2293 92.931C54.3522 92.931 54.4563 92.906 54.5416 92.8558C54.6269 92.8056 54.7015 92.7385 54.7655 92.6545L54.9762 92.8219C54.9323 92.8884 54.8765 92.9517 54.8087 93.0119C54.741 93.0721 54.6576 93.1211 54.5585 93.1587C54.4607 93.1963 54.3447 93.2151 54.2105 93.2151ZM55.644 91.142L56.0899 91.8832L56.5414 91.142H56.9496L56.2836 92.1466L56.9703 93.1775H56.5677L56.0974 92.4137L55.6271 93.1775H55.2226L55.9074 92.1466L55.2433 91.142H55.644ZM58.1724 91.142V91.4091H57.0719V91.142H58.1724ZM57.4444 90.6472H57.7924V92.6733C57.7924 92.7423 57.8031 92.7943 57.8244 92.8295C57.8457 92.8646 57.8733 92.8878 57.9072 92.8991C57.941 92.9104 57.9774 92.916 58.0163 92.916C58.0451 92.916 58.0752 92.9135 58.1066 92.9085C58.1392 92.9022 58.1636 92.8972 58.1799 92.8934L58.1818 93.1775C58.1542 93.1863 58.1179 93.1944 58.0727 93.2019C58.0288 93.2107 57.9755 93.2151 57.9128 93.2151C57.8275 93.2151 57.7491 93.1982 57.6776 93.1643C57.6062 93.1305 57.5491 93.074 57.5065 92.995C57.4651 92.9147 57.4444 92.8069 57.4444 92.6714V90.6472Z" fill="#787878"/>
<path d="M71.3713 90.4384V93.1775H71.0139V90.4384H71.3713ZM72.2518 90.4384V90.7356H70.1354V90.4384H72.2518ZM73.262 93.2151C73.1203 93.2151 72.9917 93.1913 72.8763 93.1436C72.7622 93.0947 72.6638 93.0264 72.581 92.9386C72.4995 92.8508 72.4368 92.7467 72.3929 92.6263C72.349 92.5059 72.327 92.3742 72.327 92.2312V92.1522C72.327 91.9867 72.3515 91.8393 72.4004 91.7101C72.4493 91.5797 72.5158 91.4693 72.5998 91.379C72.6838 91.2887 72.7792 91.2204 72.8858 91.174C72.9924 91.1275 73.1027 91.1043 73.2169 91.1043C73.3623 91.1043 73.4878 91.1294 73.5931 91.1796C73.6997 91.2298 73.7869 91.3 73.8546 91.3903C73.9223 91.4793 73.9725 91.5847 74.0051 91.7063C74.0377 91.8267 74.054 91.9584 74.054 92.1014V92.2576H72.534V91.9735H73.706V91.9471C73.701 91.8568 73.6822 91.7691 73.6495 91.6838C73.6182 91.5985 73.568 91.5283 73.499 91.4731C73.4301 91.4179 73.336 91.3903 73.2169 91.3903C73.1378 91.3903 73.0651 91.4072 72.9986 91.4411C72.9322 91.4737 72.8751 91.5226 72.8274 91.5878C72.7798 91.653 72.7428 91.7327 72.7164 91.8267C72.6901 91.9208 72.6769 92.0293 72.6769 92.1522V92.2312C72.6769 92.3278 72.6901 92.4187 72.7164 92.504C72.744 92.588 72.7835 92.662 72.835 92.726C72.8876 92.79 72.951 92.8401 73.025 92.8765C73.1002 92.9129 73.1855 92.931 73.2808 92.931C73.4037 92.931 73.5078 92.906 73.5931 92.8558C73.6784 92.8056 73.753 92.7385 73.817 92.6545L74.0277 92.8219C73.9838 92.8884 73.928 92.9517 73.8602 93.0119C73.7925 93.0721 73.7091 93.1211 73.61 93.1587C73.5122 93.1963 73.3962 93.2151 73.262 93.2151ZM74.6955 91.142L75.1414 91.8832L75.5929 91.142H76.0011L75.3352 92.1466L76.0218 93.1775H75.6192L75.1489 92.4137L74.6786 93.1775H74.2741L74.9589 92.1466L74.2948 91.142H74.6955ZM77.2239 91.142V91.4091H76.1234V91.142H77.2239ZM76.4959 90.6472H76.8439V92.6733C76.8439 92.7423 76.8546 92.7943 76.8759 92.8295C76.8972 92.8646 76.9248 92.8878 76.9587 92.8991C76.9925 92.9104 77.0289 92.916 77.0678 92.916C77.0966 92.916 77.1267 92.9135 77.1581 92.9085C77.1907 92.9022 77.2152 92.8972 77.2315 92.8934L77.2333 93.1775C77.2057 93.1863 77.1694 93.1944 77.1242 93.2019C77.0803 93.2107 77.027 93.2151 76.9643 93.2151C76.879 93.2151 76.8007 93.1982 76.7292 93.1643C76.6577 93.1305 76.6006 93.074 76.558 92.995C76.5166 92.9147 76.4959 92.8069 76.4959 92.6714V90.6472Z" fill="#787878"/>
<path d="M90.4231 90.4384V93.1775H90.0657V90.4384H90.4231ZM91.3035 90.4384V90.7356H89.1871V90.4384H91.3035ZM92.3138 93.2151C92.172 93.2151 92.0435 93.1913 91.9281 93.1436C91.814 93.0947 91.7155 93.0264 91.6327 92.9386C91.5512 92.8508 91.4885 92.7467 91.4446 92.6263C91.4007 92.5059 91.3788 92.3742 91.3788 92.2312V92.1522C91.3788 91.9867 91.4032 91.8393 91.4521 91.7101C91.5011 91.5797 91.5675 91.4693 91.6516 91.379C91.7356 91.2887 91.8309 91.2204 91.9375 91.174C92.0441 91.1275 92.1545 91.1043 92.2686 91.1043C92.4141 91.1043 92.5395 91.1294 92.6449 91.1796C92.7515 91.2298 92.8386 91.3 92.9064 91.3903C92.9741 91.4793 93.0243 91.5847 93.0569 91.7063C93.0895 91.8267 93.1058 91.9584 93.1058 92.1014V92.2576H91.5857V91.9735H92.7577V91.9471C92.7527 91.8568 92.7339 91.7691 92.7013 91.6838C92.6699 91.5985 92.6198 91.5283 92.5508 91.4731C92.4818 91.4179 92.3878 91.3903 92.2686 91.3903C92.1896 91.3903 92.1169 91.4072 92.0504 91.4411C91.9839 91.4737 91.9269 91.5226 91.8792 91.5878C91.8315 91.653 91.7945 91.7327 91.7682 91.8267C91.7419 91.9208 91.7287 92.0293 91.7287 92.1522V92.2312C91.7287 92.3278 91.7419 92.4187 91.7682 92.504C91.7958 92.588 91.8353 92.662 91.8867 92.726C91.9394 92.79 92.0027 92.8401 92.0767 92.8765C92.152 92.9129 92.2373 92.931 92.3326 92.931C92.4555 92.931 92.5596 92.906 92.6449 92.8558C92.7301 92.8056 92.8048 92.7385 92.8687 92.6545L93.0794 92.8219C93.0355 92.8884 92.9797 92.9517 92.912 93.0119C92.8443 93.0721 92.7609 93.1211 92.6618 93.1587C92.564 93.1963 92.448 93.2151 92.3138 93.2151ZM93.7473 91.142L94.1931 91.8832L94.6446 91.142H95.0529L94.3869 92.1466L95.0736 93.1775H94.671L94.2007 92.4137L93.7304 93.1775H93.3259L94.0107 92.1466L93.3466 91.142H93.7473ZM96.2757 91.142V91.4091H95.1752V91.142H96.2757ZM95.5476 90.6472H95.8957V92.6733C95.8957 92.7423 95.9063 92.7943 95.9277 92.8295C95.949 92.8646 95.9766 92.8878 96.0104 92.8991C96.0443 92.9104 96.0807 92.916 96.1195 92.916C96.1484 92.916 96.1785 92.9135 96.2098 92.9085C96.2425 92.9022 96.2669 92.8972 96.2832 92.8934L96.2851 93.1775C96.2575 93.1863 96.2211 93.1944 96.176 93.2019C96.1321 93.2107 96.0788 93.2151 96.0161 93.2151C95.9308 93.2151 95.8524 93.1982 95.7809 93.1643C95.7094 93.1305 95.6524 93.074 95.6097 92.995C95.5683 92.9147 95.5476 92.8069 95.5476 92.6714V90.6472Z" fill="#787878"/>
<path d="M109.475 90.4384V93.1775H109.117V90.4384H109.475ZM110.355 90.4384V90.7356H108.239V90.4384H110.355ZM111.365 93.2151C111.224 93.2151 111.095 93.1913 110.98 93.1436C110.865 93.0947 110.767 93.0264 110.684 92.9386C110.603 92.8508 110.54 92.7467 110.496 92.6263C110.452 92.5059 110.43 92.3742 110.43 92.2312V92.1522C110.43 91.9867 110.455 91.8393 110.504 91.7101C110.553 91.5797 110.619 91.4693 110.703 91.379C110.787 91.2887 110.882 91.2204 110.989 91.174C111.096 91.1275 111.206 91.1043 111.32 91.1043C111.466 91.1043 111.591 91.1294 111.696 91.1796C111.803 91.2298 111.89 91.3 111.958 91.3903C112.026 91.4793 112.076 91.5847 112.108 91.7063C112.141 91.8267 112.157 91.9584 112.157 92.1014V92.2576H110.637V91.9735H111.809V91.9471C111.804 91.8568 111.785 91.7691 111.753 91.6838C111.721 91.5985 111.671 91.5283 111.602 91.4731C111.533 91.4179 111.439 91.3903 111.32 91.3903C111.241 91.3903 111.168 91.4072 111.102 91.4411C111.035 91.4737 110.978 91.5226 110.931 91.5878C110.883 91.653 110.846 91.7327 110.82 91.8267C110.793 91.9208 110.78 92.0293 110.78 92.1522V92.2312C110.78 92.3278 110.793 92.4187 110.82 92.504C110.847 92.588 110.887 92.662 110.938 92.726C110.991 92.79 111.054 92.8401 111.128 92.8765C111.203 92.9129 111.289 92.931 111.384 92.931C111.507 92.931 111.611 92.906 111.696 92.8558C111.782 92.8056 111.856 92.7385 111.92 92.6545L112.131 92.8219C112.087 92.8884 112.031 92.9517 111.964 93.0119C111.896 93.0721 111.812 93.1211 111.713 93.1587C111.615 93.1963 111.499 93.2151 111.365 93.2151ZM112.799 91.142L113.245 91.8832L113.696 91.142H114.104L113.438 92.1466L114.125 93.1775H113.722L113.252 92.4137L112.782 93.1775H112.377L113.062 92.1466L112.398 91.142H112.799ZM115.327 91.142V91.4091H114.227V91.142H115.327ZM114.599 90.6472H114.947V92.6733C114.947 92.7423 114.958 92.7943 114.979 92.8295C115 92.8646 115.028 92.8878 115.062 92.8991C115.096 92.9104 115.132 92.916 115.171 92.916C115.2 92.916 115.23 92.9135 115.261 92.9085C115.294 92.9022 115.318 92.8972 115.335 92.8934L115.337 93.1775C115.309 93.1863 115.273 93.1944 115.227 93.2019C115.184 93.2107 115.13 93.2151 115.068 93.2151C114.982 93.2151 114.904 93.1982 114.832 93.1643C114.761 93.1305 114.704 93.074 114.661 92.995C114.62 92.9147 114.599 92.8069 114.599 92.6714V90.6472Z" fill="#787878"/>
<path d="M128.526 90.4384V93.1775H128.169V90.4384H128.526ZM129.407 90.4384V90.7356H127.29V90.4384H129.407ZM130.417 93.2151C130.275 93.2151 130.147 93.1913 130.031 93.1436C129.917 93.0947 129.819 93.0264 129.736 92.9386C129.654 92.8508 129.592 92.7467 129.548 92.6263C129.504 92.5059 129.482 92.3742 129.482 92.2312V92.1522C129.482 91.9867 129.506 91.8393 129.555 91.7101C129.604 91.5797 129.671 91.4693 129.755 91.379C129.839 91.2887 129.934 91.2204 130.041 91.174C130.147 91.1275 130.258 91.1043 130.372 91.1043C130.517 91.1043 130.643 91.1294 130.748 91.1796C130.854 91.2298 130.942 91.3 131.009 91.3903C131.077 91.4793 131.127 91.5847 131.16 91.7063C131.192 91.8267 131.209 91.9584 131.209 92.1014V92.2576H129.689V91.9735H130.861V91.9471C130.856 91.8568 130.837 91.7691 130.804 91.6838C130.773 91.5985 130.723 91.5283 130.654 91.4731C130.585 91.4179 130.491 91.3903 130.372 91.3903C130.293 91.3903 130.22 91.4072 130.153 91.4411C130.087 91.4737 130.03 91.5226 129.982 91.5878C129.935 91.653 129.898 91.7327 129.871 91.8267C129.845 91.9208 129.832 92.0293 129.832 92.1522V92.2312C129.832 92.3278 129.845 92.4187 129.871 92.504C129.899 92.588 129.938 92.662 129.99 92.726C130.042 92.79 130.106 92.8401 130.18 92.8765C130.255 92.9129 130.34 92.931 130.436 92.931C130.559 92.931 130.663 92.906 130.748 92.8558C130.833 92.8056 130.908 92.7385 130.972 92.6545L131.182 92.8219C131.139 92.8884 131.083 92.9517 131.015 93.0119C130.947 93.0721 130.864 93.1211 130.765 93.1587C130.667 93.1963 130.551 93.2151 130.417 93.2151ZM131.85 91.142L132.296 91.8832L132.748 91.142H133.156L132.49 92.1466L133.177 93.1775H132.774L132.304 92.4137L131.833 93.1775H131.429L132.114 92.1466L131.45 91.142H131.85ZM134.379 91.142V91.4091H133.278V91.142H134.379ZM133.651 90.6472H133.999V92.6733C133.999 92.7423 134.009 92.7943 134.031 92.8295C134.052 92.8646 134.08 92.8878 134.113 92.8991C134.147 92.9104 134.184 92.916 134.223 92.916C134.251 92.916 134.282 92.9135 134.313 92.9085C134.345 92.9022 134.37 92.8972 134.386 92.8934L134.388 93.1775C134.361 93.1863 134.324 93.1944 134.279 93.2019C134.235 93.2107 134.182 93.2151 134.119 93.2151C134.034 93.2151 133.955 93.1982 133.884 93.1643C133.812 93.1305 133.755 93.074 133.713 92.995C133.671 92.9147 133.651 92.8069 133.651 92.6714V90.6472Z" fill="#787878"/>
<path d="M147.577 90.4384V93.1775H147.22V90.4384H147.577ZM148.458 90.4384V90.7356H146.341V90.4384H148.458ZM149.468 93.2151C149.326 93.2151 149.198 93.1913 149.082 93.1436C148.968 93.0947 148.87 93.0264 148.787 92.9386C148.706 92.8508 148.643 92.7467 148.599 92.6263C148.555 92.5059 148.533 92.3742 148.533 92.2312V92.1522C148.533 91.9867 148.558 91.8393 148.606 91.7101C148.655 91.5797 148.722 91.4693 148.806 91.379C148.89 91.2887 148.985 91.2204 149.092 91.174C149.198 91.1275 149.309 91.1043 149.423 91.1043C149.568 91.1043 149.694 91.1294 149.799 91.1796C149.906 91.2298 149.993 91.3 150.061 91.3903C150.128 91.4793 150.179 91.5847 150.211 91.7063C150.244 91.8267 150.26 91.9584 150.26 92.1014V92.2576H148.74V91.9735H149.912V91.9471C149.907 91.8568 149.888 91.7691 149.856 91.6838C149.824 91.5985 149.774 91.5283 149.705 91.4731C149.636 91.4179 149.542 91.3903 149.423 91.3903C149.344 91.3903 149.271 91.4072 149.205 91.4411C149.138 91.4737 149.081 91.5226 149.033 91.5878C148.986 91.653 148.949 91.7327 148.922 91.8267C148.896 91.9208 148.883 92.0293 148.883 92.1522V92.2312C148.883 92.3278 148.896 92.4187 148.922 92.504C148.95 92.588 148.99 92.662 149.041 92.726C149.094 92.79 149.157 92.8401 149.231 92.8765C149.306 92.9129 149.392 92.931 149.487 92.931C149.61 92.931 149.714 92.906 149.799 92.8558C149.884 92.8056 149.959 92.7385 150.023 92.6545L150.234 92.8219C150.19 92.8884 150.134 92.9517 150.066 93.0119C149.999 93.0721 149.915 93.1211 149.816 93.1587C149.718 93.1963 149.602 93.2151 149.468 93.2151ZM150.902 91.142L151.347 91.8832L151.799 91.142H152.207L151.541 92.1466L152.228 93.1775H151.825L151.355 92.4137L150.885 93.1775H150.48L151.165 92.1466L150.501 91.142H150.902ZM153.43 91.142V91.4091H152.329V91.142H153.43ZM152.702 90.6472H153.05V92.6733C153.05 92.7423 153.061 92.7943 153.082 92.8295C153.103 92.8646 153.131 92.8878 153.165 92.8991C153.199 92.9104 153.235 92.916 153.274 92.916C153.303 92.916 153.333 92.9135 153.364 92.9085C153.397 92.9022 153.421 92.8972 153.438 92.8934L153.439 93.1775C153.412 93.1863 153.375 93.1944 153.33 93.2019C153.286 93.2107 153.233 93.2151 153.17 93.2151C153.085 93.2151 153.007 93.1982 152.935 93.1643C152.864 93.1305 152.807 93.074 152.764 92.995C152.723 92.9147 152.702 92.8069 152.702 92.6714V90.6472Z" fill="#787878"/>
<path d="M166.629 90.4384V93.1775H166.271V90.4384H166.629ZM167.509 90.4384V90.7356H165.393V90.4384H167.509ZM168.52 93.2151C168.378 93.2151 168.249 93.1913 168.134 93.1436C168.02 93.0947 167.921 93.0264 167.839 92.9386C167.757 92.8508 167.694 92.7467 167.65 92.6263C167.607 92.5059 167.585 92.3742 167.585 92.2312V92.1522C167.585 91.9867 167.609 91.8393 167.658 91.7101C167.707 91.5797 167.773 91.4693 167.857 91.379C167.941 91.2887 168.037 91.2204 168.143 91.174C168.25 91.1275 168.36 91.1043 168.474 91.1043C168.62 91.1043 168.745 91.1294 168.851 91.1796C168.957 91.2298 169.044 91.3 169.112 91.3903C169.18 91.4793 169.23 91.5847 169.263 91.7063C169.295 91.8267 169.312 91.9584 169.312 92.1014V92.2576H167.792V91.9735H168.964V91.9471C168.959 91.8568 168.94 91.7691 168.907 91.6838C168.876 91.5985 168.826 91.5283 168.757 91.4731C168.688 91.4179 168.594 91.3903 168.474 91.3903C168.395 91.3903 168.323 91.4072 168.256 91.4411C168.19 91.4737 168.133 91.5226 168.085 91.5878C168.037 91.653 168 91.7327 167.974 91.8267C167.948 91.9208 167.935 92.0293 167.935 92.1522V92.2312C167.935 92.3278 167.948 92.4187 167.974 92.504C168.002 92.588 168.041 92.662 168.093 92.726C168.145 92.79 168.209 92.8401 168.283 92.8765C168.358 92.9129 168.443 92.931 168.538 92.931C168.661 92.931 168.765 92.906 168.851 92.8558C168.936 92.8056 169.011 92.7385 169.075 92.6545L169.285 92.8219C169.241 92.8884 169.186 92.9517 169.118 93.0119C169.05 93.0721 168.967 93.1211 168.868 93.1587C168.77 93.1963 168.654 93.2151 168.52 93.2151ZM169.953 91.142L170.399 91.8832L170.85 91.142H171.259L170.593 92.1466L171.279 93.1775H170.877L170.406 92.4137L169.936 93.1775H169.532L170.216 92.1466L169.552 91.142H169.953ZM172.482 91.142V91.4091H171.381V91.142H172.482ZM171.753 90.6472H172.101V92.6733C172.101 92.7423 172.112 92.7943 172.133 92.8295C172.155 92.8646 172.182 92.8878 172.216 92.8991C172.25 92.9104 172.286 92.916 172.325 92.916C172.354 92.916 172.384 92.9135 172.416 92.9085C172.448 92.9022 172.473 92.8972 172.489 92.8934L172.491 93.1775C172.463 93.1863 172.427 93.1944 172.382 93.2019C172.338 93.2107 172.285 93.2151 172.222 93.2151C172.137 93.2151 172.058 93.1982 171.987 93.1643C171.915 93.1305 171.858 93.074 171.816 92.995C171.774 92.9147 171.753 92.8069 171.753 92.6714V90.6472Z" fill="#787878"/>
<path d="M185.68 90.4384V93.1775H185.323V90.4384H185.68ZM186.561 90.4384V90.7356H184.444V90.4384H186.561ZM187.571 93.2151C187.429 93.2151 187.301 93.1913 187.185 93.1436C187.071 93.0947 186.973 93.0264 186.89 92.9386C186.809 92.8508 186.746 92.7467 186.702 92.6263C186.658 92.5059 186.636 92.3742 186.636 92.2312V92.1522C186.636 91.9867 186.661 91.8393 186.709 91.7101C186.758 91.5797 186.825 91.4693 186.909 91.379C186.993 91.2887 187.088 91.2204 187.195 91.174C187.301 91.1275 187.412 91.1043 187.526 91.1043C187.671 91.1043 187.797 91.1294 187.902 91.1796C188.009 91.2298 188.096 91.3 188.164 91.3903C188.231 91.4793 188.282 91.5847 188.314 91.7063C188.347 91.8267 188.363 91.9584 188.363 92.1014V92.2576H186.843V91.9735H188.015V91.9471C188.01 91.8568 187.991 91.7691 187.959 91.6838C187.927 91.5985 187.877 91.5283 187.808 91.4731C187.739 91.4179 187.645 91.3903 187.526 91.3903C187.447 91.3903 187.374 91.4072 187.308 91.4411C187.241 91.4737 187.184 91.5226 187.137 91.5878C187.089 91.653 187.052 91.7327 187.026 91.8267C186.999 91.9208 186.986 92.0293 186.986 92.1522V92.2312C186.986 92.3278 186.999 92.4187 187.026 92.504C187.053 92.588 187.093 92.662 187.144 92.726C187.197 92.79 187.26 92.8401 187.334 92.8765C187.409 92.9129 187.495 92.931 187.59 92.931C187.713 92.931 187.817 92.906 187.902 92.8558C187.987 92.8056 188.062 92.7385 188.126 92.6545L188.337 92.8219C188.293 92.8884 188.237 92.9517 188.169 93.0119C188.102 93.0721 188.018 93.1211 187.919 93.1587C187.821 93.1963 187.705 93.2151 187.571 93.2151ZM189.005 91.142L189.45 91.8832L189.902 91.142H190.31L189.644 92.1466L190.331 93.1775H189.928L189.458 92.4137L188.988 93.1775H188.583L189.268 92.1466L188.604 91.142H189.005ZM191.533 91.142V91.4091H190.432V91.142H191.533ZM190.805 90.6472H191.153V92.6733C191.153 92.7423 191.164 92.7943 191.185 92.8295C191.206 92.8646 191.234 92.8878 191.268 92.8991C191.302 92.9104 191.338 92.916 191.377 92.916C191.406 92.916 191.436 92.9135 191.467 92.9085C191.5 92.9022 191.524 92.8972 191.541 92.8934L191.542 93.1775C191.515 93.1863 191.478 93.1944 191.433 93.2019C191.389 93.2107 191.336 93.2151 191.273 93.2151C191.188 93.2151 191.11 93.1982 191.038 93.1643C190.967 93.1305 190.91 93.074 190.867 92.995C190.826 92.9147 190.805 92.8069 190.805 92.6714V90.6472Z" fill="#787878"/>
<path d="M204.732 90.4384V93.1775H204.375V90.4384H204.732ZM205.613 90.4384V90.7356H203.496V90.4384H205.613ZM206.623 93.2151C206.481 93.2151 206.353 93.1913 206.237 93.1436C206.123 93.0947 206.025 93.0264 205.942 92.9386C205.86 92.8508 205.798 92.7467 205.754 92.6263C205.71 92.5059 205.688 92.3742 205.688 92.2312V92.1522C205.688 91.9867 205.712 91.8393 205.761 91.7101C205.81 91.5797 205.877 91.4693 205.961 91.379C206.045 91.2887 206.14 91.2204 206.247 91.174C206.353 91.1275 206.464 91.1043 206.578 91.1043C206.723 91.1043 206.849 91.1294 206.954 91.1796C207.061 91.2298 207.148 91.3 207.215 91.3903C207.283 91.4793 207.333 91.5847 207.366 91.7063C207.399 91.8267 207.415 91.9584 207.415 92.1014V92.2576H205.895V91.9735H207.067V91.9471C207.062 91.8568 207.043 91.7691 207.01 91.6838C206.979 91.5985 206.929 91.5283 206.86 91.4731C206.791 91.4179 206.697 91.3903 206.578 91.3903C206.499 91.3903 206.426 91.4072 206.359 91.4411C206.293 91.4737 206.236 91.5226 206.188 91.5878C206.141 91.653 206.104 91.7327 206.077 91.8267C206.051 91.9208 206.038 92.0293 206.038 92.1522V92.2312C206.038 92.3278 206.051 92.4187 206.077 92.504C206.105 92.588 206.144 92.662 206.196 92.726C206.248 92.79 206.312 92.8401 206.386 92.8765C206.461 92.9129 206.546 92.931 206.642 92.931C206.765 92.931 206.869 92.906 206.954 92.8558C207.039 92.8056 207.114 92.7385 207.178 92.6545L207.389 92.8219C207.345 92.8884 207.289 92.9517 207.221 93.0119C207.153 93.0721 207.07 93.1211 206.971 93.1587C206.873 93.1963 206.757 93.2151 206.623 93.2151ZM208.056 91.142L208.502 91.8832L208.954 91.142H209.362L208.696 92.1466L209.383 93.1775H208.98L208.51 92.4137L208.039 93.1775H207.635L208.32 92.1466L207.656 91.142H208.056ZM210.585 91.142V91.4091H209.484V91.142H210.585ZM209.857 90.6472H210.205V92.6733C210.205 92.7423 210.215 92.7943 210.237 92.8295C210.258 92.8646 210.286 92.8878 210.32 92.8991C210.353 92.9104 210.39 92.916 210.429 92.916C210.457 92.916 210.488 92.9135 210.519 92.9085C210.552 92.9022 210.576 92.8972 210.592 92.8934L210.594 93.1775C210.567 93.1863 210.53 93.1944 210.485 93.2019C210.441 93.2107 210.388 93.2151 210.325 93.2151C210.24 93.2151 210.161 93.1982 210.09 93.1643C210.019 93.1305 209.961 93.074 209.919 92.995C209.877 92.9147 209.857 92.8069 209.857 92.6714V90.6472Z" fill="#787878"/>
<path d="M223.784 90.4384V93.1775H223.426V90.4384H223.784ZM224.664 90.4384V90.7356H222.548V90.4384H224.664ZM225.674 93.2151C225.533 93.2151 225.404 93.1913 225.289 93.1436C225.175 93.0947 225.076 93.0264 224.993 92.9386C224.912 92.8508 224.849 92.7467 224.805 92.6263C224.761 92.5059 224.739 92.3742 224.739 92.2312V92.1522C224.739 91.9867 224.764 91.8393 224.813 91.7101C224.862 91.5797 224.928 91.4693 225.012 91.379C225.096 91.2887 225.192 91.2204 225.298 91.174C225.405 91.1275 225.515 91.1043 225.629 91.1043C225.775 91.1043 225.9 91.1294 226.005 91.1796C226.112 91.2298 226.199 91.3 226.267 91.3903C226.335 91.4793 226.385 91.5847 226.417 91.7063C226.45 91.8267 226.466 91.9584 226.466 92.1014V92.2576H224.946V91.9735H226.118V91.9471C226.113 91.8568 226.095 91.7691 226.062 91.6838C226.031 91.5985 225.98 91.5283 225.911 91.4731C225.842 91.4179 225.748 91.3903 225.629 91.3903C225.55 91.3903 225.477 91.4072 225.411 91.4411C225.345 91.4737 225.287 91.5226 225.24 91.5878C225.192 91.653 225.155 91.7327 225.129 91.8267C225.102 91.9208 225.089 92.0293 225.089 92.1522V92.2312C225.089 92.3278 225.102 92.4187 225.129 92.504C225.156 92.588 225.196 92.662 225.247 92.726C225.3 92.79 225.363 92.8401 225.437 92.8765C225.513 92.9129 225.598 92.931 225.693 92.931C225.816 92.931 225.92 92.906 226.005 92.8558C226.091 92.8056 226.165 92.7385 226.229 92.6545L226.44 92.8219C226.396 92.8884 226.34 92.9517 226.273 93.0119C226.205 93.0721 226.121 93.1211 226.022 93.1587C225.925 93.1963 225.809 93.2151 225.674 93.2151ZM227.108 91.142L227.554 91.8832L228.005 91.142H228.413L227.748 92.1466L228.434 93.1775H228.032L227.561 92.4137L227.091 93.1775H226.686L227.371 92.1466L226.707 91.142H227.108ZM229.636 91.142V91.4091H228.536V91.142H229.636ZM228.908 90.6472H229.256V92.6733C229.256 92.7423 229.267 92.7943 229.288 92.8295C229.31 92.8646 229.337 92.8878 229.371 92.8991C229.405 92.9104 229.441 92.916 229.48 92.916C229.509 92.916 229.539 92.9135 229.57 92.9085C229.603 92.9022 229.628 92.8972 229.644 92.8934L229.646 93.1775C229.618 93.1863 229.582 93.1944 229.537 93.2019C229.493 93.2107 229.439 93.2151 229.377 93.2151C229.291 93.2151 229.213 93.1982 229.142 93.1643C229.07 93.1305 229.013 93.074 228.97 92.995C228.929 92.9147 228.908 92.8069 228.908 92.6714V90.6472Z" fill="#787878"/>
<path d="M242.835 90.4384V93.1775H242.478V90.4384H242.835ZM243.716 90.4384V90.7356H241.599V90.4384H243.716ZM244.726 93.2151C244.584 93.2151 244.456 93.1913 244.34 93.1436C244.226 93.0947 244.128 93.0264 244.045 92.9386C243.963 92.8508 243.901 92.7467 243.857 92.6263C243.813 92.5059 243.791 92.3742 243.791 92.2312V92.1522C243.791 91.9867 243.815 91.8393 243.864 91.7101C243.913 91.5797 243.98 91.4693 244.064 91.379C244.148 91.2887 244.243 91.2204 244.35 91.174C244.456 91.1275 244.567 91.1043 244.681 91.1043C244.826 91.1043 244.952 91.1294 245.057 91.1796C245.164 91.2298 245.251 91.3 245.318 91.3903C245.386 91.4793 245.436 91.5847 245.469 91.7063C245.502 91.8267 245.518 91.9584 245.518 92.1014V92.2576H243.998V91.9735H245.17V91.9471C245.165 91.8568 245.146 91.7691 245.113 91.6838C245.082 91.5985 245.032 91.5283 244.963 91.4731C244.894 91.4179 244.8 91.3903 244.681 91.3903C244.602 91.3903 244.529 91.4072 244.462 91.4411C244.396 91.4737 244.339 91.5226 244.291 91.5878C244.244 91.653 244.207 91.7327 244.18 91.8267C244.154 91.9208 244.141 92.0293 244.141 92.1522V92.2312C244.141 92.3278 244.154 92.4187 244.18 92.504C244.208 92.588 244.247 92.662 244.299 92.726C244.352 92.79 244.415 92.8401 244.489 92.8765C244.564 92.9129 244.649 92.931 244.745 92.931C244.868 92.931 244.972 92.906 245.057 92.8558C245.142 92.8056 245.217 92.7385 245.281 92.6545L245.492 92.8219C245.448 92.8884 245.392 92.9517 245.324 93.0119C245.256 93.0721 245.173 93.1211 245.074 93.1587C244.976 93.1963 244.86 93.2151 244.726 93.2151ZM246.159 91.142L246.605 91.8832L247.057 91.142H247.465L246.799 92.1466L247.486 93.1775H247.083L246.613 92.4137L246.142 93.1775H245.738L246.423 92.1466L245.759 91.142H246.159ZM248.688 91.142V91.4091H247.587V91.142H248.688ZM247.96 90.6472H248.308V92.6733C248.308 92.7423 248.318 92.7943 248.34 92.8295C248.361 92.8646 248.389 92.8878 248.423 92.8991C248.456 92.9104 248.493 92.916 248.532 92.916C248.561 92.916 248.591 92.9135 248.622 92.9085C248.655 92.9022 248.679 92.8972 248.695 92.8934L248.697 93.1775C248.67 93.1863 248.633 93.1944 248.588 93.2019C248.544 93.2107 248.491 93.2151 248.428 93.2151C248.343 93.2151 248.265 93.1982 248.193 93.1643C248.122 93.1305 248.064 93.074 248.022 92.995C247.98 92.9147 247.96 92.8069 247.96 92.6714V90.6472Z" fill="#787878"/>
<path d="M261.886 90.4384V93.1775H261.529V90.4384H261.886ZM262.767 90.4384V90.7356H260.65V90.4384H262.767ZM263.777 93.2151C263.635 93.2151 263.507 93.1913 263.391 93.1436C263.277 93.0947 263.179 93.0264 263.096 92.9386C263.015 92.8508 262.952 92.7467 262.908 92.6263C262.864 92.5059 262.842 92.3742 262.842 92.2312V92.1522C262.842 91.9867 262.867 91.8393 262.916 91.7101C262.964 91.5797 263.031 91.4693 263.115 91.379C263.199 91.2887 263.294 91.2204 263.401 91.174C263.507 91.1275 263.618 91.1043 263.732 91.1043C263.877 91.1043 264.003 91.1294 264.108 91.1796C264.215 91.2298 264.302 91.3 264.37 91.3903C264.437 91.4793 264.488 91.5847 264.52 91.7063C264.553 91.8267 264.569 91.9584 264.569 92.1014V92.2576H263.049V91.9735H264.221V91.9471C264.216 91.8568 264.197 91.7691 264.165 91.6838C264.133 91.5985 264.083 91.5283 264.014 91.4731C263.945 91.4179 263.851 91.3903 263.732 91.3903C263.653 91.3903 263.58 91.4072 263.514 91.4411C263.447 91.4737 263.39 91.5226 263.343 91.5878C263.295 91.653 263.258 91.7327 263.232 91.8267C263.205 91.9208 263.192 92.0293 263.192 92.1522V92.2312C263.192 92.3278 263.205 92.4187 263.232 92.504C263.259 92.588 263.299 92.662 263.35 92.726C263.403 92.79 263.466 92.8401 263.54 92.8765C263.615 92.9129 263.701 92.931 263.796 92.931C263.919 92.931 264.023 92.906 264.108 92.8558C264.194 92.8056 264.268 92.7385 264.332 92.6545L264.543 92.8219C264.499 92.8884 264.443 92.9517 264.375 93.0119C264.308 93.0721 264.224 93.1211 264.125 93.1587C264.027 93.1963 263.911 93.2151 263.777 93.2151ZM265.211 91.142L265.657 91.8832L266.108 91.142H266.516L265.85 92.1466L266.537 93.1775H266.134L265.664 92.4137L265.194 93.1775H264.789L265.474 92.1466L264.81 91.142H265.211ZM267.739 91.142V91.4091H266.639V91.142H267.739ZM267.011 90.6472H267.359V92.6733C267.359 92.7423 267.37 92.7943 267.391 92.8295C267.412 92.8646 267.44 92.8878 267.474 92.8991C267.508 92.9104 267.544 92.916 267.583 92.916C267.612 92.916 267.642 92.9135 267.673 92.9085C267.706 92.9022 267.73 92.8972 267.747 92.8934L267.748 93.1775C267.721 93.1863 267.685 93.1944 267.639 93.2019C267.595 93.2107 267.542 93.2151 267.479 93.2151C267.394 93.2151 267.316 93.1982 267.244 93.1643C267.173 93.1305 267.116 93.074 267.073 92.995C267.032 92.9147 267.011 92.8069 267.011 92.6714V90.6472Z" fill="#787878"/>
<path d="M280.938 90.4384V93.1775H280.581V90.4384H280.938ZM281.818 90.4384V90.7356H279.702V90.4384H281.818ZM282.829 93.2151C282.687 93.2151 282.558 93.1913 282.443 93.1436C282.329 93.0947 282.23 93.0264 282.148 92.9386C282.066 92.8508 282.003 92.7467 281.96 92.6263C281.916 92.5059 281.894 92.3742 281.894 92.2312V92.1522C281.894 91.9867 281.918 91.8393 281.967 91.7101C282.016 91.5797 282.082 91.4693 282.166 91.379C282.25 91.2887 282.346 91.2204 282.452 91.174C282.559 91.1275 282.669 91.1043 282.784 91.1043C282.929 91.1043 283.054 91.1294 283.16 91.1796C283.266 91.2298 283.354 91.3 283.421 91.3903C283.489 91.4793 283.539 91.5847 283.572 91.7063C283.604 91.8267 283.621 91.9584 283.621 92.1014V92.2576H282.101V91.9735H283.273V91.9471C283.268 91.8568 283.249 91.7691 283.216 91.6838C283.185 91.5985 283.135 91.5283 283.066 91.4731C282.997 91.4179 282.903 91.3903 282.784 91.3903C282.704 91.3903 282.632 91.4072 282.565 91.4411C282.499 91.4737 282.442 91.5226 282.394 91.5878C282.346 91.653 282.309 91.7327 282.283 91.8267C282.257 91.9208 282.244 92.0293 282.244 92.1522V92.2312C282.244 92.3278 282.257 92.4187 282.283 92.504C282.311 92.588 282.35 92.662 282.402 92.726C282.454 92.79 282.518 92.8401 282.592 92.8765C282.667 92.9129 282.752 92.931 282.847 92.931C282.97 92.931 283.074 92.906 283.16 92.8558C283.245 92.8056 283.32 92.7385 283.384 92.6545L283.594 92.8219C283.55 92.8884 283.495 92.9517 283.427 93.0119C283.359 93.0721 283.276 93.1211 283.177 93.1587C283.079 93.1963 282.963 93.2151 282.829 93.2151ZM284.262 91.142L284.708 91.8832L285.16 91.142H285.568L284.902 92.1466L285.588 93.1775H285.186L284.716 92.4137L284.245 93.1775H283.841L284.526 92.1466L283.861 91.142H284.262ZM286.791 91.142V91.4091H285.69V91.142H286.791ZM286.063 90.6472H286.411V92.6733C286.411 92.7423 286.421 92.7943 286.443 92.8295C286.464 92.8646 286.491 92.8878 286.525 92.8991C286.559 92.9104 286.596 92.916 286.634 92.916C286.663 92.916 286.693 92.9135 286.725 92.9085C286.757 92.9022 286.782 92.8972 286.798 92.8934L286.8 93.1775C286.772 93.1863 286.736 93.1944 286.691 93.2019C286.647 93.2107 286.594 93.2151 286.531 93.2151C286.446 93.2151 286.367 93.1982 286.296 93.1643C286.224 93.1305 286.167 93.074 286.125 92.995C286.083 92.9147 286.063 92.8069 286.063 92.6714V90.6472Z" fill="#787878"/>
<path d="M12.0179 86.5811V86.9987C12.0179 87.2232 11.9979 87.4126 11.9577 87.5669C11.9176 87.7211 11.8599 87.8453 11.7847 87.9393C11.7094 88.0334 11.6185 88.1018 11.5119 88.1444C11.4065 88.1858 11.2874 88.2065 11.1544 88.2065C11.0491 88.2065 10.9519 88.1933 10.8628 88.167C10.7738 88.1406 10.6935 88.0986 10.622 88.0409C10.5518 87.982 10.4916 87.9055 10.4414 87.8114C10.3913 87.7174 10.353 87.6032 10.3267 87.469C10.3003 87.3348 10.2872 87.1781 10.2872 86.9987V86.5811C10.2872 86.3566 10.3072 86.1685 10.3474 86.0167C10.3888 85.8649 10.4471 85.7433 10.5223 85.6517C10.5976 85.5589 10.6879 85.4925 10.7932 85.4523C10.8998 85.4122 11.019 85.3921 11.1507 85.3921C11.2573 85.3921 11.3551 85.4053 11.4441 85.4316C11.5344 85.4567 11.6147 85.4975 11.6849 85.5539C11.7552 85.6091 11.8148 85.6831 11.8637 85.7759C11.9138 85.8674 11.9521 85.9797 11.9784 86.1126C12.0048 86.2456 12.0179 86.4017 12.0179 86.5811ZM11.668 87.0551V86.5228C11.668 86.3998 11.6605 86.292 11.6454 86.1992C11.6316 86.1051 11.611 86.0248 11.5834 85.9584C11.5558 85.8919 11.5207 85.838 11.478 85.7966C11.4366 85.7552 11.3883 85.7251 11.3332 85.7063C11.2792 85.6862 11.2184 85.6762 11.1507 85.6762C11.0679 85.6762 10.9945 85.6919 10.9306 85.7232C10.8666 85.7533 10.8127 85.8016 10.7688 85.8681C10.7261 85.9345 10.6935 86.0217 10.671 86.1296C10.6484 86.2374 10.6371 86.3685 10.6371 86.5228V87.0551C10.6371 87.1781 10.644 87.2865 10.6578 87.3806C10.6728 87.4747 10.6948 87.5562 10.7236 87.6252C10.7525 87.6929 10.7876 87.7487 10.829 87.7926C10.8704 87.8365 10.918 87.8691 10.972 87.8904C11.0271 87.9105 11.088 87.9205 11.1544 87.9205C11.2397 87.9205 11.3143 87.9042 11.3783 87.8716C11.4423 87.839 11.4956 87.7882 11.5382 87.7192C11.5821 87.649 11.6147 87.5593 11.636 87.4502C11.6574 87.3398 11.668 87.2082 11.668 87.0551Z" fill="#787878"/>
<path d="M8.2597 64.5188L7.98127 64.4473L8.11861 63.0834H9.5239V63.4051H8.41396L8.33119 64.1501C8.38135 64.1212 8.44469 64.0943 8.52119 64.0692C8.59895 64.0441 8.688 64.0316 8.78833 64.0316C8.915 64.0316 9.02851 64.0535 9.12884 64.0974C9.22917 64.14 9.31446 64.2015 9.38469 64.2818C9.45618 64.362 9.51074 64.4586 9.54836 64.5715C9.58599 64.6843 9.6048 64.8104 9.6048 64.9496C9.6048 65.0813 9.58661 65.2023 9.55024 65.3127C9.51513 65.4231 9.46182 65.5196 9.39034 65.6024C9.31885 65.6839 9.22855 65.7473 9.11943 65.7924C9.01158 65.8376 8.88428 65.8601 8.73754 65.8601C8.62717 65.8601 8.52245 65.8451 8.42337 65.815C8.32554 65.7836 8.23775 65.7366 8.15999 65.6739C8.08349 65.6099 8.02078 65.5309 7.97187 65.4369C7.92421 65.3415 7.89411 65.2299 7.88157 65.102H8.21267C8.22772 65.2048 8.25782 65.2914 8.30297 65.3616C8.34812 65.4318 8.40706 65.4851 8.47981 65.5215C8.5538 65.5566 8.63971 65.5742 8.73754 65.5742C8.82031 65.5742 8.89368 65.5598 8.95765 65.5309C9.02161 65.5021 9.07554 65.4607 9.11943 65.4068C9.16333 65.3528 9.19657 65.2876 9.21914 65.2111C9.24297 65.1346 9.25488 65.0487 9.25488 64.9534C9.25488 64.8668 9.24297 64.7866 9.21914 64.7126C9.19531 64.6386 9.15957 64.574 9.11191 64.5188C9.0655 64.4636 9.00844 64.421 8.94071 64.3909C8.87299 64.3595 8.79523 64.3438 8.70744 64.3438C8.5908 64.3438 8.50238 64.3595 8.44218 64.3909C8.38324 64.4222 8.32241 64.4649 8.2597 64.5188ZM11.7062 64.2347V64.6524C11.7062 64.8769 11.6861 65.0662 11.646 65.2205C11.6058 65.3748 11.5481 65.4989 11.4729 65.593C11.3976 65.6871 11.3067 65.7554 11.2001 65.7981C11.0948 65.8394 10.9756 65.8601 10.8427 65.8601C10.7373 65.8601 10.6401 65.847 10.5511 65.8206C10.462 65.7943 10.3818 65.7523 10.3103 65.6946C10.24 65.6356 10.1798 65.5591 10.1297 65.4651C10.0795 65.371 10.0413 65.2569 10.0149 65.1227C9.98857 64.9885 9.97541 64.8317 9.97541 64.6524V64.2347C9.97541 64.0102 9.99547 63.8221 10.0356 63.6704C10.077 63.5186 10.1353 63.3969 10.2106 63.3054C10.2858 63.2126 10.3761 63.1461 10.4815 63.106C10.5881 63.0658 10.7072 63.0458 10.8389 63.0458C10.9455 63.0458 11.0433 63.0589 11.1324 63.0853C11.2227 63.1104 11.3029 63.1511 11.3732 63.2076C11.4434 63.2627 11.503 63.3367 11.5519 63.4296C11.6021 63.5211 11.6403 63.6334 11.6667 63.7663C11.693 63.8992 11.7062 64.0554 11.7062 64.2347ZM11.3562 64.7088V64.1764C11.3562 64.0535 11.3487 63.9456 11.3337 63.8528C11.3199 63.7588 11.2992 63.6785 11.2716 63.612C11.244 63.5456 11.2089 63.4916 11.1662 63.4502C11.1249 63.4089 11.0766 63.3788 11.0214 63.3599C10.9675 63.3399 10.9066 63.3298 10.8389 63.3298C10.7561 63.3298 10.6828 63.3455 10.6188 63.3769C10.5548 63.407 10.5009 63.4553 10.457 63.5217C10.4144 63.5882 10.3818 63.6754 10.3592 63.7832C10.3366 63.8911 10.3253 64.0221 10.3253 64.1764V64.7088C10.3253 64.8317 10.3322 64.9402 10.346 65.0343C10.3611 65.1283 10.383 65.2098 10.4119 65.2788C10.4407 65.3466 10.4758 65.4024 10.5172 65.4463C10.5586 65.4902 10.6063 65.5228 10.6602 65.5441C10.7154 65.5642 10.7762 65.5742 10.8427 65.5742C10.9279 65.5742 11.0026 65.5579 11.0665 65.5253C11.1305 65.4927 11.1838 65.4419 11.2264 65.3729C11.2703 65.3027 11.3029 65.213 11.3243 65.1039C11.3456 64.9935 11.3562 64.8618 11.3562 64.7088Z" fill="#787878"/>
<path d="M7.86981 40.722V43.4762H7.52178V41.1566L6.82007 41.4124V41.0983L7.81526 40.722H7.86981ZM10.6127 41.8884V42.306C10.6127 42.5305 10.5926 42.7199 10.5525 42.8742C10.5124 43.0284 10.4547 43.1526 10.3794 43.2467C10.3042 43.3407 10.2132 43.4091 10.1066 43.4517C10.0013 43.4931 9.88213 43.5138 9.74919 43.5138C9.64384 43.5138 9.54664 43.5006 9.45759 43.4743C9.36855 43.4479 9.28828 43.4059 9.21679 43.3482C9.14656 43.2893 9.08636 43.2128 9.03619 43.1187C8.98602 43.0247 8.94777 42.9105 8.92143 42.7763C8.8951 42.6421 8.88193 42.4854 8.88193 42.306V41.8884C8.88193 41.6639 8.902 41.4758 8.94213 41.324C8.98352 41.1723 9.04184 41.0506 9.11709 40.959C9.19234 40.8662 9.28264 40.7998 9.38799 40.7596C9.49459 40.7195 9.61374 40.6994 9.74543 40.6994C9.85203 40.6994 9.94986 40.7126 10.0389 40.7389C10.1292 40.764 10.2095 40.8048 10.2797 40.8612C10.3499 40.9164 10.4095 40.9904 10.4584 41.0832C10.5086 41.1748 10.5468 41.287 10.5732 41.42C10.5995 41.5529 10.6127 41.709 10.6127 41.8884ZM10.2628 42.3625V41.8301C10.2628 41.7072 10.2552 41.5993 10.2402 41.5065C10.2264 41.4124 10.2057 41.3322 10.1781 41.2657C10.1505 41.1992 10.1154 41.1453 10.0728 41.1039C10.0314 41.0625 9.98309 41.0324 9.92791 41.0136C9.87398 40.9935 9.81315 40.9835 9.74543 40.9835C9.66265 40.9835 9.58928 40.9992 9.52532 41.0305C9.46136 41.0606 9.40743 41.1089 9.36353 41.1754C9.32089 41.2419 9.28828 41.329 9.2657 41.4369C9.24313 41.5447 9.23184 41.6758 9.23184 41.8301V42.3625C9.23184 42.4854 9.23874 42.5939 9.25254 42.6879C9.26759 42.782 9.28953 42.8635 9.31838 42.9325C9.34723 43.0002 9.38234 43.056 9.42373 43.0999C9.46512 43.1438 9.51278 43.1764 9.56671 43.1977C9.62189 43.2178 9.68272 43.2278 9.74919 43.2278C9.83447 43.2278 9.90909 43.2115 9.97306 43.1789C10.037 43.1463 10.0903 43.0955 10.133 43.0265C10.1769 42.9563 10.2095 42.8666 10.2308 42.7575C10.2521 42.6472 10.2628 42.5155 10.2628 42.3625ZM12.7799 41.8884V42.306C12.7799 42.5305 12.7598 42.7199 12.7197 42.8742C12.6796 43.0284 12.6219 43.1526 12.5466 43.2467C12.4714 43.3407 12.3804 43.4091 12.2738 43.4517C12.1685 43.4931 12.0493 43.5138 11.9164 43.5138C11.811 43.5138 11.7138 43.5006 11.6248 43.4743C11.5358 43.4479 11.4555 43.4059 11.384 43.3482C11.3138 43.2893 11.2536 43.2128 11.2034 43.1187C11.1532 43.0247 11.115 42.9105 11.0886 42.7763C11.0623 42.6421 11.0491 42.4854 11.0491 42.306V41.8884C11.0491 41.6639 11.0692 41.4758 11.1093 41.324C11.1507 41.1723 11.209 41.0506 11.2843 40.959C11.3595 40.8662 11.4498 40.7998 11.5552 40.7596C11.6618 40.7195 11.7809 40.6994 11.9126 40.6994C12.0192 40.6994 12.1171 40.7126 12.2061 40.7389C12.2964 40.764 12.3767 40.8048 12.4469 40.8612C12.5171 40.9164 12.5767 40.9904 12.6256 41.0832C12.6758 41.1748 12.714 41.287 12.7404 41.42C12.7667 41.5529 12.7799 41.709 12.7799 41.8884ZM12.43 42.3625V41.8301C12.43 41.7072 12.4225 41.5993 12.4074 41.5065C12.3936 41.4124 12.3729 41.3322 12.3453 41.2657C12.3177 41.1992 12.2826 41.1453 12.24 41.1039C12.1986 41.0625 12.1503 41.0324 12.0951 41.0136C12.0412 40.9935 11.9804 40.9835 11.9126 40.9835C11.8299 40.9835 11.7565 40.9992 11.6925 41.0305C11.6286 41.0606 11.5746 41.1089 11.5307 41.1754C11.4881 41.2419 11.4555 41.329 11.4329 41.4369C11.4103 41.5447 11.3991 41.6758 11.3991 41.8301V42.3625C11.3991 42.4854 11.4059 42.5939 11.4197 42.6879C11.4348 42.782 11.4567 42.8635 11.4856 42.9325C11.5144 43.0002 11.5496 43.056 11.5909 43.0999C11.6323 43.1438 11.68 43.1764 11.7339 43.1977C11.7891 43.2178 11.8499 43.2278 11.9164 43.2278C12.0017 43.2278 12.0763 43.2115 12.1403 43.1789C12.2042 43.1463 12.2575 43.0955 12.3002 43.0265C12.3441 42.9563 12.3767 42.8666 12.398 42.7575C12.4193 42.6472 12.43 42.5155 12.43 42.3625Z" fill="#787878"/>
<path d="M7.86981 18.3757V21.1299H7.52178V18.8103L6.82007 19.0661V18.752L7.81526 18.3757H7.86981ZM9.33343 19.8262L9.055 19.7547L9.19234 18.3908H10.5976V18.7125H9.48769L9.40492 19.4574C9.45508 19.4286 9.51842 19.4016 9.59492 19.3765C9.67268 19.3515 9.76173 19.3389 9.86206 19.3389C9.98873 19.3389 10.1022 19.3609 10.2026 19.4048C10.3029 19.4474 10.3882 19.5089 10.4584 19.5891C10.5299 19.6694 10.5845 19.766 10.6221 19.8788C10.6597 19.9917 10.6785 20.1178 10.6785 20.257C10.6785 20.3887 10.6603 20.5097 10.624 20.62C10.5889 20.7304 10.5356 20.827 10.4641 20.9098C10.3926 20.9913 10.3023 21.0546 10.1932 21.0998C10.0853 21.1449 9.95801 21.1675 9.81127 21.1675C9.7009 21.1675 9.59618 21.1524 9.4971 21.1223C9.39927 21.091 9.31148 21.044 9.23372 20.9812C9.15722 20.9173 9.09451 20.8383 9.0456 20.7442C8.99794 20.6489 8.96784 20.5373 8.9553 20.4093H9.2864C9.30145 20.5122 9.33155 20.5987 9.3767 20.669C9.42185 20.7392 9.4808 20.7925 9.55354 20.8289C9.62753 20.864 9.71344 20.8815 9.81127 20.8815C9.89404 20.8815 9.96741 20.8671 10.0314 20.8383C10.0953 20.8094 10.1493 20.768 10.1932 20.7141C10.2371 20.6602 10.2703 20.595 10.2929 20.5185C10.3167 20.442 10.3286 20.356 10.3286 20.2607C10.3286 20.1742 10.3167 20.0939 10.2929 20.0199C10.269 19.9459 10.2333 19.8813 10.1856 19.8262C10.1392 19.771 10.0822 19.7283 10.0144 19.6982C9.94672 19.6669 9.86896 19.6512 9.78117 19.6512C9.66453 19.6512 9.57611 19.6669 9.51591 19.6982C9.45697 19.7296 9.39614 19.7722 9.33343 19.8262ZM12.7799 19.5421V19.9597C12.7799 20.1842 12.7598 20.3736 12.7197 20.5279C12.6796 20.6821 12.6219 20.8063 12.5466 20.9004C12.4714 20.9944 12.3804 21.0628 12.2738 21.1054C12.1685 21.1468 12.0493 21.1675 11.9164 21.1675C11.811 21.1675 11.7138 21.1543 11.6248 21.128C11.5358 21.1016 11.4555 21.0596 11.384 21.0019C11.3138 20.943 11.2536 20.8665 11.2034 20.7724C11.1532 20.6784 11.115 20.5642 11.0886 20.43C11.0623 20.2958 11.0491 20.1391 11.0491 19.9597V19.5421C11.0491 19.3176 11.0692 19.1295 11.1093 18.9777C11.1507 18.826 11.209 18.7043 11.2843 18.6127C11.3595 18.5199 11.4498 18.4535 11.5552 18.4133C11.6618 18.3732 11.7809 18.3531 11.9126 18.3531C12.0192 18.3531 12.1171 18.3663 12.2061 18.3926C12.2964 18.4177 12.3767 18.4585 12.4469 18.5149C12.5171 18.5701 12.5767 18.6441 12.6256 18.7369C12.6758 18.8285 12.714 18.9407 12.7404 19.0737C12.7667 19.2066 12.7799 19.3627 12.7799 19.5421ZM12.43 20.0162V19.4838C12.43 19.3609 12.4225 19.253 12.4074 19.1602C12.3936 19.0661 12.3729 18.9859 12.3453 18.9194C12.3177 18.8529 12.2826 18.799 12.24 18.7576C12.1986 18.7162 12.1503 18.6861 12.0951 18.6673C12.0412 18.6472 11.9804 18.6372 11.9126 18.6372C11.8299 18.6372 11.7565 18.6529 11.6925 18.6842C11.6286 18.7143 11.5746 18.7626 11.5307 18.8291C11.4881 18.8956 11.4555 18.9827 11.4329 19.0906C11.4103 19.1984 11.3991 19.3295 11.3991 19.4838V20.0162C11.3991 20.1391 11.4059 20.2476 11.4197 20.3416C11.4348 20.4357 11.4567 20.5172 11.4856 20.5862C11.5144 20.6539 11.5496 20.7097 11.5909 20.7536C11.6323 20.7975 11.68 20.8301 11.7339 20.8514C11.7891 20.8715 11.8499 20.8815 11.9164 20.8815C12.0017 20.8815 12.0763 20.8652 12.1403 20.8326C12.2042 20.8 12.2575 20.7492 12.3002 20.6802C12.3441 20.61 12.3767 20.5203 12.398 20.4112C12.4193 20.3009 12.43 20.1692 12.43 20.0162Z" fill="#787878"/>
<path d="M17.2122 61.9612C17.2122 61.9612 22.9276 45.4249 26.7379 45.4249C30.5482 45.4249 32.4534 61.0674 36.2637 61.0674C40.074 61.0674 41.9791 49.8942 45.7894 49.8942C49.5997 49.8942 51.5049 67.7713 55.3152 67.7713C59.1255 67.7713 61.0306 46.3188 64.8409 46.3188C68.6512 46.3188 70.5564 56.0618 74.3667 63.7489C78.177 71.436 80.0821 84.7545 83.8924 84.7545C87.7027 84.7545 89.6079 59.7266 93.4182 59.7266C97.2285 59.7266 99.1336 80.2852 102.944 80.2852C106.754 80.2852 108.659 42.2964 112.47 42.2964C116.28 42.2964 118.185 71.7936 121.995 73.1344C125.806 74.4751 127.711 73.6707 131.521 74.4751C135.331 75.2796 137.237 77.1567 141.047 77.1567C144.857 77.1567 146.762 77.1567 150.573 73.5813C154.383 70.0059 156.288 57.045 160.098 57.045C163.909 57.045 165.814 65.0897 169.624 65.0897C173.434 65.0897 175.34 52.5758 179.15 52.5758C182.96 52.5758 184.865 78.0506 188.676 78.0506C192.486 78.0506 194.391 47.2126 198.201 47.2126C202.012 47.2126 203.917 70.8997 207.727 70.8997C211.537 70.8997 213.443 66.2517 217.253 61.0674C221.063 55.883 222.968 44.978 226.779 44.978C230.589 44.978 232.494 47.302 236.304 54.8104C240.115 62.3188 242.02 82.5198 245.83 82.5198C249.64 82.5198 251.546 78.4975 255.356 78.4975C259.166 78.4975 261.071 80.2852 264.882 80.2852C268.692 80.2852 270.597 68.7545 274.407 63.7489C278.218 58.7433 280.123 55.2573 283.933 55.2573C287.743 55.2573 293.459 59.7266 293.459 59.7266" stroke="#787878" stroke-width="0.770563"/>
<path d="M16.2586 62.7761C16.5115 63.029 16.8544 63.171 17.212 63.171L17.2134 63.171L17.2136 63.171M16.2586 62.7761L17.212 63.3636C16.8034 63.3636 16.4114 63.2013 16.1224 62.9124C15.8334 62.6234 15.671 62.2315 15.6709 61.8229C15.6708 61.4142 15.833 61.0222 16.1219 60.7332C16.4107 60.4441 16.8026 60.2816 17.2113 60.2814C17.6199 60.2812 18.0119 60.4433 18.3011 60.7321C18.5902 61.0209 18.7528 61.4127 18.7531 61.8213C18.7535 62.23 18.5914 62.6221 18.3027 62.9113C18.014 63.2005 17.6222 63.3632 17.2136 63.3636V63.171M16.2586 62.7761C16.0057 62.5233 15.8636 62.1804 15.8635 61.8228C15.8634 61.4653 16.0054 61.1223 16.2581 60.8693C16.5109 60.6164 16.8538 60.4742 17.2113 60.474C17.5689 60.4738 17.9119 60.6157 18.165 60.8684C18.418 61.1211 18.5602 61.4639 18.5605 61.8215C18.5608 62.1791 18.419 62.5221 18.1664 62.7752C17.9138 63.0282 17.5711 63.1706 17.2136 63.171M16.2586 62.7761L17.2136 63.171" fill="#2A4890" stroke="#787878" stroke-width="0.385281"/>
<path d="M25.5054 46.2091C25.7583 46.4619 26.1013 46.6039 26.4589 46.6039L26.4602 46.6039L26.4604 46.6039M25.5054 46.2091L26.4589 46.7966C26.0502 46.7966 25.6583 46.6342 25.3692 46.3453C25.0802 46.0564 24.9178 45.6645 24.9177 45.2558C24.9176 44.8472 25.0798 44.4552 25.3687 44.1661C25.6576 43.877 26.0494 43.7145 26.4581 43.7143C26.8667 43.7141 27.2588 43.8762 27.5479 44.165C27.8371 44.4538 27.9997 44.8456 28 45.2543C28.0003 45.6629 27.8383 46.055 27.5495 46.3442C27.2608 46.6334 26.8691 46.7962 26.4604 46.7966V46.6039M25.5054 46.2091C25.2526 45.9563 25.1105 45.6134 25.1104 45.2558C25.1103 44.8982 25.2522 44.5552 25.505 44.3023C25.7577 44.0493 26.1006 43.9071 26.4582 43.907C26.8158 43.9068 27.1588 44.0486 27.4118 44.3013C27.6648 44.554 27.8071 44.8968 27.8073 45.2544C27.8076 45.612 27.6658 45.9551 27.4132 46.2081C27.1606 46.4611 26.8179 46.6035 26.4604 46.6039M25.5054 46.2091L26.4604 46.6039" fill="#2A4890" stroke="#787878" stroke-width="0.385281"/>
<path d="M35.1375 62.0056C35.3904 62.2584 35.7333 62.4004 36.0909 62.4004L36.0923 62.4004L36.0925 62.4004M35.1375 62.0056L36.0909 62.5931C35.6823 62.5931 35.2903 62.4308 35.0013 62.1418C34.7123 61.8529 34.5499 61.461 34.5498 61.0523C34.5497 60.6437 34.7119 60.2517 35.0008 59.9626C35.2896 59.6735 35.6815 59.511 36.0902 59.5108C36.4988 59.5106 36.8908 59.6727 37.18 59.9615C37.4691 60.2503 37.6317 60.6421 37.6321 61.0508C37.6324 61.4595 37.4703 61.8515 37.1816 62.1407C36.8929 62.43 36.5011 62.5927 36.0925 62.5931V62.4004M35.1375 62.0056C34.8846 61.7528 34.7425 61.4099 34.7424 61.0523C34.7424 60.6947 34.8843 60.3517 35.1371 60.0988C35.3898 59.8458 35.7327 59.7037 36.0903 59.7035C36.4478 59.7033 36.7909 59.8452 37.0439 60.0978C37.2969 60.3505 37.4391 60.6934 37.4394 61.0509C37.4397 61.4085 37.2979 61.7516 37.0453 62.0046C36.7927 62.2577 36.45 62.4 36.0925 62.4004M35.1375 62.0056L36.0925 62.4004" fill="#2A4890" stroke="#787878" stroke-width="0.385281"/>
<path d="M44.7696 50.8324C45.0225 51.0852 45.3654 51.2273 45.723 51.2273L45.7244 51.2273L45.7246 51.2273M44.7696 50.8324L45.723 51.4199C45.3143 51.4199 44.9224 51.2576 44.6334 50.9686C44.3444 50.6797 44.182 50.2878 44.1819 49.8792C44.1818 49.4705 44.344 49.0785 44.6329 48.7894C44.9217 48.5004 45.3136 48.3379 45.7222 48.3376C46.1309 48.3374 46.5229 48.4996 46.8121 48.7884C47.1012 49.0771 47.2638 49.469 47.2641 49.8776C47.2644 50.2863 47.1024 50.6783 46.8137 50.9676C46.525 51.2568 46.1332 51.4195 45.7246 51.4199V51.2273M44.7696 50.8324C44.5167 50.5796 44.3746 50.2367 44.3745 49.8791C44.3744 49.5215 44.5164 49.1785 44.7691 48.9256C45.0219 48.6727 45.3648 48.5305 45.7223 48.5303C46.0799 48.5301 46.4229 48.672 46.6759 48.9247C46.9289 49.1773 47.0712 49.5202 47.0715 49.8778C47.0718 50.2353 46.93 50.5784 46.6774 50.8315C46.4248 51.0845 46.0821 51.2268 45.7246 51.2273M44.7696 50.8324L45.7246 51.2273" fill="#2A4890" stroke="#787878" stroke-width="0.385281"/>
<path d="M54.0162 68.5554C54.2691 68.8082 54.612 68.9502 54.9696 68.9502L54.9709 68.9502L54.9711 68.9502M54.0162 68.5554L54.9696 69.1429C54.5609 69.1429 54.169 68.9805 53.88 68.6916C53.591 68.4027 53.4286 68.0108 53.4285 67.6021C53.4284 67.1935 53.5906 66.8015 53.8794 66.5124C54.1683 66.2233 54.5602 66.0608 54.9688 66.0606C55.3775 66.0604 55.7695 66.2225 56.0587 66.5113C56.3478 66.8001 56.5104 67.1919 56.5107 67.6006C56.511 68.0092 56.349 68.4013 56.0603 68.6905C55.7716 68.9797 55.3798 69.1425 54.9711 69.1429V68.9502M54.0162 68.5554C53.7633 68.3026 53.6212 67.9597 53.6211 67.6021C53.621 67.2445 53.763 66.9015 54.0157 66.6486C54.2685 66.3956 54.6113 66.2534 54.9689 66.2532C55.3265 66.2531 55.6695 66.3949 55.9225 66.6476C56.1755 66.9003 56.3178 67.2431 56.3181 67.6007C56.3183 67.9583 56.1766 68.3014 55.9239 68.5544C55.6714 68.8074 55.3286 68.9498 54.9711 68.9502M54.0162 68.5554L54.9711 68.9502" fill="#2A4890" stroke="#787878" stroke-width="0.385281"/>
<path d="M63.6483 47.3649C63.9011 47.6177 64.2441 47.7598 64.6017 47.7598L64.603 47.7598L64.6032 47.7598M63.6483 47.3649L64.6017 47.9524C64.193 47.9524 63.8011 47.7901 63.5121 47.5011C63.2231 47.2122 63.0606 46.8203 63.0605 46.4117C63.0604 46.003 63.2227 45.611 63.5115 45.3219C63.8004 45.0329 64.1922 44.8704 64.6009 44.8701C65.0096 44.8699 65.4016 45.0321 65.6907 45.3209C65.9799 45.6096 66.1425 46.0015 66.1428 46.4101C66.1431 46.8188 65.9811 47.2108 65.6924 47.5001C65.4036 47.7893 65.0119 47.952 64.6032 47.9524V47.7598M63.6483 47.3649C63.3954 47.1121 63.2533 46.7692 63.2532 46.4116C63.2531 46.054 63.395 45.7111 63.6478 45.4581C63.9005 45.2052 64.2434 45.063 64.601 45.0628C64.9586 45.0626 65.3016 45.2045 65.5546 45.4572C65.8076 45.7098 65.9499 46.0527 65.9502 46.4103C65.9504 46.7678 65.8087 47.1109 65.556 47.364C65.3034 47.617 64.9607 47.7593 64.6032 47.7598M63.6483 47.3649L64.6032 47.7598" fill="#2A4890" stroke="#787878" stroke-width="0.385281"/>
<path d="M73.2803 64.7026C73.5332 64.9554 73.8762 65.0974 74.2338 65.0974L74.2351 65.0974L74.2353 65.0974M73.2803 64.7026L74.2338 65.29C73.8251 65.29 73.4332 65.1277 73.1441 64.8388C72.8551 64.5499 72.6927 64.158 72.6926 63.7493C72.6925 63.3406 72.8547 62.9487 73.1436 62.6596C73.4325 62.3705 73.8243 62.208 74.233 62.2078C74.6416 62.2076 75.0337 62.3697 75.3228 62.6585C75.612 62.9473 75.7746 63.3391 75.7749 63.7478C75.7752 64.1564 75.6132 64.5485 75.3244 64.8377C75.0357 65.1269 74.644 65.2896 74.2353 65.29V65.0974M73.2803 64.7026C73.0275 64.4497 72.8854 64.1068 72.8853 63.7493C72.8852 63.3917 73.0271 63.0487 73.2799 62.7958C73.5326 62.5428 73.8755 62.4006 74.2331 62.4004C74.5907 62.4003 74.9337 62.5421 75.1867 62.7948C75.4397 63.0475 75.582 63.3903 75.5822 63.7479C75.5825 64.1055 75.4407 64.4485 75.1881 64.7016C74.9355 64.9546 74.5928 65.097 74.2353 65.0974M73.2803 64.7026L74.2353 65.0974" fill="#2A4890" stroke="#787878" stroke-width="0.385281"/>
<path d="M82.9124 85.893C83.1653 86.1458 83.5083 86.2879 83.8658 86.2879L83.8672 86.2879L83.8674 86.2879M82.9124 85.893L83.8658 86.4805C83.4572 86.4805 83.0652 86.3182 82.7762 86.0293C82.4872 85.7403 82.3248 85.3484 82.3247 84.9398C82.3246 84.5311 82.4868 84.1391 82.7757 83.8501C83.0645 83.561 83.4564 83.3985 83.8651 83.3983C84.2737 83.3981 84.6657 83.5602 84.9549 83.849C85.244 84.1377 85.4067 84.5296 85.407 84.9382C85.4073 85.3469 85.2452 85.7389 84.9565 86.0282C84.6678 86.3174 84.276 86.4801 83.8674 86.4805V86.2879M82.9124 85.893C82.6595 85.6402 82.5174 85.2973 82.5173 84.9397C82.5173 84.5821 82.6592 84.2392 82.912 83.9862C83.1647 83.7333 83.5076 83.5911 83.8652 83.5909C84.2227 83.5907 84.5658 83.7326 84.8188 83.9853C85.0718 84.2379 85.214 84.5808 85.2143 84.9384C85.2146 85.2959 85.0728 85.639 84.8202 85.8921C84.5676 86.1451 84.2249 86.2875 83.8674 86.2879M82.9124 85.893L83.8674 86.2879" fill="#2A4890" stroke="#787878" stroke-width="0.385281"/>
<path d="M92.159 60.8497C92.4119 61.1025 92.7548 61.2446 93.1124 61.2446L93.1138 61.2446L93.114 61.2446M92.159 60.8497L93.1124 61.4372C92.7037 61.4372 92.3118 61.2749 92.0228 60.986C91.7338 60.697 91.5714 60.3051 91.5713 59.8965C91.5712 59.4878 91.7334 59.0958 92.0223 58.8067C92.3111 58.5177 92.703 58.3552 93.1116 58.3549C93.5203 58.3547 93.9123 58.5169 94.2015 58.8057C94.4906 59.0944 94.6532 59.4863 94.6535 59.8949C94.6538 60.3036 94.4918 60.6956 94.2031 60.9849C93.9144 61.2741 93.5226 61.4368 93.114 61.4372V61.2446M92.159 60.8497C91.9061 60.5969 91.764 60.254 91.7639 59.8964C91.7638 59.5388 91.9058 59.1959 92.1585 58.9429C92.4113 58.69 92.7542 58.5478 93.1117 58.5476C93.4693 58.5474 93.8123 58.6893 94.0653 58.942C94.3183 59.1946 94.4606 59.5375 94.4609 59.8951C94.4612 60.2526 94.3194 60.5957 94.0668 60.8488C93.8142 61.1018 93.4715 61.2442 93.114 61.2446M92.159 60.8497L93.114 61.2446" fill="#2A4890" stroke="#787878" stroke-width="0.385281"/>
<path d="M101.791 81.2696C102.044 81.5225 102.387 81.6645 102.744 81.6645L102.746 81.6645L102.746 81.6645M101.791 81.2696L102.744 81.8571C102.336 81.8571 101.944 81.6948 101.655 81.4059C101.366 81.1169 101.203 80.7251 101.203 80.3164C101.203 79.9077 101.365 79.5157 101.654 79.2267C101.943 78.9376 102.335 78.7751 102.744 78.7749C103.152 78.7747 103.544 78.9368 103.834 79.2256C104.123 79.5144 104.285 79.9062 104.286 80.3148C104.286 80.7235 104.124 81.1156 103.835 81.4048C103.546 81.694 103.155 81.8567 102.746 81.8571V81.6645M101.791 81.2696C101.538 81.0168 101.396 80.6739 101.396 80.3163C101.396 79.9588 101.538 79.6158 101.791 79.3628C102.043 79.1099 102.386 78.9677 102.744 78.9675C103.101 78.9673 103.444 79.1092 103.697 79.3619C103.95 79.6146 104.093 79.9574 104.093 80.315C104.093 80.6726 103.951 81.0156 103.699 81.2687C103.446 81.5217 103.104 81.6641 102.746 81.6645M101.791 81.2696L102.746 81.6645" fill="#2A4890" stroke="#787878" stroke-width="0.385281"/>
<path d="M112.378 43.5217H112.378L112.377 43.5217C112.019 43.5217 111.676 43.3796 111.423 43.1268C111.17 42.874 111.028 42.5311 111.028 42.1735C111.028 41.8159 111.17 41.473 111.423 41.22C111.675 40.9671 112.018 40.8249 112.376 40.8247C112.733 40.8245 113.076 40.9664 113.33 41.2191C113.583 41.4717 113.725 41.8146 113.725 42.1722C113.725 42.5297 113.584 42.8728 113.331 43.1259C113.078 43.3789 112.736 43.5213 112.378 43.5217Z" fill="#2A4890" stroke="#787878" stroke-width="0.385281"/>
<path d="M120.67 73.9493C120.923 74.2021 121.266 74.3441 121.623 74.3441L121.625 74.3441L121.625 74.3441M120.67 73.9493L121.623 74.5368C121.215 74.5368 120.823 74.3745 120.534 74.0855C120.245 73.7966 120.082 73.4047 120.082 72.996C120.082 72.5874 120.244 72.1954 120.533 71.9063C120.822 71.6172 121.214 71.4547 121.623 71.4545C122.031 71.4543 122.423 71.6164 122.712 71.9052C123.002 72.194 123.164 72.5858 123.165 72.9945C123.165 73.4032 123.003 73.7952 122.714 74.0844C122.425 74.3737 122.034 74.5364 121.625 74.5368V74.3441M120.67 73.9493C120.417 73.6965 120.275 73.3536 120.275 72.996C120.275 72.6384 120.417 72.2954 120.67 72.0425C120.922 71.7895 121.265 71.6473 121.623 71.6472C121.98 71.647 122.323 71.7888 122.576 72.0415C122.829 72.2942 122.972 72.6371 122.972 72.9946C122.972 73.3522 122.83 73.6953 122.578 73.9483C122.325 74.2014 121.982 74.3437 121.625 74.3441M120.67 73.9493L121.625 74.3441" fill="#2A4890" stroke="#787878" stroke-width="0.385281"/>
<path d="M130.302 75.4904C130.555 75.7433 130.898 75.8853 131.255 75.8853L131.257 75.8853L131.257 75.8853M130.302 75.4904L131.255 76.0779C130.847 76.0779 130.455 75.9156 130.166 75.6267C129.877 75.3377 129.714 74.9458 129.714 74.5372C129.714 74.1285 129.876 73.7365 130.165 73.4475C130.454 73.1584 130.846 72.9959 131.255 72.9957C131.663 72.9955 132.055 73.1576 132.345 73.4464C132.634 73.7352 132.796 74.127 132.797 74.5356C132.797 74.9443 132.635 75.3364 132.346 75.6256C132.057 75.9148 131.666 76.0775 131.257 76.0779V75.8853M130.302 75.4904C130.049 75.2376 129.907 74.8947 129.907 74.5371C129.907 74.1795 130.049 73.8366 130.302 73.5836C130.554 73.3307 130.897 73.1885 131.255 73.1883C131.612 73.1881 131.955 73.33 132.208 73.5827C132.461 73.8354 132.604 74.1782 132.604 74.5358C132.604 74.8934 132.462 75.2364 132.21 75.4895C131.957 75.7425 131.615 75.8849 131.257 75.8853M130.302 75.4904L131.257 75.8853" fill="#2A4890" stroke="#787878" stroke-width="0.385281"/>
<path d="M139.934 78.1874C140.187 78.4402 140.53 78.5822 140.887 78.5822L140.889 78.5822L140.889 78.5822M139.934 78.1874L140.887 78.7749C140.479 78.7749 140.087 78.6126 139.798 78.3236C139.509 78.0347 139.346 77.6428 139.346 77.2341C139.346 76.8255 139.508 76.4335 139.797 76.1444C140.086 75.8553 140.478 75.6928 140.887 75.6926C141.295 75.6924 141.687 75.8545 141.976 76.1433C142.266 76.4321 142.428 76.8239 142.428 77.2326C142.429 77.6413 142.267 78.0333 141.978 78.3225C141.689 78.6118 141.298 78.7745 140.889 78.7749V78.5822M139.934 78.1874C139.681 77.9346 139.539 77.5917 139.539 77.2341C139.539 76.8765 139.681 76.5335 139.933 76.2806C140.186 76.0276 140.529 75.8854 140.887 75.8853C141.244 75.8851 141.587 76.0269 141.84 76.2796C142.093 76.5323 142.236 76.8752 142.236 77.2327C142.236 77.5903 142.094 77.9334 141.842 78.1864C141.589 78.4395 141.246 78.5818 140.889 78.5822M139.934 78.1874L140.889 78.5822" fill="#2A4890" stroke="#787878" stroke-width="0.385281"/>
<path d="M149.566 74.7199C149.819 74.9727 150.162 75.1147 150.52 75.1147L150.521 75.1147L150.521 75.1147M149.566 74.7199L150.52 75.3074C150.111 75.3074 149.719 75.145 149.43 74.8561C149.141 74.5672 148.979 74.1753 148.979 73.7666C148.978 73.358 149.141 72.966 149.429 72.6769C149.718 72.3878 150.11 72.2253 150.519 72.2251C150.928 72.2249 151.32 72.387 151.609 72.6758C151.898 72.9646 152.06 73.3564 152.061 73.7651C152.061 74.1737 151.899 74.5658 151.61 74.855C151.322 75.1443 150.93 75.307 150.521 75.3074V75.1147M149.566 74.7199C149.313 74.4671 149.171 74.1242 149.171 73.7666C149.171 73.409 149.313 73.066 149.566 72.8131C149.819 72.5601 150.161 72.4179 150.519 72.4178C150.877 72.4176 151.22 72.5594 151.473 72.8121C151.726 73.0648 151.868 73.4076 151.868 73.7652C151.868 74.1228 151.727 74.4659 151.474 74.7189C151.221 74.972 150.879 75.1143 150.521 75.1147M149.566 74.7199L150.521 75.1147" fill="#2A4890" stroke="#787878" stroke-width="0.385281"/>
<path d="M158.813 58.1528C159.066 58.4056 159.409 58.5476 159.766 58.5476L159.768 58.5476L159.768 58.5476M158.813 58.1528L159.766 58.7402C159.358 58.7402 158.966 58.5779 158.677 58.289C158.388 58.0001 158.225 57.6082 158.225 57.1995C158.225 56.7908 158.387 56.3989 158.676 56.1098C158.965 55.8207 159.357 55.6582 159.765 55.658C160.174 55.6578 160.566 55.8199 160.855 56.1087C161.144 56.3975 161.307 56.7893 161.307 57.198C161.308 57.6066 161.146 57.9987 160.857 58.2879C160.568 58.5771 160.176 58.7398 159.768 58.7402V58.5476M158.813 58.1528C158.56 57.8999 158.418 57.557 158.418 57.1995C158.418 56.8419 158.56 56.4989 158.812 56.2459C159.065 55.993 159.408 55.8508 159.766 55.8506C160.123 55.8505 160.466 55.9923 160.719 56.245C160.972 56.4977 161.114 56.8405 161.115 57.1981C161.115 57.5557 160.973 57.8987 160.721 58.1518C160.468 58.4048 160.125 58.5472 159.768 58.5476M158.813 58.1528L159.768 58.5476" fill="#2A4890" stroke="#787878" stroke-width="0.385281"/>
<path d="M168.445 65.8584C168.698 66.1112 169.041 66.2533 169.398 66.2533L169.4 66.2533L169.4 66.2533M168.445 65.8584L169.398 66.4459C168.99 66.4459 168.598 66.2836 168.309 65.9946C168.02 65.7057 167.857 65.3138 167.857 64.9052C167.857 64.4965 168.019 64.1045 168.308 63.8154C168.597 63.5264 168.989 63.3639 169.398 63.3636C169.806 63.3634 170.198 63.5256 170.487 63.8144C170.777 64.1031 170.939 64.495 170.939 64.9036C170.94 65.3123 170.778 65.7043 170.489 65.9936C170.2 66.2828 169.809 66.4455 169.4 66.4459V66.2533M168.445 65.8584C168.192 65.6056 168.05 65.2627 168.05 64.9051C168.05 64.5475 168.192 64.2045 168.444 63.9516C168.697 63.6987 169.04 63.5565 169.398 63.5563C169.755 63.5561 170.098 63.698 170.351 63.9507C170.604 64.2033 170.747 64.5462 170.747 64.9038C170.747 65.2613 170.605 65.6044 170.353 65.8575C170.1 66.1105 169.757 66.2528 169.4 66.2533M168.445 65.8584L169.4 66.2533" fill="#2A4890" stroke="#787878" stroke-width="0.385281"/>
<path d="M178.077 53.5294C178.33 53.7822 178.673 53.9242 179.03 53.9242L179.032 53.9242L179.032 53.9242M178.077 53.5294L179.03 54.1169C178.622 54.1169 178.23 53.9545 177.941 53.6656C177.652 53.3767 177.489 52.9848 177.489 52.5761C177.489 52.1675 177.651 51.7755 177.94 51.4864C178.229 51.1973 178.621 51.0348 179.03 51.0346C179.438 51.0344 179.83 51.1965 180.119 51.4853C180.409 51.7741 180.571 52.1659 180.572 52.5746C180.572 52.9832 180.41 53.3753 180.121 53.6645C179.832 53.9537 179.441 54.1164 179.032 54.1169V53.9242M178.077 53.5294C177.824 53.2766 177.682 52.9337 177.682 52.5761C177.682 52.2185 177.824 51.8755 178.076 51.6226C178.329 51.3696 178.672 51.2274 179.03 51.2272C179.387 51.2271 179.73 51.3689 179.983 51.6216C180.236 51.8743 180.379 52.2171 180.379 52.5747C180.379 52.9323 180.237 53.2754 179.985 53.5284C179.732 53.7814 179.389 53.9238 179.032 53.9242M178.077 53.5294L179.032 53.9242" fill="#2A4890" stroke="#787878" stroke-width="0.385281"/>
<path d="M187.709 78.958C187.962 79.2108 188.305 79.3528 188.662 79.3528L188.664 79.3528L188.664 79.3528M187.709 78.958L188.662 79.5455C188.254 79.5455 187.862 79.3831 187.573 79.0942C187.284 78.8053 187.121 78.4134 187.121 78.0047C187.121 77.5961 187.283 77.2041 187.572 76.915C187.861 76.6259 188.253 76.4634 188.662 76.4632C189.07 76.463 189.462 76.6251 189.752 76.9139C190.041 77.2027 190.203 77.5945 190.204 78.0032C190.204 78.4118 190.042 78.8039 189.753 79.0931C189.464 79.3823 189.073 79.5451 188.664 79.5455V79.3528M187.709 78.958C187.456 78.7052 187.314 78.3623 187.314 78.0047C187.314 77.6471 187.456 77.3041 187.709 77.0512C187.961 76.7982 188.304 76.656 188.662 76.6559C189.019 76.6557 189.362 76.7975 189.615 77.0502C189.868 77.3029 190.011 77.6457 190.011 78.0033C190.011 78.3609 189.869 78.704 189.617 78.957C189.364 79.2101 189.022 79.3524 188.664 79.3528M187.709 78.958L188.664 79.3528" fill="#2A4890" stroke="#787878" stroke-width="0.385281"/>
<path d="M196.956 48.1355C197.209 48.3883 197.551 48.5303 197.909 48.5303L197.91 48.5303L197.911 48.5303M196.956 48.1355L197.909 48.7229C197.5 48.7229 197.108 48.5606 196.819 48.2717C196.53 47.9828 196.368 47.5909 196.368 47.1822C196.368 46.7735 196.53 46.3816 196.819 46.0925C197.108 45.8034 197.5 45.6409 197.908 45.6407C198.317 45.6405 198.709 45.8026 198.998 46.0914C199.287 46.3802 199.45 46.772 199.45 47.1807C199.45 47.5893 199.288 47.9814 199 48.2706C198.711 48.5598 198.319 48.7225 197.911 48.7229V48.5303M196.956 48.1355C196.703 47.8826 196.561 47.5397 196.561 47.1821C196.56 46.8246 196.702 46.4816 196.955 46.2286C197.208 45.9757 197.551 45.8335 197.908 45.8333C198.266 45.8331 198.609 45.975 198.862 46.2277C199.115 46.4804 199.257 46.8232 199.258 47.1808C199.258 47.5384 199.116 47.8814 198.863 48.1345C198.611 48.3875 198.268 48.5299 197.911 48.5303M196.956 48.1355L197.911 48.5303" fill="#2A4890" stroke="#787878" stroke-width="0.385281"/>
<path d="M206.588 72.0229C206.841 72.2757 207.184 72.4178 207.541 72.4178L207.542 72.4178L207.543 72.4178M206.588 72.0229L207.541 72.6104C207.132 72.6104 206.741 72.4481 206.452 72.1592C206.163 71.8702 206 71.4783 206 71.0697C206 70.661 206.162 70.269 206.451 69.9799C206.74 69.6909 207.132 69.5284 207.54 69.5282C207.949 69.5279 208.341 69.6901 208.63 69.9789C208.919 70.2676 209.082 70.6595 209.082 71.0681C209.083 71.4768 208.921 71.8688 208.632 72.1581C208.343 72.4473 207.951 72.61 207.543 72.6104V72.4178M206.588 72.0229C206.335 71.7701 206.193 71.4272 206.193 71.0696C206.193 70.712 206.334 70.3691 206.587 70.1161C206.84 69.8632 207.183 69.721 207.54 69.7208C207.898 69.7206 208.241 69.8625 208.494 70.1152C208.747 70.3678 208.889 70.7107 208.89 71.0683C208.89 71.4258 208.748 71.7689 208.495 72.022C208.243 72.275 207.9 72.4174 207.543 72.4178M206.588 72.0229L207.543 72.4178" fill="#2A4890" stroke="#787878" stroke-width="0.385281"/>
<path d="M216.22 62.0056C216.473 62.2584 216.816 62.4004 217.173 62.4004L217.175 62.4004L217.175 62.4004M216.22 62.0056L217.173 62.5931C216.765 62.5931 216.373 62.4308 216.084 62.1418C215.795 61.8529 215.632 61.461 215.632 61.0523C215.632 60.6437 215.794 60.2517 216.083 59.9626C216.372 59.6735 216.764 59.511 217.172 59.5108C217.581 59.5106 217.973 59.6727 218.262 59.9615C218.551 60.2503 218.714 60.6421 218.714 61.0508C218.715 61.4595 218.553 61.8515 218.264 62.1407C217.975 62.43 217.583 62.5927 217.175 62.5931V62.4004M216.22 62.0056C215.967 61.7528 215.825 61.4099 215.825 61.0523C215.825 60.6947 215.967 60.3517 216.219 60.0988C216.472 59.8458 216.815 59.7037 217.173 59.7035C217.53 59.7033 217.873 59.8452 218.126 60.0978C218.379 60.3505 218.521 60.6934 218.522 61.0509C218.522 61.4085 218.38 61.7516 218.128 62.0046C217.875 62.2577 217.532 62.4 217.175 62.4004M216.22 62.0056L217.175 62.4004" fill="#2A4890" stroke="#787878" stroke-width="0.385281"/>
<path d="M225.466 45.8238C225.719 46.0766 226.062 46.2186 226.42 46.2186L226.421 46.2186L226.421 46.2186M225.466 45.8238L226.42 46.4113C226.011 46.4113 225.619 46.2489 225.33 45.96C225.041 45.6711 224.879 45.2792 224.879 44.8705C224.879 44.4619 225.041 44.0699 225.33 43.7808C225.619 43.4917 226.01 43.3292 226.419 43.329C226.828 43.3288 227.22 43.4909 227.509 43.7797C227.798 44.0685 227.961 44.4603 227.961 44.869C227.961 45.2776 227.799 45.6697 227.51 45.9589C227.222 46.2481 226.83 46.4109 226.421 46.4113V46.2186M225.466 45.8238C225.214 45.571 225.071 45.2281 225.071 44.8705C225.071 44.5129 225.213 44.1699 225.466 43.917C225.719 43.664 226.062 43.5218 226.419 43.5217C226.777 43.5215 227.12 43.6633 227.373 43.916C227.626 44.1687 227.768 44.5115 227.768 44.8691C227.769 45.2267 227.627 45.5698 227.374 45.8228C227.122 46.0759 226.779 46.2182 226.421 46.2186M225.466 45.8238L226.421 46.2186" fill="#2A4890" stroke="#787878" stroke-width="0.385281"/>
<path d="M235.099 55.8411C235.352 56.0939 235.695 56.2359 236.052 56.2359L236.053 56.2359L236.054 56.2359M235.099 55.8411L236.052 56.4286C235.643 56.4286 235.252 56.2663 234.963 55.9773C234.674 55.6884 234.511 55.2965 234.511 54.8878C234.511 54.4792 234.673 54.0872 234.962 53.7981C235.251 53.509 235.643 53.3465 236.051 53.3463C236.46 53.3461 236.852 53.5082 237.141 53.797C237.43 54.0858 237.593 54.4776 237.593 54.8863C237.594 55.295 237.432 55.687 237.143 55.9762C236.854 56.2655 236.462 56.4282 236.054 56.4286V56.2359M235.099 55.8411C234.846 55.5883 234.704 55.2454 234.704 54.8878C234.704 54.5302 234.845 54.1872 235.098 53.9343C235.351 53.6813 235.694 53.5391 236.051 53.539C236.409 53.5388 236.752 53.6806 237.005 53.9333C237.258 54.186 237.4 54.5289 237.401 54.8864C237.401 55.244 237.259 55.5871 237.006 55.8401C236.754 56.0932 236.411 56.2355 236.054 56.2359M235.099 55.8411L236.054 56.2359" fill="#2A4890" stroke="#787878" stroke-width="0.385281"/>
<path d="M244.73 83.5814C244.983 83.8342 245.326 83.9762 245.684 83.9762L245.685 83.9762L245.685 83.9762M244.73 83.5814L245.684 84.1688C245.275 84.1688 244.883 84.0065 244.594 83.7176C244.305 83.4287 244.143 83.0368 244.143 82.6281C244.142 82.2194 244.305 81.8275 244.594 81.5384C244.882 81.2493 245.274 81.0868 245.683 81.0866C246.092 81.0864 246.484 81.2485 246.773 81.5373C247.062 81.8261 247.225 82.2179 247.225 82.6266C247.225 83.0352 247.063 83.4273 246.774 83.7165C246.486 84.0057 246.094 84.1684 245.685 84.1688V83.9762M244.73 83.5814C244.477 83.3285 244.335 82.9856 244.335 82.6281C244.335 82.2705 244.477 81.9275 244.73 81.6746C244.983 81.4216 245.325 81.2794 245.683 81.2792C246.041 81.2791 246.384 81.4209 246.637 81.6736C246.89 81.9263 247.032 82.2691 247.032 82.6267C247.032 82.9843 246.891 83.3273 246.638 83.5804C246.385 83.8334 246.043 83.9758 245.685 83.9762M244.73 83.5814L245.685 83.9762" fill="#2A4890" stroke="#787878" stroke-width="0.385281"/>
<path d="M254.362 79.3432C254.615 79.596 254.958 79.7381 255.316 79.7381L255.317 79.7381L255.317 79.7381M254.362 79.3432L255.316 79.9307C254.907 79.9307 254.515 79.7684 254.226 79.4795C253.937 79.1905 253.775 78.7986 253.775 78.39C253.775 77.9813 253.937 77.5893 254.226 77.3002C254.515 77.0112 254.906 76.8487 255.315 76.8484C255.724 76.8482 256.116 77.0104 256.405 77.2992C256.694 77.5879 256.857 77.9798 256.857 78.3884C256.857 78.7971 256.695 79.1891 256.406 79.4784C256.118 79.7676 255.726 79.9303 255.317 79.9307V79.7381M254.362 79.3432C254.11 79.0904 253.967 78.7475 253.967 78.3899C253.967 78.0323 254.109 77.6894 254.362 77.4364C254.615 77.1835 254.958 77.0413 255.315 77.0411C255.673 77.0409 256.016 77.1828 256.269 77.4355C256.522 77.6881 256.664 78.031 256.664 78.3886C256.665 78.7461 256.523 79.0892 256.27 79.3423C256.018 79.5953 255.675 79.7377 255.317 79.7381M254.362 79.3432L255.317 79.7381" fill="#2A4890" stroke="#787878" stroke-width="0.385281"/>
<path d="M263.609 81.2696C263.862 81.5225 264.205 81.6645 264.563 81.6645L264.564 81.6645L264.564 81.6645M263.609 81.2696L264.563 81.8571C264.154 81.8571 263.762 81.6948 263.473 81.4059C263.184 81.1169 263.022 80.7251 263.021 80.3164C263.021 79.9077 263.184 79.5157 263.472 79.2267C263.761 78.9376 264.153 78.7751 264.562 78.7749C264.97 78.7747 265.363 78.9368 265.652 79.2256C265.941 79.5144 266.103 79.9062 266.104 80.3148C266.104 80.7235 265.942 81.1156 265.653 81.4048C265.365 81.694 264.973 81.8567 264.564 81.8571V81.6645M263.609 81.2696C263.356 81.0168 263.214 80.6739 263.214 80.3163C263.214 79.9588 263.356 79.6158 263.609 79.3628C263.861 79.1099 264.204 78.9677 264.562 78.9675C264.92 78.9673 265.263 79.1092 265.516 79.3619C265.769 79.6146 265.911 79.9574 265.911 80.315C265.911 80.6726 265.77 81.0156 265.517 81.2687C265.264 81.5217 264.922 81.6641 264.564 81.6645M263.609 81.2696L264.564 81.6645" fill="#2A4890" stroke="#787878" stroke-width="0.385281"/>
<path d="M273.241 64.7026C273.494 64.9554 273.837 65.0974 274.195 65.0974L274.196 65.0974L274.196 65.0974M273.241 64.7026L274.195 65.29C273.786 65.29 273.394 65.1277 273.105 64.8388C272.816 64.5499 272.654 64.158 272.654 63.7493C272.653 63.3406 272.816 62.9487 273.105 62.6596C273.393 62.3705 273.785 62.208 274.194 62.2078C274.603 62.2076 274.995 62.3697 275.284 62.6585C275.573 62.9473 275.736 63.3391 275.736 63.7478C275.736 64.1564 275.574 64.5485 275.285 64.8377C274.997 65.1269 274.605 65.2896 274.196 65.29V65.0974M273.241 64.7026C272.988 64.4497 272.846 64.1068 272.846 63.7493C272.846 63.3917 272.988 63.0487 273.241 62.7958C273.494 62.5428 273.836 62.4006 274.194 62.4004C274.552 62.4003 274.895 62.5421 275.148 62.7948C275.401 63.0475 275.543 63.3903 275.543 63.7479C275.543 64.1055 275.402 64.4485 275.149 64.7016C274.896 64.9546 274.554 65.097 274.196 65.0974M273.241 64.7026L274.196 65.0974" fill="#2A4890" stroke="#787878" stroke-width="0.385281"/>
<path d="M282.873 56.2264C283.126 56.4792 283.469 56.6212 283.827 56.6212L283.828 56.6212L283.828 56.6212M282.873 56.2264L283.827 56.8139C283.418 56.8139 283.026 56.6516 282.737 56.3626C282.448 56.0737 282.286 55.6818 282.286 55.2731C282.286 54.8645 282.448 54.4725 282.737 54.1834C283.025 53.8943 283.417 53.7318 283.826 53.7316C284.235 53.7314 284.627 53.8935 284.916 54.1823C285.205 54.4711 285.368 54.8629 285.368 55.2716C285.368 55.6803 285.206 56.0723 284.917 56.3615C284.629 56.6508 284.237 56.8135 283.828 56.8139V56.6212M282.873 56.2264C282.62 55.9736 282.478 55.6307 282.478 55.2731C282.478 54.9155 282.62 54.5725 282.873 54.3196C283.126 54.0666 283.469 53.9244 283.826 53.9243C284.184 53.9241 284.527 54.0659 284.78 54.3186C285.033 54.5713 285.175 54.9142 285.175 55.2717C285.176 55.6293 285.034 55.9724 284.781 56.2254C284.529 56.4785 284.186 56.6208 283.828 56.6212M282.873 56.2264L283.828 56.6212" fill="#2A4890" stroke="#787878" stroke-width="0.385281"/>
<path d="M292.505 60.8497C292.758 61.1025 293.101 61.2446 293.459 61.2446L293.46 61.2446L293.46 61.2446M292.505 60.8497L293.459 61.4372C293.05 61.4372 292.658 61.2749 292.369 60.986C292.08 60.697 291.918 60.3051 291.918 59.8965C291.918 59.4878 292.08 59.0958 292.369 58.8067C292.658 58.5177 293.049 58.3552 293.458 58.3549C293.867 58.3547 294.259 58.5169 294.548 58.8057C294.837 59.0944 295 59.4863 295 59.8949C295 60.3036 294.838 60.6956 294.55 60.9849C294.261 61.2741 293.869 61.4368 293.46 61.4372V61.2446M292.505 60.8497C292.253 60.5969 292.11 60.254 292.11 59.8964C292.11 59.5388 292.252 59.1959 292.505 58.9429C292.758 58.69 293.101 58.5478 293.458 58.5476C293.816 58.5474 294.159 58.6893 294.412 58.942C294.665 59.1946 294.807 59.5375 294.807 59.8951C294.808 60.2526 294.666 60.5957 294.413 60.8488C294.161 61.1018 293.818 61.2442 293.46 61.2446M292.505 60.8497L293.46 61.2446" fill="#2A4890" stroke="#787878" stroke-width="0.385281"/>
</svg>
