<svg width="113" height="95" viewBox="0 0 113 95" fill="none" xmlns="http://www.w3.org/2000/svg">
<path d="M80.1667 4.32013L75.1011 8.61351C74.0468 9.51225 72.9056 10.5454 72.7501 11.9265C72.6051 13.2047 73.3563 14.4856 73.098 15.7481C72.7844 17.2873 71.0422 18.3968 71.1714 19.965C71.2425 20.8216 71.8751 21.5279 72.0833 22.3608C72.4549 23.8552 71.4139 25.3337 71.3348 26.8703C71.2346 28.7969 72.6868 30.51 74.3842 31.4246C76.0815 32.3391 78.0266 32.6554 79.8715 33.1852C81.7164 33.7149 83.6193 34.553 84.7025 36.1476" fill="#263238"/>
<path d="M101.454 13.268C101.837 11.937 100.861 10.5849 99.7413 9.7758C98.6212 8.96668 97.2796 8.42374 96.3598 7.39059C95.5454 6.47604 95.1501 5.28211 94.5333 4.22788C93.7724 2.92218 92.6777 1.84251 91.3616 1.09969C90.0456 0.356877 88.5555 -0.0223259 87.0444 0.00101609C85.5334 0.0243581 84.0558 0.449404 82.7632 1.23252C81.4707 2.01563 80.4099 3.1286 79.6897 4.45717C78.7198 6.24411 78.4694 8.58188 79.6475 10.2344C81.018 12.1531 83.6879 12.4905 86.0415 12.6064C88.395 12.7224 91.0491 12.9174 92.5725 14.7149C93.4976 15.7955 93.8112 17.2504 94.196 18.6182C94.5808 19.9861 95.129 21.4278 96.3045 22.2079C97.4799 22.988 99.4672 22.6691 99.8599 21.3065" fill="#263238"/>
<path d="M96.0174 12.1953C96.5602 12.3978 97.0071 12.7968 97.2697 13.3132C97.5323 13.8296 97.5914 14.4258 97.4353 14.9838L88.3399 44.9162C87.3673 48.4769 81.6244 49.1464 77.8212 48.0789C73.9785 47.0036 74.3369 45.0691 75.1619 41.6534C76.5377 35.9499 77.0911 33.8204 77.0806 33.852C77.0701 33.8836 72.4077 31.7778 73.0429 25.1545C73.3591 21.8574 74.8614 16.7048 76.2293 12.5274C77.4575 8.76904 81.2027 4.73394 84.9057 6.1229L96.0174 12.1953Z" fill="#FFBE9D"/>
<path d="M79.6633 16.9973C79.6211 16.8497 78.8357 16.9762 78.0292 16.5572C77.2227 16.1381 76.8406 15.4292 76.7114 15.4845C76.6455 15.5056 76.6482 15.7296 76.8089 16.0512C77.0328 16.4731 77.3817 16.8156 77.8078 17.0316C78.2259 17.2516 78.7037 17.3311 79.1704 17.2583C79.5104 17.1976 79.6844 17.0632 79.6633 16.9973Z" fill="#263238"/>
<path d="M88.369 19.7094C88.2978 19.5618 87.4834 19.8385 86.5504 19.538C85.6174 19.2376 85.0797 18.5523 84.9427 18.634C84.8768 18.6683 84.919 18.8976 85.1509 19.2218C85.4656 19.6311 85.8992 19.9331 86.3923 20.0862C86.877 20.2443 87.3993 20.2443 87.884 20.0862C88.2425 19.9518 88.4059 19.7779 88.369 19.7094Z" fill="#263238"/>
<path d="M80.4619 23.6048C80.4777 23.5573 79.9559 23.3201 79.0993 22.9775C78.8805 22.8984 78.6802 22.7983 78.6829 22.6349C78.7238 22.398 78.836 22.1792 79.0044 22.0076L80.1114 20.4711C81.6611 18.2756 82.8471 16.4465 82.747 16.3859C82.6468 16.3253 81.329 18.0516 79.7766 20.247L78.696 21.802C78.5458 22.0366 78.3244 22.287 78.3508 22.6533C78.3636 22.7408 78.3958 22.8243 78.4451 22.8977C78.4943 22.9711 78.5594 23.0326 78.6354 23.0777C78.7517 23.1434 78.8757 23.1948 79.0044 23.2305C79.8926 23.5073 80.4461 23.6549 80.4619 23.6048Z" fill="#263238"/>
<path d="M77.1625 33.852C80.1511 34.6728 83.3088 34.6482 86.2843 33.7808C86.2843 33.7808 83.082 37.6209 76.8594 35.378L77.1625 33.852Z" fill="#EB996E"/>
<path d="M85.7097 16.0222C85.736 16.2857 86.6427 16.3991 87.6416 16.7891C88.6405 17.1792 89.4021 17.6773 89.5945 17.4981C89.6815 17.4111 89.5945 17.1502 89.331 16.8313C88.9551 16.4318 88.4933 16.1229 87.9806 15.928C87.4679 15.733 86.9176 15.6571 86.3712 15.7059C85.9337 15.7613 85.7018 15.9036 85.7097 16.0222Z" fill="#263238"/>
<path d="M77.8398 12.4009C77.9005 12.6908 78.649 12.783 79.4212 13.1467C80.1934 13.5104 80.7733 13.9822 81.0315 13.832C81.1501 13.7582 81.1502 13.4973 80.963 13.1573C80.696 12.7319 80.3088 12.3952 79.8505 12.1897C79.3922 11.9843 78.8833 11.9192 78.388 12.0029C78.027 12.0872 77.8188 12.2612 77.8398 12.4009Z" fill="#263238"/>
<path d="M95.1765 34.3027C94.2505 34.2549 93.3491 33.9872 92.547 33.5219C91.745 33.0566 91.0652 32.407 90.564 31.6269C90.0628 30.8467 89.7545 29.9585 89.6647 29.0356C89.575 28.1126 89.7062 27.1816 90.0476 26.3195C90.6485 24.804 91.8925 23.4203 91.737 21.8073C91.5209 19.6646 88.9301 18.36 88.7008 16.2172C88.5691 14.9732 89.2912 13.7424 89.0962 12.5037C88.9117 11.3414 87.9655 10.4558 86.9877 9.7943C86.0099 9.13277 84.9346 8.57138 84.2124 7.64102C83.4903 6.71065 83.2689 5.24526 84.1017 4.41241C88.7151 6.20402 93.099 8.53798 97.1611 11.3651C98.102 12.0214 99.0745 12.7673 99.4514 13.8505C99.8521 14.9943 99.4989 16.2515 99.1431 17.4112L93.9457 34.3739" fill="#263238"/>
<path d="M90.5884 37.779C93.5719 38.459 96.703 36.8038 98.8114 34.5847C100.92 32.3655 102.024 29.3477 102.446 26.3168C102.868 23.2859 102.657 20.2075 102.446 17.1555C102.356 15.8772 102.261 14.5699 101.753 13.3945C101.244 12.219 100.227 11.1806 98.959 11.0013" fill="#263238"/>
<path d="M102.29 26.4038C104.103 27.089 106.222 26.5434 107.754 25.3495C109.285 24.1556 110.292 22.4108 110.979 20.6054C111.363 19.7005 111.573 18.7312 111.596 17.7485C111.603 17.255 111.509 16.7653 111.32 16.3094C111.131 15.8535 110.851 15.441 110.497 15.097C109.266 14.0033 107.334 14.1983 105.835 14.8862C102.435 16.4465 100.255 20.3155 100.68 24.0291" fill="#263238"/>
<path d="M110.587 14.9626C110.6 15.0013 110.61 15.041 110.616 15.0813C110.641 15.1962 110.659 15.3123 110.672 15.4291C110.719 15.8574 110.719 16.2897 110.672 16.718C110.607 17.3594 110.429 17.9842 110.145 18.5629C109.797 19.2755 109.269 19.8851 108.613 20.3314C107.415 21.1104 106.042 21.5812 104.618 21.7019C104.187 21.7361 103.753 21.7122 103.329 21.6307C103.213 21.6108 103.1 21.5817 102.989 21.5437C102.913 21.52 102.873 21.5068 102.876 21.5016C102.878 21.4963 103.039 21.5358 103.339 21.578C103.76 21.6377 104.187 21.6466 104.61 21.6044C106.01 21.4611 107.357 20.9878 108.54 20.2233C109.177 19.7918 109.692 19.2025 110.034 18.5128C110.316 17.9508 110.5 17.3446 110.577 16.7206C110.639 16.1364 110.642 15.5475 110.587 14.9626Z" fill="#455A64"/>
<path d="M110.563 21.5964C110.496 21.6805 110.418 21.7557 110.331 21.8204C110.238 21.9056 110.139 21.9849 110.036 22.0577C109.915 22.142 109.773 22.2474 109.622 22.3423C108.801 22.8599 107.904 23.245 106.963 23.4835C106.026 23.7388 105.055 23.849 104.085 23.8103C103.792 23.7987 103.5 23.7635 103.213 23.7049C103.106 23.6874 103.001 23.66 102.899 23.6232C102.899 23.5968 103.352 23.6996 104.088 23.7128C105.047 23.7253 106.003 23.6046 106.929 23.3544C107.854 23.1149 108.741 22.7477 109.564 22.2632C110.202 21.8811 110.547 21.5753 110.563 21.5964Z" fill="#455A64"/>
<path d="M102.206 17.1212C102.104 17.1207 102.002 17.1083 101.903 17.0843C101.614 17.019 101.346 16.8812 101.125 16.6837C100.965 16.5439 100.821 16.3855 100.698 16.2119C100.554 16.0041 100.43 15.7825 100.329 15.5504C100.215 15.2836 100.127 15.0064 100.066 14.7228C99.9992 14.4042 99.9508 14.0822 99.9207 13.7582C99.8762 13.0231 99.7525 12.295 99.5518 11.5864C99.4243 11.1971 99.2179 10.8382 98.9456 10.5322C98.6526 10.2166 98.3076 9.9536 97.9256 9.75469C97.1349 9.333 96.223 9.09053 95.3216 8.70046C94.8549 8.50973 94.4202 8.24839 94.0328 7.92559C93.6423 7.57815 93.3305 7.15133 93.1183 6.67368C92.6729 5.72751 92.4725 4.7128 91.9296 3.91158C91.4037 3.14157 90.6592 2.54672 89.7922 2.20371C89.0107 1.88663 88.1657 1.75754 87.3252 1.82682C86.5889 1.89282 85.8726 2.10234 85.2168 2.44355C84.2681 2.93898 83.4403 3.63726 82.792 4.48878C82.5653 4.78923 82.4019 5.03698 82.2991 5.20566C82.2491 5.28473 82.2095 5.35062 82.1806 5.40069L82.1357 5.46395C82.3057 5.10835 82.5115 4.77101 82.7498 4.45715C83.0254 4.0839 83.3351 3.73713 83.6749 3.42136C84.1231 3.00283 84.6269 2.64808 85.1719 2.36712C85.8338 2.01537 86.5582 1.79688 87.3041 1.72404C88.1633 1.64785 89.0283 1.77516 89.829 2.09566C90.7223 2.44508 91.4893 3.05593 92.0298 3.84833C92.5938 4.67854 92.7941 5.69324 93.2316 6.62625C93.4359 7.08658 93.736 7.49808 94.1119 7.83335C94.4894 8.14753 94.9124 8.40257 95.3664 8.58976C96.2546 8.97983 97.1744 9.22494 97.973 9.65981C98.3678 9.8667 98.7243 10.1394 99.0273 10.4663C99.3053 10.7825 99.516 11.1519 99.6466 11.5522C99.8478 12.2701 99.968 13.0082 100.005 13.7529C100.042 14.0876 100.076 14.4092 100.139 14.7043C100.203 14.984 100.291 15.2575 100.403 15.5214C100.501 15.7495 100.619 15.9683 100.756 16.175C100.874 16.3471 101.012 16.5046 101.167 16.6441C101.378 16.8438 101.635 16.9871 101.916 17.0606C102.1 17.108 102.208 17.1106 102.206 17.1212Z" fill="#455A64"/>
<path d="M102.222 19.4115H102.153C102.087 19.4155 102.02 19.4155 101.953 19.4115C101.696 19.3962 101.443 19.3383 101.204 19.2402C100.332 18.8427 99.6397 18.1328 99.2646 17.2503C99.0033 16.6549 98.7952 16.0375 98.6426 15.4054C98.4754 14.6838 98.2579 13.9749 97.9917 13.2837C97.7033 12.5215 97.202 11.8583 96.5473 11.3729C95.8515 10.8906 94.9475 10.7852 94.0514 10.7193C93.1553 10.6534 92.2302 10.6007 91.4606 10.15C91.2701 10.0393 91.0932 9.90657 90.9335 9.75467C90.7834 9.60392 90.6483 9.43885 90.5303 9.26181C90.3135 8.91929 90.1231 8.56068 89.961 8.18912C89.8045 7.84126 89.6285 7.50249 89.4339 7.17442C89.25 6.86912 89.0207 6.59361 88.7539 6.35739C88.2685 5.93766 87.6918 5.63712 87.0697 5.47973C86.5542 5.34438 86.0182 5.30507 85.4884 5.36377C85.0887 5.40353 84.6975 5.50488 84.3287 5.66423C84.0189 5.81254 83.7234 5.98898 83.4458 6.19134L83.4959 6.14654L83.6487 6.02003L83.7647 5.92778L83.9176 5.83554C84.0408 5.75339 84.1714 5.6828 84.3076 5.62469C84.678 5.45464 85.073 5.34433 85.4778 5.29788C86.0152 5.23206 86.5601 5.26511 87.0856 5.39539C87.7257 5.55228 88.3205 5.85641 88.8224 6.28359C88.9567 6.4039 89.0835 6.53241 89.2019 6.66839C89.3197 6.81291 89.4289 6.96428 89.5288 7.12171C89.7243 7.45289 89.9003 7.79523 90.0559 8.14696C90.2187 8.51175 90.4081 8.86411 90.6225 9.2012C90.7352 9.36972 90.8641 9.52685 91.0073 9.67033C91.1571 9.81317 91.3224 9.93871 91.5002 10.0446C92.2302 10.4716 93.1369 10.5216 94.0356 10.5928C94.4854 10.6201 94.9327 10.6782 95.3745 10.7667C95.81 10.8556 96.2243 11.0274 96.5948 11.2728C97.2691 11.7742 97.7844 12.4597 98.0786 13.2468C98.3456 13.9435 98.5615 14.6588 98.7243 15.3869C98.8681 16.0189 99.0693 16.6364 99.3253 17.2319C99.6827 18.101 100.349 18.8071 101.197 19.2138C101.522 19.3461 101.87 19.4132 102.222 19.4115Z" fill="#455A64"/>
<path d="M102.38 26.4802C102.383 26.3665 102.398 26.2534 102.425 26.1429C102.467 25.9267 102.517 25.6157 102.575 25.2283C102.724 24.2231 102.797 23.2082 102.794 22.1921C102.787 21.1747 102.707 20.1591 102.554 19.1533C102.493 18.7685 102.438 18.4575 102.398 18.2413C102.37 18.131 102.353 18.0179 102.348 17.904C102.394 18.0086 102.428 18.1183 102.448 18.2308C102.506 18.4417 102.577 18.7579 102.649 19.1375C102.832 20.1446 102.927 21.1658 102.933 22.1895C102.937 23.2135 102.849 24.2358 102.67 25.2441C102.601 25.6316 102.533 25.9426 102.477 26.1534C102.455 26.2652 102.422 26.3746 102.38 26.4802Z" fill="#FF725E"/>
<path d="M102.583 25.3416C102.451 25.6582 102.283 25.9581 102.082 26.2351C101.547 27.0076 100.82 27.6279 99.9733 28.0352C99.3828 28.3141 98.7365 28.4547 98.0836 28.4464C97.3312 28.4253 96.5984 28.2023 95.9619 27.8006C95.2459 27.3646 94.7107 26.6854 94.4544 25.8872C94.3308 25.4668 94.266 25.0313 94.262 24.5931C94.2488 24.153 94.262 23.7049 94.3015 23.2569C94.3542 22.366 94.4254 21.4726 94.1645 20.6793C94.0445 20.2854 93.8353 19.9247 93.553 19.625C93.2725 19.3489 92.9517 19.117 92.6015 18.9371C91.9242 18.5708 91.2205 18.3125 90.6354 17.9172C90.3507 17.7307 90.0949 17.5033 89.8763 17.2424C89.6852 16.9997 89.525 16.7341 89.3993 16.4518C89.2026 15.953 89.0852 15.4266 89.0514 14.8915C89.0212 14.4907 89.0168 14.0884 89.0382 13.687C89.0567 13.3576 89.0777 13.1019 89.0962 12.9306C89.0962 12.8515 89.112 12.7857 89.1173 12.7329C89.1138 12.7111 89.1138 12.6889 89.1173 12.6671C89.1208 12.6898 89.1208 12.7129 89.1173 12.7356C89.1173 12.7883 89.1173 12.8515 89.1173 12.9332C89.1173 13.1046 89.0962 13.3602 89.0883 13.6897C89.0765 14.0888 89.0879 14.4884 89.1226 14.8862C89.1631 15.4105 89.285 15.9253 89.4836 16.4122C89.6062 16.6909 89.7649 16.9523 89.9554 17.1897C90.168 17.4404 90.4167 17.658 90.6934 17.8355C91.2653 18.2176 91.9637 18.4706 92.6569 18.8396C93.0184 19.0253 93.3505 19.2634 93.6426 19.546C93.9385 19.855 94.1586 20.2285 94.2857 20.6371C94.5492 21.4673 94.4834 22.374 94.4333 23.2727C94.4043 23.7234 94.3806 24.1635 94.3937 24.5905C94.3944 25.0162 94.4565 25.4397 94.5782 25.8477C94.8251 26.6155 95.3383 27.2699 96.0252 27.6926C96.6415 28.0843 97.3511 28.3045 98.0809 28.3304C98.7169 28.3416 99.3474 28.2101 99.9259 27.9456C100.765 27.5515 101.49 26.9512 102.034 26.2008C102.184 25.9981 102.322 25.7869 102.448 25.5683L102.538 25.3917L102.583 25.3416Z" fill="#455A64"/>
<path d="M77.5468 25.6895C77.7991 25.5746 78.0763 25.5253 78.3527 25.546C78.6291 25.5667 78.8958 25.6569 79.1282 25.8081C79.299 25.9145 79.4466 26.0543 79.5621 26.2192C79.6776 26.3841 79.7586 26.5705 79.8002 26.7675C79.8405 26.9574 79.8214 27.1551 79.7455 27.3338C79.6696 27.5125 79.5406 27.6635 79.3759 27.7664C79.0016 27.964 78.5088 27.8033 78.1767 27.5028C77.8627 27.1741 77.6172 26.7861 77.4545 26.3616C77.3949 26.2513 77.3573 26.1305 77.3439 26.0058C77.336 25.9461 77.3464 25.8855 77.3737 25.8318C77.401 25.7782 77.4439 25.7341 77.4967 25.7053" fill="#EB996E"/>
<path d="M106.939 21.9259C107.018 21.919 107.098 21.919 107.177 21.9259C107.335 21.9259 107.564 21.9259 107.862 21.9101C108.698 21.8679 109.517 21.661 110.273 21.3013C110.789 21.0482 111.256 20.7056 111.652 20.2892C112.112 19.8173 112.445 19.2372 112.622 18.6024C112.799 17.8688 112.782 17.1017 112.573 16.3766C112.363 15.6515 111.969 14.9935 111.428 14.4672C110.865 13.9246 110.168 13.54 109.409 13.3523C108.049 13.0129 106.61 13.2191 105.4 13.9269C104.905 14.2212 104.455 14.5852 104.064 15.0075C103.499 15.6239 103.053 16.3385 102.746 17.116C102.633 17.3795 102.564 17.6115 102.517 17.7617C102.498 17.8302 102.48 17.8856 102.467 17.9304C102.462 17.9509 102.454 17.9704 102.443 17.9883C102.44 17.9683 102.44 17.9478 102.443 17.9277L102.483 17.7538C102.538 17.531 102.606 17.3118 102.688 17.0975C102.981 16.3019 103.424 15.57 103.993 14.9416C104.386 14.507 104.841 14.1323 105.342 13.8294C106.576 13.0961 108.05 12.8784 109.443 13.2232C110.226 13.4145 110.945 13.8101 111.525 14.3697C112.083 14.9125 112.488 15.5916 112.702 16.3396C112.917 17.0876 112.931 17.8786 112.746 18.6341C112.559 19.2873 112.212 19.8835 111.736 20.3683C111.327 20.7896 110.846 21.135 110.316 21.3883C109.547 21.7457 108.712 21.9413 107.864 21.9628C107.635 21.9748 107.406 21.9748 107.177 21.9628L106.997 21.947C106.977 21.9431 106.957 21.936 106.939 21.9259Z" fill="#263238"/>
<path d="M106.328 10.9882C106.341 11.0172 105.922 11.1806 105.347 11.6023C105.189 11.7164 105.039 11.8405 104.896 11.9739C104.731 12.1228 104.574 12.2812 104.427 12.4483C103.749 13.2172 103.271 14.1415 103.036 15.1393C102.985 15.3566 102.946 15.5766 102.92 15.7982C102.894 15.9904 102.88 16.184 102.878 16.378C102.878 17.0923 102.975 17.5298 102.946 17.535C102.907 17.4377 102.881 17.3359 102.867 17.2319C102.838 17.1118 102.819 16.9891 102.812 16.8656C102.791 16.7039 102.78 16.5411 102.78 16.378C102.776 16.18 102.785 15.9819 102.806 15.785C102.828 15.559 102.863 15.3346 102.912 15.1129C103.028 14.6042 103.205 14.1114 103.439 13.6449C103.683 13.1833 103.982 12.7532 104.33 12.364C104.482 12.1952 104.645 12.0367 104.817 11.8896C104.966 11.7579 105.123 11.6355 105.287 11.5232C105.42 11.4268 105.559 11.3388 105.703 11.2597C105.808 11.1957 105.918 11.141 106.032 11.0963C106.127 11.0494 106.226 11.0131 106.328 10.9882Z" fill="#263238"/>
<path d="M92.7596 26.7095C92.912 26.413 93.0178 26.0947 93.0732 25.766C93.1813 24.8599 92.9818 23.9437 92.5066 23.1646C92.1833 22.6271 91.7908 22.1344 91.339 21.6993C90.8593 21.2222 90.3032 20.7557 89.7313 20.2444C89.117 19.7239 88.5651 19.134 88.0867 18.4865C87.5547 17.7884 87.2419 16.9482 87.1879 16.0723C87.1563 15.1709 87.4119 14.3275 87.3935 13.5052C87.3681 12.7128 87.0584 11.956 86.5211 11.373C86.0341 10.839 85.5053 10.3445 84.9398 9.89442C84.445 9.49438 84.0023 9.03396 83.622 8.52391C83.3078 8.09781 83.1098 7.59738 83.0474 7.0717C82.9985 6.67435 83.0464 6.27106 83.1871 5.89622C83.2773 5.6602 83.4197 5.44758 83.6035 5.27422C83.6659 5.21394 83.7348 5.16089 83.8091 5.11609C83.8091 5.11609 83.7406 5.17407 83.622 5.29531C83.4497 5.47092 83.3183 5.68241 83.2372 5.91467C83.1096 6.28258 83.0708 6.6754 83.1238 7.06116C83.1925 7.57244 83.3923 8.05727 83.7037 8.46856C84.0858 8.96845 84.5285 9.41906 85.0215 9.81009C85.5881 10.2599 86.1169 10.7553 86.6028 11.2913C86.8647 11.5917 87.0822 11.928 87.2485 12.2902C87.4199 12.6715 87.5096 13.0845 87.5121 13.5026C87.5332 14.3512 87.2775 15.1972 87.3092 16.067C87.3637 16.9167 87.6671 17.7316 88.1815 18.41C88.653 19.0503 89.1959 19.6348 89.7998 20.1522C90.3691 20.6608 90.9252 21.1326 91.4022 21.6202C91.8584 22.0645 92.2529 22.568 92.5751 23.1172C93.0496 23.9164 93.2356 24.8541 93.1022 25.7739C93.058 26.0206 92.98 26.2601 92.8703 26.4855L92.7727 26.6542C92.7707 26.6731 92.7662 26.6917 92.7596 26.7095Z" fill="#263238"/>
<path d="M74.7746 11.539C74.7346 11.4108 74.7055 11.2794 74.6876 11.1463C74.6428 10.8827 74.5769 10.5243 74.5321 10.0604C74.4726 9.51865 74.4797 8.97164 74.5532 8.43161C74.6412 7.75539 74.9149 7.11679 75.3439 6.58669C75.7619 6.04152 76.375 5.67968 77.0544 5.57726C77.3487 5.55308 77.645 5.56993 77.9347 5.62734C78.1791 5.67576 78.4265 5.70746 78.6753 5.72222C78.8526 5.73519 79.0307 5.713 79.1994 5.65691C79.3681 5.60083 79.5241 5.51195 79.6583 5.39541C79.7478 5.30003 79.8208 5.19049 79.8745 5.07123C79.8745 5.07123 79.8745 5.10813 79.8534 5.17402C79.8214 5.27218 79.7683 5.36214 79.6979 5.43758C79.5633 5.56915 79.403 5.67148 79.2271 5.73815C79.0511 5.80482 78.8632 5.8344 78.6753 5.82501C78.2009 5.82501 77.6606 5.64052 77.0702 5.70904C76.4255 5.81254 75.8452 6.15976 75.4493 6.67894C75.0407 7.18935 74.7768 7.80012 74.685 8.44743C74.6078 8.97799 74.5919 9.51567 74.6375 10.0499C74.6692 10.5085 74.7192 10.8801 74.7482 11.1357C74.7685 11.2691 74.7774 11.4041 74.7746 11.539Z" fill="#263238"/>
<path d="M79.2072 27.8508C79.3788 27.754 79.5286 27.623 79.6474 27.466C79.7652 27.2921 79.831 27.0882 79.8371 26.8782C79.839 26.6274 79.7585 26.3829 79.6078 26.1824C79.453 25.9767 79.2427 25.8194 79.0016 25.7291C78.8022 25.6579 78.5914 25.6239 78.3796 25.629C78.0133 25.629 77.7945 25.737 77.7866 25.7133C77.9619 25.5994 78.1654 25.5364 78.3744 25.5314C78.6014 25.5111 78.8303 25.538 79.0464 25.6105C79.3142 25.7035 79.5482 25.8741 79.7185 26.1007C79.8953 26.3258 79.9884 26.6053 79.9821 26.8914C79.9695 27.1231 79.8868 27.3456 79.7449 27.5292C79.6842 27.6188 79.6046 27.6941 79.5117 27.7496C79.4188 27.8052 79.3149 27.8397 79.2072 27.8508Z" fill="#263238"/>
<path d="M24.5825 79.6085L37.1596 82.0254L38.3219 75.3415L33.9494 74.4612C33.9504 73.7314 33.894 73.0026 33.7807 72.2816C33.5989 71.2141 32.1071 69.7883 32.3022 68.1463C32.3551 67.84 32.2992 67.5248 32.144 67.2555C32.0922 67.1806 32.0226 67.1198 31.9414 67.0786C31.8602 67.0374 31.7701 67.017 31.679 67.0193C31.588 67.0217 31.499 67.0467 31.4201 67.0921C31.3411 67.1374 31.2747 67.2017 31.2269 67.2792C29.7536 69.6249 30.4362 71.2326 30.4863 71.9363C30.5337 72.6927 26.467 71.5541 26.467 71.5541" fill="#FFBE9D"/>
<path d="M28.1295 78.2565C28.1238 78.1745 28.1337 78.0923 28.1585 78.014C28.2114 77.7927 28.3004 77.5817 28.422 77.3894C28.5956 77.0978 28.827 76.8449 29.102 76.6461C29.4435 76.398 29.8444 76.2443 30.2643 76.2007L30.2116 76.3035C30.1852 76.2508 30.1536 76.1954 30.122 76.1401C29.7618 75.422 29.6784 74.5965 29.8874 73.8208C29.9482 73.5896 30.0367 73.3665 30.151 73.1566C30.1903 73.0784 30.2409 73.0065 30.3012 72.9431C30.1692 73.2344 30.0608 73.5358 29.977 73.8445C29.8018 74.5966 29.8951 75.3862 30.2406 76.0768L30.3249 76.2323L30.375 76.3272H30.2722C29.8756 76.3685 29.4963 76.511 29.1705 76.741C28.9026 76.9248 28.6733 77.1594 28.4958 77.4315C28.3404 77.6905 28.2174 77.9675 28.1295 78.2565Z" fill="#EB996E"/>
<path d="M74.4582 40.5042C74.4582 40.5042 69.332 39.7135 64.7776 46.6082C60.2233 53.503 54.0587 74.5218 54.0587 74.5218L36.6453 72.9405L34.998 82.5472L53.8874 88.132C55.5697 88.6476 57.3694 88.6366 59.0452 88.1004C60.7252 87.5412 62.2293 86.5514 63.4076 85.2298C64.5858 83.9081 65.3972 82.3008 65.7607 80.5679L69.4505 63.0043L74.4582 40.5042Z" fill="#FF725E"/>
<path d="M55.8665 79.8669C55.8455 79.8669 55.8665 79.5111 55.827 78.9445C55.7824 78.2049 55.6578 77.4723 55.4554 76.7595C55.2531 76.0483 54.9692 75.3629 54.6094 74.717C54.5011 74.5265 54.3362 74.3745 54.1376 74.2821C54.06 74.261 53.9806 74.2478 53.9004 74.2426C53.9004 74.2426 53.9188 74.2426 53.9636 74.2215C54.0262 74.2078 54.0909 74.2078 54.1534 74.2215C54.3739 74.3001 54.5603 74.4529 54.6805 74.6537C55.0736 75.2951 55.3761 75.9878 55.5793 76.7121C55.7867 77.4333 55.9001 78.1784 55.9166 78.9286C55.9166 79.2159 55.9166 79.4558 55.8982 79.6086C55.9016 79.6959 55.8909 79.7831 55.8665 79.8669Z" fill="#263238"/>
<g opacity="0.1">
<path d="M58.1491 66.9235C56.8002 70.7759 56.6241 74.9418 57.643 78.8943C58.2624 81.2796 59.488 83.7307 61.7256 84.7717C62.1262 84.9588 62.6164 85.0906 62.9959 84.8666C63.3755 84.6426 63.5072 84.0996 63.5652 83.6331C63.6654 82.8635 63.7392 82.0518 63.4782 81.3296C63.162 80.4441 62.4082 79.8063 61.7809 79.1105C60.363 77.5423 59.4906 75.5445 58.9767 73.494C58.4627 71.4435 58.2835 69.3298 58.1069 67.2239" fill="black"/>
</g>
<path d="M72.1786 45.3142C72.1654 45.3379 71.886 45.1877 71.3879 45.0506C71.1034 44.9678 70.8125 44.9087 70.5182 44.874C70.1584 44.8341 69.7957 44.8288 69.4349 44.8582C69.0735 44.8919 68.7161 44.9598 68.3675 45.0612C68.0844 45.1483 67.8086 45.2576 67.5426 45.388C67.0893 45.6173 66.8389 45.8123 66.8231 45.7912C66.8072 45.7701 66.8758 45.7306 66.9891 45.641C67.1472 45.5121 67.3176 45.3991 67.4978 45.3036C67.7629 45.1563 68.0418 45.0353 68.3306 44.9425C69.0412 44.7132 69.7942 44.6466 70.534 44.7475C70.8344 44.789 71.1301 44.8596 71.4169 44.9584C71.6105 45.0233 71.7983 45.1044 71.9783 45.2008C72.1153 45.2641 72.1839 45.3063 72.1786 45.3142Z" fill="#FAFAFA"/>
<path d="M42.6362 84.6399C42.6638 84.606 42.6957 84.5759 42.7311 84.5503C42.8242 84.4753 42.9122 84.3943 42.9947 84.3079C43.3208 83.9939 43.5886 83.6244 43.7854 83.2167C44.0753 82.6137 44.2102 81.9479 44.1781 81.2796C44.1547 80.8871 44.0656 80.5013 43.9145 80.1384C43.7487 79.7489 43.5296 79.3843 43.2635 79.0551C42.7364 78.3672 42.117 77.7795 41.6822 77.139C41.2634 76.5867 41.0259 75.9183 41.0022 75.2256C40.9954 74.7574 41.1447 74.3002 41.4265 73.9263C41.5278 73.7894 41.6584 73.6769 41.8087 73.5968C41.6861 73.7083 41.5733 73.8299 41.4713 73.9605C41.2154 74.3316 41.0851 74.775 41.0997 75.2256C41.1359 75.8962 41.3759 76.5399 41.7876 77.0705C42.2145 77.6952 42.826 78.275 43.3689 78.9761C43.6406 79.3163 43.864 79.6923 44.0331 80.0935C44.1875 80.4702 44.2766 80.8704 44.2967 81.2769C44.3238 81.9653 44.175 82.6492 43.8644 83.2642C43.6567 83.6769 43.3722 84.0463 43.0263 84.3527C42.9334 84.4363 42.8338 84.5121 42.7285 84.5793C42.6758 84.6215 42.6389 84.6452 42.6362 84.6399Z" fill="#FAFAFA"/>
<path d="M55.8881 88.6196C55.8749 88.6196 56.0119 88.4351 56.2149 88.0924C56.5016 87.6114 56.7189 87.0924 56.8606 86.5506C57.0783 85.7499 57.0312 84.9002 56.7262 84.1285C56.3704 83.264 55.6719 82.476 54.9287 81.6959C54.1855 80.9157 53.4449 80.1488 53.0179 79.2869C52.7014 78.6521 52.5366 77.9524 52.5366 77.243C52.5366 76.5336 52.7014 75.834 53.0179 75.1991C53.0861 75.0613 53.1635 74.9284 53.2498 74.8011C53.2782 74.7551 53.3108 74.7119 53.3474 74.672C53.3474 74.672 53.234 74.8618 53.0653 75.2202C52.8345 75.7306 52.6945 76.2773 52.6516 76.8358C52.5877 77.6628 52.7547 78.4912 53.1339 79.2289C53.5556 80.0644 54.2751 80.8103 55.0289 81.601C55.7826 82.3916 56.4863 83.1823 56.8474 84.0811C57.1555 84.8779 57.1935 85.7538 56.9555 86.5743C56.8042 87.1223 56.5686 87.6433 56.257 88.1188C56.176 88.249 56.088 88.3748 55.9935 88.4957C55.9628 88.5406 55.9275 88.5821 55.8881 88.6196Z" fill="#FAFAFA"/>
<path d="M74.4583 40.5042C74.4583 40.5042 67.5873 48.5401 62.8301 58.7241L64.3587 94.5287H101.138L92.6308 79.5058C91.5344 76.8912 92.8943 73.1803 94.0592 70.9032C95.2505 68.5918 95.9042 66.362 96.6395 64.5909C98.204 60.9656 99.091 57.0843 99.2566 53.1393C99.6362 43.261 89.1254 40.5754 89.1254 40.5754L74.4583 40.5042Z" fill="#FF725E"/>
<path d="M75.5229 40.5042C75.5229 40.5042 65.0701 57.8096 68.3461 57.6989C71.6222 57.5882 89.763 40.5042 89.763 40.5042V38.6093L75.5229 40.5042Z" fill="#FFBE9D"/>
<path d="M54.4619 46.2972L59.0979 73.3964C60.0257 81.1398 68.8839 85.1433 75.2673 80.6654L75.4492 80.5363L96.0885 56.9661C97.3315 55.5375 97.9596 53.6756 97.8362 51.7859C97.7128 49.8963 96.8478 48.1319 95.4296 46.8771C94.7183 46.2483 93.8894 45.7667 92.9908 45.4603C92.0922 45.1539 91.1418 45.0287 90.1945 45.0919C89.2472 45.1551 88.3218 45.4056 87.4719 45.8287C86.622 46.2518 85.8645 46.8393 85.243 47.5571L71.9649 64.5487L66.6226 44.2362L54.4619 46.2972Z" fill="#FF725E"/>
<path d="M94.5411 46.1892C94.5411 46.1892 94.4989 46.1602 94.4225 46.0996L94.0772 45.8202C93.612 45.4786 93.0962 45.2118 92.5486 45.0295L92.2692 44.9452L91.9661 44.8872C91.8615 44.8618 91.7547 44.846 91.6472 44.8398C91.5365 44.8398 91.4232 44.8108 91.3072 44.8081C90.8008 44.7884 90.2939 44.8354 89.7997 44.9478C88.5723 45.2424 87.4204 45.791 86.4182 46.5582C85.8221 47.0068 85.2728 47.5145 84.7788 48.0736C84.5153 48.3662 84.2702 48.6825 84.0093 49.0014C83.7483 49.3203 83.4821 49.6445 83.2186 49.9792C82.1459 51.3181 81.0073 52.7834 79.7923 54.3595C77.3807 57.5222 74.6951 61.1093 71.7985 65.0706L71.7247 65.1707L71.6958 65.0521C70.1381 58.761 68.4039 51.7503 66.5458 44.2309L66.6222 44.2784L54.459 46.342L54.5143 46.263L55.6397 52.8309C56.7229 59.1563 57.7745 65.2973 58.7708 71.1219C58.8973 71.8493 59.0212 72.5741 59.1424 73.291C59.1714 73.4729 59.2083 73.6442 59.232 73.8366L59.2979 74.3637L59.3295 74.6273L59.3875 74.8908L59.5061 75.4179C59.8777 76.7764 60.569 78.0263 61.5224 79.063C62.452 80.058 63.5724 80.8557 64.8168 81.4087C66.0124 81.9461 67.2868 82.2869 68.591 82.4181H68.6622C68.7228 82.3838 68.5673 82.4497 68.6622 82.5314H68.6385C68.5972 82.5288 68.5558 82.5288 68.5146 82.5314C68.5146 82.5314 68.483 82.5314 68.5304 82.5314C68.5093 82.3285 68.5304 82.4734 68.5304 82.4286H68.5594H68.6253H68.7544L69.2815 82.4603C69.6263 82.4652 69.9711 82.4529 70.3147 82.4234C70.9924 82.3618 71.6619 82.2302 72.3125 82.0306C73.5713 81.6392 74.7657 81.0646 75.8574 80.3254C76.3836 79.972 76.8895 79.5892 77.3728 79.1789C77.8446 78.7704 78.2953 78.3435 78.7381 77.9244C79.6166 77.0828 80.4556 76.2455 81.2551 75.4127C82.0545 74.5798 82.7986 73.754 83.4874 72.9352C84.1858 72.1208 84.8342 71.3117 85.472 70.5447L88.9563 66.3278L93.84 60.4214L95.1578 58.8638L95.4925 58.4658C95.5663 58.3762 95.6085 58.3314 95.6085 58.3314L95.5004 58.4711L95.1578 58.8638L93.8769 60.4451C92.7489 61.8183 91.1016 63.8319 89.0063 66.391L85.5326 70.6264C84.8975 71.3934 84.2517 72.2078 83.5533 73.0222C82.8549 73.8366 82.1116 74.6694 81.3209 75.5075C80.5303 76.3457 79.6895 77.1838 78.8066 78.0272C78.3612 78.4489 77.9131 78.8732 77.4361 79.287C76.9496 79.6999 76.441 80.0862 75.9127 80.444C74.8137 81.1913 73.6103 81.7721 72.3415 82.1677C71.348 82.4731 70.3128 82.6208 69.2736 82.6052L68.7465 82.5736H68.6147H68.5489H68.5119C68.5119 82.5288 68.512 82.6711 68.4724 82.4629C68.5304 82.4392 68.5067 82.4629 68.5225 82.4629C68.569 82.4602 68.6157 82.4602 68.6622 82.4629H68.7044C68.815 82.5525 68.6332 82.621 68.6885 82.5868H68.591C67.2743 82.4561 65.9873 82.1134 64.7799 81.5721C63.519 81.0134 62.3833 80.2067 61.4406 79.2C60.474 78.1506 59.7719 76.8856 59.3928 75.5102L59.2742 74.9831L59.2136 74.7195L59.1793 74.4559L59.1134 73.913C59.0923 73.7443 59.0554 73.5572 59.0264 73.3859C58.9017 72.6655 58.7778 71.9425 58.6548 71.2168C57.6559 65.3921 56.6017 59.2538 55.5185 52.9258C55.1337 50.675 54.7515 48.4453 54.3931 46.3579V46.292L54.459 46.2788L66.6222 44.2204H66.6828L66.6987 44.281C68.5436 51.7898 70.2778 58.8032 71.8302 65.1022L71.73 65.0838C74.6292 61.1304 77.3254 57.5328 79.7422 54.3833C80.952 52.8019 82.0932 51.3444 83.1685 50.0082C83.4321 49.6734 83.6956 49.3493 83.9592 49.0304C84.2227 48.7115 84.4705 48.3978 84.7314 48.1053C85.2301 47.5435 85.7847 47.034 86.3866 46.5845C87.3979 45.8151 88.5599 45.2673 89.797 44.9768C90.2958 44.8655 90.8072 44.8212 91.3178 44.845C91.4364 44.845 91.5497 44.8661 91.6604 44.8767C91.7687 44.885 91.8762 44.9018 91.9819 44.9267L92.285 44.99L92.567 45.077C93.116 45.2562 93.6322 45.5232 94.0957 45.8676C94.3909 46.0574 94.5411 46.1892 94.5411 46.1892Z" fill="#263238"/>
<g opacity="0.2">
<path d="M66.7915 82.1888C67.7166 84.748 71.6463 85.8787 74.7246 85.4728C79.2342 84.8929 82.5787 81.667 84.8295 77.7162C87.0803 73.7655 88.7197 69.9807 89.6632 65.5319L81.3031 74.9409C79.3211 77.1707 77.3102 79.4215 74.8248 81.0792C72.3394 82.737 69.7223 82.7555 66.7915 82.1888Z" fill="black"/>
</g>
<path d="M70.9106 70.1784C70.8988 69.9231 70.9111 69.6671 70.9475 69.4141C70.9896 68.945 71.0687 68.2993 71.1873 67.5876C71.3059 66.876 71.4509 66.2408 71.5563 65.7823C71.6036 65.5314 71.676 65.2859 71.7724 65.0496C71.7531 65.3038 71.7126 65.5559 71.6512 65.8033C71.5642 66.2646 71.4403 66.9024 71.3217 67.6114C71.2031 68.3203 71.1109 68.9608 71.0424 69.4273C71.0216 69.6812 70.9775 69.9326 70.9106 70.1784Z" fill="#263238"/>
<path d="M67.6058 48.2924C67.6058 48.3082 67.395 48.2634 67.0181 48.2924C66.4872 48.3284 65.9716 48.4853 65.5105 48.751C64.8239 49.1432 64.2333 49.6834 63.7816 50.3324C63.2348 51.1346 62.7366 51.969 62.2898 52.8309C61.836 53.7022 61.2441 54.4944 60.5372 55.1766C60.2174 55.4665 59.8569 55.708 59.4671 55.8935C59.1245 56.049 58.7601 56.1512 58.3865 56.1966C57.8476 56.2711 57.2985 56.1888 56.8052 55.9594C56.624 55.8774 56.4582 55.7651 56.3149 55.6273C56.3149 55.6115 56.4836 55.7591 56.8262 55.9119C57.3172 56.1173 57.8556 56.182 58.3812 56.0991C58.7468 56.0512 59.1025 55.9462 59.4355 55.7881C59.8138 55.6066 60.1622 55.3684 60.4686 55.0817C61.1615 54.4046 61.7425 53.6218 62.1897 52.7624C62.6387 51.8959 63.1422 51.0587 63.6972 50.2559C64.165 49.6008 64.775 49.0602 65.4815 48.6746C65.958 48.4119 66.4901 48.2664 67.0339 48.2503C67.1216 48.2428 67.2098 48.2428 67.2975 48.2503C67.3595 48.252 67.4212 48.259 67.482 48.2713C67.5238 48.275 67.5652 48.282 67.6058 48.2924Z" fill="#FAFAFA"/>
<path d="M58.4546 68.9002C58.4376 68.8409 58.4279 68.7799 58.4256 68.7183C58.4084 68.5432 58.4014 68.3671 58.4045 68.1912C58.414 67.3775 58.5938 66.5748 58.9325 65.8349C59.2711 65.0949 59.7611 64.4342 60.3707 63.8952C61.2737 63.108 62.3918 62.6095 63.5809 62.464C64.1948 62.4066 64.8129 62.4119 65.4258 62.4798C65.9868 62.5398 66.5519 62.553 67.1152 62.5194C67.6204 62.4839 68.1109 62.3334 68.549 62.0792C68.9266 61.852 69.2568 61.554 69.5215 61.2016C69.9094 60.6867 70.1474 60.0747 70.2094 59.4331C70.2241 59.197 70.2241 58.9602 70.2094 58.7241C70.2645 58.957 70.2832 59.1971 70.2647 59.4357C70.2281 59.9917 70.0587 60.5307 69.7707 61.0076C69.4827 61.4846 69.0845 61.8855 68.6096 62.1768C68.1596 62.4469 67.652 62.6068 67.1284 62.6433C66.032 62.7619 64.8407 62.4588 63.6072 62.6011C62.4455 62.7424 61.352 63.2259 60.4656 63.99C59.7439 64.6174 59.1895 65.4144 58.8526 66.3094C58.6244 66.9129 58.4945 67.5491 58.4678 68.1938C58.4678 68.4205 58.4678 68.5997 58.4678 68.7209C58.47 68.781 58.4656 68.8411 58.4546 68.9002Z" fill="#FAFAFA"/>
<path d="M71.4379 67.2687C71.4538 67.2687 71.4379 67.5322 71.5117 68.0066C71.6589 68.6676 71.8671 69.3135 72.1337 69.9359C72.3077 70.3741 72.4435 70.8264 72.5396 71.288C72.6425 71.8217 72.6752 72.3666 72.6371 72.9088C72.5364 74.1558 72.124 75.3575 71.4379 76.4036C70.7608 77.4486 69.8608 78.3307 68.8023 78.9865C67.9436 79.524 67.0151 79.9408 66.0429 80.2253C65.3909 80.4194 64.7247 80.5622 64.0504 80.6522C63.8105 80.6865 63.626 80.7023 63.4995 80.7128C63.4356 80.7199 63.3711 80.7199 63.3071 80.7128C63.3694 80.6966 63.4329 80.6851 63.4969 80.6786C63.6208 80.6601 63.8053 80.6338 64.0425 80.5916C64.7105 80.4819 65.3701 80.326 66.0165 80.1251C66.9678 79.8347 67.8769 79.4209 68.7206 78.8943C69.7607 78.2421 70.6465 77.3716 71.3167 76.343C71.9867 75.3157 72.3923 74.1387 72.4974 72.9168C72.5373 72.3883 72.5098 71.8569 72.4157 71.3354C72.3247 70.8781 72.1951 70.4293 72.0283 69.9939C71.7701 69.3637 71.575 68.7096 71.4458 68.0409C71.4199 67.8567 71.4076 67.6708 71.409 67.4848C71.41 67.4119 71.4197 67.3393 71.4379 67.2687Z" fill="#FAFAFA"/>
<path d="M84.2417 71.4514C84.2295 71.3969 84.2234 71.3412 84.2233 71.2853C84.2183 71.1283 84.2042 70.9716 84.1811 70.8162C84.1038 70.2429 83.9253 69.6878 83.654 69.1769C83.4698 68.8243 83.2489 68.4922 82.9951 68.1859C82.6994 67.8396 82.3641 67.5291 81.9962 67.2608C81.5857 66.97 81.1333 66.7434 80.6547 66.5887C80.1367 66.4309 79.5989 66.3475 79.0575 66.3409C78.5081 66.3349 77.9596 66.2935 77.4155 66.2171C76.8977 66.139 76.4101 65.9243 76.0029 65.5951C75.6463 65.2867 75.3651 64.9008 75.1806 64.467C75.0182 64.0928 74.9116 63.6968 74.8643 63.2916C74.8078 62.7089 74.8193 62.1216 74.8985 61.5415C74.9249 61.3386 74.9486 61.1805 74.9671 61.0724C74.9722 61.0177 74.9837 60.9637 75.0013 60.9116C75.0083 60.9667 75.0083 61.0225 75.0013 61.0777C75.0013 61.1989 74.9776 61.3544 74.9592 61.5494C74.897 62.1241 74.897 62.7037 74.9592 63.2784C75.0086 63.6724 75.1161 64.057 75.2781 64.4196C75.4568 64.8348 75.7271 65.2042 76.0687 65.5002C76.4607 65.8111 76.9282 66.0121 77.4234 66.0827C77.9613 66.1589 78.5037 66.1994 79.047 66.2039C79.6015 66.2126 80.1519 66.3014 80.681 66.4675C81.1717 66.6289 81.6348 66.8644 82.0542 67.1659C82.4278 67.4441 82.7682 67.7642 83.0689 68.12C83.3304 68.4358 83.5575 68.7786 83.7462 69.1426C84.0137 69.6663 84.1792 70.236 84.2338 70.8215C84.2523 70.9789 84.2575 71.1376 84.2496 71.2959C84.2531 71.3478 84.2505 71.4 84.2417 71.4514Z" fill="#FAFAFA"/>
<path d="M91.8296 62.0423C91.8214 61.9882 91.817 61.9336 91.8164 61.8789C91.8149 61.7219 91.8034 61.5652 91.7821 61.4097C91.7106 60.8396 91.5393 60.2864 91.2761 59.7757C91.0867 59.4287 90.8624 59.102 90.6067 58.8005C90.306 58.4624 89.9611 58.1663 89.5814 57.9202C89.1617 57.6482 88.698 57.4511 88.2109 57.3377C87.6824 57.2284 87.1453 57.1658 86.6058 57.1506C86.0593 57.134 85.5144 57.0829 84.9744 56.9978C84.4658 56.9142 83.9776 56.7353 83.5353 56.4706C82.791 56.0105 82.201 55.3388 81.8407 54.5414C81.5929 54.0105 81.4626 53.4325 81.4585 52.8467V52.5831C81.4585 52.5093 81.4769 52.4434 81.4849 52.3855C81.4907 52.3304 81.5004 52.2758 81.5138 52.222C81.5207 52.2772 81.5207 52.333 81.5138 52.3881C81.5138 52.4461 81.5138 52.512 81.5007 52.5858C81.4875 52.6596 81.5007 52.7571 81.5007 52.8493C81.5264 53.4229 81.669 53.9853 81.9197 54.5018C82.2813 55.2738 82.8625 55.922 83.5907 56.3652C84.0212 56.619 84.4947 56.7914 84.9876 56.8739C85.5216 56.9564 86.0603 57.0057 86.6005 57.0215C87.1489 57.0378 87.6948 57.1022 88.232 57.2139C88.7321 57.3348 89.208 57.5398 89.6394 57.8201C90.0313 58.0748 90.3861 58.3826 90.6936 58.7346C90.9516 59.0451 91.1752 59.3827 91.3604 59.7414C91.6216 60.264 91.7834 60.8306 91.8375 61.4124C91.8488 61.5703 91.8488 61.7288 91.8375 61.8868C91.841 61.9387 91.8383 61.9909 91.8296 62.0423Z" fill="#FAFAFA"/>
<path d="M99.1804 51.9954C99.1435 51.8231 99.0933 51.6539 99.0302 51.4893C98.8232 51.0561 98.4896 50.6958 98.0735 50.4562C97.7904 50.2874 97.4853 50.1588 97.1668 50.074C96.7971 49.9842 96.4191 49.933 96.0388 49.9212C95.2481 49.8737 94.3362 49.966 93.4032 49.8026C92.5195 49.6489 91.6796 49.3054 90.9415 48.7958C90.3404 48.3886 89.8136 47.8813 89.3839 47.2961C89.0928 46.9043 88.8519 46.4775 88.667 46.0258C88.5985 45.8676 88.5642 45.7358 88.5352 45.6515C88.5177 45.6085 88.5061 45.5633 88.501 45.5171C88.7456 46.1295 89.0681 46.708 89.4603 47.2381C89.8945 47.805 90.4189 48.2965 91.0127 48.693C91.7354 49.183 92.5537 49.5144 93.4137 49.6655C94.3256 49.8263 95.2244 49.742 96.0493 49.7947C96.4373 49.8095 96.8226 49.8661 97.1984 49.9633C97.5259 50.055 97.8384 50.1935 98.1262 50.3745C98.5541 50.6276 98.8887 51.0122 99.0803 51.4709C99.1491 51.6371 99.1832 51.8156 99.1804 51.9954Z" fill="#FAFAFA"/>
<path d="M93.6639 81.4376C93.6368 81.4418 93.6092 81.4418 93.5822 81.4376L93.3502 81.3902C93.1473 81.3506 92.8468 81.2874 92.4541 81.2373C91.9802 81.1722 91.4996 81.1722 91.0256 81.2373C90.7326 81.2836 90.446 81.3641 90.1717 81.4771C89.8655 81.6114 89.5687 81.7664 89.2835 81.941C88.6773 82.3021 88.0395 82.7317 87.3384 83.1929C86.598 83.6858 85.8115 84.106 84.9901 84.4475C83.0912 85.2178 81.0333 85.5145 78.9941 85.3119C77.9449 85.1879 76.9097 84.9647 75.9026 84.6451C74.9274 84.3526 73.9997 84.0258 73.1062 83.7517C72.2668 83.4784 71.4089 83.2653 70.5392 83.1138C69.7809 82.9876 69.011 82.946 68.2436 82.99C67.1282 83.029 66.0406 83.348 65.0808 83.9177L64.8463 84.0679L64.6512 84.2155C64.5466 84.2895 64.4471 84.3705 64.3534 84.458L64.1795 84.6188L64.1162 84.6688C64.1162 84.6688 64.132 84.6451 64.1689 84.6082L64.335 84.4395C64.424 84.3437 64.521 84.2555 64.6249 84.176C64.6855 84.1285 64.7488 84.0732 64.8173 84.0205L65.0518 83.865C66.0128 83.2714 67.1098 82.9339 68.2383 82.8845C69.013 82.8336 69.791 82.8699 70.5576 82.9926C71.4334 83.1405 72.2975 83.351 73.1431 83.6225C74.9353 84.1496 76.8619 84.9403 79.0073 85.167C81.0251 85.3683 83.0615 85.078 84.9427 84.3209C85.7591 83.9863 86.5412 83.5732 87.2778 83.0875C87.9789 82.6421 88.622 82.2072 89.2361 81.8514C89.5249 81.6751 89.8261 81.5201 90.1374 81.3875C90.4202 81.2765 90.7146 81.1978 91.0151 81.153C91.4961 81.093 91.9832 81.101 92.462 81.1767C92.8547 81.2347 93.1552 81.3058 93.3581 81.3559L93.5874 81.4165L93.6639 81.4376Z" fill="#FAFAFA"/>
<path d="M93.6634 71.736C93.6634 71.7518 93.5052 71.6859 93.2153 71.6305C92.8063 71.5599 92.3882 71.5599 91.9792 71.6305C91.3726 71.7387 90.7861 71.9386 90.2397 72.2235C89.6151 72.5345 88.9747 72.9615 88.2789 73.3779C87.6281 73.7946 86.9169 74.1084 86.1704 74.3083C85.5556 74.4581 84.9139 74.4581 84.2991 74.3083C83.8847 74.2037 83.5026 73.9981 83.1869 73.71C83.1043 73.6293 83.0293 73.541 82.9629 73.4465C82.9363 73.4163 82.9141 73.3826 82.897 73.3463C82.9102 73.3463 83.0024 73.4755 83.2238 73.6679C83.5424 73.9327 83.9189 74.1187 84.3228 74.2108C84.9222 74.3472 85.5453 74.34 86.1414 74.1897C86.8685 73.9855 87.5612 73.6746 88.1972 73.2672C88.8903 72.8535 89.536 72.4265 90.1712 72.1155C90.732 71.8311 91.3342 71.6372 91.9555 71.5409C92.3758 71.4788 92.8039 71.4958 93.218 71.591C93.3296 71.6181 93.4389 71.6543 93.5448 71.6991C93.5857 71.7064 93.6255 71.7188 93.6634 71.736Z" fill="#FAFAFA"/>
<path d="M73.2827 54.9947C73.341 54.9577 73.4052 54.931 73.4725 54.9156C73.5476 54.8872 73.6253 54.866 73.7044 54.8524C73.8084 54.8266 73.9141 54.8081 74.0207 54.797C74.2982 54.7639 74.5787 54.7639 74.8562 54.797C75.5406 54.8805 76.1902 55.1452 76.738 55.564C76.9606 55.7339 77.1615 55.9304 77.3363 56.1491C77.4048 56.233 77.4682 56.321 77.526 56.4127C77.5714 56.48 77.6119 56.5505 77.6473 56.6235C77.7079 56.7421 77.7342 56.808 77.7263 56.8133C77.7184 56.8185 77.5708 56.5629 77.2625 56.215C77.0819 56.0134 76.8815 55.8306 76.6642 55.6694C76.3941 55.4768 76.1032 55.315 75.7971 55.1871C75.4892 55.0631 75.1683 54.9747 74.8404 54.9236C74.5725 54.8848 74.3012 54.8751 74.0312 54.8946C73.5595 54.9262 73.2827 55.0211 73.2827 54.9947Z" fill="#FAFAFA"/>
<path d="M97.2906 88.2585C97.2611 88.2571 97.2318 88.2518 97.2037 88.2427L96.9401 88.1847C96.7187 88.132 96.3919 88.0582 95.9676 87.9844C94.7678 87.7767 93.544 87.7474 92.3357 87.8974C91.5036 88.0024 90.6848 88.1941 89.8925 88.4694C89.0333 88.7645 88.1346 89.123 87.191 89.5236C85.3092 90.3011 83.2376 91.2367 80.9315 91.7507C80.3569 91.8983 79.7797 91.9826 79.2131 92.088C78.6464 92.1935 78.0824 92.2462 77.5237 92.2778C76.4568 92.3654 75.3852 92.3813 74.3161 92.3252C72.5038 92.2251 70.7084 91.9228 68.9632 91.4239C67.7895 91.0837 66.6439 90.6528 65.537 90.1351C65.1469 89.9532 64.8544 89.7872 64.6514 89.6844L64.4221 89.5605C64.372 89.5341 64.3457 89.5183 64.3483 89.5157C64.3771 89.5231 64.4046 89.5347 64.43 89.55L64.6646 89.658C64.8702 89.7529 65.1654 89.9216 65.5607 90.0876C66.6714 90.5834 67.8165 90.9983 68.987 91.329C70.7271 91.8129 72.5151 92.1045 74.3188 92.1987C75.3827 92.252 76.449 92.2335 77.5105 92.1434C78.064 92.1118 78.6227 92.0221 79.1894 91.9536C79.756 91.8851 80.3279 91.7639 80.8972 91.6163C83.1955 91.1076 85.2539 90.1772 87.141 89.4076C88.0845 89.0176 88.9859 88.6618 89.853 88.3692C90.6537 88.0975 91.4804 87.9094 92.3199 87.8078C93.5381 87.6648 94.7711 87.7102 95.9755 87.9422C96.3998 88.0239 96.724 88.1057 96.9454 88.1663L97.1931 88.2374L97.2906 88.2585Z" fill="#FAFAFA"/>
<path d="M0.450518 61.473C0.548035 61.7656 2.57481 64.5962 3.87679 66.5571C4.96529 68.1991 4.4698 68.5127 3.87679 69.9834C2.84627 72.5373 -1.20727 76.9282 0.450518 84.458C2.10831 91.9879 6.602 94.5287 6.602 94.5287H18.3357C18.3357 94.5287 23.3881 89.1573 22.9348 81.3243C22.658 76.5407 18.0458 72.5241 18.0458 67.1448L17.9482 63.4286L0.450518 61.473Z" fill="#FAFAFA"/>
<path d="M0.450667 61.473L17.9616 63.3759H18.0064V63.4207C18.038 64.4925 18.0687 65.6056 18.0986 66.76C18.0986 67.0499 18.1197 67.3399 18.1355 67.6298L18.1592 68.0699C18.1592 68.2149 18.2014 68.3598 18.2199 68.5074C18.2562 68.8039 18.3108 69.0979 18.3833 69.3877C18.4597 69.6803 18.5124 69.9807 18.6178 70.268C19.0091 71.4678 19.5047 72.631 20.099 73.7444C20.6868 74.9014 21.3378 76.0663 21.8965 77.313C22.5057 78.575 22.8824 79.9365 23.0087 81.3322C23.0755 82.7797 22.9755 84.23 22.7109 85.6546C22.1178 88.6392 20.8443 91.4469 18.9894 93.8592C18.7997 94.107 18.602 94.3442 18.3938 94.5761L18.3754 94.5972H6.60215C5.48623 93.857 4.50562 92.9307 3.70299 91.8588C2.92552 90.8483 2.27 89.7495 1.75002 88.5854C1.24418 87.4774 0.844423 86.324 0.556092 85.1407C0.267147 84.0183 0.0853538 82.8711 0.0131585 81.7144C0.0131585 81.1504 -0.0263755 80.5943 0.0316076 80.0487C0.055328 79.7851 0.0579636 79.5031 0.0974975 79.2369C0.137031 78.9707 0.176566 78.7098 0.2161 78.4463C0.395763 77.4361 0.672917 76.4458 1.04368 75.4891C1.39457 74.6063 1.79855 73.7455 2.25341 72.9115C2.68829 72.1208 3.13897 71.3671 3.51587 70.6344C3.70826 70.268 3.85586 69.8964 4.01663 69.5353C4.18608 69.1968 4.32543 68.844 4.43305 68.4811C4.50712 68.1341 4.46642 67.7724 4.31709 67.4506C4.18197 67.1441 4.01967 66.8504 3.83214 66.5729C3.11525 65.487 2.48271 64.5725 1.97141 63.824C1.4601 63.0755 1.0674 62.5062 0.809108 62.1003C0.679964 61.9026 0.585082 61.7498 0.524464 61.6443C0.492139 61.593 0.465621 61.5382 0.445396 61.4809C0.472007 61.5354 0.501933 61.5882 0.535006 61.6391C0.598261 61.7419 0.698413 61.9026 0.827558 62.0871L2.0083 63.7976C2.53542 64.5435 3.16533 65.4554 3.88748 66.536C4.07806 66.8162 4.24385 67.1125 4.38298 67.4216C4.53794 67.7576 4.58134 68.1344 4.50685 68.4969C4.39987 68.866 4.26052 69.225 4.09043 69.5696C3.93492 69.928 3.7847 70.3049 3.5923 70.6739C3.21277 71.4145 2.76736 72.1604 2.33512 72.959C1.88461 73.7905 1.48502 74.6487 1.13856 75.5287C0.772873 76.4798 0.499274 77.4639 0.321523 78.4673C0.284624 78.7309 0.245091 78.9945 0.208193 79.258C0.171295 79.5216 0.166024 79.7851 0.142303 80.0645C0.114558 80.615 0.114558 81.1665 0.142303 81.717C0.214389 82.8659 0.396194 84.0053 0.685235 85.1196C0.973751 86.2966 1.37261 87.4438 1.87652 88.5459C2.39357 89.7005 3.04464 90.7904 3.81632 91.7929C4.60182 92.8381 5.55788 93.7433 6.64432 94.4707H6.61005H18.3437L18.2936 94.4918C18.4966 94.2677 18.6943 94.0305 18.8814 93.7854C20.7199 91.3908 21.9825 88.6051 22.5712 85.6441C22.8345 84.2308 22.9344 82.792 22.869 81.356C22.7447 79.9761 22.3733 78.6299 21.7726 77.3815C21.2165 76.1401 20.5682 74.9752 19.9804 73.8155C19.3859 72.6947 18.8895 71.5245 18.4966 70.3181C18.3912 70.0282 18.3385 69.7251 18.262 69.4299C18.1895 69.1365 18.135 68.839 18.0986 68.5391C18.0775 68.3915 18.0485 68.2439 18.038 68.0963L18.0143 67.6535C17.9985 67.3583 17.9853 67.0658 17.98 66.7785C17.9501 65.6241 17.922 64.511 17.8957 63.4392L17.9405 63.4919L0.450667 61.473Z" fill="#263238"/>
<path d="M1.47327 81.356C2.00039 79.9802 3.86903 79.7747 5.31333 80.0382C6.75764 80.3018 7.98846 81.2111 9.23246 81.9991C10.4765 82.7871 11.8681 83.5067 13.3361 83.3749C14.6855 83.251 15.8504 82.4234 17.0707 81.8304C18.291 81.2374 19.8355 80.8948 20.9398 81.6828C21.2685 81.9424 21.5379 82.2693 21.7297 82.6416C21.9216 83.0139 22.0315 83.423 22.052 83.8414C22.0877 84.6787 21.956 85.5147 21.6646 86.3004C21.015 88.2109 20.1586 90.0448 19.1107 91.7693C18.7944 92.3148 18.2936 93.087 17.7402 93.3796C17.2737 93.63 16.5779 93.6432 15.8557 93.7117C13.9212 93.8777 12.2133 93.7881 10.2735 93.8672C9.32734 93.9067 8.33373 93.9225 7.49034 93.4877C6.90782 93.1483 6.39528 92.701 5.98014 92.1699C4.66234 90.6518 3.42098 89.0361 2.55386 87.2176C1.68675 85.399 1.21235 83.3564 1.468 81.3613" fill="#FF725E"/>
<path d="M18.0248 63.3443C17.9946 63.401 17.9594 63.4548 17.9194 63.505C17.8103 63.6516 17.6877 63.7875 17.553 63.9109C17.0467 64.3632 16.4394 64.6877 15.7819 64.8571C14.8084 65.0844 13.805 65.1565 12.809 65.0706C11.5916 65.0135 10.3793 64.877 9.17976 64.6621C7.00092 64.2749 4.87698 63.6254 2.85433 62.7275C2.06365 62.3875 1.46537 62.0713 1.04895 61.8446L0.57454 61.5811C0.51726 61.5515 0.462594 61.5171 0.411133 61.4783C0.471954 61.5 0.530994 61.5264 0.587718 61.5573L1.07267 61.8024C1.497 62.0133 2.12691 62.3164 2.89386 62.6458C4.92426 63.5113 7.04631 64.1435 9.21929 64.5303C10.413 64.7441 11.619 64.8823 12.8301 64.9441C13.8149 65.0355 14.8079 64.9742 15.774 64.7622C16.4206 64.6042 17.0221 64.2993 17.532 63.8714C17.7068 63.7059 17.8714 63.5298 18.0248 63.3443Z" fill="#263238"/>
<path d="M1.62871 79.6217C1.61595 79.4814 1.61595 79.3403 1.62871 79.2C1.64453 78.9364 1.68406 78.5358 1.75258 78.0535C2.11782 75.534 3.00277 73.1179 4.35128 70.9585C4.61484 70.5447 4.8336 70.2205 4.99964 70.0044C5.08434 69.8846 5.1796 69.7725 5.28428 69.6697C5.22121 69.7963 5.14713 69.9171 5.06289 70.0308C4.91266 70.2548 4.70445 70.5869 4.45671 71.0033C3.15829 73.1764 2.27696 75.5728 1.85801 78.0693C1.77894 78.5464 1.72359 78.9364 1.69197 79.2053C1.68177 79.3455 1.66062 79.4847 1.62871 79.6217Z" fill="white"/>
<path d="M2.40088 63.2546C2.62062 63.4644 2.82579 63.689 3.01497 63.9267C3.38396 64.351 3.90844 64.9203 4.46191 65.5792C5.01539 66.2381 5.47135 66.897 5.62685 67.4505C5.66115 67.5742 5.68669 67.7001 5.70328 67.8274C5.70328 67.9434 5.70328 68.0409 5.70328 68.1199C5.70072 68.2028 5.6847 68.2847 5.65584 68.3624C5.66032 68.0635 5.61854 67.7657 5.53197 67.4795C5.36065 66.9524 4.90733 66.3172 4.35385 65.6662C3.80038 65.0152 3.29962 64.4301 2.93854 63.99C2.76195 63.7712 2.6249 63.5894 2.53266 63.4629C2.48054 63.399 2.4363 63.3291 2.40088 63.2546Z" fill="white"/>
<path d="M9.38283 92.2383C9.38283 92.2383 9.34066 92.2252 9.26423 92.1856L8.94005 92.009C8.80037 91.9326 8.62905 91.8325 8.43929 91.7033C8.24953 91.5742 8.02814 91.4398 7.80148 91.2632C7.57481 91.0866 7.31916 90.9047 7.06351 90.6781C6.80786 90.4514 6.53639 90.2116 6.27283 89.948C5.69388 89.3605 5.16492 88.7258 4.69147 88.0504C4.22583 87.3676 3.81599 86.6484 3.46592 85.8997C3.31833 85.5492 3.1681 85.2197 3.06004 84.8982C2.95198 84.5767 2.84919 84.2788 2.77012 84.0021C2.69105 83.7254 2.63307 83.475 2.583 83.251C2.5354 83.0617 2.49845 82.8698 2.4723 82.6764C2.45122 82.5288 2.43277 82.4128 2.41959 82.31C2.41548 82.2671 2.41548 82.2239 2.41959 82.1809C2.43843 82.22 2.45088 82.2618 2.45649 82.3048L2.53555 82.6659C2.56455 82.8214 2.60672 83.0138 2.66733 83.2325C2.72795 83.4513 2.78066 83.7043 2.87291 83.9757C2.96516 84.2472 3.05213 84.5477 3.17864 84.8587C3.30515 85.1697 3.4422 85.4991 3.59243 85.8444C3.94236 86.585 4.35132 87.2963 4.81535 87.9713C5.28553 88.6407 5.80815 89.2717 6.37825 89.8584C6.64181 90.122 6.90537 90.3855 7.16893 90.5937C7.43249 90.8019 7.66179 91.0128 7.88845 91.1867C8.11511 91.3607 8.32859 91.5083 8.51309 91.6401C8.69758 91.7718 8.86098 91.8799 8.99803 91.9616L9.30903 92.1619C9.33571 92.1853 9.36039 92.2109 9.38283 92.2383Z" fill="white"/>
<path d="M71.0824 27.7637C71.0279 27.6618 70.9855 27.5539 70.9559 27.4422L70.6475 26.554C70.3306 25.5711 69.8989 24.629 69.3613 23.7471C68.8168 22.8685 68.0577 22.1429 67.1554 21.6386C66.7729 21.4501 66.373 21.2992 65.9614 21.1879C66.0773 21.1876 66.1926 21.2035 66.304 21.2354C66.6147 21.3045 66.9157 21.4117 67.2002 21.5543C68.1343 22.0406 68.9207 22.7688 69.4773 23.6628C70.0221 24.5525 70.4466 25.5106 70.7398 26.5118C70.861 26.8914 70.948 27.2024 71.0033 27.4185C71.0413 27.5306 71.0678 27.6463 71.0824 27.7637Z" fill="white"/>
<path d="M18.1221 69.4984C18.6067 68.7003 19.3468 68.0892 20.2222 67.7644C21.0977 67.4395 22.0572 67.42 22.9452 67.7088C24.0686 68.1497 24.9938 68.9832 25.5492 70.0545C26.3399 71.5041 26.3926 73.0907 26.4347 74.7459C26.469 76.0637 26.5639 77.508 26.0895 78.7309C25.6151 79.9538 24.6715 81.0502 23.4143 81.4271C22.1572 81.804 20.6153 81.2874 20.0592 80.1093L20.8499 78.4331C20.8499 78.4331 22.3364 80.5152 23.6252 79.3239C24.914 78.1326 24.6004 76.5539 24.6004 75.4628C24.6004 74.6721 24.5028 73.0617 24.4528 72.2421C24.4189 71.6076 24.1824 71.0007 23.7781 70.5105C23.5051 70.1889 23.1611 69.9353 22.7732 69.7697C22.3852 69.6041 21.9641 69.5311 21.5431 69.5564C19.171 69.6065 18.5675 72.4318 18.5675 72.4318L18.1221 69.4984Z" fill="#FAFAFA"/>
<path d="M18.5996 72.3633C18.6049 72.2963 18.6173 72.23 18.6365 72.1656C18.6855 71.9813 18.7453 71.8 18.8157 71.6227C18.9269 71.3408 19.0673 71.0713 19.2348 70.8188C19.4464 70.4753 19.7209 70.1749 20.0439 69.9333C20.4454 69.6432 20.9202 69.4715 21.4144 69.4378C21.9802 69.3823 22.5501 69.4902 23.0564 69.7488C23.6131 70.0486 24.0509 70.5292 24.2978 71.1114C24.426 71.4171 24.5068 71.7406 24.5376 72.0707C24.5587 72.4028 24.5692 72.7349 24.585 73.0723C24.643 74.427 24.7247 75.7078 24.7142 76.8807C24.7057 77.4457 24.5649 78.0008 24.303 78.5016C24.2414 78.6161 24.1718 78.7262 24.0948 78.831C24.0105 78.9285 23.942 79.034 23.8524 79.1183C23.7728 79.2085 23.6845 79.2906 23.5888 79.3634L23.4491 79.4688C23.399 79.4978 23.3437 79.5189 23.291 79.5453C23.0927 79.6373 22.8732 79.6737 22.6558 79.6507C22.4645 79.626 22.2789 79.5681 22.1076 79.4794C21.8371 79.3422 21.5891 79.1644 21.3723 78.9523C21.2354 78.8187 21.1077 78.6761 20.9901 78.5253C20.9459 78.4762 20.9086 78.4212 20.8794 78.3619C20.8794 78.3619 20.9242 78.412 21.0112 78.5095C21.1367 78.6508 21.2695 78.7854 21.4092 78.9127C21.6302 79.1183 21.8807 79.2898 22.1524 79.4214C22.318 79.5024 22.4963 79.5541 22.6795 79.5743C22.8813 79.5922 23.0842 79.5558 23.2672 79.4688C23.3147 79.4425 23.3648 79.424 23.4122 79.395L23.544 79.2923C23.6396 79.2232 23.7279 79.1446 23.8075 79.0577C23.8945 78.9734 23.9604 78.8706 24.0395 78.7783C24.1115 78.6759 24.1775 78.5694 24.2372 78.4594C24.4865 77.9693 24.6182 77.4279 24.6219 76.8781C24.6219 75.7184 24.5376 74.4217 24.4823 73.0802C24.4664 72.7454 24.4559 72.4107 24.4348 72.0865C24.4072 71.7701 24.3307 71.4598 24.2082 71.1667C23.974 70.612 23.5587 70.153 23.03 69.8647C22.544 69.6105 21.9948 69.5024 21.4487 69.5537C20.9753 69.5832 20.5193 69.7428 20.1309 70.015C19.8102 70.2431 19.5349 70.5292 19.3191 70.8584C19.1503 71.1076 19.0056 71.3724 18.8869 71.649C18.7894 71.8757 18.7261 72.0549 18.6866 72.1762C18.6612 72.2402 18.6322 72.3026 18.5996 72.3633Z" fill="#263238"/>
<path d="M20.0861 80.0382C20.2494 80.3327 20.4656 80.5944 20.7239 80.8104C21.0361 81.0555 21.3947 81.2348 21.7781 81.3375C22.2805 81.4742 22.8096 81.4797 23.3147 81.3533C23.9234 81.1866 24.4778 80.8631 24.9224 80.4151C25.4355 79.9026 25.8312 79.2848 26.0821 78.6044C26.3358 77.8401 26.4544 77.0374 26.4326 76.2324C26.4326 75.8133 26.4326 75.3864 26.4089 74.9541C26.3852 74.5219 26.3878 74.0791 26.3641 73.6363C26.3453 72.7736 26.215 71.917 25.9766 71.0877C25.7403 70.3214 25.3462 69.613 24.8196 69.0082C24.3504 68.4552 23.7558 68.0223 23.0854 67.7458C22.499 67.5173 21.8654 67.4367 21.2405 67.5112C20.3261 67.6217 19.471 68.0216 18.7999 68.6524C18.5628 68.8952 18.3492 69.1599 18.1621 69.4431C18.1621 69.4431 18.1621 69.4194 18.1911 69.3825L18.2913 69.2138C18.4285 69.0018 18.5865 68.804 18.763 68.6234C19.432 67.9645 20.2986 67.5433 21.2299 67.4242C21.873 67.339 22.5272 67.416 23.1328 67.6482C23.8226 67.927 24.4354 68.3671 24.9198 68.9318C25.4612 69.5487 25.867 70.2724 26.1111 71.0561C26.3538 71.8964 26.4867 72.7645 26.5064 73.639C26.5301 74.0844 26.538 74.5272 26.5512 74.9568C26.5644 75.3864 26.5776 75.8186 26.5723 76.2403C26.5906 77.0576 26.4666 77.8718 26.2059 78.6466C25.9458 79.3418 25.5365 79.9716 25.0068 80.4915C24.5458 80.9496 23.9722 81.2778 23.3437 81.443C22.8223 81.5666 22.2779 81.5548 21.7623 81.4087C21.376 81.2976 21.017 81.1073 20.7081 80.85C20.5155 80.6854 20.3501 80.4915 20.2179 80.2754C20.1757 80.2016 20.1493 80.141 20.1309 80.1014C20.1125 80.0619 20.0835 80.0408 20.0861 80.0382Z" fill="#263238"/>
<path d="M64.2083 92.0722C64.1767 91.582 64.1477 90.8704 64.116 89.9927C64.0502 88.2374 64.0739 85.81 63.9869 83.127C63.9605 82.3943 63.9184 81.6862 63.8604 81.0027C63.8118 80.979 63.7651 80.9517 63.7207 80.921C63.7787 81.6238 63.8217 82.3609 63.8498 83.1323C63.9368 85.81 63.9289 88.2401 64.0185 89.998C64.0633 90.8757 64.1055 91.5794 64.1556 92.0749C64.1767 92.3094 64.1951 92.4966 64.2109 92.6389C64.2152 92.7044 64.224 92.7696 64.2373 92.8339C64.2442 92.7682 64.2442 92.702 64.2373 92.6362C64.2294 92.4807 64.2215 92.2936 64.2083 92.0722Z" fill="#263238"/>
<path d="M22.4156 67.8801C22.4156 67.9012 22.1942 67.83 21.8384 67.7931C21.375 67.7487 20.9075 67.8008 20.4652 67.946C20.024 68.0923 19.6182 68.3293 19.2739 68.6418C19.0104 68.8816 18.8812 69.0688 18.8628 69.0556C18.941 68.8713 19.0578 68.7059 19.2054 68.5706C19.5466 68.2267 19.9636 67.9677 20.4231 67.8142C20.8831 67.6622 21.3727 67.6216 21.8516 67.6956C22.0503 67.7174 22.2424 67.7802 22.4156 67.8801Z" fill="white"/>
<path d="M23.8362 70.1968C23.6542 70.1711 23.4688 70.1856 23.293 70.2394C23.1172 70.2931 22.9554 70.3847 22.8188 70.5078C22.6788 70.6612 22.5735 70.8431 22.5103 71.041C22.4471 71.2388 22.4274 71.4481 22.4525 71.6543C22.504 71.8364 22.5987 72.0033 22.7285 72.141C22.8584 72.2787 23.0196 72.3829 23.1984 72.4449C23.5546 72.5675 23.9217 72.6558 24.2948 72.7085C24.8588 72.8218 25.4623 72.7876 26.0343 72.8666C26.6062 72.9457 27.4443 72.9035 27.7659 72.6215C27.869 72.5408 27.9549 72.4401 28.0184 72.3255C28.0819 72.2109 28.1217 72.0847 28.1355 71.9544C28.1492 71.8241 28.1367 71.6923 28.0985 71.567C28.0604 71.4416 27.9975 71.3252 27.9134 71.2247C27.6499 70.8768 27.1649 70.7792 26.7274 70.6975L23.8283 70.2073" fill="#FFBE9D"/>
<path d="M24.4452 72.7113C24.8626 72.7132 25.2792 72.7457 25.6918 72.8088C26.1381 72.8478 26.5873 72.8354 27.0307 72.7719C27.2859 72.7506 27.5303 72.6594 27.7371 72.5083C27.8445 72.4316 27.9302 72.3285 27.9861 72.2089C28.042 72.0893 28.066 71.9573 28.056 71.8257C28.0342 71.693 27.9856 71.566 27.9131 71.4528C27.8406 71.3395 27.7457 71.2421 27.6343 71.1668C27.4191 71.0226 27.1785 70.9206 26.9253 70.8663C26.4324 70.7504 25.9738 70.6845 25.6075 70.6028L24.7114 70.4236C24.6006 70.407 24.492 70.3787 24.3872 70.3392C24.4996 70.3372 24.6119 70.3478 24.7219 70.3709L25.6259 70.5079C26.0081 70.5738 26.4614 70.6291 26.9648 70.7398C27.2359 70.7952 27.4937 70.9026 27.7239 71.0561C27.8509 71.1419 27.9589 71.2529 28.0414 71.382C28.1239 71.5112 28.1791 71.6559 28.2036 71.8072C28.2147 71.9599 28.1864 72.1128 28.1213 72.2513C28.0562 72.3898 27.9566 72.5091 27.8319 72.5979C27.6061 72.7633 27.3387 72.8627 27.0597 72.8852C26.6054 72.9403 26.1461 72.9403 25.6918 72.8852C25.307 72.8378 24.9987 72.7824 24.7878 72.7508C24.6727 72.7477 24.558 72.7345 24.4452 72.7113Z" fill="#EB996E"/>
<path d="M23.7335 72.3607C23.552 72.3339 23.367 72.3477 23.1915 72.401C23.0161 72.4544 22.8546 72.5459 22.7188 72.669C22.5781 72.8221 22.4722 73.0039 22.4086 73.2018C22.3449 73.3997 22.3248 73.6091 22.3498 73.8155C22.4011 73.9977 22.4957 74.1648 22.6256 74.3025C22.7555 74.4402 22.9167 74.5444 23.0956 74.6062C23.4519 74.7288 23.819 74.817 24.1921 74.8698C24.7587 74.9831 25.3623 74.9488 25.9342 75.0279C26.5061 75.107 27.3416 75.0648 27.6631 74.7802C27.7665 74.6999 27.8526 74.5995 27.9163 74.4851C27.98 74.3707 28.0199 74.2446 28.0337 74.1145C28.0475 73.9843 28.0348 73.8526 27.9965 73.7275C27.9582 73.6023 27.895 73.4861 27.8107 73.3859C27.5472 73.038 27.0622 72.9379 26.6247 72.8588L23.7256 72.3686" fill="#FFBE9D"/>
<path d="M24.3292 74.8802C24.7466 74.8805 25.1634 74.9131 25.5758 74.9778C26.0222 75.0145 26.4713 75.0012 26.9147 74.9382C27.1706 74.9166 27.4158 74.8254 27.6237 74.6747C27.7316 74.5979 27.8175 74.4943 27.873 74.3741C27.9285 74.2539 27.9516 74.1213 27.9399 73.9894C27.9177 73.8572 27.8689 73.7309 27.7964 73.618C27.7239 73.5052 27.6293 73.4083 27.5182 73.3331C27.3034 73.1885 27.0627 73.0865 26.8093 73.0327C26.3164 72.9167 25.8578 72.8482 25.4915 72.7691L24.5954 72.5873C24.4835 72.5719 24.3739 72.5436 24.2686 72.5029C24.3809 72.5026 24.493 72.5132 24.6033 72.5346L25.5073 72.6716C25.8894 72.7401 26.3428 72.7955 26.8462 72.9062C27.1168 72.9617 27.3743 73.0682 27.6052 73.2198C27.7323 73.3055 27.8405 73.4164 27.923 73.5456C28.0055 73.6748 28.0606 73.8196 28.0849 73.971C28.0981 74.1261 28.0708 74.2819 28.0057 74.4233C27.9405 74.5647 27.8398 74.6867 27.7133 74.7775C27.487 74.9421 27.2199 75.0415 26.941 75.0647C26.4868 75.1213 26.0274 75.1213 25.5732 75.0647C25.1884 75.0173 24.8826 74.9646 24.6692 74.9303C24.5545 74.9242 24.4407 74.9075 24.3292 74.8802Z" fill="#EB996E"/>
<path d="M23.2825 74.7696C23.1007 74.743 22.9152 74.7569 22.7394 74.8102C22.5635 74.8635 22.4016 74.9549 22.2651 75.078C22.1251 75.2314 22.0198 75.4133 21.9566 75.6112C21.8934 75.809 21.8736 76.0182 21.8988 76.2245C21.9503 76.4066 22.045 76.5735 22.1748 76.7112C22.3047 76.8488 22.4659 76.9531 22.6447 77.0151C23.0009 77.1377 23.368 77.226 23.7411 77.2787C24.3077 77.392 24.9086 77.3604 25.4806 77.4395C26.0525 77.5185 26.8906 77.4737 27.2121 77.1917C27.3153 77.111 27.4012 77.0103 27.4647 76.8957C27.5282 76.7811 27.568 76.6548 27.5818 76.5245C27.5955 76.3942 27.583 76.2625 27.5448 76.1372C27.5067 76.0118 27.4437 75.8954 27.3597 75.7949C27.0962 75.447 26.6112 75.3494 26.1737 75.2677L23.2746 74.7802" fill="#FFBE9D"/>
<path d="M23.8915 77.2866C24.3089 77.2885 24.7255 77.3211 25.1381 77.3841C25.5843 77.4231 26.0336 77.4107 26.477 77.3472C26.7322 77.3259 26.9766 77.2347 27.1833 77.0836C27.2913 77.0075 27.3775 76.9044 27.4335 76.7847C27.4894 76.665 27.5131 76.5327 27.5022 76.401C27.4801 76.2684 27.4312 76.1417 27.3588 76.0284C27.2863 75.9152 27.1917 75.8178 27.0805 75.7421C26.8645 75.5996 26.6242 75.4978 26.3716 75.4417C25.8787 75.3257 25.4201 75.2598 25.0538 75.1781L24.1577 74.9989C24.0466 74.9839 23.9378 74.9555 23.8335 74.9145C23.9459 74.9126 24.0582 74.9232 24.1682 74.9462L25.0722 75.0832C25.4544 75.1491 25.9077 75.2045 26.4111 75.3178C26.6821 75.3722 26.9399 75.4787 27.1702 75.6314C27.2971 75.7173 27.4052 75.8282 27.4877 75.9574C27.5702 76.0866 27.6254 76.2313 27.6498 76.3826C27.663 76.5377 27.6357 76.6935 27.5706 76.8349C27.5054 76.9763 27.4047 77.0983 27.2782 77.1891C27.0515 77.3525 26.7845 77.4509 26.506 77.4737C26.0517 77.5288 25.5924 77.5288 25.1381 77.4737C24.7533 77.4263 24.4476 77.3709 24.2341 77.3393C24.1186 77.3319 24.0039 77.3142 23.8915 77.2866Z" fill="#EB996E"/>
<path d="M23.7336 77.2813C23.5748 77.2562 23.4125 77.2669 23.2584 77.3125C23.1043 77.3581 22.9623 77.4375 22.8427 77.5449C22.7196 77.679 22.6271 77.8382 22.5716 78.0116C22.5161 78.185 22.4989 78.3683 22.5212 78.549C22.5668 78.7075 22.6501 78.8526 22.7639 78.9719C22.8777 79.0912 23.0187 79.1812 23.1748 79.2343C23.4867 79.3396 23.8079 79.4146 24.1342 79.4583C24.6323 79.5558 25.1594 79.5268 25.6602 79.598C26.1609 79.6692 26.8963 79.6296 27.1783 79.3792C27.2685 79.3085 27.3437 79.2203 27.3992 79.12C27.4548 79.0196 27.4896 78.9092 27.5016 78.7951C27.5137 78.6811 27.5027 78.5657 27.4693 78.456C27.436 78.3463 27.3809 78.2444 27.3074 78.1563C27.0702 77.8506 26.6512 77.7663 26.269 77.7004L23.7336 77.2813Z" fill="#FFBE9D"/>
<path d="M24.2737 79.4899C24.639 79.4852 25.004 79.5117 25.3648 79.569C25.7559 79.6 26.1493 79.5876 26.5377 79.5321C26.7604 79.5119 26.9735 79.4317 27.1544 79.3001C27.2458 79.2324 27.3181 79.1422 27.3643 79.0383C27.4104 78.9344 27.4289 78.8203 27.418 78.7071C27.3988 78.592 27.3565 78.4819 27.2935 78.3836C27.2305 78.2852 27.1482 78.2008 27.0516 78.1352C26.8638 78.0087 26.6536 77.9192 26.4323 77.8717C26.0027 77.7689 25.602 77.7109 25.2726 77.6397L24.4819 77.4816C24.384 77.4676 24.2883 77.441 24.1973 77.4025C24.2955 77.4 24.3936 77.4089 24.4898 77.4289L25.2805 77.5448C25.6152 77.6028 26.0132 77.6503 26.456 77.7478C26.6931 77.7921 26.9195 77.8816 27.1228 78.0113C27.235 78.0874 27.3305 78.1855 27.4034 78.2997C27.4764 78.4139 27.5253 78.5418 27.5471 78.6755C27.5593 78.813 27.5353 78.9512 27.4775 79.0765C27.4197 79.2018 27.3301 79.3098 27.2177 79.3898C27.0195 79.5384 26.7842 79.6295 26.5377 79.6533C26.1395 79.7034 25.7366 79.7034 25.3385 79.6533C24.9985 79.6111 24.7297 79.5637 24.5478 79.5347C24.4555 79.5265 24.3639 79.5115 24.2737 79.4899Z" fill="#EB996E"/>
<g opacity="0.3">
<path d="M19.4113 83.2298C19.4772 83.2878 19.3744 83.5567 19.0555 83.9414C18.5859 84.4762 18.02 84.9178 17.3872 85.2434C16.4423 85.7335 15.4092 86.0301 14.3483 86.1158C13.0539 86.2103 11.7536 86.0491 10.5214 85.6414C9.31543 85.2455 8.17296 84.6773 7.12943 83.9546C6.28358 83.3796 5.48985 82.7314 4.75739 82.0175C3.53184 80.8051 2.91248 79.9327 3.04689 79.8009C3.18131 79.6692 4.03788 80.2885 5.38466 81.2769C6.73145 82.2652 8.60536 83.5883 10.9352 84.3342C12.0126 84.6926 13.1418 84.8707 14.2772 84.8613C15.2015 84.8392 16.1167 84.672 16.9892 84.3658C18.4941 83.8176 19.2532 83.0823 19.4113 83.2298Z" fill="white"/>
</g>
<g opacity="0.3">
<path d="M18.5047 81.2848C18.6365 81.4166 18.6102 81.6959 18.4019 82.0228C18.1158 82.4262 17.729 82.7478 17.28 82.9554C16.831 83.163 16.3355 83.2494 15.8428 83.2061C15.458 83.1534 15.2287 82.9926 15.2155 82.8055C15.2023 82.6184 15.3842 82.4339 15.6583 82.2547C15.9966 82.0486 16.3489 81.8663 16.7125 81.7091C17.0671 81.538 17.4325 81.39 17.8063 81.2663C18.1094 81.1741 18.3677 81.1504 18.5047 81.2848Z" fill="white"/>
</g>
<path d="M52.9334 29.6244C52.9334 29.6244 50.1581 35.486 56.7761 37.5312L72.2286 28.984C72.2286 28.984 71.6698 21.043 66.0112 19.8569L52.9334 29.6244Z" fill="#E0E0E0"/>
<path d="M52.9332 29.6245L52.9912 29.5744L53.1704 29.4347L53.8741 28.9076L56.5466 26.8914L65.9715 19.8175L65.9952 19.8016H66.0216C66.9228 19.9891 67.7715 20.3734 68.5069 20.927C68.8926 21.2111 69.2461 21.5363 69.5612 21.8969C69.8854 22.2606 70.1756 22.6532 70.4283 23.0698C70.9482 23.9267 71.3599 24.8447 71.6538 25.8029C71.9619 26.7848 72.172 27.7947 72.2811 28.818L72.2969 28.9682V29.013L72.2574 29.0341L56.7996 37.5761H56.7785H56.7574C56.0408 37.3596 55.3551 37.0513 54.7175 36.6589C54.1453 36.3045 53.6447 35.8459 53.2416 35.3068C52.8914 34.8335 52.6371 34.2963 52.4931 33.7255C52.372 33.2485 52.3161 32.7573 52.327 32.2654C52.3426 31.5845 52.4581 30.9096 52.6696 30.2623C52.7408 30.0409 52.8067 29.8749 52.8541 29.7642C52.9016 29.6535 52.9306 29.6034 52.9306 29.6034L52.8673 29.7721C52.8251 29.8828 52.7645 30.0488 52.6986 30.2729C52.501 30.9199 52.3954 31.5915 52.385 32.268C52.3793 32.7534 52.4387 33.2374 52.5616 33.707C52.7101 34.2642 52.9642 34.7876 53.3101 35.2489C53.709 35.7756 54.2034 36.2226 54.7676 36.5667C55.3997 36.9523 56.0792 37.2544 56.7891 37.4654H56.7469L72.1915 28.8944L72.1572 28.9603C72.1572 28.9129 72.1572 28.8628 72.1441 28.8154C72.0305 27.7958 71.8186 26.7896 71.5115 25.8108C71.2215 24.8629 70.8152 23.9546 70.3018 23.1067C70.0536 22.696 69.7686 22.3088 69.4505 21.9496C69.1436 21.5961 68.7999 21.2763 68.4252 20.9956C67.7057 20.4536 66.8763 20.0758 65.9952 19.8886H66.0453L56.5993 26.9125L53.9031 28.9024L53.1836 29.4295L52.9965 29.5612L52.9332 29.6245Z" fill="#263238"/>
<path d="M56.776 36.4612C53.9744 35.9341 53.1337 32.463 53.5053 31.1294C53.7034 30.4643 54.0973 29.8742 54.6355 29.436C55.1738 28.9979 55.8315 28.732 56.523 28.673C57.4824 28.6098 58.4391 28.9577 59.3985 28.8786C60.935 28.7521 62.1869 27.574 63.6839 27.1971C65.7555 26.67 68.428 27.8692 69.3979 29.6772L56.776 36.4612Z" fill="#FF725E"/>
<path d="M62.8828 31.3403C62.8828 31.3403 62.8512 31.3192 62.8011 31.2691C62.7266 31.1894 62.662 31.1009 62.6087 31.0055C62.4168 30.667 62.2681 30.3057 62.166 29.9302C62.0043 29.3766 61.9001 28.8078 61.855 28.2329C61.7798 27.5251 61.8406 26.8094 62.0342 26.1244C62.4608 24.915 63.0764 23.7808 63.858 22.764C64.1479 22.3687 64.3851 22.0577 64.5617 21.8442C64.6409 21.7293 64.729 21.6209 64.8253 21.52C64.7571 21.6449 64.6787 21.764 64.5907 21.8758L63.9239 22.8194C63.1737 23.8429 62.577 24.9706 62.1528 26.1666C61.9651 26.8346 61.9025 27.5316 61.9683 28.2223C62.0068 28.7895 62.0994 29.3517 62.245 29.9012C62.3376 30.2732 62.4711 30.6339 62.643 30.9765C62.7827 31.2269 62.8934 31.3297 62.8828 31.3403Z" fill="white"/>
<path d="M61.2118 29.8986C61.1734 29.8224 61.1442 29.7419 61.1248 29.6587C61.0616 29.438 61.0123 29.2136 60.9772 28.9867C60.8559 28.2333 60.8559 27.4655 60.9772 26.7121C61.0987 25.9582 61.3379 25.228 61.6862 24.5483C61.7903 24.3425 61.9074 24.1436 62.0368 23.9527C62.079 23.8797 62.1313 23.8132 62.1923 23.755C62.2107 23.7682 62.0157 24.0686 61.7732 24.5905C61.1366 25.9569 60.8973 27.4749 61.0827 28.9709C61.1433 29.5428 61.2355 29.8907 61.2118 29.8986Z" fill="white"/>
<path d="M67.4688 28.2223C68.328 27.8349 69.2399 27.4317 70.1781 27.5265C70.8978 27.5992 71.5602 27.9512 72.0231 28.507L68.9236 29.8248" fill="#FF725E"/>
<path d="M71.9304 29.4268C71.8893 29.4326 71.8476 29.4326 71.8066 29.4268C71.7249 29.4136 71.6036 29.4004 71.4534 29.3635C71.0238 29.2698 70.6039 29.1366 70.1988 28.9656C68.8479 28.402 67.6898 27.4581 66.8653 26.2486C66.0409 25.039 65.5856 23.616 65.5549 22.1525C65.5415 21.7115 65.5707 21.2702 65.6419 20.8347C65.663 20.6792 65.6946 20.5712 65.7104 20.4842C65.7156 20.442 65.7281 20.401 65.7473 20.363C65.7473 20.363 65.7289 20.5343 65.6946 20.84C65.6458 21.2722 65.6317 21.7076 65.6524 22.142C65.7347 23.7989 66.3426 25.3865 67.3881 26.6746C68.4335 27.9626 69.862 28.8842 71.4666 29.3056C71.6232 29.3378 71.778 29.3783 71.9304 29.4268Z" fill="#263238"/>
<g opacity="0.3">
<path d="M67.6949 28.6651C67.6212 28.8443 67.3339 28.905 66.9491 28.9287C66.5643 28.9524 66.0714 28.9419 65.5311 28.9445C64.9908 28.9471 64.5006 28.9656 64.1132 28.9445C63.7257 28.9234 63.4411 28.8707 63.3647 28.6941C63.2882 28.5175 63.4569 28.254 63.8417 28.0115C64.3551 27.7239 64.9328 27.5707 65.5212 27.5661C66.1096 27.5615 66.6896 27.7056 67.2074 27.9851C67.5974 28.2276 67.7661 28.4938 67.6949 28.6651Z" fill="white"/>
</g>
<path d="M56.2437 45.9046C56.2437 45.9046 53.9903 36.5904 53.9692 36.3769C53.9481 36.1634 53.2892 29.9618 54.8363 29.5929C54.8363 29.5929 55.0999 27.5555 55.967 27.6135L56.3175 30.0488C56.3175 30.0488 56.444 26.2219 58.339 25.7475C58.339 25.7475 58.7107 25.1334 59.2246 25.2204C59.7385 25.3074 59.5778 27.3526 59.5778 28.7916L59.9837 31.3297C60.1603 32.4388 60.7064 33.4558 61.5334 34.2157C61.724 34.3947 61.9756 34.4944 62.2371 34.4944C62.4986 34.4944 62.7502 34.3947 62.9408 34.2157C64.2889 32.8814 65.9742 31.9385 67.8167 31.4879C67.8167 31.4879 67.9405 32.0993 67.0576 33.1035C65.9217 34.3949 65.6871 36.4454 65.073 37.5128L63.7552 39.819C63.5848 40.1141 63.4758 40.4406 63.4346 40.7789C63.3933 41.1172 63.4208 41.4603 63.5154 41.7878L64.8121 44.4761L56.2437 45.9046Z" fill="#FFBE9D"/>
<path d="M57.8882 33.4355C57.8526 33.3413 57.8287 33.243 57.8171 33.143C57.7775 32.9532 57.7354 32.6791 57.6932 32.3365C57.5841 31.4439 57.5453 30.5442 57.5772 29.6455C57.6091 28.7483 57.7095 27.8549 57.8777 26.973C57.9436 26.6357 58.0068 26.3642 58.0595 26.1823C58.0789 26.0845 58.1089 25.989 58.1492 25.8977C58.1488 25.9974 58.1355 26.0966 58.1096 26.1929C58.0754 26.3827 58.0279 26.6568 57.9752 26.9836C57.8339 27.8657 57.7459 28.7555 57.7117 29.6482C57.6833 30.5405 57.7079 31.4338 57.7854 32.3233C57.8171 32.6659 57.8461 32.9427 57.8672 33.1324C57.8855 33.2323 57.8926 33.334 57.8882 33.4355Z" fill="#EB996E"/>
<path d="M56.4149 34.1603C56.3383 33.9599 56.2904 33.7496 56.2726 33.5357C56.1935 33.0211 56.153 32.5013 56.1514 31.9807C56.1532 31.4654 56.184 30.9507 56.2436 30.4389C56.2537 30.2244 56.29 30.012 56.3517 29.8063C56.3965 29.8063 56.2937 30.7815 56.2884 31.9807C56.2884 32.5816 56.3227 33.1219 56.3569 33.5146C56.3952 33.7277 56.4146 33.9438 56.4149 34.1603Z" fill="#EB996E"/>
<path d="M54.7412 35.2435C54.663 34.9765 54.6144 34.7016 54.5962 34.4239C54.518 33.7575 54.4871 33.0863 54.504 32.4156C54.52 31.7441 54.5772 31.0743 54.6753 30.4099C54.7011 30.1382 54.7541 29.8698 54.8334 29.6086C54.829 29.8857 54.8061 30.1622 54.7649 30.4362C54.7148 30.9449 54.6542 31.6512 54.6357 32.4314C54.6173 33.2115 54.6357 33.9178 54.6858 34.4265C54.7194 34.6976 54.7379 34.9704 54.7412 35.2435Z" fill="#EB996E"/>
</svg>
