<svg width="110" height="100" viewBox="0 0 110 100" fill="none" xmlns="http://www.w3.org/2000/svg">
<path d="M45.4573 99.9069C57.1679 99.9069 66.6612 90.4136 66.6612 78.703C66.6612 66.9925 57.1679 57.4991 45.4573 57.4991C33.7467 57.4991 24.2534 66.9925 24.2534 78.703C24.2534 90.4136 33.7467 99.9069 45.4573 99.9069Z" fill="#FF725E"/>
<g opacity="0.3">
<path d="M27.6665 90.2289C29.8168 90.3319 31.5284 89.0258 32.5022 87.1048C33.476 85.1839 33.6787 82.9837 33.8648 80.84L34.6226 72.1225C34.7522 70.6336 34.8885 69.1114 35.4701 67.7322C36.0517 66.3529 37.1551 65.1099 38.6075 64.741C40.113 64.3721 41.8678 64.9571 43.1606 64.0996C44.3937 63.2853 44.6562 61.494 45.8527 60.6299C47.1256 59.7093 48.9103 60.1878 50.3327 60.8492C53.0713 62.1249 55.5225 63.9429 57.5381 66.1934C59.5521 68.4501 61.2836 71.2484 64.1419 72.2455C64.9794 72.538 66.003 72.6177 66.6777 72.0361C67.6747 71.172 67.2526 69.5501 66.6577 68.3803C64.9839 65.1183 62.625 62.2565 59.7425 59.9907C56.8601 57.7249 53.5222 56.1086 49.9572 55.2525C46.7101 54.498 43.257 54.405 40.0764 55.4053C36.8959 56.4057 34.021 58.5726 32.5321 61.5571C30.8438 64.9438 31.6547 68.9818 30.9701 72.7041C29.87 78.703 28.6071 84.4793 27.6698 90.2289" fill="black"/>
</g>
<path d="M58.6415 85.483C58.6448 85.4212 58.6548 85.3599 58.6714 85.3002C58.7047 85.1673 58.7479 84.9978 58.7977 84.7917C58.8243 84.6787 58.8575 84.5558 58.8908 84.4228C58.924 84.2899 58.944 84.137 58.9739 83.9808C59.0304 83.6485 59.1168 83.3161 59.1567 82.894C59.1799 82.6913 59.2065 82.4819 59.2364 82.2626C59.2663 82.0432 59.2663 81.8106 59.2829 81.5713C59.3262 81.0927 59.3162 80.5742 59.3162 80.0425C59.2823 78.8759 59.1444 77.7148 58.9041 76.5727C58.6477 75.4363 58.2929 74.3243 57.8439 73.2492C57.6212 72.7607 57.4185 72.2888 57.1792 71.8733C57.0628 71.6639 56.9631 71.4546 56.8468 71.2651L56.5145 70.7201C56.3084 70.3678 56.0824 70.0753 55.8996 69.8094C55.8066 69.6765 55.7235 69.5502 55.6371 69.4405L55.4011 69.1447L55.0688 68.7293C55.0282 68.682 54.9926 68.6308 54.9624 68.5764C55.0115 68.6145 55.0561 68.6579 55.0953 68.706L55.4443 69.1015L55.6936 69.3907C55.7833 69.497 55.8697 69.62 55.9661 69.7496C56.1589 70.0155 56.3948 70.3013 56.6075 70.6536L56.9399 71.1986C57.0595 71.3881 57.1626 71.5941 57.2722 71.8069C57.5148 72.2223 57.7242 72.6942 57.9369 73.1861C58.8813 75.3518 59.3863 77.6834 59.4225 80.0458C59.4225 80.5909 59.4225 81.106 59.3727 81.5879C59.3527 81.8272 59.3461 82.0598 59.3162 82.2825C59.2863 82.5052 59.253 82.7146 59.2231 82.9206C59.1766 83.3261 59.0835 83.6883 59.0171 84.0074C58.9805 84.1636 58.9506 84.3132 58.9174 84.4494L58.8077 84.815C58.7445 85.0177 58.6947 85.1839 58.6548 85.3169C58.6568 85.3726 58.6524 85.4283 58.6415 85.483Z" fill="#FAFAFA"/>
<path d="M57.7836 88.2747C57.4316 89.4484 56.8089 90.523 55.9657 91.4121C55.9258 91.3822 56.411 90.7274 56.9096 89.8633C57.4081 88.9992 57.7371 88.2547 57.7836 88.2747Z" fill="#FAFAFA"/>
<path d="M40.1057 58.6358C40.2586 59.0711 40.3351 59.5331 40.4913 59.9652C40.6275 60.4116 40.9217 60.7933 41.3188 61.0386C41.5203 61.1531 41.756 61.1922 41.9837 61.149C42.2113 61.1058 42.4163 60.983 42.5618 60.8027C42.6713 60.6048 42.7328 60.3839 42.7413 60.1579C42.7955 59.648 42.8199 59.1353 42.8144 58.6225C42.8421 58.2945 42.7615 57.9664 42.5851 57.6886C42.4669 57.5592 42.3186 57.4612 42.1533 57.4032C41.988 57.3452 41.8109 57.329 41.6379 57.3562C41.2921 57.4138 40.9612 57.5392 40.6641 57.7251C40.367 57.9127 40.0506 58.0676 39.7202 58.1871" fill="#FF725E"/>
<g opacity="0.5">
<path d="M40.1057 58.6358C40.2586 59.0711 40.3351 59.5331 40.4913 59.9652C40.6275 60.4116 40.9217 60.7933 41.3188 61.0386C41.5203 61.1531 41.756 61.1922 41.9837 61.149C42.2113 61.1058 42.4163 60.983 42.5618 60.8027C42.6713 60.6048 42.7328 60.3839 42.7413 60.1579C42.7955 59.648 42.8199 59.1353 42.8144 58.6225C42.8421 58.2945 42.7615 57.9664 42.5851 57.6886C42.4669 57.5592 42.3186 57.4612 42.1533 57.4032C41.988 57.3452 41.8109 57.329 41.6379 57.3562C41.2921 57.4138 40.9612 57.5392 40.6641 57.7251C40.367 57.9127 40.0506 58.0676 39.7202 58.1871" fill="black"/>
</g>
<path d="M18.8621 69.8426C18.9161 69.8669 18.9639 69.9033 19.0016 69.949C19.1104 70.0812 19.164 70.2502 19.1512 70.4209C19.1451 70.5585 19.1004 70.6916 19.0222 70.805C18.9441 70.9185 18.8356 71.0076 18.7092 71.0623C18.542 71.1334 18.3593 71.1601 18.1787 71.1397C17.9982 71.1193 17.826 71.0526 17.6789 70.946C17.0142 70.4874 16.7383 69.3507 17.2701 68.4335C17.5812 67.9946 17.9753 67.6208 18.43 67.3334C18.8811 67.0129 19.2278 66.5667 19.427 66.0505C19.6197 65.5318 19.6869 64.9749 19.6231 64.4253C19.5613 63.9116 19.4141 63.4117 19.1878 62.9464C18.9851 62.5204 18.7413 62.1152 18.4599 61.7366C18.2009 61.4104 17.9591 61.071 17.7354 60.7196C17.5453 60.4192 17.4313 60.077 17.403 59.7226C17.3844 59.4565 17.4335 59.1901 17.5459 58.9482C17.624 58.7948 17.738 58.6625 17.8783 58.5627C17.9226 58.5268 17.9734 58.4998 18.0279 58.4829C17.8533 58.6099 17.7138 58.7792 17.6224 58.9748C17.5245 59.2088 17.4868 59.4636 17.5127 59.7159C17.5483 60.048 17.6622 60.367 17.8451 60.6465C18.0411 60.9788 18.3104 61.2813 18.5829 61.6435C18.8733 62.0277 19.127 62.4383 19.3406 62.8699C19.5764 63.3521 19.7313 63.8697 19.7993 64.4021C19.8669 64.9787 19.7963 65.5631 19.5932 66.107C19.3833 66.6529 19.0168 67.1247 18.5397 67.463C18.1006 67.7353 17.7181 68.0896 17.413 68.5066C16.9145 69.3474 17.1604 70.4143 17.7454 70.833C17.8752 70.9311 18.028 70.9942 18.1892 71.0163C18.3504 71.0384 18.5145 71.0188 18.666 70.9593C18.7595 70.9229 18.8435 70.8658 18.9118 70.7923C18.9801 70.7188 19.0308 70.6307 19.0602 70.5348C19.0896 70.4389 19.097 70.3375 19.0816 70.2384C19.0663 70.1392 19.0287 70.0448 18.9717 69.9623C18.9086 69.8891 18.8587 69.8426 18.8621 69.8426Z" fill="#263238"/>
<path d="M33.0533 61.7665L45.1342 57.3961L51.6582 60.1479L58.4614 48.2764L56.3842 40.9813L36.5728 41.4001L30.6437 41.5928L21.5806 45.9533L24.9639 57.6852L23.9336 62.5275L33.0533 61.7665Z" fill="#B78876"/>
<path d="M24.8775 57.343C36.9617 54.6642 34.8879 61.1051 34.9942 61.0653C36.691 60.9675 38.3917 61.1677 40.0194 61.6568C43.4392 62.8035 42.7612 58.2204 42.7612 58.2204C42.7612 58.2204 42.7878 61.7532 40.9998 60.6365C39.2118 59.5198 40.0027 41.3603 40.0027 41.3603H36.5729C33.492 39.0338 30.6438 41.5896 30.6438 41.5896L21.7368 46.4917L22.0426 47.522C22.0426 47.522 26.506 45.3917 28.1146 49.7155C29.7764 54.1757 24.5884 56.3625 24.5884 56.3625L24.8775 57.343Z" fill="#FF725E"/>
<path d="M48.8302 47.0468C48.8302 47.0933 48.6641 47.1232 48.468 47.1099C48.2719 47.0967 48.109 47.0501 48.1124 47.0003C48.1157 46.9504 48.2785 46.9238 48.4779 46.9371C48.6774 46.9504 48.8336 46.9969 48.8302 47.0468Z" fill="#AA6550"/>
<path d="M36.6398 54.4748C36.6165 54.4515 36.899 54.2089 37.2048 53.7104C37.5968 53.0675 37.7574 52.3101 37.6601 51.5634C37.559 50.9067 37.2692 50.2936 36.8259 49.7987C36.5772 49.5179 36.2948 49.2689 35.985 49.0575C35.9186 49.0176 35.892 48.9977 35.8953 48.991C35.8986 48.9844 35.9319 48.991 36.0016 49.0176C36.3485 49.188 36.6606 49.4213 36.9223 49.7056C37.4037 50.2079 37.7193 50.846 37.8262 51.5335C37.9318 52.326 37.7412 53.1295 37.2912 53.7902C37.1593 53.9885 37.0042 54.1704 36.8292 54.3319C36.7228 54.4316 36.663 54.4815 36.6398 54.4748Z" fill="#263238"/>
<path d="M45.0876 55.0497C45.2228 55.8693 45.2429 56.7038 45.1475 57.529C45.0509 57.1233 45.0118 56.706 45.0311 56.2893C44.9933 55.8755 45.0123 55.4584 45.0876 55.0497Z" fill="#AA6550"/>
<path d="M30.7043 41.5165C30.7508 41.5165 31.1529 44.943 31.6016 49.1771C32.0503 53.4113 32.376 56.8511 32.3294 56.8577C32.2829 56.8644 31.8774 53.4312 31.4288 49.1971C30.9801 44.9629 30.6544 41.5231 30.7043 41.5165Z" fill="#FAFAFA"/>
<path d="M31.1989 56.881C31.1524 56.881 30.7071 53.6107 30.2019 49.5694C29.6967 45.528 29.3344 42.2377 29.381 42.2311C29.4275 42.2244 29.8729 45.5014 30.378 49.5428C30.8832 53.5841 31.2455 56.881 31.1989 56.881Z" fill="#FAFAFA"/>
<path d="M23.9343 62.4943L20.0857 97.494C20.0857 97.494 15.0838 99.1558 14.3228 99.9999H25.3435C25.7888 99.6676 34.0344 61.2679 34.0344 61.2679L23.9343 62.4943Z" fill="#B78876"/>
<path d="M31.7343 64.2858C31.7343 64.2858 31.6578 64.2259 31.5482 64.0963C31.395 63.9098 31.2592 63.7095 31.1427 63.4981C30.7556 62.7933 30.5608 61.9992 30.5777 61.1953C30.5946 60.3914 30.8227 59.6062 31.2391 58.9183C31.365 58.7125 31.5084 58.5179 31.6678 58.3367C31.7841 58.2104 31.8539 58.1506 31.8639 58.1572C31.8739 58.1639 31.6313 58.453 31.3454 58.9781C30.9708 59.6594 30.7666 60.4212 30.7504 61.1984C30.7342 61.9757 30.9064 62.7453 31.2524 63.4416C31.5149 63.9767 31.7575 64.2658 31.7343 64.2858Z" fill="#AA6550"/>
<path d="M30.6445 41.5929L29.7072 37.4452L31.605 7.41742C31.5485 5.46653 31.3258 4.13048 31.3557 2.85094C31.3956 1.26895 31.2992 0.617553 31.0034 0.627523C30.6079 0.627523 30.7608 0.627522 30.2822 3.4824C30.2822 3.4824 30.9303 -0.608818 30.0928 0.158909C29.7205 0.491259 29.1489 3.89784 29.1489 3.89784C29.8601 1.21246 29.7039 0.0891155 29.2918 0.00270461C28.6936 -0.120265 28.0322 3.9909 28.0322 3.9909C28.0322 3.9909 28.6005 0.853517 28.5274 0.275229C28.4543 -0.30306 27.9724 0.208763 27.6899 0.747169C27.3775 1.35205 26.0514 5.12421 25.6094 6.19438C25.5853 6.29046 25.5401 6.37995 25.477 6.45631C25.4138 6.53266 25.3345 6.59394 25.2446 6.63568C25.1548 6.67741 25.0568 6.69854 24.9577 6.69751C24.8587 6.69649 24.7611 6.67334 24.6721 6.62975C23.263 5.71579 21.681 5.75567 21.2556 5.96505C20.8302 6.17444 20.9831 6.82916 21.5015 6.90893C22.052 7.051 22.5808 7.26676 23.0735 7.55036C23.4749 7.76329 23.8377 8.04188 24.147 8.37459C24.506 8.76344 24.7918 9.10576 25.0278 9.40155L21.3919 36.8935C21.3919 36.8935 20.0625 42.5434 21.6478 46.1561" fill="#B78876"/>
<path d="M29.9896 5.09094C30.0627 5.09094 30.2455 4.23016 30.4017 3.14338C30.5579 2.05659 30.6211 1.1659 30.548 1.14928C30.4749 1.13266 30.2921 2.01339 30.1392 3.09685C29.9863 4.18031 29.9198 5.07765 29.9896 5.09094Z" fill="#AA6550"/>
<path d="M28.8728 5.03449C28.9425 5.03449 29.2051 4.1305 29.4245 2.9839C29.6438 1.83729 29.79 0.896738 29.7202 0.883444C29.6505 0.87015 29.3879 1.78411 29.1685 2.93072C28.9492 4.07732 28.7996 5.0079 28.8728 5.03449Z" fill="#AA6550"/>
<path d="M27.7126 4.94467C27.7824 4.96128 28.045 4.09385 28.2676 3.01372C28.4903 1.93358 28.6365 1.04289 28.5668 1.01962C28.497 0.996356 28.2344 1.86711 28.0084 2.95057C27.7824 4.03403 27.6395 4.92805 27.7126 4.94467Z" fill="#AA6550"/>
<path d="M28.1547 37.7709C28.3518 38.5224 28.6479 39.2444 29.0354 39.9178C29.4726 40.5611 29.9947 41.1425 30.5875 41.6461C30.3755 41.5525 30.182 41.422 30.0158 41.2605C29.5797 40.9026 29.2048 40.476 28.9058 39.9976C28.6 39.5217 28.3754 38.9984 28.2411 38.4489C28.1727 38.2297 28.1435 38.0002 28.1547 37.7709Z" fill="#AA6550"/>
<path d="M18.8459 52.0353C18.8858 53.9895 19.6601 55.9072 18.7595 57.6387C18.3706 58.3832 17.8222 59.1011 17.7824 59.9286C17.7358 60.9788 18.5268 61.9227 18.5999 62.9663C18.7262 64.854 16.5394 66.3762 16.7122 68.2606C16.8237 68.9106 17.0706 69.53 17.4367 70.0786C17.8002 70.6277 18.028 71.2554 18.1014 71.9098C18.1268 72.2426 18.0432 72.5746 17.8633 72.8558C17.6835 73.1369 17.4171 73.352 17.1044 73.4685C16.9801 72.782 16.6697 72.1428 16.207 71.6207C15.1734 72.2688 16.0143 73.977 15.21 74.8677C14.9373 75.129 14.602 75.3156 14.2362 75.4095C12.9349 75.7812 11.5982 76.0151 10.248 76.1074L9.47695 74.8046C9.39974 75.332 9.46161 75.8705 9.65642 76.3666C7.98348 76.8163 6.25292 77.0146 4.52162 76.9549C3.60101 76.9216 2.60064 76.7821 1.95921 76.1606C1.40086 75.6222 1.22804 74.8312 1.18151 74.0767C1.10492 72.7566 1.33233 71.4365 1.84621 70.2182C2.17856 69.3939 2.66711 68.5863 2.69038 67.7023C2.72693 66.1136 1.29783 64.8075 1.02863 63.2355C0.669691 61.0653 2.5807 59.1277 2.83329 56.9441C2.96623 55.8008 2.63388 54.6542 2.68041 53.5043C2.72693 52.3544 3.3451 51.0715 4.52495 50.8056C4.52495 50.8056 4.85729 48.8348 6.61875 48.3662C8.3802 47.8976 18.7761 48.4925 18.8459 52.0353Z" fill="#263238"/>
<path d="M27.3574 50.5862C27.7138 51.571 27.6664 52.6568 27.2257 53.6068C26.7849 54.5568 25.9864 55.2941 25.0043 55.6579L9.3839 61.4408C9.08037 61.5528 8.74582 61.5467 8.44661 61.4235C8.14741 61.3004 7.90543 61.0693 7.76868 60.7761L5.05671 54.9666C4.83558 54.4926 4.7127 53.9787 4.69546 53.456C4.67823 52.9332 4.767 52.4124 4.95643 51.9249C5.14585 51.4373 5.43201 50.9932 5.79766 50.6192C6.16332 50.2452 6.6009 49.9491 7.08404 49.7487C9.34734 48.8115 12.149 47.7546 13.9703 47.4223C17.6262 46.7842 18.9888 49.2934 18.9888 49.2934L22.3788 48.1667C23.3599 47.8395 24.4299 47.9083 25.3611 48.3583C26.2922 48.8084 27.0109 49.6042 27.364 50.5763L27.3574 50.5862Z" fill="#B78876"/>
<path d="M9.5295 50.1244C9.64499 50.0825 9.77235 50.0881 9.8838 50.1397C9.99525 50.1914 10.0817 50.2851 10.1244 50.4003C10.1483 50.4552 10.161 50.5143 10.1617 50.5741C10.1624 50.634 10.1511 50.6934 10.1285 50.7489C10.1059 50.8043 10.0724 50.8547 10.03 50.897C9.98768 50.9393 9.93726 50.9727 9.88179 50.9952C9.76621 51.0364 9.6391 51.0311 9.52742 50.9802C9.41573 50.9293 9.32827 50.8369 9.28356 50.7226C9.25968 50.6673 9.24712 50.6078 9.2466 50.5475C9.24608 50.4872 9.25762 50.4275 9.28053 50.3717C9.30345 50.316 9.33728 50.2654 9.38003 50.2229C9.42279 50.1804 9.47361 50.147 9.5295 50.1244Z" fill="#263238"/>
<path d="M8.77204 49.8584C8.84848 49.8949 8.71221 50.317 8.87839 50.7956C9.04456 51.2742 9.4035 51.5434 9.36362 51.6165C9.32374 51.6896 9.22403 51.6165 9.05786 51.5168C8.84576 51.3621 8.68578 51.1465 8.59921 50.8986C8.51771 50.6481 8.51771 50.3781 8.59921 50.1276C8.64574 49.9249 8.74545 49.8418 8.77204 49.8584Z" fill="#263238"/>
<path d="M11.072 54.8869C11.188 54.8467 11.3151 54.853 11.4267 54.9044C11.5382 54.9558 11.6255 55.0484 11.6702 55.1628C11.6937 55.218 11.7061 55.2773 11.7066 55.3372C11.7071 55.3972 11.6958 55.4567 11.6733 55.5123C11.6507 55.5679 11.6174 55.6185 11.5753 55.6612C11.5331 55.7039 11.4829 55.7378 11.4276 55.761C11.3116 55.8021 11.1842 55.7963 11.0724 55.7447C10.9607 55.6932 10.8734 55.6001 10.8294 55.4852C10.8059 55.43 10.7935 55.3707 10.793 55.3107C10.7925 55.2507 10.8038 55.1912 10.8263 55.1356C10.8489 55.08 10.8822 55.0294 10.9244 54.9868C10.9665 54.9441 11.0167 54.9102 11.072 54.8869Z" fill="#263238"/>
<path d="M10.4772 54.5546C10.5536 54.5911 10.4207 55.0166 10.5836 55.4918C10.7464 55.9671 11.112 56.2163 11.0721 56.2961C11.0322 56.3759 10.9325 56.3127 10.7664 56.1964C10.5514 56.0388 10.3911 55.818 10.3077 55.5649C10.2262 55.3144 10.2262 55.0444 10.3077 54.7939C10.3542 54.6078 10.4406 54.5214 10.4772 54.5546Z" fill="#263238"/>
<path d="M13.4352 51.58C13.268 51.3561 13.1305 51.1115 13.0264 50.8522C12.9732 50.7325 12.9068 50.6262 12.817 50.6328C12.6886 50.6677 12.5731 50.7393 12.4847 50.8389L11.6771 51.5202C10.5238 52.4774 9.55668 53.2152 9.52012 53.1819C9.48356 53.1487 10.3842 52.3212 11.5408 51.364L12.3584 50.6993C12.4795 50.5712 12.6419 50.49 12.817 50.47C12.8663 50.4732 12.9143 50.4875 12.9574 50.5116C13.0005 50.5358 13.0377 50.5692 13.0663 50.6096C13.1074 50.6718 13.1409 50.7387 13.166 50.809C13.2871 51.0539 13.3775 51.3129 13.4352 51.58Z" fill="#263238"/>
<path d="M18.9917 49.3034C19.5765 50.9309 19.6996 52.6885 19.3473 54.3817C19.3473 54.3817 21.3746 52.4607 19.8591 49.094L18.9917 49.3034Z" fill="#AA6550"/>
<path d="M14.6581 51.3872C14.5744 51.5177 14.5256 51.6675 14.5163 51.8223C14.507 51.9771 14.5375 52.1316 14.6049 52.2713C14.6509 52.3737 14.7169 52.4659 14.7991 52.5423C14.8813 52.6188 14.978 52.6781 15.0835 52.7166C15.185 52.7535 15.2955 52.758 15.3997 52.7294C15.5038 52.7008 15.5966 52.6406 15.6651 52.5571C15.7259 52.4512 15.7531 52.3293 15.743 52.2076C15.7329 52.0859 15.686 51.9702 15.6086 51.8758C15.4514 51.6763 15.2559 51.5102 15.0336 51.3872C14.9763 51.3471 14.9121 51.3178 14.8442 51.3008C14.8122 51.2916 14.7782 51.2924 14.7467 51.3031C14.7152 51.3138 14.6878 51.3339 14.668 51.3606" fill="#AA6550"/>
<path d="M14.2498 52.8927C14.2199 52.8163 14.7383 52.6368 14.9544 52.0652C15.1704 51.4936 14.9244 50.9618 14.9942 50.9319C15.064 50.902 15.1405 51.0216 15.2269 51.2642C15.3371 51.5669 15.3371 51.8988 15.2269 52.2015C15.1213 52.4934 14.9053 52.7321 14.6253 52.8662C14.396 52.9293 14.2597 52.916 14.2498 52.8927Z" fill="#263238"/>
<path d="M9.56312 54.611C9.70935 54.611 9.81238 55.1128 10.0716 55.6545C10.3308 56.1963 10.6433 56.5951 10.5502 56.7081C10.507 56.7613 10.3574 56.7081 10.168 56.5851C9.92909 56.3932 9.73679 56.1497 9.60554 55.8728C9.4743 55.5959 9.40752 55.2929 9.41024 54.9865C9.42685 54.7505 9.49332 54.611 9.56312 54.611Z" fill="#263238"/>
<path d="M7.44284 50.5099C7.58242 50.5564 7.58242 50.9253 7.71204 51.3241C7.84166 51.7229 8.04439 52.0353 7.95133 52.1517C7.90813 52.2015 7.77851 52.1882 7.61898 52.0752C7.42507 51.9227 7.28338 51.7136 7.21351 51.477C7.13977 51.2423 7.13977 50.9905 7.21351 50.7558C7.28331 50.5664 7.37969 50.4932 7.44284 50.5099Z" fill="#263238"/>
<path d="M4.14578 52.8729C4.37178 51.5435 5.06639 55.5749 6.39578 55.8474C7.02685 55.9179 7.66213 55.9434 8.29682 55.9239C8.93161 55.9604 9.62622 56.1565 9.95857 56.6783C10.2909 57.2001 10.2909 57.898 10.7894 58.2503C11.2082 58.5594 11.7865 58.4431 12.3116 58.483C13.4715 58.5793 14.4121 59.5365 14.8541 60.6166C15.2961 61.6968 15.3426 62.8833 15.4191 64.0465C15.4955 65.2097 15.6284 66.4095 16.2101 67.4165L7.85812 62.8633C7.85812 62.8633 3.60737 56.0734 4.14578 52.8729Z" fill="#263238"/>
<path d="M13.7673 59.0978C13.6244 59.7026 14.0996 60.6432 14.7178 60.7994C15.0222 60.865 15.3396 60.8305 15.6229 60.7012C15.9061 60.5718 16.14 60.3545 16.2898 60.0815C16.5823 59.5331 16.6687 59.1044 16.2898 58.5992" fill="#B78876"/>
<path d="M6.2966 75.3862C6.33297 75.3002 6.37749 75.2178 6.42954 75.1403L6.82836 74.4523C7.03514 74.0895 7.21939 73.7144 7.38006 73.329C7.59606 72.8207 7.72849 72.2809 7.77223 71.7304C7.83067 71.0738 7.68686 70.4151 7.36012 69.8426C6.9275 69.2057 6.39303 68.6443 5.77813 68.1809C5.45254 67.9122 5.14707 67.6201 4.86417 67.3068C4.56292 66.9741 4.33628 66.5809 4.19947 66.1535C4.07882 65.7021 4.06403 65.229 4.15627 64.771C4.25023 64.3083 4.39052 63.8562 4.57503 63.4216C4.92732 62.5475 5.32614 61.7067 5.39593 60.8359C5.42583 60.4115 5.35642 59.9859 5.1932 59.593C5.02404 59.2165 4.81216 58.8608 4.56173 58.5328C4.32577 58.2004 4.07982 57.8847 3.8638 57.559C3.65634 57.2431 3.47728 56.9094 3.32871 56.5619C3.05811 55.932 2.91901 55.2534 2.91993 54.5678C2.9242 54.0011 3.05477 53.4425 3.30213 52.9327C3.48183 52.5444 3.732 52.1928 4.03994 51.8957C4.23824 51.7107 4.46209 51.5551 4.70464 51.4338C4.78773 51.3906 4.8542 51.3673 4.8974 51.3474L4.96388 51.3241C4.64865 51.4906 4.35787 51.6997 4.09977 51.9456C3.80621 52.2399 3.5676 52.5843 3.39519 52.9626C3.16773 53.4632 3.05422 54.0081 3.06284 54.5579C3.06938 55.2244 3.21187 55.8826 3.4816 56.4921C3.62812 56.8347 3.80614 57.1629 4.01336 57.4726C4.22274 57.8049 4.46867 58.104 4.71129 58.4331C4.97333 58.7701 5.19632 59.1358 5.37599 59.5232C5.55075 59.9434 5.62583 60.3984 5.59534 60.8526C5.52222 61.7698 5.11343 62.6273 4.76446 63.4947C4.4155 64.3622 4.1463 65.2695 4.39223 66.1103C4.63817 66.9512 5.31284 67.5361 5.92104 68.0679C6.54432 68.5402 7.08458 69.113 7.51964 69.7628C7.86227 70.3681 8.00641 71.0655 7.93176 71.7569C7.87966 72.3183 7.73595 72.8673 7.50635 73.3821C7.32594 73.7676 7.11825 74.1396 6.88486 74.4955C6.70539 74.7913 6.55251 75.0173 6.45945 75.1602C6.41118 75.2397 6.35673 75.3153 6.2966 75.3862Z" fill="#455A64"/>
<path d="M12.1854 76.134C12.3274 75.8093 12.4495 75.4764 12.551 75.1369C12.801 74.2116 12.7907 73.2351 12.5211 72.3153C12.3389 71.6846 12.0339 71.0962 11.6237 70.5837C11.126 70.0147 10.5443 69.525 9.89885 69.1314C9.16755 68.6896 8.51589 68.1278 7.97122 67.4696C7.68988 67.1067 7.49342 66.6854 7.39626 66.2366C7.31823 65.7678 7.35821 65.2869 7.51258 64.8374C7.78843 63.9401 8.26701 63.1358 8.27033 62.275C8.233 61.4452 7.91417 60.6528 7.36634 60.0283C6.87007 59.4577 6.33122 58.9255 5.75445 58.4364C5.25386 57.997 4.80757 57.4994 4.42505 56.9541C4.13625 56.5587 3.94203 56.1023 3.85733 55.62C3.77263 55.1377 3.79971 54.6425 3.9365 54.1723C4.02128 53.9195 4.15829 53.6874 4.33864 53.491C4.3855 53.4414 4.43546 53.3947 4.4882 53.3514C4.52143 53.3215 4.54137 53.3082 4.5447 53.3115C4.2947 53.5569 4.1077 53.8591 3.99964 54.1923C3.87918 54.6504 3.86293 55.1298 3.95207 55.5951C4.04122 56.0604 4.2335 56.4998 4.51478 56.881C4.90153 57.4118 5.34754 57.8969 5.84418 58.3267C6.43124 58.8185 6.97702 59.3576 7.47602 59.9386C8.05113 60.5895 8.3865 61.4173 8.42654 62.285C8.42654 63.2089 7.92801 64.0298 7.66213 64.8972C7.51697 65.3246 7.4793 65.7812 7.55246 66.2266C7.64316 66.6512 7.82832 67.0499 8.09419 67.3932C8.62727 68.0341 9.26292 68.5821 9.97528 69.015C10.6353 69.4195 11.2293 69.9228 11.7367 70.5073C12.1553 71.0359 12.4618 71.6443 12.6374 72.2953C12.9024 73.2363 12.8955 74.233 12.6175 75.1702C12.5209 75.5106 12.3753 75.8353 12.1854 76.134Z" fill="#455A64"/>
<path d="M2.14847 76.1573C2.05375 76.1719 1.95736 76.1719 1.86265 76.1573C1.5882 76.1114 1.32787 76.0034 1.10156 75.8415C0.744742 75.5847 0.466294 75.2337 0.29728 74.8279C0.0943704 74.28 0.0427096 73.6876 0.147722 73.1129C0.272724 72.4262 0.496618 71.7612 0.812421 71.1388C1.18967 70.4406 1.5087 69.7125 1.76626 68.9619C1.88973 68.5581 1.95026 68.1378 1.94573 67.7156C1.92547 67.2764 1.82757 66.8444 1.65659 66.4394C1.49374 66.0173 1.28103 65.6052 1.10156 65.1631C0.899576 64.7162 0.786686 64.2341 0.769215 63.744C0.769215 62.7469 1.19795 61.843 1.58347 61.0254C2.00997 60.2657 2.30652 59.4401 2.46087 58.5826C2.5639 57.765 2.33126 56.984 2.15511 56.2562C1.94798 55.5856 1.86574 54.8826 1.9125 54.1823C1.97645 53.609 2.16229 53.056 2.45755 52.5604C2.68272 52.1862 2.96534 51.8498 3.29507 51.5634C3.49944 51.386 3.72229 51.2311 3.95977 51.1014C4.04492 51.0575 4.13259 51.0187 4.22233 50.9851C3.90278 51.1637 3.60214 51.3741 3.32498 51.6132C3.00962 51.9019 2.74158 52.2384 2.53067 52.6103C2.24501 53.0985 2.06815 53.6427 2.0122 54.2056C1.97745 54.8905 2.06639 55.5762 2.27476 56.2296C2.53192 56.9931 2.64463 57.7978 2.60711 58.6026C2.45519 59.4784 2.1563 60.3223 1.72306 61.0985C1.34086 61.9161 0.912125 62.7868 0.928743 63.7407C0.945499 64.2095 1.05153 64.6709 1.24115 65.1C1.4173 65.532 1.63 65.9475 1.79618 66.3795C1.97291 66.8014 2.07199 67.2518 2.08864 67.7089C2.09187 68.1468 2.02912 68.5826 1.90253 69.0018C1.64464 69.7587 1.32564 70.4934 0.948684 71.1986C0.628428 71.8061 0.396759 72.4564 0.260721 73.1296C0.151103 73.6842 0.192424 74.2581 0.380367 74.7913C0.537183 75.1857 0.79789 75.5302 1.1348 75.7883C1.34979 75.9496 1.59685 76.0629 1.85932 76.1207C2.04876 76.1573 2.14847 76.1573 2.14847 76.1573Z" fill="#263238"/>
<path d="M71.0247 57.5457C70.9031 57.4462 70.7918 57.3349 70.6924 57.2133L69.7917 56.2894C69.0273 55.515 67.9472 54.4715 66.6909 53.388C65.4346 52.3045 64.2381 51.3939 63.3674 50.7491L62.3205 49.998C62.1875 49.9124 62.0629 49.8145 61.9482 49.7056C62.0918 49.7728 62.2297 49.8517 62.3604 49.9415C62.6196 50.0977 62.9885 50.3404 63.4405 50.6494C64.6097 51.4585 65.7357 52.3282 66.8138 53.2551C67.8905 54.1833 68.9167 55.1684 69.8881 56.2063C70.2603 56.6051 70.5528 56.9342 70.7522 57.1668C70.8535 57.2852 70.9447 57.412 71.0247 57.5457Z" fill="#455A64"/>
<path d="M105.103 88.1218C105.285 88.2574 105.435 88.4313 105.542 88.6311C105.65 88.8309 105.712 89.0519 105.725 89.2784C105.747 89.7312 105.676 90.1837 105.516 90.6078C104.518 93.5989 101.78 95.6894 98.8851 96.9224C97.1935 97.6403 95.2659 98.1322 93.531 97.524C93.0092 97.3412 92.4675 96.9889 92.3877 96.4438C92.3734 96.0936 92.4624 95.7469 92.6436 95.4468C93.5335 93.581 94.7541 91.892 96.2463 90.4615C97.7468 89.0239 99.5953 88.0012 101.61 87.4936C102.76 87.2211 104.103 87.1945 104.98 87.9889" fill="#455A64"/>
<path d="M100.531 86.1078C100.531 86.1078 105.715 91.3822 106.845 93.25C107.975 95.1178 109.135 100 109.135 100L100.567 99.7075L101.149 94.463L96.6289 90.6477L98.2907 87.6565C98.9819 86.3903 100.531 86.1078 100.531 86.1078Z" fill="#B78876"/>
<path d="M101.803 94.6226L100.806 97.7832C100.806 97.7832 99.1143 97.9793 99.1642 98.6174C99.214 99.2555 99.2606 99.9967 99.2606 99.9967H109.148L101.803 94.6226Z" fill="#B78876"/>
<path d="M83.4283 68.4501C84.7145 69.364 82.8866 65.7181 81.8031 64.2857C81.0524 63.3216 80.459 62.2448 80.045 61.0952L84.6114 51.5235L78.4397 48.4725L73.501 58.4264C73.3589 58.602 73.2847 58.8229 73.292 59.0487C73.2993 59.2745 73.3877 59.4901 73.5409 59.6561L83.4283 68.4501Z" fill="#B78876"/>
<path d="M56.3311 40.9548L64.0249 38.4522L82.5468 32.7823C83.8076 32.3958 85.1558 32.399 86.4148 32.7916C87.6738 33.1842 88.7849 33.9478 89.6026 34.9824C90.4281 36.025 90.9164 37.2942 91.0025 38.6213C91.0886 39.9483 90.7684 41.27 90.0845 42.4104L86.0298 58.4098C85.3656 58.7458 84.5955 58.8054 83.8876 58.5756C83.1796 58.3459 82.5913 57.8454 82.251 57.1834L81.8289 56.3592C81.1751 55.3801 80.2332 54.6284 79.1335 54.2081C78.0337 53.7877 76.8306 53.7195 75.6904 54.0128L78.5486 45.6043L65.587 52.8628L57.4943 48.9245L56.3311 40.9548Z" fill="#263238"/>
<path d="M66.8768 53.6007L105.34 88.2847L104.276 88.4708C103.085 88.5053 101.937 88.9244 101.004 89.6655C100.07 90.4065 99.4018 91.4296 99.0981 92.582C98.7595 93.8679 97.9676 94.9881 96.8683 95.7363C95.769 96.4844 94.4363 96.8101 93.1158 96.6532L92.4279 96.5702C69.3595 75.4926 52.3565 59.6328 53.0544 60.4205L59.286 47.5453L66.8768 53.6007Z" fill="#263238"/>
<path d="M54.2212 41.1509C54.2212 41.1509 55.5839 51.9157 51.0273 59.7625L54.075 61.2082L62.2175 50.0579L59.3261 39.9678L54.2212 41.1509Z" fill="#263238"/>
<path d="M55.5641 40.8418C55.58 40.9095 55.59 40.9784 55.594 41.0479C55.594 41.2007 55.6306 41.3968 55.6538 41.6394C55.7103 42.1745 55.7868 42.9123 55.8798 43.813C55.9729 44.7137 56.0959 45.8237 56.1225 47.0468C56.151 48.3753 56.0576 49.7036 55.8433 51.015C55.4933 53.4088 54.7047 55.7174 53.5168 57.8249C53.15 58.457 52.7356 59.0603 52.2772 59.6295C52.1143 59.8289 51.9747 59.9619 51.885 60.0782C51.8429 60.1332 51.7938 60.1823 51.7388 60.2244C51.7747 60.1644 51.8159 60.1077 51.8617 60.0549C51.9415 59.9452 52.0711 59.7957 52.224 59.5863C52.6598 59.0064 53.0561 58.398 53.4105 57.765C54.5572 55.6567 55.3233 53.3627 55.6738 50.9884C55.8846 49.6866 55.9813 48.3688 55.9629 47.0501C55.9629 45.8337 55.8366 44.7436 55.7602 43.823C55.6838 42.9024 55.6173 42.1612 55.5874 41.6461C55.5708 41.3869 55.5641 41.1874 55.5608 41.0512C55.5541 40.9815 55.5552 40.9112 55.5641 40.8418Z" fill="#455A64"/>
<path d="M55.055 49.5095C55.0179 49.4896 54.9842 49.4637 54.9553 49.4331C54.8693 49.3516 54.7882 49.2651 54.7127 49.1738C54.4284 48.8365 54.2036 48.4533 54.048 48.0405C53.9943 47.9041 53.9499 47.7642 53.9151 47.6218C53.8672 47.459 53.8672 47.286 53.9151 47.1232C53.9463 47.0302 54.0049 46.9487 54.0831 46.8894C54.1614 46.8301 54.2557 46.7958 54.3538 46.7909C54.456 46.7951 54.5553 46.8262 54.6416 46.8811C54.728 46.9359 54.7984 47.0126 54.8456 47.1033C54.9329 47.2801 54.9859 47.4718 55.0018 47.6683C55.0284 47.8577 55.045 48.0538 55.055 48.2532C55.073 48.6644 55.0631 49.0764 55.0251 49.4862C54.9852 49.9083 54.9254 50.3138 54.8556 50.706C54.8157 50.8987 54.7792 51.0915 54.7426 51.2776C54.7149 51.4714 54.6518 51.6584 54.5565 51.8293C54.5052 51.9175 54.4321 51.991 54.3442 52.0428C54.2564 52.0946 54.1566 52.123 54.0546 52.1251C53.9489 52.1263 53.8467 52.087 53.7688 52.0154C53.6986 51.9448 53.6551 51.852 53.6459 51.7529C53.6374 51.5849 53.6693 51.4174 53.7389 51.2643C53.7921 51.1247 53.8519 50.9918 53.9151 50.8655C54.1056 50.472 54.3457 50.1045 54.6296 49.7721C54.7253 49.6472 54.8371 49.5354 54.962 49.4397C54.593 49.8982 54.2764 50.3965 54.0181 50.9253C53.9616 51.0483 53.9051 51.1812 53.8552 51.3208C53.7984 51.4539 53.7733 51.5984 53.7821 51.7429C53.7864 51.8087 53.8163 51.8703 53.8653 51.9144C53.9144 51.9585 53.9788 51.9816 54.0447 51.9789C54.1204 51.976 54.1941 51.9537 54.2587 51.9141C54.3233 51.8745 54.3766 51.819 54.4136 51.7529C54.5107 51.5926 54.5772 51.4157 54.6097 51.2311C54.6429 51.045 54.6795 50.8555 54.716 50.6628C54.7825 50.2739 54.8423 49.8718 54.8789 49.4563C54.9162 49.0542 54.9273 48.6501 54.9121 48.2466C54.9121 48.0538 54.8888 47.861 54.8622 47.6749C54.8528 47.4996 54.8088 47.3279 54.7326 47.1698C54.7 47.1022 54.6504 47.0443 54.5886 47.0018C54.5268 46.9593 54.4551 46.9335 54.3803 46.9271C54.3115 46.9327 54.2459 46.9583 54.1915 47.0009C54.1372 47.0434 54.0965 47.101 54.0746 47.1664C54.0193 47.4462 54.0554 47.7363 54.1776 47.994C54.3178 48.3992 54.5195 48.7803 54.7758 49.124C54.942 49.3766 55.065 49.4995 55.055 49.5095Z" fill="#455A64"/>
<path d="M84.7905 72.1691C84.8549 72.2218 84.9149 72.2796 84.97 72.3419L85.4552 72.857C85.8707 73.3124 86.4523 73.9737 87.1702 74.8212C89.0053 77.0359 90.6917 79.3697 92.2185 81.8072C93.1059 83.2363 93.9301 84.6089 94.5782 85.9217C94.8879 86.5456 95.1115 87.2085 95.2429 87.8925C95.3587 88.4942 95.3313 89.1147 95.1632 89.7038C95.0461 90.1306 94.8387 90.5272 94.5548 90.8667C94.2709 91.2062 93.9173 91.4806 93.518 91.6713C93.2986 91.7692 93.0633 91.8266 92.8234 91.8408H92.5775C92.8929 91.8238 93.2026 91.7495 93.4914 91.6215C93.8238 91.4629 94.1193 91.2364 94.3589 90.9568C94.677 90.5856 94.9117 90.1504 95.0468 89.6806C95.2008 89.1089 95.219 88.5091 95.1 87.9291C94.9669 87.2604 94.7433 86.613 94.4353 86.0048C93.7872 84.7119 92.9597 83.346 92.0756 81.9136C90.5555 79.4891 88.8907 77.1585 87.0904 74.9342C86.4024 74.0768 85.8208 73.4054 85.4286 72.9401L84.9667 72.4017C84.9007 72.3299 84.8417 72.252 84.7905 72.1691Z" fill="#455A64"/>
<path d="M98.5399 87.2178C98.6077 87.4324 98.627 87.6595 98.5964 87.8825C98.5649 88.4177 98.4238 88.9407 98.182 89.4192C97.9402 89.8976 97.6027 90.3214 97.1906 90.6642C97.0288 90.8133 96.8374 90.9265 96.6289 90.9966C96.7798 90.8433 96.9396 90.699 97.1075 90.5645C97.4819 90.2086 97.7932 89.7916 98.0281 89.3315C98.2607 88.8712 98.4125 88.3743 98.4768 87.8625C98.4865 87.6467 98.5076 87.4314 98.5399 87.2178Z" fill="#455A64"/>
<path d="M107.121 98.0558C106.804 98.0372 106.489 97.9995 106.177 97.9428C105.421 97.8403 104.66 97.776 103.897 97.75C103.006 97.7234 102.199 97.75 101.614 97.7965C101.298 97.8357 100.981 97.8535 100.663 97.8497C100.968 97.7562 101.282 97.6983 101.6 97.6769C103.131 97.4961 104.68 97.5442 106.197 97.8198C106.513 97.8606 106.823 97.9398 107.121 98.0558Z" fill="#AA6550"/>
<path d="M103.611 93.579C103.234 93.8102 102.827 93.9891 102.402 94.1107C101.998 94.2897 101.572 94.4138 101.135 94.4796C101.513 94.252 101.919 94.0733 102.342 93.9479C102.748 93.7728 103.174 93.6489 103.611 93.579Z" fill="#AA6550"/>
<path d="M81.414 38.5552C81.2578 38.9197 81.0825 39.2759 80.8889 39.622C80.5565 40.2867 80.1345 41.194 79.7323 42.2376C79.3903 43.1284 79.093 44.0357 78.8416 44.9562C78.6455 45.6608 78.5392 46.1028 78.5093 46.0995C78.5024 45.9877 78.5137 45.8754 78.5425 45.7672C78.5724 45.5644 78.6322 45.272 78.7153 44.913C78.9359 43.9778 79.219 43.0584 79.5628 42.1612C79.9071 41.2648 80.3124 40.3931 80.7759 39.5522C80.952 39.2199 81.1082 38.9739 81.2179 38.8011C81.2719 38.7107 81.3379 38.628 81.414 38.5552Z" fill="#455A64"/>
<path d="M79.0312 40.2004C79.0811 40.2004 78.8651 41.2174 78.8152 42.477C78.7654 43.7366 78.8917 44.7603 78.8385 44.7669C78.7613 44.5531 78.7154 44.3292 78.7022 44.1022C78.6396 43.5607 78.6196 43.0151 78.6424 42.4704C78.6641 41.9254 78.7296 41.383 78.8385 40.8485C78.8671 40.6235 78.9322 40.4046 79.0312 40.2004Z" fill="#455A64"/>
</svg>
