<svg width="71" height="100" viewBox="0 0 71 100" fill="none" xmlns="http://www.w3.org/2000/svg">
<path d="M22.1997 99.8214H59.4087L55.9442 89.6234L27.43 91.1034L22.1997 99.8214Z" fill="#263238"/>
<path d="M29.1285 91.312L50.8732 90.5012L58.5951 47.2588L51.6171 44.255C51.6171 44.255 48.7214 45.8791 43.3573 45.9049C38.0935 45.9306 38.1862 44.1417 38.1862 44.1417L33.5711 49.112C33.5711 49.112 27.8904 65.2739 27.8055 65.6008C27.7205 65.9276 29.1285 91.312 29.1285 91.312Z" fill="white"/>
<path d="M54.2761 45.3566C54.2761 45.3566 64.9863 47.5702 65.0867 49.354C65.1871 51.1377 60.5051 62.198 60.415 62.4811C60.3249 62.7643 56.1963 78.5786 56.1963 78.5786L62.3738 99.824H43.1206C43.1206 99.824 44.4951 79.7807 46.0395 70.5196C47.5838 61.2585 47.9519 58.1646 48.5465 54.4942C48.7833 53.0244 49.9802 47.9821 50.7241 44.9036C50.9347 44.0358 50.9731 43.1351 50.8373 42.2524L51.7511 42.5999L54.2761 45.3566Z" fill="#455A64"/>
<path d="M20.7683 72.4732C20.6654 72.6276 18.7092 79.7292 18.3874 81.7857C18.1146 83.5309 17.6821 86.3674 19.5328 88.9928C21.3835 91.6182 23.2959 91.3094 25.144 90.6401C26.9921 89.9709 29.005 86.1126 29.3602 83.899C29.7154 81.6854 27.6253 71.9507 27.6253 71.9507L20.7683 72.4732Z" fill="#455A64"/>
<path d="M38.2069 42.7646L35.8234 46.1288C35.8234 46.1288 27.875 47.1584 26.0424 48.4917C24.2097 49.825 20.5161 73.8837 20.5161 73.8837L27.9111 78.002L22.1969 99.824H29.3602C29.3602 99.824 31.1362 90.6273 30.9741 84.0225C30.8119 77.4178 31.9573 68.8362 34.0628 62.4888C36.1683 56.1415 38.1811 45.1661 38.1811 45.1661L38.2069 42.7646Z" fill="#455A64"/>
<g opacity="0.3">
<path d="M59.8486 91.7907L47.0381 84.666C47.5838 87.6029 49.3083 90.4188 51.8308 92.0198C53.1009 92.819 54.5202 93.3517 56.0025 93.5853C57.4848 93.8189 58.9992 93.7487 60.4535 93.3788C60.2476 92.8486 60.046 92.3192 59.8486 91.7907Z" fill="black"/>
</g>
<path d="M21.8906 78.226C21.8906 78.2492 21.5869 78.2981 21.1339 78.4834C20.5414 78.7372 20.0206 79.1333 19.6178 79.6365C19.2228 80.1451 18.9577 80.7424 18.8457 81.3765C18.7607 81.863 18.7865 82.1745 18.7607 82.177C18.7378 82.1064 18.7274 82.0324 18.7298 81.9582C18.7175 81.7589 18.7252 81.5589 18.753 81.3611C18.8386 80.7008 19.102 80.0762 19.515 79.5539C19.928 79.0317 20.4751 78.6314 21.0979 78.3959C21.2843 78.323 21.4774 78.2687 21.6744 78.2337C21.7455 78.2187 21.8187 78.2161 21.8906 78.226Z" fill="#263238"/>
<path d="M23.3886 88.2181C23.3886 88.2181 25.422 87.5746 26.1531 86.7484C26.8491 85.9296 27.3162 84.9412 27.507 83.8836C27.5996 82.6584 28.0604 76.2235 28.0604 76.2235L22.7014 75.8708L19.3964 82.1822C19.3964 82.1822 18.5007 84.4987 20.3308 86.9671C21.4993 88.5501 23.3886 88.2181 23.3886 88.2181Z" fill="#FFBF9D"/>
<path d="M28.5367 84.666C28.5479 84.4178 28.572 84.1704 28.6088 83.9247C28.6635 83.3317 28.6548 82.7347 28.583 82.1435C28.5074 81.5517 28.3702 80.9694 28.1738 80.4061C28.0219 79.9737 27.9009 79.7163 27.9164 79.706C27.9318 79.6957 27.9627 79.7626 28.027 79.8759C28.1141 80.0367 28.1915 80.2026 28.2587 80.3726C28.7162 81.5016 28.8688 82.731 28.7014 83.9376C28.6768 84.1186 28.6425 84.2982 28.5985 84.4755C28.5884 84.542 28.5675 84.6063 28.5367 84.666Z" fill="#263238"/>
<path d="M28.336 84.7896C28.346 84.8923 28.346 84.9957 28.336 85.0984C28.3328 85.2191 28.3225 85.3394 28.3051 85.4588C28.2845 85.5978 28.269 85.7574 28.2279 85.9298C28.1481 86.3395 28.0309 86.741 27.8778 87.1293C27.6886 87.6029 27.4541 88.0572 27.1777 88.4858C26.8942 88.9101 26.571 89.3066 26.2125 89.6698C25.917 89.964 25.5957 90.2311 25.2524 90.4677C25.123 90.5616 24.9881 90.6476 24.8483 90.7251C24.7473 90.7905 24.6414 90.8482 24.5317 90.8975C24.4423 90.9494 24.3473 90.9909 24.2485 91.0211C24.2485 90.9979 24.6321 90.8075 25.1983 90.3931C25.5274 90.1477 25.8371 89.8775 26.1249 89.5848C26.4724 89.2223 26.7868 88.8295 27.0644 88.4111C27.3365 87.9863 27.5707 87.5384 27.7646 87.0727C27.9188 86.6926 28.0427 86.301 28.1352 85.9015C28.2922 85.2271 28.3077 84.787 28.336 84.7896Z" fill="#263238"/>
<path d="M3.97353 43.2589C3.0777 43.3895 2.26846 43.8652 1.71875 44.5845L13.6902 61.5726L28.6371 59.8609L28.3952 44.5768C28.3952 44.5768 27.381 43.1045 26.3978 43.2692C26.004 43.3361 13.3607 45.3103 12.2411 48.4042C12.2411 48.4042 12.3723 46.8238 11.317 46.0336C10.2617 45.2434 3.97353 43.2589 3.97353 43.2589Z" fill="white"/>
<path d="M3.97348 43.2588L4.14851 43.3077L4.6633 43.4673C5.11117 43.6089 5.77782 43.8199 6.63237 44.1082C7.48692 44.3965 8.5371 44.7568 9.7417 45.2304C10.0429 45.3514 10.3517 45.4878 10.6683 45.6243C11.0038 45.7607 11.3117 45.9569 11.5769 46.2034C12.1072 46.7517 12.3208 47.5779 12.2899 48.4041L12.2024 48.3835C12.4739 47.8223 12.9044 47.3532 13.4405 47.0348C13.9901 46.6765 14.5707 46.3681 15.1753 46.1133C16.4948 45.5585 17.8521 45.0983 19.237 44.7362C20.6887 44.3373 22.2254 43.9847 23.8341 43.6655C24.6372 43.5059 25.4608 43.354 26.2974 43.2176C26.5178 43.173 26.7462 43.1881 26.9589 43.2614C27.1668 43.3393 27.362 43.4477 27.538 43.5831C27.8867 43.8542 28.1937 44.1751 28.4492 44.5355L28.4621 44.5509V44.5715C28.5238 48.5122 28.5933 52.8082 28.6654 57.2688C28.6808 58.1388 28.6946 59.0011 28.7066 59.8556V59.9148H28.6448L13.6979 61.6214H13.6618L13.6412 61.5931L1.70068 44.6024V44.5895V44.5767C1.92972 44.2557 2.22126 43.9842 2.55781 43.7787C2.80101 43.6289 3.05997 43.5064 3.33 43.4132C3.48843 43.3561 3.65108 43.3113 3.81647 43.2794C3.87252 43.2691 3.92937 43.264 3.98635 43.2639C3.93013 43.2705 3.87429 43.28 3.81904 43.2923C3.65509 43.3277 3.49416 43.3759 3.33772 43.4364C3.07615 43.5335 2.82587 43.6586 2.59127 43.8096C2.26119 44.0149 1.97582 44.2845 1.75216 44.6024V44.5767L13.7545 61.539L13.6979 61.5133L28.6294 59.7887L28.5702 59.8582C28.5564 59.0002 28.5427 58.1422 28.529 57.2843C28.4595 52.8236 28.3926 48.5328 28.3308 44.5844L28.3437 44.6204C28.0947 44.2712 27.7965 43.96 27.4582 43.6964C27.2933 43.5686 27.1103 43.4663 26.9151 43.3926C26.7224 43.3257 26.5151 43.3124 26.3154 43.354C25.4788 43.4879 24.6578 43.6397 23.8547 43.7968C22.2485 44.1134 20.7119 44.4634 19.2628 44.8572C17.8831 45.2162 16.5301 45.6711 15.2139 46.2188C14.6132 46.4698 14.036 46.7738 13.4894 47.1274C12.9695 47.4338 12.5507 47.8856 12.2848 48.4273L12.187 48.6667V48.4093C12.2204 47.6088 12.0145 46.7954 11.5074 46.2729C11.2494 46.0315 10.9493 45.8396 10.622 45.7066C10.3105 45.5599 10.0017 45.4312 9.7031 45.3077C8.50364 44.8289 7.45604 44.4634 6.61436 44.1674L4.65301 43.5033L4.13822 43.3334C4.03011 43.282 3.97348 43.2588 3.97348 43.2588Z" fill="#263238"/>
<path d="M11.3199 63.938L0.110332 44.8908C0.0576286 44.8023 0.0342328 44.6994 0.0434771 44.5967C0.0527215 44.4941 0.094133 44.3971 0.16181 44.3194C0.229109 44.2437 0.318037 44.1905 0.416558 44.167C0.515079 44.1435 0.618434 44.1509 0.712635 44.1881L9.54901 47.7093C9.71885 47.7759 9.87054 47.8818 9.99173 48.0181C10.1175 48.1584 10.2081 48.3265 10.256 48.5087C10.3038 48.6908 10.3077 48.8818 10.2671 49.0657L10.1359 49.6552L13.2246 50.4454L13.2915 50.2729C13.4147 49.9566 13.6071 49.672 13.8548 49.4399C14.1025 49.2078 14.399 49.0342 14.7227 48.9319L28.9592 44.3966C29.2543 44.3017 29.5735 44.3146 29.86 44.4329C30.1466 44.5512 30.3819 44.7672 30.5241 45.0427L40.6346 64.5326L40.2923 65.4515L24.2205 69.261H21.3892L11.3199 63.938Z" fill="#FF725E"/>
<path d="M11.3194 63.9379L11.497 64.0254L12.0118 64.2828L13.9938 65.3124L21.4171 69.2119H21.3965H24.2124L40.2815 65.3896L40.2378 65.4282C40.3382 65.1451 40.4514 64.8259 40.5672 64.5068V64.5531L35.3421 54.4735C34.4292 52.7043 33.4949 50.9026 32.5391 49.0682L31.1106 46.2832L30.7476 45.5805L30.5649 45.2279C30.5109 45.1106 30.4463 44.9986 30.3718 44.8932C30.2189 44.6907 30.0079 44.5396 29.767 44.4601C29.526 44.3805 29.2665 44.3763 29.0231 44.448L20.614 47.1249L16.5703 48.4118C15.9088 48.6255 15.2396 48.8262 14.6012 49.045C14.2937 49.1714 14.0177 49.364 13.7931 49.6091C13.5684 49.8542 13.4005 50.1459 13.3014 50.4633L13.2859 50.5173L13.2267 50.5019L10.138 49.7117L10.0788 49.6962L10.0917 49.637L10.1972 49.166C10.2398 49.019 10.2564 48.8657 10.2461 48.713C10.2335 48.5636 10.191 48.4183 10.1211 48.2856C10.0512 48.153 9.95545 48.0357 9.83942 47.9408C9.71985 47.8463 9.58489 47.7732 9.44046 47.7246L9.00546 47.5521L8.13804 47.2046L4.76616 45.8585L1.54872 44.5715L0.776538 44.2626C0.722282 44.2324 0.662276 44.2139 0.600416 44.2084C0.538555 44.2029 0.476226 44.2105 0.417479 44.2306C0.358732 44.2508 0.304882 44.2831 0.259427 44.3254C0.213972 44.3677 0.17793 44.4191 0.153643 44.4763C0.129419 44.5323 0.116924 44.5928 0.116924 44.6539C0.116924 44.715 0.129419 44.7754 0.153643 44.8315L0.354411 45.179L0.761095 45.8713C2.91549 49.5392 4.80992 52.7695 6.37746 55.4439L10.0376 61.696L11.0054 63.3639L11.2628 63.7963C11.3169 63.8916 11.3426 63.9431 11.3426 63.9431C11.3426 63.9431 11.3117 63.8967 11.2551 63.8015C11.1985 63.7063 11.111 63.5647 10.9977 63.3794L10.0042 61.7192C9.14703 60.27 7.89609 58.1542 6.31568 55.4876L0.671009 45.9203L0.261748 45.2279C0.192251 45.1095 0.125329 44.9988 0.0532588 44.8727C0.0203519 44.8037 0.00227753 44.7287 0.00020166 44.6523C-0.00187421 44.576 0.012096 44.5001 0.0412091 44.4295C0.0703222 44.3589 0.11393 44.2952 0.169211 44.2425C0.224493 44.1898 0.290215 44.1493 0.362132 44.1236C0.508024 44.0753 0.667084 44.0864 0.804852 44.1545L1.57704 44.466L4.79705 45.7529L8.1715 47.0965L9.03635 47.4415L9.47392 47.6139C9.62957 47.6668 9.77497 47.746 9.90377 47.8481C10.0334 47.954 10.1404 48.0849 10.2182 48.2331C10.2961 48.3812 10.3432 48.5436 10.3568 48.7104C10.3684 48.876 10.351 49.0424 10.3053 49.202L10.2023 49.6731L10.156 49.5984L13.2448 50.3861L13.1701 50.4247C13.2757 50.0913 13.453 49.7851 13.6895 49.5277C13.9261 49.2702 14.2162 49.0677 14.5395 48.9343C15.1958 48.7078 15.8522 48.5096 16.5163 48.296L20.5625 47.009L28.9716 44.3296C29.2416 44.2502 29.5293 44.255 29.7964 44.3433C30.0636 44.4316 30.2975 44.5992 30.4671 44.8237C30.5459 44.9346 30.614 45.0527 30.6704 45.1764L30.8532 45.529L31.2187 46.2317C31.7009 47.1652 32.1805 48.0927 32.6575 49.0141L35.4605 54.4194L40.6754 64.5042V64.5273V64.5505L40.3459 65.472V65.5029H40.3124L24.2304 69.3123H21.399L13.9861 65.3742L12.017 64.3214L11.5022 64.0486L11.3194 63.9379Z" fill="#263238"/>
<g opacity="0.3">
<path d="M19.2161 66.9958L11.87 63.4823L1.72607 46.7671L10.686 50.2419L10.4981 50.7233L2.95128 47.7941L12.2304 63.0834L19.4374 66.5299L19.2161 66.9958Z" fill="black"/>
</g>
<g opacity="0.3">
<path d="M25.1518 68.0254L15.9087 51.341L29.53 46.9653L38.4076 64.1645L25.1518 68.0254ZM16.6577 51.6396L25.3963 67.4154L37.6586 63.8273L29.2675 47.5831L16.6577 51.6396Z" fill="black"/>
</g>
<path d="M23.5071 69.0705C23.4762 69.0885 21.1571 64.9522 18.3283 59.8043C15.4995 54.6563 13.237 50.4943 13.2679 50.4763C13.2988 50.4582 15.6179 54.5946 18.4467 59.7425C21.2755 64.8904 23.5405 69.055 23.5071 69.0705Z" fill="#263238"/>
<path d="M10.1353 49.65C10.1796 49.7103 10.2192 49.774 10.2537 49.8405L10.5728 50.3939C10.8482 50.8778 11.2369 51.5805 11.7157 52.4531C12.6706 54.1931 13.9679 56.6126 15.3861 59.2921L19.0128 66.1516L20.117 68.2288C20.2406 68.4656 20.3384 68.6561 20.413 68.7951C20.4511 68.8597 20.483 68.9278 20.5083 68.9984C20.4639 68.9381 20.4243 68.8744 20.3899 68.8079L20.0707 68.2546C19.7953 67.7706 19.4066 67.068 18.9279 66.1954C17.9729 64.4528 16.6757 62.0333 15.2574 59.3538L11.623 52.4942L10.5188 50.4196C10.3952 50.1828 10.2974 49.9924 10.2228 49.8534C10.1874 49.7884 10.1581 49.7204 10.1353 49.65Z" fill="#263238"/>
<path d="M11.873 49.9588C11.8656 49.6968 11.9039 49.4355 11.9862 49.1866C12.0245 48.9268 12.1063 48.6753 12.2282 48.4427C12.2353 48.7048 12.197 48.966 12.1149 49.2149C12.0767 49.4747 11.9949 49.7262 11.873 49.9588Z" fill="#263238"/>
<g opacity="0.3">
<path d="M13.5791 55.1094L19.0385 65.2224L20.938 65.4953L15.5096 55.4594L13.5791 55.1094Z" fill="black"/>
</g>
<g opacity="0.3">
<path d="M11.6387 52.4092L14.6631 53.0141L15.3271 54.1157L12.2281 53.5031L11.6876 52.5739" fill="black"/>
</g>
<g opacity="0.3">
<path d="M22.4259 52.3938L21.8931 51.1609L25.2778 49.9589L25.8672 51.1763L22.4259 52.3938Z" fill="black"/>
</g>
<g opacity="0.3">
<path d="M22.1997 58.6511L20.3232 55.1094L29.9061 51.5753L31.5972 55.1094L22.1997 58.6511Z" fill="black"/>
</g>
<path d="M53.0097 1.96753C53.3831 1.61509 53.8331 1.35402 54.3243 1.20485C54.8156 1.05568 55.3348 1.02247 55.8411 1.10783C56.2503 1.1799 56.6931 1.32662 57.0611 1.131C57.2994 0.952679 57.5064 0.736105 57.6737 0.490083C57.834 0.330426 58.0248 0.204759 58.2348 0.120613C58.4448 0.0364672 58.6696 -0.00442725 58.8957 0.000379534C59.1219 0.00518631 59.3448 0.0555954 59.551 0.148587C59.7572 0.241579 59.9425 0.375239 60.0958 0.541561C60.2187 0.730113 60.3727 0.896365 60.5514 1.03319C61.3236 1.49392 62.294 0.029345 63.0739 0.497804C62.7043 0.617816 62.3802 0.847686 62.1447 1.15673C62.032 1.31437 61.9753 1.50521 61.9837 1.69882C61.9921 1.89242 62.0651 2.07764 62.191 2.22493C62.9117 2.92247 64.2193 1.50422 65.0224 2.09108C65.4574 2.41025 65.4831 3.17986 66.0005 3.33172C66.2074 3.36279 66.4182 3.35756 66.6234 3.31628C66.9749 3.30831 67.3163 3.4341 67.5786 3.66823C67.841 3.90236 68.0046 4.22736 68.0365 4.57752C68.0673 5.17725 67.7327 5.89023 68.16 6.30979C68.4174 6.56718 68.8473 6.55174 69.2179 6.51313C69.1823 7.06272 69.0221 7.59701 68.7495 8.07551C69.2101 8.39617 69.5286 8.88286 69.638 9.43337C69.7475 9.98388 69.6393 10.5554 69.3363 11.0278C69.8153 11.3934 70.2183 11.849 70.5229 12.3689C70.7932 12.9043 70.8292 13.6044 70.4534 14.0728C70.3559 14.1688 70.2734 14.279 70.2089 14.3997C70.1599 14.5404 70.1519 14.6922 70.1857 14.8373C70.2732 15.401 70.492 15.9544 70.4431 16.5232C70.3942 17.0921 69.9463 17.6944 69.3801 17.6197C69.2488 17.6017 69.1047 17.5502 68.9914 17.6197C68.9504 17.6503 68.9161 17.6889 68.8904 17.7331C68.8647 17.7774 68.8483 17.8264 68.8421 17.8771C68.7834 18.2831 68.7903 18.6959 68.8627 19.0997C68.9342 19.508 68.8487 19.9282 68.6233 20.276C68.3659 20.5978 67.8022 20.6853 67.5629 20.3533L67.9567 22.2786C68.0339 22.6595 68.0905 23.1203 67.8022 23.3828C67.4239 23.7277 66.7881 23.4111 66.5384 22.9658C66.2888 22.5205 66.2373 21.9826 65.9747 21.545C65.851 21.3775 65.744 21.1982 65.6556 21.0096C65.6015 20.8526 65.5886 20.6699 65.4677 20.5592C65.2231 20.3352 64.8113 20.6724 64.8293 21.0045C64.8473 21.3365 65.0996 21.5965 65.2952 21.8642C65.4908 22.1319 65.6401 22.5051 65.4574 22.7831C65.3699 22.9169 65.218 22.9993 65.133 23.1357C64.8396 23.6042 65.5243 24.1087 65.5809 24.6595C65.6247 25.0662 65.3106 25.4162 65.0069 25.6891C64.6363 26.0237 63.9413 26.2734 63.7405 25.8178C63.703 25.6478 63.6746 25.476 63.6556 25.303C63.572 25.1175 63.4449 24.955 63.2849 24.8294C62.927 24.4698 62.6819 24.0136 62.5797 23.5166C62.9761 24.0572 63.3853 24.765 63.0559 25.3467C62.8932 25.5747 62.6971 25.7769 62.4742 25.9465C62.0752 26.3223 61.8152 26.8242 61.4214 27.2051C61.0276 27.5861 60.3918 27.8306 59.9311 27.5397C60.003 27.8092 59.9815 28.0951 59.87 28.3508C59.7584 28.6064 59.5635 28.8167 59.317 28.9473C59.0705 29.0778 58.7871 29.121 58.5129 29.0696C58.2387 29.0183 57.9901 28.8755 57.8076 28.6646C57.7239 28.5375 57.6143 28.4296 57.4858 28.348C57.3284 28.304 57.1619 28.304 57.0045 28.348C56.5168 28.4054 56.0228 28.3275 55.5765 28.1227C55.1302 27.9179 54.7488 27.5942 54.4743 27.1871L54.9711 27.0378C54.0162 26.8654 53.02 26.6775 52.2478 26.0906C51.4757 25.5037 51.0098 24.3892 51.4757 23.5321C51.6739 23.1614 52.0394 22.7882 51.9029 22.3918C51.8077 22.1164 51.5091 21.98 51.2414 21.877L47.8696 20.5026C47.3239 20.2812 46.7499 20.0367 46.4024 19.5605C46.0549 19.0843 46.0601 18.3018 46.5671 18.0007C46.3255 17.4548 45.9348 16.9882 45.4397 16.6545C44.8863 16.2864 44.2274 16.0985 43.6586 15.7536C43.0897 15.4087 42.5827 14.8141 42.6573 14.1526C42.7319 13.4911 43.6714 13.0201 44.1064 13.5271C44.0627 12.5207 42.2841 12.374 42.1811 11.3727C42.0962 10.562 43.1464 10.1939 43.7075 9.59929C43.6122 9.31359 43.3368 9.12054 43.2339 8.82711C43.0151 8.2351 43.6457 7.68427 44.2274 7.44232C44.8091 7.20037 45.5144 6.95842 45.6843 6.35097C45.8541 5.74352 45.3522 4.98935 45.7126 4.45654C45.8186 4.31192 45.975 4.21236 46.1509 4.17757C46.3268 4.14277 46.5093 4.17527 46.6624 4.26864C47.1772 3.13868 49.3032 4.11163 49.9879 3.07433C50.0465 2.99463 50.0773 2.89784 50.0754 2.79892C50.0627 2.71427 50.0281 2.63442 49.975 2.56726C49.7408 2.24037 49.3624 2.05247 49.0561 1.79508C48.7498 1.53768 48.5028 1.10783 48.6649 0.737182C48.8271 0.366533 49.54 0.415438 49.5117 0.819548C49.6218 0.741533 49.7482 0.689683 49.8813 0.667957C50.0144 0.646231 50.1507 0.655203 50.2798 0.694187C50.4089 0.733171 50.5274 0.801137 50.6263 0.892899C50.7251 0.98466 50.8017 1.09779 50.8502 1.22366C51.1436 0.901914 51.6893 0.932801 52.0522 1.17218C52.3996 1.44629 52.6767 1.79923 52.8604 2.20176" fill="#263238"/>
<path d="M57.851 14.9635C57.5344 13.2981 56.3478 11.9262 55.0196 10.8657C54.4902 10.388 53.8509 10.0484 53.1586 9.87735C52.4585 9.74865 51.6529 9.97516 51.2822 10.5826L51.3492 11.7692C51.151 13.6482 52.5641 15.2672 53.2127 17.0407C53.4958 17.8128 53.7275 18.7369 54.4636 19.0818C54.8682 19.2435 55.3184 19.25 55.7274 19.0998C57.3465 18.5876 58.1676 16.6288 57.851 14.9635Z" fill="#455A64"/>
<path d="M57.8049 23.6711C58.3327 22.9571 58.5929 22.0804 58.5402 21.1941C58.4876 20.3078 58.1253 19.4682 57.5167 18.8218C58.2194 17.9595 57.9826 16.6159 57.2876 15.7485C56.5926 14.881 55.5527 14.3765 54.5489 13.8978C54.0212 11.347 51.1822 9.52207 48.6443 10.1141C47.3444 8.16303 44.5388 7.82841 42.2789 8.46161C41.7399 8.65771 41.1756 8.7756 40.6032 8.81166C40.1846 8.77532 39.7685 8.71343 39.3574 8.62634C37.0718 8.2943 34.781 9.88243 33.8672 12.0059C33.7455 12.3549 33.5785 12.6863 33.3704 12.9918C33.0693 13.3727 32.6163 13.5941 32.2302 13.8849C31.8124 14.2047 31.4683 14.6107 31.2214 15.0752C30.9744 15.5398 30.8304 16.0521 30.7991 16.5773C30.7527 17.4653 31.0281 18.4125 30.6446 19.2156C30.4516 19.6197 30.1092 19.9414 29.9599 20.3636C29.5224 21.581 30.866 22.8423 30.6009 24.1087C30.5468 24.3661 30.4284 24.608 30.3435 24.8603C30.1921 25.3844 30.2351 25.9456 30.4644 26.4407C30.642 26.8165 30.9303 27.1639 30.9509 27.5809C30.9259 27.8953 30.8602 28.205 30.7553 28.5024C30.5931 29.2591 32.1993 32.196 32.8479 32.6207L52.41 32.9939C53.1508 32.8346 53.8238 32.4491 54.3361 31.8907C54.8484 31.3324 55.1746 30.6287 55.2696 29.8769C55.2629 29.6245 55.328 29.3755 55.4575 29.1587C55.6116 29.0092 55.7947 28.8927 55.9955 28.8164C57.2618 28.1549 57.4317 26.4252 57.3133 25.0018C57.2845 24.8032 57.2906 24.6011 57.3313 24.4047C57.4377 24.1305 57.5989 23.8809 57.8049 23.6711Z" fill="#263238"/>
<path d="M52.2297 23.6453C52.3223 20.1833 50.1937 16.1808 46.7729 14.4563C44.6159 13.3675 42.912 13.3444 41.7872 13.2002C40.1853 13.0281 38.569 13.3487 37.1541 14.1191C36.073 14.3611 32.0859 17.9389 31.8414 21.8616C31.5686 26.2193 31.409 31.5525 31.9264 34.8034C32.9688 41.3412 37.9803 42.17 37.9803 42.17L37.7538 47.3514L41.4062 54.126L50.8114 44.5484L52.2297 23.6453Z" fill="#FFBF9D"/>
<path d="M41.7125 33.8176C41.6822 33.4829 41.529 33.1711 41.2827 32.9425C41.0596 32.7288 40.7725 32.5943 40.4655 32.5599C40.1585 32.5255 39.8487 32.593 39.5839 32.752C39.3067 32.942 39.0853 33.2024 38.9423 33.5064C38.7993 33.8104 38.74 34.1471 38.7705 34.4817C38.9021 34.6873 39.076 34.8624 39.2806 34.9956C39.4852 35.1287 39.7158 35.2168 39.9571 35.2539C40.0343 35.2539 40.1115 35.2719 40.1887 35.2745C40.5733 35.2921 40.9506 35.1654 41.2466 34.9193C41.4024 34.7827 41.5253 34.6127 41.6059 34.4219C41.6866 34.2311 41.7231 34.0245 41.7125 33.8176Z" fill="#FF9A6C"/>
<path d="M33.3111 27.707C33.309 27.9258 33.3927 28.1367 33.5442 28.2945C33.6958 28.4524 33.9032 28.5445 34.1219 28.5512C34.2285 28.5596 34.3357 28.5466 34.4372 28.5128C34.5387 28.4791 34.6324 28.4254 34.7127 28.3549C34.7931 28.2843 34.8585 28.1984 34.9052 28.1021C34.9518 28.0059 34.9786 27.9013 34.9841 27.7945C34.9869 27.5759 34.9038 27.365 34.7527 27.2071C34.6015 27.0492 34.3944 26.957 34.1759 26.9502C34.0692 26.9418 33.9618 26.9549 33.8602 26.9886C33.7586 27.0223 33.6647 27.0759 33.5841 27.1465C33.5035 27.217 33.4379 27.3029 33.391 27.3991C33.3441 27.4954 33.3169 27.6001 33.3111 27.707Z" fill="#263238"/>
<path d="M33.324 24.3687C33.4295 24.4794 34.0653 24.0083 34.9662 24.0083C35.867 24.0083 36.5311 24.4613 36.6289 24.3507C36.6753 24.3018 36.5697 24.1061 36.2814 23.8951C35.8908 23.6245 35.4259 23.4815 34.9507 23.4858C34.4821 23.4853 34.0253 23.6331 33.6457 23.9079C33.3677 24.1216 33.2751 24.3198 33.324 24.3687Z" fill="#263238"/>
<path d="M38.6083 31.4907C38.6083 31.4392 38.0523 31.344 37.1437 31.2333C36.9121 31.2102 36.6933 31.1638 36.6547 31.0068C36.6348 30.769 36.6888 30.5308 36.8091 30.3247L37.4887 28.5693C38.4333 26.07 39.118 24.016 39.0176 23.9774C38.9172 23.9387 38.0678 25.9361 37.1231 28.4354C36.8966 29.0506 36.6779 29.6375 36.4719 30.2012C36.3267 30.4788 36.2848 30.799 36.3535 31.1046C36.3868 31.1859 36.4381 31.2586 36.5037 31.317C36.5693 31.3755 36.6473 31.4181 36.7319 31.4418C36.8597 31.4753 36.9911 31.4934 37.1231 31.4959C38.0369 31.5396 38.6057 31.5422 38.6083 31.4907Z" fill="#263238"/>
<path d="M37.9908 42.17C41.0681 42.2139 44.0974 41.404 46.7422 39.8303C46.7422 39.8303 44.4257 44.5278 37.8853 43.9203L37.9908 42.17Z" fill="#FF9A6C"/>
<path d="M41.2648 32.1136C41.118 32.1136 41.1155 33.084 40.2789 33.7815C39.4424 34.4791 38.3974 34.3684 38.3896 34.5074C38.3896 34.5666 38.6239 34.6953 39.064 34.7081C39.6378 34.7169 40.196 34.5217 40.6393 34.1573C41.0691 33.81 41.3462 33.3084 41.4115 32.7597C41.4398 32.3504 41.3317 32.1085 41.2648 32.1136Z" fill="#263238"/>
<path d="M33.6847 20.9865C33.8366 21.2079 34.529 21.0611 35.3346 21.1281C36.1403 21.195 36.8121 21.406 36.9897 21.2079C37.0695 21.11 36.9897 20.8964 36.7014 20.675C36.3186 20.3974 35.8635 20.2365 35.3913 20.2117C34.9218 20.1728 34.4511 20.2722 34.0374 20.4974C33.7362 20.6802 33.623 20.881 33.6847 20.9865Z" fill="#263238"/>
<path d="M43.0123 28.0905C43.005 28.3072 42.9141 28.5127 42.7586 28.6639C42.6031 28.815 42.3952 28.9001 42.1783 28.9013C42.0714 28.9058 41.9646 28.8888 41.8643 28.8515C41.764 28.8141 41.6722 28.757 41.5942 28.6836C41.5163 28.6103 41.4538 28.522 41.4105 28.4242C41.3671 28.3263 41.3438 28.2207 41.3418 28.1137C41.3485 27.8954 41.4397 27.6882 41.5963 27.536C41.7529 27.3837 41.9625 27.2983 42.1809 27.2977C42.2879 27.294 42.3945 27.3116 42.4945 27.3496C42.5946 27.3876 42.686 27.4453 42.7635 27.5191C42.8409 27.593 42.9028 27.6816 42.9456 27.7797C42.9883 27.8778 43.011 27.9835 43.0123 28.0905Z" fill="#263238"/>
<path d="M45.6716 24.7161C45.5635 24.8217 44.9458 24.33 44.0449 24.2966C43.144 24.2631 42.4645 24.693 42.3718 24.5797C42.3255 24.5282 42.4388 24.3223 42.7348 24.137C43.1347 23.8811 43.604 23.7553 44.0784 23.7766C44.5462 23.7921 44.997 23.9562 45.3653 24.2451C45.6382 24.469 45.7231 24.6698 45.6716 24.7161Z" fill="#263238"/>
<path d="M45.9264 21.6943C45.741 21.8925 45.0512 21.6531 44.2173 21.6119C43.3833 21.5708 42.6729 21.6943 42.5107 21.473C42.4438 21.3674 42.5622 21.1667 42.8788 20.9839C43.3116 20.7654 43.795 20.6667 44.2788 20.6979C44.7626 20.7291 45.2292 20.8892 45.6304 21.1615C45.9186 21.3803 46.0061 21.5939 45.9264 21.6943Z" fill="#263238"/>
<path d="M51.1514 29.8408C51.1514 29.3518 51.7151 28.2038 52.1964 28.1292C53.4834 27.9284 55.7999 28.0313 55.818 31.29C55.8489 35.7481 51.3676 34.8626 51.3573 34.7339C51.347 34.6052 51.1488 31.5216 51.1514 29.8408Z" fill="#FFBF9D"/>
<path d="M52.5774 33.0969C52.5954 33.0815 52.6546 33.151 52.7859 33.2102C52.9727 33.2841 53.1807 33.2841 53.3676 33.2102C53.8361 33.0326 54.2273 32.2835 54.2427 31.4805C54.2531 31.0977 54.1766 30.7175 54.0188 30.3685C53.9759 30.2295 53.8998 30.103 53.7971 29.9998C53.6944 29.8967 53.5682 29.8201 53.4294 29.7765C53.3401 29.7536 53.2457 29.7626 53.1624 29.8021C53.0792 29.8416 53.0124 29.9091 52.9738 29.9927C52.9146 30.1189 52.9429 30.2064 52.9197 30.2141C52.8966 30.2218 52.8245 30.142 52.858 29.9567C52.8815 29.8461 52.9424 29.747 53.0304 29.6761C53.1529 29.5826 53.3073 29.541 53.4603 29.5603C53.6436 29.5948 53.815 29.6758 53.9579 29.7958C54.1008 29.9157 54.2104 30.0704 54.2762 30.245C54.4695 30.6294 54.565 31.0555 54.5542 31.4856C54.5336 32.3839 54.078 33.2282 53.4345 33.4187C53.3153 33.4547 53.1894 33.4633 53.0663 33.4437C52.9432 33.4241 52.8262 33.3768 52.7241 33.3054C52.5851 33.205 52.5619 33.1046 52.5774 33.0969Z" fill="#FF9A6C"/>
<path d="M30.8325 21.9234C31.7334 21.3597 32.31 20.5927 32.2533 19.5322C32.8505 19.7098 33.4579 18.9428 33.7977 18.4254C34.1375 17.908 34.5699 17.6532 34.5467 17.0252C34.5299 16.9024 34.5449 16.7774 34.5905 16.6622C34.6806 16.4924 34.8942 16.4357 35.077 16.3791C35.5525 16.2255 35.9818 15.9551 36.3258 15.5927C36.6698 15.2303 36.9174 14.7874 37.046 14.3045C38.0054 14.7257 39.0543 14.9026 40.0987 14.8193C40.3312 15.1554 40.6451 15.4271 41.0111 15.6089C41.3771 15.7908 41.7832 15.8769 42.1915 15.8591C42.5998 15.8414 42.9969 15.7204 43.3458 15.5075C43.6946 15.2946 43.9837 14.9967 44.1862 14.6417C44.3367 14.9135 44.544 15.1496 44.7941 15.334C45.0442 15.5183 45.3311 15.6465 45.6353 15.7099C46.2433 15.8322 46.8658 15.866 47.4834 15.8103C47.3685 16.4147 47.4754 17.0403 47.7847 17.5723C48.0939 18.1042 48.5846 18.5067 49.1668 18.706C49.3238 18.7549 49.5065 18.8038 49.5812 18.9633C49.603 19.0466 49.6081 19.1334 49.5962 19.2187C49.5843 19.304 49.5555 19.386 49.5117 19.4601C49.4269 19.7165 49.3947 19.9874 49.4169 20.2565C49.439 20.5256 49.5152 20.7875 49.6409 21.0265C49.7665 21.2656 49.939 21.4768 50.1481 21.6477C50.3572 21.8186 50.5986 21.9457 50.8579 22.0212C50.6886 22.172 50.5557 22.3591 50.469 22.5685C50.3823 22.7779 50.3441 23.0042 50.3572 23.2305C50.3704 23.4567 50.4345 23.6771 50.5448 23.8751C50.6551 24.0731 50.8088 24.2436 50.9943 24.3738C51.1564 24.4716 51.3675 24.5874 51.3418 24.7753C51.3271 24.8465 51.2933 24.9124 51.2439 24.9658C50.9119 25.406 50.5824 25.8898 50.5413 26.4381C50.5001 26.9864 50.8733 27.6067 51.4241 27.6324C51.2688 27.7484 51.1385 27.8946 51.0412 28.0623C50.9439 28.2299 50.8815 28.4155 50.8579 28.6079C50.8579 28.9966 51.2439 29.3801 51.6043 29.2514C51.7587 29.1922 53.9775 28.7547 54.0753 28.6234C55.3365 26.9117 53.751 25.0199 53.6274 22.8963C53.4591 20.7666 52.7992 18.7049 51.6995 16.8733C51.2704 16.0899 50.739 15.3672 50.1191 14.7241C49.3727 14.0332 48.5507 13.4288 47.6687 12.9223C46.5413 12.2196 45.3831 11.5221 44.0909 11.2158C41.6869 10.6495 39.2004 11.5221 36.9431 12.5594C36.0751 12.9234 35.2604 13.403 34.521 13.9853C33.6872 14.7445 32.996 15.6468 32.4798 16.6494C31.6845 18.0676 31.023 19.5965 30.866 21.213" fill="#263238"/>
<path d="M29.96 20.3636C30.0135 20.1922 30.0943 20.0305 30.1993 19.8848C30.2946 19.7356 30.4284 19.5631 30.5545 19.3417C30.6986 19.0861 30.7864 18.8027 30.8119 18.5104C30.8363 18.1433 30.8303 17.7748 30.7939 17.4087C30.745 16.9673 30.7571 16.5212 30.83 16.0831C30.9277 15.5803 31.1275 15.1029 31.4168 14.6803C31.5753 14.4494 31.7602 14.2378 31.9676 14.0497C32.1884 13.8605 32.4234 13.6884 32.6703 13.5349C32.9275 13.3789 33.1571 13.1815 33.3499 12.9506C33.5264 12.6909 33.6691 12.4098 33.7746 12.1141C34.3182 10.7941 35.3161 9.71223 36.5879 9.06395C36.9303 8.89212 37.2901 8.75751 37.6612 8.66241C38.0449 8.5719 38.4381 8.52783 38.8324 8.53114C39.0338 8.53721 39.2349 8.55353 39.4347 8.58005C39.6329 8.61093 39.8285 8.65469 40.0267 8.69072C40.4197 8.77313 40.8254 8.77313 41.2184 8.69072C41.6174 8.61093 42.0086 8.46937 42.4205 8.36641C43.2597 8.14725 44.1295 8.06896 44.9944 8.13475C45.4376 8.17752 45.8756 8.26373 46.302 8.39215C47.1801 8.63639 47.9608 9.14724 48.5362 9.85415C48.5902 9.9288 48.6443 10.0034 48.7009 10.0755L48.6288 10.0472C49.9273 9.79982 51.2711 10.0596 52.3839 10.773C53.4966 11.4864 54.2936 12.5992 54.6107 13.8824L54.5772 13.8386C55.1142 14.0805 55.6352 14.3565 56.137 14.6649C56.6285 14.9652 57.0604 15.3535 57.4111 15.8103C57.7428 16.2619 57.9433 16.7963 57.9903 17.3546C58.0446 17.893 57.8908 18.4318 57.5604 18.8604V18.7858C58.1605 19.4058 58.5247 20.2162 58.59 21.0766C58.6631 21.8449 58.4997 22.6173 58.1216 23.2902C58.0346 23.4444 57.9356 23.5916 57.8256 23.7303C57.7154 23.8576 57.6123 23.9908 57.5167 24.1293C57.4285 24.2599 57.3737 24.4101 57.3571 24.5669C57.3485 24.7205 57.3528 24.8746 57.37 25.0276C57.4189 25.5922 57.4017 26.1606 57.3185 26.7213C57.2563 27.1747 57.1068 27.6117 56.8783 28.0082C56.7058 28.2992 56.4679 28.5459 56.1834 28.7289C55.9543 28.8808 55.7484 28.94 55.6351 29.0224C55.5767 29.0614 55.5224 29.1063 55.473 29.1562C55.5134 29.0961 55.566 29.0453 55.6274 29.0069C55.7381 28.9194 55.944 28.8551 56.1654 28.7006C56.441 28.5162 56.67 28.2704 56.8346 27.9825C57.0558 27.5897 57.1991 27.158 57.2567 26.711C57.3317 26.1555 57.3438 25.5934 57.2927 25.0353C57.2733 24.8774 57.2681 24.718 57.2773 24.5591C57.294 24.3889 57.3523 24.2253 57.4472 24.083C57.5427 23.9419 57.6458 23.8061 57.7561 23.6763C57.8592 23.5373 57.9521 23.3911 58.034 23.2387C58.3987 22.58 58.5532 21.8256 58.4768 21.0766C58.4135 20.243 58.0601 19.4579 57.4781 18.8578L57.442 18.8218L57.4729 18.7832C57.7851 18.3762 57.928 17.8644 57.8719 17.3546C57.8248 16.8202 57.6315 16.3091 57.3133 15.8772C56.9698 15.4349 56.5485 15.059 56.0701 14.7678C55.5728 14.4639 55.057 14.1914 54.5258 13.9519L54.4974 13.939V13.9056C54.1844 12.6583 53.4069 11.5776 52.3238 10.8844C51.2407 10.1912 49.9337 9.93776 48.67 10.1759H48.6263L48.5979 10.1399C48.5465 10.0678 48.4924 9.99829 48.4384 9.92622C47.8817 9.23212 47.1222 8.72911 46.2659 8.48738C45.8458 8.36632 45.4147 8.287 44.979 8.25058C44.1307 8.18452 43.2773 8.2602 42.4539 8.47451C42.0498 8.5749 41.6534 8.71904 41.2416 8.79883C41.0365 8.84001 40.8279 8.86071 40.6187 8.86061C40.4121 8.85528 40.2064 8.8329 40.0035 8.79369C39.8053 8.75765 39.6097 8.71389 39.4141 8.683C39.2203 8.65649 39.0253 8.64016 38.8298 8.6341C38.446 8.62921 38.063 8.67157 37.6895 8.76022C37.3266 8.85184 36.9745 8.98214 36.6394 9.14889C35.3869 9.78487 34.4028 10.8474 33.8646 12.145C33.7549 12.449 33.607 12.7379 33.4245 13.0047C33.2235 13.2422 32.9853 13.4457 32.7192 13.607C32.4732 13.7594 32.2399 13.9316 32.0217 14.1218C31.8193 14.3045 31.6388 14.5101 31.4837 14.7344C31.1964 15.1455 30.9975 15.6118 30.8995 16.1037C30.8238 16.5344 30.8074 16.9735 30.8505 17.4087C30.8838 17.7786 30.8838 18.1507 30.8505 18.5206C30.825 18.8178 30.7373 19.1063 30.5932 19.3675C30.4593 19.5914 30.3229 19.7587 30.2251 19.9054C30.1486 20.0132 30.0806 20.1268 30.0217 20.2452C29.978 20.3198 29.9625 20.3636 29.96 20.3636Z" fill="#455A64"/>
<path d="M46.554 9.13079C46.554 9.13079 46.4356 9.06386 46.2194 8.95575C45.9146 8.80588 45.5864 8.70925 45.249 8.67005C44.7499 8.60761 44.2431 8.68051 43.7819 8.88111C43.2165 9.12944 42.745 9.55137 42.4357 10.0857C42.3419 10.2484 42.2668 10.421 42.2117 10.6005C42.1831 10.6764 42.1713 10.7575 42.1771 10.8384C42.1829 10.9193 42.2061 10.9979 42.2452 11.069L42.3533 11.2208L42.1731 11.1694C41.7096 11.0428 41.215 11.1009 40.7935 11.3315C40.4603 11.5188 40.1952 11.8073 40.0367 12.1552C39.9302 12.3856 39.8707 12.635 39.8617 12.8888C39.8617 13.0664 39.8617 13.1642 39.8617 13.1667C39.8617 13.1693 39.8617 13.1436 39.8411 13.0972C39.8271 13.0286 39.8193 12.9588 39.818 12.8888C39.8097 12.5551 39.891 12.2253 40.0535 11.9337C40.2161 11.6422 40.4538 11.3995 40.742 11.2311C41.1882 10.9779 41.7162 10.9104 42.2117 11.0432L42.1397 11.1436C42.0879 11.0572 42.0564 10.9603 42.0475 10.86C42.0386 10.7597 42.0525 10.6586 42.0882 10.5645C42.1448 10.3774 42.2234 10.1976 42.3224 10.0291C42.6423 9.47126 43.1345 9.0323 43.7252 8.77816C44.2094 8.56517 44.7435 8.49206 45.267 8.56709C45.6129 8.61421 45.9466 8.72691 46.2503 8.89913C46.3327 8.94497 46.4119 8.99658 46.4871 9.05357C46.5308 9.10505 46.554 9.12564 46.554 9.13079Z" fill="#455A64"/>
<path d="M53.7743 14.2659C53.7743 14.2659 53.7279 14.3302 53.6198 14.4229C53.4614 14.5579 53.2888 14.6753 53.105 14.7729C52.8315 14.9228 52.5283 15.0107 52.217 15.0303C51.8189 15.0601 51.4241 14.9398 51.1102 14.6932L51.208 14.6777C51.1668 14.7369 51.1231 14.7987 51.0768 14.8605C51.0304 14.9222 50.9764 14.9763 50.9249 15.0355C50.616 15.3538 50.2331 15.5908 49.8104 15.7253C49.4681 15.8386 49.1069 15.8832 48.7473 15.8566C48.5063 15.8379 48.2695 15.7832 48.0446 15.6944C47.9619 15.6645 47.8839 15.6229 47.813 15.5709C48.117 15.6731 48.4326 15.7371 48.7525 15.7613C49.1021 15.7752 49.4513 15.7237 49.7821 15.6095C50.1812 15.4731 50.5428 15.2447 50.8374 14.9428C50.8863 14.8862 50.9378 14.8347 50.9815 14.7781L51.1076 14.6056L51.1514 14.5439L51.2055 14.5902C51.4936 14.8181 51.8553 14.9325 52.2222 14.9119C52.5198 14.8975 52.811 14.8203 53.0767 14.6854C53.5297 14.4641 53.7614 14.2453 53.7743 14.2659Z" fill="#455A64"/>
<path d="M56.1216 18.4048C56.1216 18.4048 56.1216 18.4331 56.1216 18.4872C56.1002 18.5635 56.0663 18.6356 56.0213 18.7008C55.8496 18.9447 55.5922 19.1147 55.3006 19.177C54.8719 19.2537 54.4303 19.2046 54.029 19.0354C53.7897 18.9562 53.5551 18.8634 53.3263 18.7575C53.0619 18.6482 52.8443 18.4496 52.7112 18.1963C52.7112 18.1706 52.6931 18.1449 52.6828 18.1243L52.7884 18.1552C52.3901 18.4843 51.944 18.7507 51.4654 18.9454C51.0674 19.1033 50.6336 19.1478 50.2118 19.0741C49.9283 19.0253 49.6622 18.9038 49.4397 18.7214C49.3795 18.672 49.3251 18.6158 49.2775 18.5541C49.2466 18.5129 49.2312 18.4898 49.2363 18.4872C49.2415 18.4846 49.3135 18.5644 49.4706 18.6802C49.694 18.8395 49.9528 18.942 50.2247 18.9788C50.6288 19.0376 51.0412 18.9869 51.419 18.8321C51.8831 18.6383 52.3166 18.3782 52.706 18.0599L52.7781 18.0033L52.8115 18.0908L52.8347 18.1526C52.9546 18.3766 53.1483 18.5521 53.383 18.6494C53.612 18.76 53.8488 18.8475 54.0702 18.9299C54.4502 19.0967 54.8692 19.1538 55.28 19.0946C55.5538 19.0441 55.8009 18.8982 55.9775 18.6828C56.0329 18.5941 56.0811 18.5012 56.1216 18.4048Z" fill="#455A64"/>
<path d="M60.9297 2.49522C60.9297 2.49522 60.8525 2.49522 60.7187 2.53383C60.524 2.58783 60.3501 2.69902 60.2193 2.853C60.0142 3.09093 59.8954 3.39112 59.8821 3.70497C59.8761 4.11589 59.9316 4.5254 60.0469 4.91988L60.0649 4.99195H59.9902C59.4383 4.97666 58.8963 5.14106 58.4459 5.46041C58.193 5.63655 57.9848 5.86928 57.8378 6.14008C57.6908 6.41088 57.609 6.71225 57.599 7.02022C57.5849 7.30083 57.6359 7.58089 57.748 7.83852C57.8601 8.09616 58.0302 8.32439 58.2451 8.50539L58.3944 8.62379H58.2039C57.8861 8.62389 57.5718 8.6898 57.2808 8.81739C56.9897 8.94497 56.7282 9.13146 56.5128 9.36509C56.1694 9.74071 55.9666 10.2237 55.9388 10.7319C55.9183 11.0665 55.9692 11.4017 56.0881 11.7151C56.1705 11.9365 56.24 12.0446 56.2323 12.0523C56.2096 12.0296 56.1905 12.0035 56.1756 11.9751C56.1259 11.8982 56.0829 11.8173 56.0469 11.7331C55.9092 11.4161 55.8441 11.0722 55.8565 10.7267C55.873 10.1946 56.0762 9.68524 56.4305 9.28787C56.6544 9.03938 56.9279 8.84047 57.2333 8.70394C57.5388 8.56741 57.8694 8.49628 58.2039 8.4951L58.1653 8.61092C57.9331 8.41778 57.749 8.1733 57.6275 7.89679C57.506 7.62028 57.4504 7.31932 57.4652 7.01765C57.4687 6.68105 57.5573 6.35079 57.7226 6.05757C57.8844 5.78155 58.1028 5.54294 58.3635 5.35745C58.8372 5.02521 59.407 4.85789 59.9851 4.88127L59.9285 4.95077C59.8156 4.5447 59.767 4.12349 59.7843 3.7024C59.8043 3.37113 59.939 3.05716 60.1653 2.81439C60.3072 2.65694 60.4957 2.54876 60.7032 2.50551C60.7566 2.49472 60.811 2.4904 60.8654 2.49264C60.9117 2.49007 60.9297 2.49264 60.9297 2.49522Z" fill="#455A64"/>
<path d="M68.8654 12.1707C68.8654 12.1707 68.8422 12.1887 68.7933 12.2145C68.7444 12.2402 68.6698 12.2788 68.5694 12.3174C68.2811 12.4269 67.9785 12.4945 67.6711 12.5182C67.1977 12.5554 66.7216 12.4976 66.2708 12.3483C65.6907 12.1602 65.1721 11.8187 64.7702 11.3599H64.8706C64.6589 11.7234 64.3688 12.0351 64.0215 12.2724C63.6743 12.5097 63.2785 12.6666 62.8629 12.7318C62.4156 12.7925 61.9605 12.7108 61.5623 12.4982C61.164 12.2857 60.8428 11.9532 60.6442 11.5478H60.76C60.6502 11.8422 60.4647 12.1024 60.222 12.302C60.0049 12.4825 59.7574 12.6228 59.491 12.7164C59.053 12.8583 58.5897 12.9057 58.132 12.8554C57.8372 12.8284 57.5447 12.7802 57.2568 12.7112C57.1535 12.6924 57.0519 12.6649 56.9531 12.6289C57.0579 12.6351 57.1621 12.6497 57.2646 12.6726C57.5533 12.7244 57.8445 12.7605 58.1371 12.7807C58.5829 12.8164 59.0312 12.7612 59.455 12.6186C59.7219 12.531 59.9665 12.3861 60.1715 12.194C60.3764 12.0019 60.5369 11.7673 60.6416 11.5066L60.6957 11.3573L60.7574 11.5015C60.9475 11.8795 61.2508 12.1887 61.625 12.3862C61.9991 12.5837 62.4256 12.6595 62.8449 12.6031C63.2409 12.5402 63.6182 12.3908 63.95 12.1658C64.2819 11.9407 64.5601 11.6454 64.7651 11.3007L64.8088 11.2261L64.8655 11.293C65.2513 11.738 65.7489 12.0721 66.3069 12.2608C66.7427 12.4141 67.2046 12.4798 67.6659 12.4539C68.0778 12.4207 68.4822 12.3252 68.8654 12.1707Z" fill="#455A64"/>
<path d="M64.1779 18.6828C64.1779 18.6828 64.1779 18.7188 64.1264 18.7652C64.0542 18.8279 63.9643 18.8666 63.8691 18.8759C63.5319 18.9034 63.1931 18.8468 62.8832 18.7111C62.416 18.5203 62.02 18.1882 61.7507 17.7613C61.4233 17.232 61.3075 16.5988 61.4264 15.9879V15.975L61.5216 16.0471C60.9673 16.3164 60.3416 16.4021 59.7353 16.2916C59.2451 16.2018 58.782 16.0011 58.3814 15.7047C58.1141 15.5066 57.8743 15.2738 57.6684 15.0124C57.5896 14.9191 57.523 14.8162 57.4702 14.7061C57.752 15.0525 58.0763 15.3621 58.4354 15.6275C58.83 15.9035 59.2811 16.0881 59.7559 16.1681C60.3349 16.267 60.9304 16.1833 61.4598 15.9287L61.5808 15.8669L61.5577 16.0008V16.0136C61.4524 16.5387 61.5301 17.0841 61.7779 17.5589C62.0256 18.0337 62.4284 18.4095 62.9193 18.6236C63.2138 18.7618 63.5361 18.8305 63.8613 18.8244C63.9208 18.8229 63.9795 18.8096 64.0338 18.7853C64.0881 18.761 64.1371 18.7262 64.1779 18.6828Z" fill="#455A64"/>
<path d="M51.1873 2.64709C51.0362 3.08724 50.9673 3.55139 50.9839 4.01644C51.025 4.75342 51.3315 5.4506 51.8468 5.97912C52.3621 6.50763 53.0512 6.83174 53.7869 6.89154H53.8693L53.8436 6.97133C53.5824 7.81474 53.6133 8.72156 53.9311 9.54528C53.9802 9.68296 54.0404 9.8164 54.1113 9.94425C54.134 9.99087 54.1672 10.0316 54.2083 10.0633C54.2494 10.095 54.2972 10.1168 54.3481 10.127C54.3798 10.131 54.412 10.1283 54.4427 10.119C54.4733 10.1097 54.5016 10.094 54.5257 10.0729C54.5566 10.0395 54.5643 10.0137 54.5694 10.0163C54.5746 10.0189 54.5694 10.0446 54.5437 10.0884C54.5192 10.1171 54.4882 10.1396 54.4533 10.1539C54.4184 10.1683 54.3805 10.174 54.3429 10.1708C54.2834 10.1646 54.2263 10.1441 54.1765 10.1109C54.1267 10.0777 54.0858 10.0329 54.0572 9.98028C53.9772 9.85256 53.9083 9.71822 53.8513 9.57874C53.5011 8.73975 53.4547 7.80486 53.72 6.9353L53.7766 7.02024C53.408 6.99345 53.0472 6.90106 52.711 6.7474C52.1791 6.51328 51.725 6.13216 51.4021 5.64885C51.0793 5.16553 50.9012 4.60009 50.8887 4.01901C50.876 3.67002 50.9248 3.32153 51.0328 2.98943C51.0622 2.90138 51.0975 2.81539 51.1383 2.73204C51.1504 2.70149 51.1669 2.67288 51.1873 2.64709Z" fill="#455A64"/>
<path d="M54.2376 28.2965V27.586L47.0974 25.2978C44.5518 24.209 40.9199 24.8396 38.7887 26.1549L36.938 26.2038L36.956 26.1755C34.8377 24.505 31.2676 24.1678 28.498 25.375L28.565 25.671C28.565 25.689 28.583 25.7328 28.5959 25.7946L28.6576 26.052C29.0309 27.6941 29.471 29.4316 29.9111 29.8974C30.2071 30.2115 31.1981 30.3839 32.0166 30.4714C32.3255 30.5075 32.6086 30.5281 32.812 30.5435C33.0565 30.559 35.2264 30.6954 35.597 30.3608C35.9676 30.0261 36.6884 27.3492 36.884 26.5436L38.781 26.5024C39.0075 27.1382 39.3936 29.9901 40.3048 30.5641C41.2159 31.1381 45.2107 30.9656 45.6637 30.3067C45.9855 29.8357 47.1 27.0378 47.3522 26.1549L47.3908 26.0777L54.2376 28.2965ZM35.3834 30.0982C34.9793 30.4174 30.6576 30.1935 30.1454 29.6529C29.713 29.1948 29.1801 26.8525 28.9794 25.9722V25.9361C31.4504 24.9966 34.6678 25.2952 36.5108 26.7083C36.1453 28.0983 35.615 29.882 35.3834 30.0905V30.0982ZM45.3986 30.0982C45.1155 30.5152 41.4244 30.855 40.4849 30.263C39.8312 29.8537 39.4862 27.8615 39.198 26.7186C41.2803 25.4728 44.8401 24.9477 47.1 26.07C46.6551 27.4595 46.0857 28.806 45.3986 30.0931V30.0982Z" fill="#263238"/>
<g opacity="0.3">
<path d="M39.5713 26.9478C39.5713 26.9478 39.96 29.7405 40.763 29.8692C41.5661 29.9979 42.5236 25.7792 42.5236 25.7792C42.5236 25.7792 40.0809 26.2631 39.5713 26.9478Z" fill="white"/>
</g>
<g opacity="0.3">
<path d="M29.2886 26.052C29.2886 26.052 29.6772 29.2231 30.4803 29.3518C31.2834 29.4805 32.8973 25.617 32.8973 25.617C32.8973 25.617 29.7982 25.3674 29.2886 26.052Z" fill="white"/>
</g>
<path d="M54.0495 77.7163C53.2001 76.8231 50.5001 74.5761 49.7021 74.2595C48.9042 73.9429 46.4203 79.778 46.2607 81.307C46.1012 82.8359 46.966 84.8436 48.0419 86.1846C49.5863 88.0996 53.2902 90.4496 54.6956 91.1034C56.101 91.7572 60.1009 94.0454 62.5204 88.9001C64.9399 83.7548 64.631 83.796 65.3131 81.675C66.3659 78.3907 67.2385 71.9146 67.7687 67.9739C68.2204 64.3729 68.3676 60.7402 68.2088 57.1144C68.039 53.9253 67.1432 51.0553 64.9991 49.0811C63.1974 47.4209 57.1846 61.9689 57.1846 62.0976C57.1846 62.2263 54.415 77.6854 54.415 77.6854" fill="#455A64"/>
<path d="M34.1657 58.9445C34.1657 58.9445 33.5891 57.9561 35.6766 57.6575C37.7641 57.359 39.2647 57.6962 39.7331 57.8969C40.2016 58.0977 42.8219 60.5661 43.0278 61.0449C43.5941 62.3318 44.5413 66.2314 44.5413 66.2314L45.8283 68.0512L42.8039 73.4796C42.5254 73.1542 42.2234 72.8497 41.9004 72.5684C41.4474 72.1875 40.0858 71.7345 39.8104 70.5942C39.5351 69.6722 39.1632 68.7818 38.701 67.9379C38.701 67.9379 33.6252 66.8388 33.1747 66.6098C32.7243 66.3807 32.7577 65.6986 32.7577 65.6986C32.2257 65.6402 31.6978 65.5482 31.1773 65.4232C30.8993 65.3099 30.2533 64.3936 31.3318 63.9122C32.4103 63.4309 35.9906 63.1555 36.4797 63.1555C36.9687 63.1555 39.2956 63.4592 39.2956 63.4592C39.2956 63.4592 36.2377 62.7694 35.3008 62.6871C34.3639 62.6047 32.2455 62.6587 31.9058 62.5815C31.4811 62.4837 31.2005 61.485 31.9959 61.1221C32.9585 60.6819 34.4952 60.5455 34.8452 60.5327C36.2017 60.4838 39.4552 60.9831 39.4552 60.9831L38.2814 59.6781C37.3266 59.5045 36.3607 59.3987 35.3909 59.3615C34.9494 59.3514 34.5217 59.2058 34.1657 58.9445Z" fill="#FFBF9D"/>
<path d="M41.4062 71.9352L49.9132 84.666C49.9132 84.666 53.5167 80.2671 53.7741 77.0651L53.9337 75.4924L44.4101 66.2262L41.4062 71.9352Z" fill="#FFBF9D"/>
<path d="M38.9767 65.7217C38.6671 65.7048 38.3587 65.6713 38.0527 65.6214C37.4864 65.5544 36.6988 65.485 35.8262 65.4695C34.9536 65.4541 34.1634 65.503 33.5946 65.5519C33.2873 65.5933 32.978 65.6182 32.668 65.6265C32.7457 65.5958 32.827 65.575 32.9099 65.5647C33.0695 65.5313 33.2986 65.4952 33.5843 65.4592C34.3286 65.3653 35.0786 65.324 35.8288 65.3357C36.5778 65.3483 37.3251 65.412 38.0655 65.5261C38.3513 65.5725 38.5803 65.6162 38.7348 65.6523C38.8181 65.6648 38.8994 65.6882 38.9767 65.7217Z" fill="#FF9A6C"/>
<path d="M59.375 76.6764C59.2641 76.6188 59.1589 76.5507 59.0609 76.4731L58.2373 75.8811C57.5449 75.3663 56.5925 74.6688 55.5475 73.8837C55.0682 73.5011 54.5506 73.169 54.0031 72.8927C53.7628 72.7841 53.5129 72.6979 53.2567 72.6353C53.0336 72.5751 52.8051 72.5372 52.5746 72.5221C52.2426 72.4941 51.9102 72.5715 51.6248 72.7434C51.4266 72.8696 51.3391 72.9725 51.3288 72.9648C51.3185 72.9571 51.3468 72.9339 51.388 72.885C51.4504 72.8157 51.5203 72.7535 51.5965 72.6997C51.8846 72.5016 52.2307 72.4056 52.5797 72.4269C52.8167 72.437 53.0521 72.4706 53.2824 72.5272C53.5477 72.5874 53.8063 72.6736 54.0546 72.7846C54.6102 73.0587 55.1341 73.3927 55.617 73.7807C56.6646 74.5684 57.6067 75.2839 58.2836 75.809L59.0841 76.4371C59.1886 76.5072 59.286 76.5874 59.375 76.6764Z" fill="#263238"/>
<path d="M63.4782 76.7021C63.4602 76.7202 63.1616 76.3727 62.6108 75.8965C62.2842 75.6178 61.9403 75.3599 61.5812 75.1243C60.7118 74.5477 59.756 74.1133 58.7499 73.8373C58.3379 73.7251 57.9192 73.6391 57.4964 73.5799C56.7705 73.477 56.3149 73.4796 56.3149 73.4538C56.4211 73.4354 56.5291 73.4294 56.6367 73.4358C56.7618 73.4286 56.8873 73.4286 57.0125 73.4358C57.1566 73.4358 57.3239 73.4487 57.5067 73.4744C57.9408 73.5223 58.3709 73.6014 58.7936 73.7112C59.3052 73.8497 59.8052 74.0279 60.2891 74.244C60.7697 74.4658 61.2326 74.724 61.6739 75.0162C62.0315 75.2603 62.3713 75.5295 62.6906 75.8219C62.8296 75.9428 62.948 76.0664 63.0458 76.1693C63.1363 76.2575 63.2223 76.3503 63.3032 76.4473C63.3709 76.5255 63.4296 76.6109 63.4782 76.7021Z" fill="#263238"/>
<path d="M62.0392 49.1713C61.9483 49.2798 61.8494 49.3813 61.7432 49.475C61.6429 49.5677 61.5245 49.6835 61.3932 49.8276C61.2619 49.9718 61.1023 50.1211 60.9479 50.3115C60.7935 50.502 60.6133 50.695 60.4331 50.9241C60.2529 51.1532 60.0805 51.4003 59.8951 51.6628C59.1161 52.824 58.5254 54.101 58.1449 55.4466C58.0651 55.758 57.9827 56.0514 57.9312 56.3346C57.8797 56.6177 57.8257 56.8777 57.7897 57.1068C57.7536 57.3358 57.7305 57.5675 57.7099 57.7605C57.6893 57.9536 57.6738 58.1183 57.6661 58.2547C57.6642 58.3971 57.6513 58.5391 57.6275 58.6794C57.6111 58.5376 57.6068 58.3947 57.6146 58.2522C57.6146 58.1157 57.6146 57.9484 57.6352 57.7528C57.6558 57.5572 57.6584 57.3384 57.6944 57.0939C57.7305 56.8494 57.7613 56.5791 57.8205 56.3011C57.8797 56.0231 57.9492 55.7194 58.0265 55.4028C58.3971 54.0393 58.9949 52.7479 59.7948 51.5831C59.9827 51.3257 60.1603 51.0683 60.3456 50.8469C60.5309 50.6255 60.7034 50.4171 60.8604 50.2369C61.0174 50.0567 61.1847 49.8997 61.3237 49.7633C61.4405 49.6446 61.5633 49.5321 61.6918 49.4261C61.8003 49.3316 61.9165 49.2463 62.0392 49.1713Z" fill="#263238"/>
<path d="M54.0495 77.7163C53.2001 76.8231 50.5001 74.5761 49.7021 74.2595C48.9042 73.9429 46.4203 79.778 46.2607 81.307C46.1012 82.8359 46.966 84.8436 48.0419 86.1846C49.5863 88.0996 53.2902 90.4496 54.6956 91.1034C56.101 91.7572 60.1009 94.0454 62.5204 88.9001C64.9399 83.7548 64.631 83.796 65.3131 81.675C66.3659 78.3907 67.2385 71.9146 67.7687 67.9739C68.2204 64.3729 68.3676 60.7402 68.2088 57.1144C68.039 53.9253 67.1432 51.0553 64.9991 49.0811C63.1974 47.4209 57.1846 61.9689 57.1846 62.0976C57.1846 62.2263 54.415 77.6854 54.415 77.6854" fill="#455A64"/>
<path d="M34.1657 58.9445C34.1657 58.9445 33.5891 57.9561 35.6766 57.6575C37.7641 57.359 39.2647 57.6962 39.7331 57.8969C40.2016 58.0977 42.8219 60.5661 43.0278 61.0449C43.5941 62.3318 44.5413 66.2314 44.5413 66.2314L45.8283 68.0512L42.8039 73.4796C42.5254 73.1542 42.2234 72.8497 41.9004 72.5684C41.4474 72.1875 40.0858 71.7345 39.8104 70.5942C39.5351 69.6722 39.1632 68.7818 38.701 67.9379C38.701 67.9379 33.6252 66.8388 33.1747 66.6098C32.7243 66.3807 32.7577 65.6986 32.7577 65.6986C32.2257 65.6402 31.6978 65.5482 31.1773 65.4232C30.8993 65.3099 30.2533 64.3936 31.3318 63.9122C32.4103 63.4309 35.9906 63.1555 36.4797 63.1555C36.9687 63.1555 39.2956 63.4592 39.2956 63.4592C39.2956 63.4592 36.2377 62.7694 35.3008 62.6871C34.3639 62.6047 32.2455 62.6587 31.9058 62.5815C31.4811 62.4837 31.2005 61.485 31.9959 61.1221C32.9585 60.6819 34.4952 60.5455 34.8452 60.5327C36.2017 60.4838 39.4552 60.9831 39.4552 60.9831L38.2814 59.6781C37.3266 59.5045 36.3607 59.3987 35.3909 59.3615C34.9494 59.3514 34.5217 59.2058 34.1657 58.9445Z" fill="#FFBF9D"/>
<path d="M41.4062 71.9352L49.9132 84.666C49.9132 84.666 53.5167 80.2671 53.7741 77.0651L53.9337 75.4924L44.4101 66.2262L41.4062 71.9352Z" fill="#FFBF9D"/>
<path d="M38.9767 65.7217C38.6671 65.7048 38.3587 65.6713 38.0527 65.6214C37.4864 65.5544 36.6988 65.485 35.8262 65.4695C34.9536 65.4541 34.1634 65.503 33.5946 65.5519C33.2873 65.5933 32.978 65.6182 32.668 65.6265C32.7457 65.5958 32.827 65.575 32.9099 65.5647C33.0695 65.5313 33.2986 65.4952 33.5843 65.4592C34.3286 65.3653 35.0786 65.324 35.8288 65.3357C36.5778 65.3483 37.3251 65.412 38.0655 65.5261C38.3513 65.5725 38.5803 65.6162 38.7348 65.6523C38.8181 65.6648 38.8994 65.6882 38.9767 65.7217Z" fill="#FF9A6C"/>
<path d="M59.375 76.6764C59.2641 76.6188 59.1589 76.5507 59.0609 76.4731L58.2373 75.8811C57.5449 75.3663 56.5925 74.6688 55.5475 73.8837C55.0682 73.5011 54.5506 73.169 54.0031 72.8927C53.7628 72.7841 53.5129 72.6979 53.2567 72.6353C53.0336 72.5751 52.8051 72.5372 52.5746 72.5221C52.2426 72.4941 51.9102 72.5715 51.6248 72.7434C51.4266 72.8696 51.3391 72.9725 51.3288 72.9648C51.3185 72.9571 51.3468 72.9339 51.388 72.885C51.4504 72.8157 51.5203 72.7535 51.5965 72.6997C51.8846 72.5016 52.2307 72.4056 52.5797 72.4269C52.8167 72.437 53.0521 72.4706 53.2824 72.5272C53.5477 72.5874 53.8063 72.6736 54.0546 72.7846C54.6102 73.0587 55.1341 73.3927 55.617 73.7807C56.6646 74.5684 57.6067 75.2839 58.2836 75.809L59.0841 76.4371C59.1886 76.5072 59.286 76.5874 59.375 76.6764Z" fill="#263238"/>
<path d="M57.1846 62.1053C57.1866 62.1742 57.1823 62.2432 57.1717 62.3113C57.1563 62.4605 57.1331 62.6562 57.1074 62.9033C57.043 63.4309 56.9529 64.1722 56.85 65.0783L55.9311 72.2467C55.8564 72.8104 55.7843 73.3612 55.7149 73.8889L55.6505 73.8142C58.0958 73.8142 60.2244 74.4269 61.5706 75.1759C62.1053 75.4586 62.5996 75.8118 63.0403 76.226C63.1595 76.3369 63.2721 76.4546 63.3775 76.5787C63.417 76.6187 63.4524 76.6627 63.483 76.7099C63.483 76.7099 63.3209 76.5426 63.0069 76.2621C62.558 75.8659 62.0618 75.527 61.5294 75.2531C60.1858 74.5324 58.0752 73.9481 55.6505 73.9455H55.563V73.8709C55.6325 73.3432 55.7046 72.7924 55.7766 72.2287C56.1498 69.4385 56.487 66.9109 56.7341 65.068C56.8628 64.1619 56.9658 63.4232 57.0404 62.8981C57.0765 62.6407 57.1074 62.4554 57.1305 62.3087C57.1417 62.2393 57.1598 62.1711 57.1846 62.1053Z" fill="#263238"/>
<path d="M62.0392 49.1713C61.9483 49.2798 61.8494 49.3813 61.7432 49.475C61.6429 49.5677 61.5245 49.6835 61.3932 49.8276C61.2619 49.9718 61.1023 50.1211 60.9479 50.3115C60.7935 50.502 60.6133 50.695 60.4331 50.9241C60.2529 51.1532 60.0805 51.4003 59.8951 51.6628C59.1161 52.824 58.5254 54.101 58.1449 55.4466C58.0651 55.758 57.9827 56.0514 57.9312 56.3346C57.8797 56.6177 57.8257 56.8777 57.7897 57.1068C57.7536 57.3358 57.7305 57.5675 57.7099 57.7605C57.6893 57.9536 57.6738 58.1183 57.6661 58.2547C57.6642 58.3971 57.6513 58.5391 57.6275 58.6794C57.6111 58.5376 57.6068 58.3947 57.6146 58.2522C57.6146 58.1157 57.6146 57.9484 57.6352 57.7528C57.6558 57.5572 57.6584 57.3384 57.6944 57.0939C57.7305 56.8494 57.7613 56.5791 57.8205 56.3011C57.8797 56.0231 57.9492 55.7194 58.0265 55.4028C58.3971 54.0393 58.9949 52.7479 59.7948 51.5831C59.9827 51.3257 60.1603 51.0683 60.3456 50.8469C60.5309 50.6255 60.7034 50.4171 60.8604 50.2369C61.0174 50.0567 61.1847 49.8997 61.3237 49.7633C61.4405 49.6446 61.5633 49.5321 61.6918 49.4261C61.8003 49.3316 61.9165 49.2463 62.0392 49.1713Z" fill="#263238"/>
<path d="M17.322 68.6149C17.322 68.6149 15.1419 63.2251 15.564 61.4078C15.5905 61.2994 15.6525 61.2029 15.7402 61.1339C15.828 61.0648 15.9363 61.0272 16.0479 61.0269C16.1377 61.0257 16.2262 61.0491 16.3037 61.0944C16.3813 61.1398 16.445 61.2054 16.4881 61.2843L19.3194 66.7436C19.3194 66.7436 19.6952 65.7449 20.5111 65.3949C21.3761 65.0752 22.2567 64.7995 23.1494 64.5687L25.708 64.8878C25.8071 64.8998 25.901 64.9391 25.9791 65.0014C26.0572 65.0637 26.1164 65.1466 26.1501 65.2406C26.1838 65.3347 26.1906 65.4363 26.1698 65.534C26.149 65.6317 26.1013 65.7217 26.0323 65.7939C25.6129 66.1867 25.0624 66.4096 24.4879 66.4193C22.6321 66.5738 22.1482 67.001 22.1482 67.001L21.2216 68.5969C21.2216 68.5969 23.1778 67.2584 23.7955 67.207C24.2768 67.1683 26.9409 67.1117 28.0966 67.0885C28.3102 67.0819 28.5204 67.1434 28.6967 67.2642C28.873 67.385 29.0063 67.5588 29.0773 67.7604C29.1982 68.1284 29.1133 68.5325 28.2896 68.7513C28.2896 68.7513 29.1931 69.2198 27.9653 69.8324C27.2168 70.1975 26.4426 70.5072 25.6487 70.759L23.8985 71.9404L20.9667 73.9996L17.5202 71.6341C17.5202 71.6341 16.2924 70.3317 17.0569 69.243C17.1702 69.045 17.2593 68.8342 17.322 68.6149Z" fill="#FFBF9D"/>
<path d="M25.865 70.3908C25.865 70.3908 27.5071 71.791 27.8675 72.6662C28.2278 73.5413 28.5367 74.4293 27.973 76.54C27.4093 78.6506 22.6887 76.54 22.6887 76.54C22.5574 75.6751 21.5021 74.6353 20.3232 73.5696L24.7298 70.3136L25.865 70.3908Z" fill="#FFBF9D"/>
<path d="M19.7851 65.9971C19.7124 66.1479 19.6263 66.2917 19.5277 66.427C19.3553 66.6844 19.1287 67.0524 18.8816 67.4565C18.39 68.2751 17.973 68.9288 17.937 68.9057C17.9917 68.7445 18.0661 68.5906 18.1584 68.4475C18.3077 68.1721 18.5187 67.7963 18.7658 67.387C19.242 66.566 19.7491 65.9662 19.7851 65.9971Z" fill="#FF9A6C"/>
<path d="M28.3537 68.7152C28.2702 68.7408 28.1836 68.7546 28.0963 68.7564L27.3808 68.8156C26.7759 68.8619 25.9368 68.9082 25.0179 68.9623C24.0707 68.9623 23.4323 69.5903 22.9587 69.9533C22.715 70.1758 22.4571 70.3821 22.1865 70.571C22.2382 70.4994 22.2978 70.4337 22.3641 70.3754C22.4851 70.257 22.6627 70.0845 22.8789 69.8812C23.1427 69.6383 23.425 69.4162 23.7232 69.2171C23.903 69.0975 24.0989 69.004 24.3049 68.9391C24.5274 68.8808 24.7549 68.8438 24.9844 68.8284C25.911 68.7744 26.745 68.7409 27.3524 68.7203C27.6536 68.7203 27.9007 68.7049 28.0706 68.7049C28.165 68.6955 28.2602 68.6989 28.3537 68.7152Z" fill="#FF9A6C"/>
<path d="M21.3295 68.6277C21.3526 68.6586 21.2008 68.8079 21.0463 69.0189C20.8919 69.23 20.7889 69.4205 20.758 69.4076C20.7272 69.3947 20.758 69.1682 20.9382 68.9391C21.1184 68.71 21.2986 68.5968 21.3295 68.6277Z" fill="#FF9A6C"/>
<path d="M27.8057 69.9662C27.6685 70.0594 27.5185 70.1322 27.3604 70.1824C27.0798 70.2957 26.6834 70.4398 26.2484 70.5891C25.3784 70.8928 24.7041 71.2146 24.686 71.1811C25.1533 70.8684 25.6642 70.6264 26.2021 70.463C26.6397 70.3059 27.0412 70.1824 27.3295 70.0923C27.4823 70.0305 27.6423 69.9882 27.8057 69.9662Z" fill="#FF9A6C"/>
</svg>
