<svg width="104" height="134" viewBox="0 0 104 134" fill="none" xmlns="http://www.w3.org/2000/svg">
<path d="M45.626 94.8511C45.465 95.2779 35.4473 106.456 33.2161 109.713C30.693 113.397 30.1614 116.511 30.0379 117.241C29.3416 121.415 28.8212 124.354 26.927 128.902C25.0328 133.451 21.293 143.057 21.293 143.057L12.447 140.777C12.447 140.777 17.6618 118.525 18.1334 114.819C18.6051 111.113 19.3988 108.242 21.454 104.835C23.5092 101.428 32.576 82.8344 32.576 82.8344L46.9062 88.8577L45.626 94.8511Z" fill="#263238"/>
<path d="M52.0502 63.2296C52.0502 63.2296 49.1527 63.2707 48.726 63.5365C48.2992 63.8023 46.5959 65.1126 46.5959 65.4083C46.5978 65.5876 46.5567 65.7647 46.4761 65.9249C46.4761 65.9249 45.4055 67.4223 45.8884 68.0625C46.3713 68.7026 46.7269 68.9122 46.7157 69.1106C46.7045 69.3091 46.8579 69.9979 47.266 70.185C47.6597 70.3559 48.0237 70.5884 48.3441 70.8738C48.5265 71.1573 48.7441 71.4164 48.9918 71.645C49.2816 71.8274 49.5936 71.9721 49.9202 72.0755C50.0114 72.2506 50.1483 72.3976 50.3164 72.5011C50.4844 72.6046 50.6774 72.6606 50.8748 72.6633C51.4887 72.6071 52.608 71.4391 52.9711 71.0049C53.4241 70.4621 54.5771 69.5075 54.7269 69.0245C54.8173 68.7284 54.9325 68.4404 55.0713 68.1635L57.8789 65.5094L53.499 61.1107L52.0502 63.2296Z" fill="#FFBF9D"/>
<path d="M46.3859 66.1644C46.7163 65.9021 47.0243 65.6129 47.3068 65.2996C47.6327 65.032 47.9346 64.7364 48.209 64.4161C47.4433 64.8079 46.8094 65.4158 46.3859 66.1644Z" fill="#FF9A6C"/>
<path d="M53.5884 33.6855C53.5884 33.6855 56.9202 36.5082 57.7063 37.2157C58.4925 37.9232 68.7348 46.5259 69.4198 50.4191C69.8541 52.9123 67.9224 54.8627 66.8855 56.4986C66.1368 57.719 61.5247 66.1045 57.2159 66.3479C56.9614 66.3479 55.6624 67.9501 55.6624 67.9501L50.9867 63.9632C51.6461 63.1386 52.2383 62.2623 52.7574 61.3428C54.6292 57.8313 58.7059 52.3583 58.5786 52.1112C57.6689 50.4079 59.8289 50.8122 59.8289 50.8122L50.8669 42.5952L53.5884 33.6855Z" fill="#FF725E"/>
<path d="M68.4016 47.8361C68.4016 47.8361 69.0492 46.6793 68.4016 45.7135C67.754 44.7476 58.6273 37.3691 58.6273 37.3691C58.6273 37.3691 58.1818 37.4852 57.8561 38.2189C57.5304 38.9527 67.9636 48.1842 67.9636 48.1842L68.4016 47.8361Z" fill="#263238"/>
<path d="M65.2124 45.0958C65.2124 45.0958 59.9715 51.0068 59.2227 50.8121C58.474 50.6175 54.8428 47.8772 54.6781 46.9862C54.5134 46.0953 59.6682 39.8735 59.6682 39.8735L65.2124 45.0958Z" fill="#263238"/>
<path d="M72.6393 7.47706C71.49 7.75034 70.5916 8.67874 69.5397 9.2515C67.5668 10.3221 65.1747 10.0376 63.2955 9.1654C61.4162 8.29315 59.8888 6.91928 58.2005 5.75878C56.5122 4.59829 55.172 3.4303 52.7349 3.20944C48.4336 2.83508 44.1248 6.61979 46.079 9.83549L49.6915 11.0971C51.3794 16.1439 54.7996 20.4302 59.346 23.1962C60.252 23.7465 61.2777 24.2556 62.4045 24.1133C63.5313 23.9711 64.6768 22.8967 64.4372 21.8672C66.2266 22.2416 68.0685 22.586 69.9402 22.3052C71.812 22.0244 73.7549 20.98 74.586 19.3104C75.417 17.6408 74.6833 15.3871 72.8789 15.0615C74.5448 14.0395 75.9711 12.3736 76.0759 10.5692C76.1807 8.76484 74.5111 7.03158 72.6393 7.47706Z" fill="#263238"/>
<path d="M36.7427 0.237056C39.0711 -0.395601 41.2349 0.31567 43.3725 1.4537C45.5428 2.68321 47.2869 4.54493 48.3724 6.79078C49.4579 9.03663 49.8331 11.56 49.4482 14.0245C49.2246 15.2799 48.7492 16.4771 48.0505 17.5438C47.3518 18.6105 46.4443 19.5247 45.3827 20.2313C42.4515 22.103 38.4572 21.9308 35.4998 20.1152C32.5424 18.2996 30.6332 15.0053 30.1578 11.565C29.7988 9.18169 30.1983 6.74587 31.2996 4.60202C31.8583 3.54022 32.6295 2.60476 33.5653 1.85383C34.501 1.1029 35.5813 0.552558 36.7389 0.237056" fill="#263238"/>
<path d="M44.2636 7.63797C43.8293 6.76573 43.8668 5.74 43.6347 4.79289C43.1256 2.70774 42.1597 0.862178 40.1083 0.229521C38.1991 -0.358214 35.0732 0.341826 32.9356 1.27022C31.4466 1.88421 30.1636 2.91013 29.237 4.22761C28.6529 5.11773 28.29 6.13461 28.1786 7.19346C28.0673 8.25231 28.2107 9.32243 28.5969 10.3146L39.266 7.69413C40.3591 8.44283 41.4821 9.19154 42.7549 9.5322C43.1253 9.65537 43.5214 9.67988 43.9042 9.60333C44.0935 9.56171 44.2669 9.46653 44.4036 9.32913C44.5403 9.19174 44.6347 9.01793 44.6754 8.82842C44.7353 8.39791 44.4545 8.01607 44.2636 7.63797Z" fill="#263238"/>
<path d="M46.3301 27.3814L44.4583 6.92301C44.407 6.48174 44.192 6.07578 43.8558 5.78536C43.5196 5.49494 43.0867 5.34118 42.6427 5.35447L32.9994 4.27258C29.9708 4.36617 28.5071 8.31186 28.7093 11.3329C28.9526 14.7021 29.3869 18.7788 30.1206 21.2083C31.5955 26.0936 35.5075 26.2059 35.5075 26.2059C35.5075 26.2059 35.53 26.4006 35.7995 28.2087C35.7995 28.2087 36.2899 31.9523 40.464 31.1324C43.1743 30.6009 46.3301 27.3814 46.3301 27.3814Z" fill="#FFBF9D"/>
<path d="M30.4913 15.2374C30.512 15.4044 30.5972 15.5567 30.7287 15.6616C30.8603 15.7666 31.0276 15.8158 31.1951 15.7989C31.2774 15.7942 31.358 15.7731 31.4321 15.7369C31.5062 15.7007 31.5723 15.6501 31.6267 15.5881C31.681 15.5261 31.7225 15.4539 31.7487 15.3757C31.7748 15.2974 31.7852 15.2148 31.7791 15.1326C31.7566 14.9654 31.6705 14.8133 31.5387 14.708C31.4069 14.6027 31.2396 14.5523 31.0715 14.5673C30.989 14.572 30.9083 14.5932 30.8341 14.6297C30.7599 14.6662 30.6938 14.7172 30.6397 14.7796C30.5856 14.8421 30.5446 14.9148 30.5191 14.9935C30.4936 15.0721 30.4841 15.155 30.4913 15.2374Z" fill="#263238"/>
<path d="M29.8772 13.3394C29.967 13.4106 30.405 12.9875 31.0938 12.8939C31.7826 12.8004 32.3367 13.0774 32.4003 12.9838C32.464 12.8902 32.3292 12.8004 32.0859 12.6693C31.7585 12.5053 31.3889 12.4453 31.0264 12.4971C30.6687 12.5434 30.3353 12.7035 30.0756 12.9538C29.8847 13.156 29.8323 13.3057 29.8772 13.3394Z" fill="#263238"/>
<path d="M36.4918 14.3315C36.5133 14.4988 36.5993 14.6511 36.7315 14.7559C36.8636 14.8608 37.0315 14.91 37.1993 14.893C37.2813 14.8878 37.3615 14.8663 37.4351 14.8299C37.5088 14.7935 37.5745 14.7429 37.6285 14.6809C37.6824 14.6189 37.7236 14.5469 37.7495 14.4689C37.7754 14.3909 37.7856 14.3086 37.7795 14.2266C37.758 14.059 37.6721 13.9064 37.5401 13.8009C37.4081 13.6955 37.2402 13.6454 37.072 13.6614C36.9895 13.6661 36.9087 13.6873 36.8346 13.7237C36.7604 13.7602 36.6943 13.8112 36.6402 13.8737C36.5861 13.9362 36.5451 14.0089 36.5196 14.0875C36.4941 14.1662 36.4846 14.2491 36.4918 14.3315Z" fill="#263238"/>
<path d="M36.4695 12.1977C36.5593 12.2725 36.9973 11.8458 37.6861 11.7522C38.3749 11.6586 38.929 11.9356 38.9926 11.842C39.0562 11.7484 38.9215 11.6586 38.6781 11.5313C38.3517 11.3644 37.9816 11.3029 37.6187 11.3554C37.2605 11.4027 36.9271 11.5641 36.6679 11.8158C36.4769 12.0067 36.4245 12.1677 36.4695 12.1977Z" fill="#263238"/>
<path d="M34.8672 17.9964C34.4891 17.9306 34.1042 17.9129 33.7217 17.944C33.542 17.944 33.3698 17.944 33.3249 17.8242C33.2846 17.6441 33.3003 17.4561 33.3698 17.2851C33.4783 16.8359 33.5906 16.368 33.7067 15.8738C34.1709 13.8673 34.4779 12.2276 34.3955 12.2089C34.3131 12.1902 33.8751 13.8036 33.4147 15.8102C33.3061 16.3043 33.1976 16.776 33.1002 17.2252C33.0159 17.4523 33.0159 17.702 33.1002 17.929C33.1334 17.9877 33.1797 18.0379 33.2356 18.0756C33.2915 18.1133 33.3554 18.1374 33.4222 18.1461C33.5242 18.1572 33.6271 18.1572 33.7292 18.1461C34.1132 18.1424 34.4953 18.0921 34.8672 17.9964Z" fill="#263238"/>
<path d="M35.5076 26.2134C37.8634 25.9296 40.094 24.9964 41.9502 23.5181C41.9502 23.5181 40.741 27.2055 35.6798 27.4188L35.5076 26.2134Z" fill="#FF9A6C"/>
<path d="M35.3838 19.6173C35.4925 19.434 35.6462 19.2815 35.8302 19.1741C36.0143 19.0667 36.2227 19.0079 36.4357 19.0034C36.5893 18.995 36.743 19.0182 36.8873 19.0717C37.0315 19.1251 37.1632 19.2076 37.2743 19.3141C37.3832 19.4161 37.4578 19.5493 37.488 19.6954C37.5182 19.8415 37.5024 19.9934 37.4427 20.1302C37.3485 20.2686 37.2153 20.3759 37.06 20.4385C36.9048 20.5012 36.7344 20.5163 36.5705 20.4821C36.2293 20.4099 35.9052 20.2726 35.6159 20.0778C35.5317 20.0306 35.4558 19.9699 35.3913 19.8981C35.3621 19.8632 35.3434 19.8208 35.3374 19.7757C35.3315 19.7306 35.3385 19.6848 35.3576 19.6435" fill="#FF9A6C"/>
<path d="M36.9596 18.1947C36.8473 18.1947 36.9596 18.9434 36.3794 19.5686C35.7991 20.1938 35.0055 20.2162 35.013 20.3173C35.013 20.366 35.2114 20.4371 35.5483 20.3997C35.9871 20.3464 36.3929 20.1395 36.6938 19.8157C36.9849 19.5064 37.1423 19.0948 37.1318 18.6702C37.1206 18.3557 37.012 18.1835 36.9596 18.1947Z" fill="#263238"/>
<path d="M35.8779 9.45361C35.9715 9.62955 36.6491 9.45361 37.4689 9.45361C38.2887 9.45361 38.9663 9.56966 39.0599 9.38997C39.0973 9.30012 38.9588 9.13915 38.6855 9.01561C38.3045 8.83609 37.8861 8.7501 37.4651 8.7648C37.0459 8.77347 36.6344 8.87987 36.2635 9.07551C35.9677 9.19905 35.8367 9.36751 35.8779 9.45361Z" fill="#263238"/>
<path d="M29.6636 10.2997C29.8096 10.4382 30.2588 10.2099 30.8315 10.1238C31.4043 10.0377 31.8984 10.0863 31.9883 9.90664C32.0257 9.82054 31.9284 9.67454 31.6963 9.55474C31.3883 9.41554 31.0459 9.37111 30.7126 9.42711C30.3792 9.4831 30.0701 9.637 29.8245 9.8692C29.6448 10.0601 29.5999 10.2286 29.6636 10.2997Z" fill="#263238"/>
<path d="M45.8546 6.00961C44.593 3.22816 39.936 -0.275785 36.9375 0.289488L32.4452 3.756C32.6993 4.56202 33.1663 5.2845 33.7968 5.84719C34.4274 6.40989 35.1982 6.79192 36.0278 6.95298C36.9113 7.11021 37.9482 7.06154 38.5434 7.73538C39.1387 8.40921 38.974 9.55474 39.5505 10.2697C40.3441 11.2655 42.1709 10.9997 42.8036 12.1003C43.0844 12.5795 43.0394 13.2009 43.3277 13.6764C43.702 14.309 45.5064 14.9604 46.1803 14.6534C46.8541 14.3465 46.7193 13.156 46.8728 12.5046C47.0795 11.7601 47.024 10.967 46.7156 10.2585C46.2439 8.89213 46.4535 7.33856 45.8546 6.00961Z" fill="#263238"/>
<path d="M44.1813 15.4882C44.1326 15.1138 44.4433 14.1817 44.8027 14.0731C45.761 13.7886 47.5392 13.6239 47.8986 16.1133C48.3852 19.5162 44.8701 19.3028 44.8476 19.2055C44.8252 19.1081 44.3535 16.7722 44.1813 15.4882Z" fill="#FFBF9D"/>
<path d="M45.7009 17.768C45.7009 17.768 45.7682 17.8017 45.8731 17.8316C46.0229 17.871 46.182 17.8522 46.3185 17.7792C46.6592 17.5958 46.8801 16.9818 46.8089 16.3642C46.7753 16.0716 46.6768 15.7903 46.5207 15.5406C46.4721 15.4419 46.4005 15.3563 46.3119 15.2912C46.2233 15.226 46.1203 15.1832 46.0116 15.1662C45.9409 15.1575 45.8693 15.1737 45.8092 15.2119C45.7491 15.2502 45.7042 15.3081 45.6822 15.3759C45.6522 15.4807 45.6822 15.5443 45.6822 15.5518C45.6822 15.5593 45.5998 15.5069 45.6073 15.3609C45.614 15.2736 45.6511 15.1915 45.7121 15.1288C45.7957 15.0451 45.9083 14.9969 46.0266 14.994C46.1702 15.0021 46.3093 15.0469 46.4306 15.1243C46.5519 15.2016 46.6513 15.3089 46.7191 15.4358C46.9083 15.7078 47.0255 16.0233 47.0598 16.3529C47.1384 17.0417 46.8801 17.7343 46.4084 17.9439C46.3222 17.9862 46.2274 18.0082 46.1314 18.0082C46.0353 18.0082 45.9406 17.9862 45.8544 17.9439C45.7196 17.8503 45.6934 17.7755 45.7009 17.768Z" fill="#FF9A6C"/>
<path d="M33.3359 2.62549C33.1562 4.04803 31.2171 6.03959 30.3935 7.21132C28.825 9.45744 28.5405 10.1725 29.0084 14.7882C28.0164 13.2908 27.2265 11.7934 27.1142 9.96656C26.975 8.14358 27.5076 6.33267 28.6116 4.87535C29.1698 4.15994 29.8871 3.58447 30.7065 3.19458C31.5259 2.8047 32.4249 2.61113 33.3322 2.62923" fill="#263238"/>
<path d="M47.5913 5.79616C47.4089 5.87939 47.2198 5.94702 47.026 5.99832C46.8426 6.05821 46.6142 6.1256 46.3447 6.18549C46.0752 6.24539 45.7757 6.33149 45.4313 6.38016C44.6317 6.52838 43.822 6.61598 43.0092 6.6422C42.0145 6.66908 41.0192 6.61525 40.0331 6.48123C39.0478 6.33567 38.0762 6.10904 37.1281 5.80365C36.358 5.5503 35.6073 5.24127 34.882 4.879C34.5638 4.733 34.298 4.56829 34.0584 4.43352C33.8188 4.29875 33.6167 4.17147 33.4595 4.05917C33.2869 3.95515 33.1229 3.83748 32.9691 3.70728C33.1544 3.78603 33.3323 3.88125 33.5006 3.99178C33.6654 4.08911 33.875 4.20891 34.1146 4.3287C34.3542 4.44849 34.6275 4.60947 34.9419 4.74423C35.6708 5.08481 36.4211 5.37743 37.188 5.62022C38.13 5.90999 39.0922 6.12897 40.0668 6.27534C41.0419 6.40656 42.0254 6.46537 43.0092 6.45128C43.8144 6.43387 44.6174 6.36132 45.4126 6.23416C45.7532 6.19298 46.0565 6.12185 46.3223 6.06944C46.588 6.01703 46.8201 5.96463 47.0073 5.91596C47.1977 5.85729 47.3932 5.81717 47.5913 5.79616Z" fill="#455A64"/>
<path d="M48.1865 8.21082C48.0688 8.27333 47.9427 8.31871 47.8122 8.34558C47.4539 8.44887 47.0902 8.53259 46.7228 8.5964C44.284 9.0198 41.7761 8.77664 39.4641 7.89262C39.1045 7.76335 38.7532 7.61208 38.4122 7.43965C38.2855 7.38841 38.167 7.31906 38.0603 7.23375C38.0603 7.20381 38.5993 7.45462 39.4828 7.75785C41.7906 8.55196 44.2534 8.78926 46.6704 8.4504C47.6138 8.32312 48.179 8.17713 48.1865 8.21082Z" fill="#455A64"/>
<path d="M84.4877 101.837L91.8549 98.8417L95.0332 104.461L93.4871 107.8L86.6514 110.143L84.4877 101.837Z" fill="#FFBF9D"/>
<path d="M93.0679 108.635L93.6294 108.414C93.6294 108.414 101.218 116.582 103.067 115.961L95.5124 96.7341L89.3244 99.553C91.7464 101.878 93.0679 104.813 93.0679 108.635Z" fill="#455A64"/>
<g opacity="0.6">
<path d="M92.0947 100.68C92.0767 100.474 92.135 100.269 92.2586 100.103C92.3821 99.9373 92.5623 99.8229 92.7648 99.7814C92.9695 99.7575 93.1755 99.8134 93.34 99.9375C93.5046 100.062 93.615 100.244 93.6482 100.448C93.668 100.666 93.6062 100.883 93.4748 101.058C93.3434 101.233 93.1518 101.353 92.937 101.395C92.7206 101.398 92.5114 101.317 92.3536 101.169C92.1957 101.021 92.1016 100.817 92.0909 100.601" fill="white"/>
</g>
<g opacity="0.6">
<path d="M95.5087 96.7341L94.0113 97.4117L101.802 115.594C101.802 115.594 102.502 116.302 103.056 115.968L95.5087 96.7341Z" fill="white"/>
</g>
<path d="M93.7043 108.459C93.7978 108.418 93.6556 107.931 93.7679 107.336C93.8802 106.741 94.1759 106.348 94.1048 106.276C94.0337 106.205 93.5583 106.561 93.431 107.268C93.3037 107.976 93.6294 108.515 93.7043 108.459Z" fill="#263238"/>
<path d="M95.3142 110.143C95.4115 110.143 95.4115 109.657 95.6885 109.181C95.9656 108.706 96.3324 108.433 96.2912 108.35C96.2501 108.268 95.7035 108.41 95.3853 109.013C95.0671 109.616 95.2281 110.177 95.3142 110.143Z" fill="#263238"/>
<path d="M98.1404 110.323C98.1404 110.23 97.6163 110.29 97.2045 110.735C96.7927 111.18 96.7665 111.701 96.8564 111.708C96.9462 111.716 97.1147 111.334 97.4553 110.96C97.796 110.585 98.1704 110.421 98.1404 110.323Z" fill="#263238"/>
<path d="M88.2835 100.04C88.2835 100.04 82.5334 101.608 78.5877 102.342C74.6421 103.076 70.1124 104.131 66.9828 104.962C63.6847 105.82 62.221 106.306 62.221 106.306C62.221 106.306 61.4723 107.283 60.9108 103.409C60.3493 99.5343 58.6272 85.5409 58.6272 85.5409L56.733 79.5213L45.3601 77.5298L39.3256 85.4923C39.3256 85.4923 44.7799 103.199 46.6367 106.864C48.4935 110.529 51.1289 121.209 57.5453 119.543C61.3413 118.559 90.9863 109.249 90.9863 109.249L88.2835 100.04Z" fill="#263238"/>
<path opacity="0.3" d="M59.2301 90.5647L59.2788 90.9616L59.4023 91.9461L50.6911 87.7496C50.6911 87.7496 50.635 91.7514 42.4554 94.8623L41.4147 93.0505V87.7496L47.7375 82.8344H52.1099L59.0767 88.0753" fill="black"/>
<path d="M41.6279 93.0991C41.8871 94.1341 42.2071 95.1528 42.5862 96.1501C42.9066 97.1703 43.2878 98.1704 43.728 99.1449C43.4709 98.1094 43.1509 97.0905 42.7697 96.0939C42.4533 95.0724 42.072 94.072 41.6279 93.0991Z" fill="#455A64"/>
<path d="M59.0468 110.061C59.4227 109.346 59.8598 108.664 60.3533 108.025C60.8991 107.43 61.4953 106.884 62.1353 106.392C61.9045 106.467 61.6889 106.582 61.4989 106.733C61.0155 107.061 60.5797 107.454 60.2036 107.901C59.829 108.348 59.5155 108.843 59.2715 109.372C59.1568 109.587 59.0808 109.82 59.0468 110.061Z" fill="#455A64"/>
<path d="M58.0472 75.2013C58.0472 75.2013 59.9414 80.1428 59.874 82.9317C59.8066 85.7207 60.896 91.3097 60.896 91.3097C60.896 91.3097 50.6649 85.818 49.9012 85.1516C49.9012 85.1516 50.6499 90.6621 41.9575 93.2302L41.2088 93.5184L38.5396 85.4698C37.6208 84.0526 36.8446 82.5478 36.2224 80.9776C35.5186 78.9486 34.5378 75.2088 34.5378 75.2088L53.9592 69.6833L58.0472 75.2013Z" fill="#455A64"/>
<path d="M34.5266 80.7792C34.5266 80.7792 29.7498 87.3715 29.6825 88.4497L41.8265 90.8568L42.9495 86.2298L43.4399 81.4118L34.5266 80.7792Z" fill="#455A64"/>
<path d="M53.0645 37.2008C52.9373 37.5527 50.4441 46.159 50.4441 46.159L48.9466 58.6512C48.9466 58.6512 51.466 66.0447 53.5886 68.463C60.1698 75.9838 59.4585 78.0352 59.4585 78.0352C59.4585 78.0352 48.3252 75.0404 42.8409 75.864C37.3567 76.6876 38.8503 86.1175 30.8616 83.8789L30.9253 76.1897C30.9253 76.1897 29.922 69.0957 29.6712 66.6175C29.4204 64.1392 29.761 55.2334 29.761 55.2334C29.761 55.2334 27.017 46.5109 27.017 43.6846C27.017 40.8582 26.3619 40.7347 28.623 36.8451C30.8841 32.9556 34.2383 27.7708 34.2383 27.7708L46.8278 26.7076L53.8058 33.899L53.0645 37.2008Z" fill="#E0E0E0"/>
<path d="M37.4015 82.6023C37.3529 82.6023 38.0566 84.9382 38.9776 87.7796C39.8985 90.6209 40.6846 92.9157 40.737 92.897C40.7894 92.8783 40.0819 90.5648 39.161 87.7197C38.2401 84.8746 37.4539 82.5836 37.4015 82.6023Z" fill="#263238"/>
<path d="M53.4948 37.5526C55.1531 37.998 56.6206 38.5109 58.4325 37.5526C60.2443 36.5942 61.7605 34.7973 61.8017 32.7459C61.8241 31.0688 61.8279 27.9766 60.4802 26.9771C59.1325 25.9776 52.9332 24.9593 49.463 24.9706C36.1023 25.0117 34.3803 27.2167 32.2427 28.3135C32.1534 28.7017 32.1823 29.1078 32.3258 29.4794C32.4692 29.851 32.7206 30.1712 33.0476 30.3987" fill="#FF725E"/>
<path d="M54.6333 35.0557C54.6333 35.0557 54.2589 42.4154 53.7086 45.1969C53.1583 47.9783 50.9459 56.304 50.9459 56.304C50.9459 56.304 52.1738 56.7644 51.9904 58.4303C51.9904 58.4303 53.3193 59.587 53.4691 62.1326C53.6188 64.6782 52.8813 65.7863 52.8813 65.7863L54.3188 68.6763L30.2255 73.2322L29.8212 70.5107C29.8212 70.5107 28.0767 71.6337 27.7585 66.3928C27.4403 61.1518 28.0654 57.2398 27.7884 52.4294C27.5114 47.619 25.7183 45.7434 26.1787 41.3972C26.4333 38.8441 34.538 28.1301 34.538 28.1301C34.538 28.1301 46.3152 26.1273 47.4981 27.4151C48.6811 28.7029 54.6333 35.0557 54.6333 35.0557Z" fill="#FF725E"/>
<g opacity="0.3">
<path d="M29.0535 57.7377C34.8485 54.4808 39.0563 49.0639 43.103 43.7855L43.5298 42.7299C43.1143 44.9348 42.9982 48.0082 42.5789 50.2169C42.3005 52.0191 41.8415 53.7887 41.2088 55.4991C40.5714 57.2199 39.4315 58.7093 37.9369 59.7742C35.3165 61.4999 31.7601 61.2154 29.0086 59.7367C28.6043 59.5196 28.1663 59.1939 28.1738 58.7372C28.1813 58.2805 28.653 57.9698 29.0535 57.7377Z" fill="black"/>
</g>
<path d="M55.1533 39.8286C55.0604 40.0327 54.9853 40.2443 54.9287 40.4613C54.7977 40.8693 54.6217 41.4683 54.4158 42.2095C54.0003 43.7069 53.4987 45.7584 52.9671 48.0457C52.4355 50.333 51.9489 52.4031 51.5633 53.8893C51.3724 54.6118 51.2151 55.2033 51.0991 55.6525C51.0317 55.8655 50.9803 56.0832 50.9456 56.3039C51.0364 56.099 51.1115 55.8875 51.1702 55.6712C51.3087 55.2632 51.4847 54.668 51.6943 53.9268C52.1173 52.4293 52.6302 50.3779 53.158 48.0906C53.6859 45.8033 54.1688 43.7331 54.5469 42.2432C54.734 41.5244 54.8875 40.9292 55.0036 40.48C55.0689 40.2667 55.119 40.049 55.1533 39.8286Z" fill="#263238"/>
<path d="M43.4662 60.6052C43.8839 60.4788 44.2928 60.325 44.6903 60.1448C45.439 59.849 46.4723 59.4373 47.644 59.0741C48.644 58.7647 49.6684 58.5405 50.7062 58.404C51.5036 58.3067 52.0015 58.2992 52.0015 58.2655C51.8867 58.2359 51.7677 58.2257 51.6496 58.2356C51.3297 58.2271 51.0097 58.2384 50.6912 58.2693C49.6375 58.365 48.5971 58.5733 47.5878 58.8907C46.5814 59.2046 45.595 59.5797 44.6342 60.0138C44.2598 60.1822 43.9716 60.3207 43.7694 60.4256C43.6609 60.472 43.559 60.5324 43.4662 60.6052Z" fill="#263238"/>
<path d="M28.5782 70.2149C28.647 70.2642 28.7196 70.308 28.7953 70.3459C29.0133 70.4602 29.2414 70.5542 29.4766 70.6267C30.3516 70.8584 31.2633 70.9169 32.1607 70.7989C35.0867 70.3566 37.988 69.7643 40.8532 69.0244C44.2224 68.2046 47.2584 67.4334 49.4633 66.9243L52.0838 66.3403L52.7988 66.1831C52.8833 66.1691 52.966 66.1465 53.0459 66.1157C52.9602 66.1164 52.8748 66.1264 52.7913 66.1457L52.0688 66.2655C51.4437 66.374 50.5452 66.5537 49.4484 66.7896C47.2284 67.265 44.1812 68.0174 40.8195 68.8373C37.4578 69.6571 34.3956 70.3347 32.157 70.6604C31.2745 70.7896 30.3756 70.7528 29.5066 70.5518C29.1911 70.4567 28.8812 70.3442 28.5782 70.2149Z" fill="#263238"/>
<g opacity="0.3">
<path d="M57.5342 37.7997C56.6432 39.2971 54.7265 40.0233 52.9895 39.795C51.2525 39.5666 49.7027 38.5334 48.5198 37.2381C47.3368 35.9429 46.4758 34.3968 45.626 32.8657L43.3162 28.7029C46.0565 29.8447 46.9886 33.0154 49.0626 35.1418C51.1365 37.2681 55.1533 38.6757 57.5342 37.7997Z" fill="black"/>
</g>
<path d="M43.0843 28.7253C43.0843 28.7253 43.3576 28.7927 43.833 29.0024C44.4755 29.3158 45.0503 29.752 45.5251 30.2864C46.2165 31.096 46.8236 31.9741 47.3369 32.9069C47.6614 33.4509 48.0151 33.977 48.3964 34.4829C48.8204 35.0209 49.3124 35.5015 49.8601 35.9129C50.9185 36.7023 52.1069 37.3003 53.3715 37.6799C54.3976 38.009 55.4728 38.1584 56.5498 38.1216C57.2804 38.1071 57.9969 37.9171 58.6387 37.5676C58.8104 37.4708 58.97 37.354 59.1141 37.2194C59.1668 37.1748 59.2145 37.1246 59.2563 37.0697C59.0462 37.2265 58.8275 37.3715 58.6012 37.5039C57.9598 37.8168 57.2559 37.9806 56.5423 37.9831C55.4835 38.0008 54.4293 37.8401 53.4239 37.5077C52.1839 37.1245 51.018 36.5334 49.9761 35.7594C49.4433 35.3566 48.9629 34.8888 48.5461 34.3668C48.1671 33.8679 47.8148 33.3493 47.4904 32.8133C46.9615 31.8757 46.3341 30.9972 45.6187 30.1928C45.1251 29.6568 44.5261 29.2286 43.8592 28.935C43.6774 28.8603 43.4895 28.8015 43.2977 28.759C43.2285 28.7375 43.1567 28.7262 43.0843 28.7253Z" fill="#263238"/>
<path d="M45.2403 57.472C45.2665 57.5319 46.4869 56.9554 48.1041 56.6372C49.0873 56.4761 50.0782 56.3662 51.0728 56.3077C50.7844 56.2421 50.4882 56.2182 50.193 56.2366C49.4791 56.2374 48.767 56.3076 48.0667 56.4462C47.3678 56.5856 46.6844 56.7937 46.0265 57.0677C45.7472 57.166 45.4827 57.302 45.2403 57.472Z" fill="#263238"/>
<path d="M51.8888 58.2207C51.8626 58.2469 52.1771 58.5951 52.5514 59.209C52.7691 59.5766 52.9544 59.9624 53.1055 60.362C53.2785 60.8542 53.4039 61.3619 53.4798 61.8781C53.5508 62.3953 53.5709 62.9181 53.5397 63.4392C53.507 63.866 53.4381 64.2893 53.3338 64.7045C53.1542 65.412 52.9595 65.8276 52.9819 65.8276C53.0486 65.7428 53.104 65.6496 53.1467 65.5505C53.2061 65.4383 53.2574 65.322 53.3002 65.2024C53.3645 65.0482 53.4207 64.8908 53.4686 64.7307C53.5941 64.3109 53.6769 63.8794 53.7157 63.4429C53.7609 62.9077 53.7471 62.3691 53.6745 61.837C53.5927 61.3072 53.4546 60.7876 53.2627 60.2871C53.1 59.8798 52.8968 59.4897 52.6563 59.1229C52.5663 58.9829 52.4689 58.848 52.3643 58.7186C52.2877 58.6177 52.2052 58.5214 52.1172 58.4303C51.9749 58.2918 51.8888 58.2132 51.8888 58.2207Z" fill="#263238"/>
<g opacity="0.3">
<path d="M55.0374 40.0195C55.283 41.8548 54.8286 43.7152 53.7646 45.2305C54.1352 43.4786 54.6481 41.779 55.0374 40.0195Z" fill="black"/>
</g>
<path d="M15.3969 51.1304C15.3969 51.1304 13.4241 48.8206 12.9262 48.6522C12.4283 48.4837 10.2234 47.9896 9.97631 48.1955C9.83327 48.3184 9.66234 48.4045 9.47841 48.4463C9.47841 48.4463 7.56546 48.5698 7.35957 49.4009C7.15368 50.232 7.23229 50.6475 7.06757 50.771C6.90286 50.8946 6.44241 51.4786 6.56969 51.9353C6.6937 52.3669 6.74928 52.8154 6.73441 53.2642C6.6266 53.6014 6.56366 53.9513 6.54723 54.3049C6.59312 54.6605 6.68368 55.0089 6.81676 55.3419C6.73776 55.5332 6.71171 55.7422 6.74135 55.9471C6.77099 56.152 6.85522 56.345 6.98522 56.5061C7.44193 56.9628 9.13026 57.0864 9.72548 57.0901C10.4742 57.0901 11.9978 57.3896 12.4994 57.18C12.7993 57.0559 13.1085 56.9558 13.4241 56.8805L17.4484 57.3596L18.0698 50.8833L15.3969 51.1304Z" fill="#FFBF9D"/>
<path d="M9.23874 48.5248C9.6721 48.6106 10.1114 48.6632 10.5527 48.6821C10.9863 48.764 11.4256 48.8116 11.8667 48.8243C11.465 48.6216 11.0247 48.5068 10.5752 48.4874C10.1322 48.4037 9.67636 48.4165 9.23874 48.5248Z" fill="#FF9A6C"/>
<path d="M44.0278 41.2811C42.5304 45.3354 41.1116 50.7822 40.0597 53.9305C38.6334 58.2094 34.2085 59.8004 31.9475 59.9726C29.0537 60.1897 14.9518 57.5206 14.9518 57.5206L15.6032 50.4079L17.2017 50.449C17.5143 50.162 17.9052 49.9744 18.3247 49.91C21.2934 49.2099 29.2933 49.7939 29.2933 49.7939C29.2933 49.7939 31.4458 41.1426 31.9138 36.8937C32.2881 33.5245 32.2881 28.029 37.5553 27.7108C40.9806 27.8718 43.193 29.1371 44.0278 32.8058" fill="#FF725E"/>
<path d="M44.0275 32.8208C44.0275 32.8208 44.0275 32.7684 43.9976 32.671C43.9676 32.5737 43.9377 32.4202 43.889 32.2293C43.7355 31.6596 43.5143 31.1104 43.2301 30.5934C42.7717 29.752 42.087 29.0557 41.2535 28.5831C40.1087 27.9982 38.8442 27.6856 37.5587 27.6697L36.9859 27.7408C36.7883 27.7585 36.5927 27.7948 36.4019 27.8494L35.8104 28.0141L35.2377 28.2799C34.4558 28.7094 33.808 29.3469 33.3659 30.1217C32.8926 30.9643 32.56 31.8785 32.3814 32.8283C32.1835 33.8403 32.0423 34.8627 31.9584 35.8905C31.7196 38.1265 31.3559 40.3474 30.869 42.5427C30.3823 44.8637 29.8283 47.2858 29.2143 49.7865L29.3117 49.7191C27.395 49.5881 25.3997 49.4982 23.352 49.487C22.3262 49.487 21.2855 49.487 20.2336 49.5731C19.7039 49.6074 19.1765 49.6711 18.6538 49.764C18.3871 49.8063 18.1242 49.8702 17.8677 49.9549C17.6025 50.0493 17.3601 50.1986 17.1564 50.3929L17.2275 50.3667L15.6291 50.3255H15.5392V50.4191V50.5165C15.3183 52.9161 15.1012 55.2708 14.8953 57.5169V57.603H14.9814C17.8452 58.1383 20.6304 58.625 23.3145 59.0555C24.6597 59.2726 25.9762 59.4685 27.264 59.6432C28.5555 59.8191 29.817 59.9726 31.0599 60.04C32.2762 60.0952 33.4898 59.8844 34.6163 59.4223C35.6821 59.0154 36.6766 58.4418 37.5624 57.7228C38.3794 57.0431 39.0635 56.2181 39.5802 55.2895C40.017 54.4223 40.3608 53.5112 40.6059 52.5717C41.6691 49.0415 42.4777 46.2077 43.0916 44.261C43.3986 43.2877 43.6494 42.5427 43.8216 42.0374C43.904 41.7903 43.9714 41.5994 44.0163 41.4646C44.0397 41.4008 44.0597 41.3359 44.0762 41.2699C44.0762 41.2699 44.05 41.3298 44.0013 41.4571C43.9526 41.5844 43.8778 41.7791 43.7879 42.0261C43.6045 42.5278 43.3424 43.269 43.0392 44.2386C42.3953 46.1702 41.5755 49.0116 40.4974 52.5342C40.2488 53.4636 39.9038 54.3645 39.4679 55.2221C38.9575 56.1335 38.2822 56.9421 37.4763 57.6067C36.6009 58.3103 35.6207 58.8724 34.5713 59.2726C33.4636 59.7203 32.2721 59.9234 31.0786 59.8678C29.847 59.8004 28.5854 59.6432 27.2977 59.4673C26.0099 59.2913 24.6959 59.0929 23.3557 58.872C20.6753 58.4378 17.8902 57.9511 15.0301 57.4158L15.1087 57.5169C15.3146 55.2708 15.5317 52.9198 15.7526 50.5202V50.4229L15.6553 50.509L17.25 50.5502H17.2912L17.3211 50.5202C17.7165 50.1871 18.2059 49.9856 18.7212 49.9437C19.2363 49.8514 19.7563 49.7889 20.2785 49.7565C21.3192 49.6817 22.3562 49.6667 23.3782 49.6667C25.4221 49.6667 27.4137 49.764 29.3267 49.8913H29.4053L29.424 49.8127C30.0379 47.3083 30.5882 44.8862 31.0674 42.5615C31.5548 40.3591 31.9147 38.1305 32.1455 35.8867C32.2268 34.8642 32.3643 33.8469 32.5573 32.8395C32.7287 31.9039 33.0511 31.0024 33.5119 30.1704C33.945 29.4143 34.5785 28.7924 35.3425 28.3735L35.8965 28.1114L36.4731 27.9467C36.6596 27.8904 36.8516 27.854 37.0458 27.8381L37.6111 27.7633C38.8816 27.7722 40.133 28.0732 41.2685 28.643C42.0927 29.1021 42.7732 29.7813 43.2339 30.6046C43.522 31.1146 43.7506 31.656 43.9152 32.2181L44.0387 32.6561L44.0275 32.8208Z" fill="#263238"/>
<path d="M31.1987 53.9605C30.1081 52.7607 29.4493 51.2311 29.327 49.6143C29.2718 49.8498 29.2616 50.0937 29.297 50.333C29.3443 50.9148 29.4859 51.485 29.7163 52.0214C29.9454 52.5586 30.2616 53.0544 30.6522 53.4888C30.801 53.681 30.9869 53.8414 31.1987 53.9605Z" fill="#263238"/>
<path d="M16.7 57.7041C16.8989 56.5156 17.0326 55.3171 17.1006 54.114C17.2317 52.9155 17.2992 51.7109 17.3027 50.5052C17.1043 51.6949 16.9718 52.8947 16.9059 54.099C16.7727 55.2961 16.7039 56.4996 16.7 57.7041Z" fill="#263238"/>
</svg>
